solid OpenSCAD_Model
  facet normal 0 0 -1
    outer loop
      vertex 112.5 330 0
      vertex 287.5 370 0
      vertex 287.5 330 0
    endloop
  endfacet
  facet normal -0 0 -1
    outer loop
      vertex 287.5 370 0
      vertex 112.5 330 0
      vertex 112.5 370 0
    endloop
  endfacet
  facet normal 0 1 -0
    outer loop
      vertex 287.5 370 0
      vertex 250 370 3
      vertex 287.5 370 3
    endloop
  endfacet
  facet normal 0 1 0
    outer loop
      vertex 250 370 3
      vertex 287.5 370 0
      vertex 150 370 3
    endloop
  endfacet
  facet normal 0 1 0
    outer loop
      vertex 112.5 370 0
      vertex 150 370 3
      vertex 287.5 370 0
    endloop
  endfacet
  facet normal 0 1 0
    outer loop
      vertex 150 370 3
      vertex 112.5 370 0
      vertex 112.5 370 3
    endloop
  endfacet
  facet normal 0 1 -0
    outer loop
      vertex 250 370 3
      vertex 150 370 6
      vertex 250 370 6
    endloop
  endfacet
  facet normal 0 1 0
    outer loop
      vertex 150 370 6
      vertex 250 370 3
      vertex 150 370 3
    endloop
  endfacet
  facet normal 0 -1 0
    outer loop
      vertex 112.5 330 0
      vertex 150 330 3
      vertex 112.5 330 3
    endloop
  endfacet
  facet normal 0 -1 -0
    outer loop
      vertex 150 330 3
      vertex 112.5 330 0
      vertex 250 330 3
    endloop
  endfacet
  facet normal 0 -1 0
    outer loop
      vertex 287.5 330 0
      vertex 250 330 3
      vertex 112.5 330 0
    endloop
  endfacet
  facet normal 0 -1 0
    outer loop
      vertex 250 330 3
      vertex 287.5 330 0
      vertex 287.5 330 3
    endloop
  endfacet
  facet normal 0 -1 0
    outer loop
      vertex 150 330 3
      vertex 250 330 6
      vertex 150 330 6
    endloop
  endfacet
  facet normal 0 -1 -0
    outer loop
      vertex 250 330 6
      vertex 150 330 3
      vertex 250 330 3
    endloop
  endfacet
  facet normal -1 0 0
    outer loop
      vertex 112.5 330 0
      vertex 112.5 370 3
      vertex 112.5 370 0
    endloop
  endfacet
  facet normal -1 -0 0
    outer loop
      vertex 112.5 370 3
      vertex 112.5 330 0
      vertex 112.5 330 3
    endloop
  endfacet
  facet normal -0 0 1
    outer loop
      vertex 112.5 370 3
      vertex 150 330 3
      vertex 150 370 3
    endloop
  endfacet
  facet normal 0 0 1
    outer loop
      vertex 150 330 3
      vertex 112.5 370 3
      vertex 112.5 330 3
    endloop
  endfacet
  facet normal -0 0 1
    outer loop
      vertex 250 370 3
      vertex 287.5 330 3
      vertex 287.5 370 3
    endloop
  endfacet
  facet normal 0 0 1
    outer loop
      vertex 287.5 330 3
      vertex 250 370 3
      vertex 250 330 3
    endloop
  endfacet
  facet normal 1 -0 0
    outer loop
      vertex 287.5 330 3
      vertex 287.5 370 0
      vertex 287.5 370 3
    endloop
  endfacet
  facet normal 1 0 0
    outer loop
      vertex 287.5 370 0
      vertex 287.5 330 3
      vertex 287.5 330 0
    endloop
  endfacet
  facet normal -0 0 1
    outer loop
      vertex 150 370 6
      vertex 250 330 6
      vertex 250 370 6
    endloop
  endfacet
  facet normal 0 0 1
    outer loop
      vertex 250 330 6
      vertex 150 370 6
      vertex 150 330 6
    endloop
  endfacet
  facet normal -1 0 0
    outer loop
      vertex 150 330 3
      vertex 150 370 6
      vertex 150 370 3
    endloop
  endfacet
  facet normal -1 -0 0
    outer loop
      vertex 150 370 6
      vertex 150 330 3
      vertex 150 330 6
    endloop
  endfacet
  facet normal 1 -0 0
    outer loop
      vertex 250 330 6
      vertex 250 370 3
      vertex 250 370 6
    endloop
  endfacet
  facet normal 1 0 0
    outer loop
      vertex 250 370 3
      vertex 250 330 6
      vertex 250 330 3
    endloop
  endfacet
endsolid OpenSCAD_Model
