solid OpenSCAD_Model
  facet normal -0 0 -1
    outer loop
      vertex 102.354 164.147 0
      vertex 94.5983 162.657 0
      vertex 101.669 165.164 0
    endloop
  endfacet
  facet normal 0 -0 -1
    outer loop
      vertex 99.2668 175.762 0
      vertex 101.417 166.41 0
      vertex 94.5983 162.657 0
    endloop
  endfacet
  facet normal 0 0 -1
    outer loop
      vertex 101.417 166.41 0
      vertex 100.598 175.762 0
      vertex 101.142 176.129 0
    endloop
  endfacet
  facet normal 0 0 -1
    outer loop
      vertex 101.417 166.41 0
      vertex 99.9325 175.628 0
      vertex 100.598 175.762 0
    endloop
  endfacet
  facet normal 0 0 -1
    outer loop
      vertex 101.417 166.41 0
      vertex 99.2668 175.762 0
      vertex 99.9325 175.628 0
    endloop
  endfacet
  facet normal -0 0 -1
    outer loop
      vertex 99.2668 175.762 0
      vertex 94.5983 162.657 0
      vertex 98.7232 176.129 0
    endloop
  endfacet
  facet normal -0 0 -1
    outer loop
      vertex 98.7232 176.129 0
      vertex 94.5983 162.657 0
      vertex 98.3567 176.672 0
    endloop
  endfacet
  facet normal 0 0 -1
    outer loop
      vertex 94.5983 117.343 0
      vertex 101.417 113.612 0
      vertex 94.5983 112.5 0
    endloop
  endfacet
  facet normal 0 0 -1
    outer loop
      vertex 94.5983 112.5 0
      vertex 101.417 113.612 0
      vertex 101.642 112.5 0
    endloop
  endfacet
  facet normal 0 0 -1
    outer loop
      vertex 104.617 116.812 0
      vertex 112.5 163.21 0
      vertex 112.5 116.805 0
    endloop
  endfacet
  facet normal 0 0 -1
    outer loop
      vertex 104.617 116.812 0
      vertex 104.617 163.21 0
      vertex 112.5 163.21 0
    endloop
  endfacet
  facet normal 0 0 -1
    outer loop
      vertex 83.9305 140.006 0
      vertex 104.617 116.812 0
      vertex 103.371 116.561 0
    endloop
  endfacet
  facet normal 0 0 -1
    outer loop
      vertex 104.617 116.812 0
      vertex 83.9305 140.006 0
      vertex 104.617 163.21 0
    endloop
  endfacet
  facet normal 0 0 -1
    outer loop
      vertex 83.9305 140.006 0
      vertex 103.371 116.561 0
      vertex 102.354 115.875 0
    endloop
  endfacet
  facet normal -0 0 -1
    outer loop
      vertex 104.617 163.21 0
      vertex 83.9305 140.006 0
      vertex 103.371 163.461 0
    endloop
  endfacet
  facet normal 0 0 -1
    outer loop
      vertex 83.9305 140.006 0
      vertex 102.354 115.875 0
      vertex 101.669 114.858 0
    endloop
  endfacet
  facet normal 0 -0 -1
    outer loop
      vertex 94.5983 162.657 0
      vertex 103.371 163.461 0
      vertex 83.9305 140.006 0
    endloop
  endfacet
  facet normal 0 0 -1
    outer loop
      vertex 83.9305 140.006 0
      vertex 101.669 114.858 0
      vertex 101.417 113.612 0
    endloop
  endfacet
  facet normal -0 0 -1
    outer loop
      vertex 103.371 163.461 0
      vertex 94.5983 162.657 0
      vertex 102.354 164.147 0
    endloop
  endfacet
  facet normal 0 0 -1
    outer loop
      vertex 103.371 169.359 0
      vertex 105.266 170.13 0
      vertex 104.617 169.61 0
    endloop
  endfacet
  facet normal 0 0 -1
    outer loop
      vertex 105.266 170.13 0
      vertex 101.643 177.338 0
      vertex 105.266 184.535 0
    endloop
  endfacet
  facet normal -0 0 -1
    outer loop
      vertex 105.266 170.13 0
      vertex 103.371 169.359 0
      vertex 101.142 176.129 0
    endloop
  endfacet
  facet normal 0 0 -1
    outer loop
      vertex 101.508 178.004 0
      vertex 105.266 184.535 0
      vertex 101.643 177.338 0
    endloop
  endfacet
  facet normal 0 0 -1
    outer loop
      vertex 101.142 176.129 0
      vertex 103.371 169.359 0
      vertex 102.354 168.673 0
    endloop
  endfacet
  facet normal 0 0 -1
    outer loop
      vertex 101.142 178.547 0
      vertex 105.266 184.535 0
      vertex 101.508 178.004 0
    endloop
  endfacet
  facet normal 0 0 -1
    outer loop
      vertex 101.142 176.129 0
      vertex 102.354 168.673 0
      vertex 101.669 167.656 0
    endloop
  endfacet
  facet normal 0 -0 -1
    outer loop
      vertex 103.371 185.328 0
      vertex 105.266 184.535 0
      vertex 101.142 178.547 0
    endloop
  endfacet
  facet normal 0 0 -1
    outer loop
      vertex 105.266 184.535 0
      vertex 103.371 185.328 0
      vertex 104.617 185.076 0
    endloop
  endfacet
  facet normal 0 0 -1
    outer loop
      vertex 105.266 170.13 0
      vertex 101.508 176.672 0
      vertex 101.643 177.338 0
    endloop
  endfacet
  facet normal 0 0 -1
    outer loop
      vertex 101.142 176.129 0
      vertex 101.669 167.656 0
      vertex 101.417 166.41 0
    endloop
  endfacet
  facet normal 0 0 -1
    outer loop
      vertex 105.266 170.13 0
      vertex 101.142 176.129 0
      vertex 101.508 176.672 0
    endloop
  endfacet
  facet normal 0 0 -1
    outer loop
      vertex 100.598 178.914 0
      vertex 103.371 185.328 0
      vertex 101.142 178.547 0
    endloop
  endfacet
  facet normal 0 0 -1
    outer loop
      vertex 99.9325 179.048 0
      vertex 103.371 185.328 0
      vertex 100.598 178.914 0
    endloop
  endfacet
  facet normal -0 0 -1
    outer loop
      vertex 103.371 185.328 0
      vertex 99.9325 179.048 0
      vertex 102.354 186.014 0
    endloop
  endfacet
  facet normal 0 0 -1
    outer loop
      vertex 112.5 191.47 0
      vertex 104.736 206.13 0
      vertex 112.5 230.878 0
    endloop
  endfacet
  facet normal 0 0 -1
    outer loop
      vertex 104.617 191.477 0
      vertex 104.736 206.13 0
      vertex 112.5 191.47 0
    endloop
  endfacet
  facet normal 0 0 -1
    outer loop
      vertex 103.371 191.226 0
      vertex 104.736 206.13 0
      vertex 104.617 191.477 0
    endloop
  endfacet
  facet normal 0 0 -1
    outer loop
      vertex 94.5983 196.004 0
      vertex 103.371 191.226 0
      vertex 102.354 190.54 0
    endloop
  endfacet
  facet normal 0 0 -1
    outer loop
      vertex 94.5983 196.004 0
      vertex 102.354 190.54 0
      vertex 101.669 189.523 0
    endloop
  endfacet
  facet normal 0 0 -1
    outer loop
      vertex 94.5983 196.004 0
      vertex 101.669 189.523 0
      vertex 101.417 188.277 0
    endloop
  endfacet
  facet normal 0 0 -1
    outer loop
      vertex 99.2668 178.914 0
      vertex 102.354 186.014 0
      vertex 99.9325 179.048 0
    endloop
  endfacet
  facet normal -0 0 -1
    outer loop
      vertex 102.354 186.014 0
      vertex 99.2668 178.914 0
      vertex 101.669 187.031 0
    endloop
  endfacet
  facet normal 0 0 -1
    outer loop
      vertex 98.7232 178.547 0
      vertex 101.669 187.031 0
      vertex 99.2668 178.914 0
    endloop
  endfacet
  facet normal -0 0 -1
    outer loop
      vertex 101.669 187.031 0
      vertex 98.7232 178.547 0
      vertex 101.417 188.277 0
    endloop
  endfacet
  facet normal -0 0 -1
    outer loop
      vertex 101.417 188.277 0
      vertex 98.7232 178.547 0
      vertex 94.5983 196.004 0
    endloop
  endfacet
  facet normal 0 0 -1
    outer loop
      vertex 94.5983 196.004 0
      vertex 98.7232 178.547 0
      vertex 98.3567 178.004 0
    endloop
  endfacet
  facet normal 0 0 -1
    outer loop
      vertex 83.9305 140.006 0
      vertex 101.417 113.612 0
      vertex 94.5983 117.343 0
    endloop
  endfacet
  facet normal -0 0 -1
    outer loop
      vertex 98.3567 176.672 0
      vertex 94.5983 162.657 0
      vertex 98.2222 177.338 0
    endloop
  endfacet
  facet normal 0 0 -1
    outer loop
      vertex 94.5983 196.004 0
      vertex 98.2222 177.338 0
      vertex 94.5983 162.657 0
    endloop
  endfacet
  facet normal 0 0 -1
    outer loop
      vertex 98.2222 177.338 0
      vertex 94.5983 196.004 0
      vertex 98.3567 178.004 0
    endloop
  endfacet
  facet normal 0 0 -1
    outer loop
      vertex 103.371 191.226 0
      vertex 94.5983 196.004 0
      vertex 104.736 206.13 0
    endloop
  endfacet
  facet normal 0 0 -1
    outer loop
      vertex 104.736 220.546 0
      vertex 112.5 230.878 0
      vertex 104.736 206.13 0
    endloop
  endfacet
  facet normal 0 0 -1
    outer loop
      vertex 83.4627 250.873 0
      vertex 112.5 230.878 0
      vertex 104.736 220.546 0
    endloop
  endfacet
  facet normal 0 0 -1
    outer loop
      vertex 112.5 230.878 0
      vertex 83.9305 252.003 0
      vertex 84.9801 258.398 0
    endloop
  endfacet
  facet normal 0 0 -1
    outer loop
      vertex 112.5 230.878 0
      vertex 83.805 251.381 0
      vertex 83.9305 252.003 0
    endloop
  endfacet
  facet normal 0 0 -1
    outer loop
      vertex 112.5 230.878 0
      vertex 83.4627 250.873 0
      vertex 83.805 251.381 0
    endloop
  endfacet
  facet normal 0 0 -1
    outer loop
      vertex 104.736 220.546 0
      vertex 82.9549 250.531 0
      vertex 83.4627 250.873 0
    endloop
  endfacet
  facet normal 0 0 -1
    outer loop
      vertex 104.736 220.546 0
      vertex 82.3331 250.405 0
      vertex 82.9549 250.531 0
    endloop
  endfacet
  facet normal 0 0 -1
    outer loop
      vertex 75.938 249.355 0
      vertex 82.3331 250.405 0
      vertex 104.736 220.546 0
    endloop
  endfacet
  facet normal -0 0 -1
    outer loop
      vertex 82.3331 250.405 0
      vertex 75.938 249.355 0
      vertex 81.7114 250.531 0
    endloop
  endfacet
  facet normal -0 0 -1
    outer loop
      vertex 81.7114 250.531 0
      vertex 75.938 249.355 0
      vertex 81.2036 250.873 0
    endloop
  endfacet
  facet normal 0 0 -1
    outer loop
      vertex 75.938 249.355 0
      vertex 80.8613 251.381 0
      vertex 81.2036 250.873 0
    endloop
  endfacet
  facet normal 0 0 -1
    outer loop
      vertex 75.938 249.355 0
      vertex 80.7358 252.003 0
      vertex 80.8613 251.381 0
    endloop
  endfacet
  facet normal 0 0 -1
    outer loop
      vertex 80.7358 252.003 0
      vertex 75.938 254.65 0
      vertex 80.8613 252.624 0
    endloop
  endfacet
  facet normal 0 0 -1
    outer loop
      vertex 80.8613 252.624 0
      vertex 75.938 254.65 0
      vertex 79.6857 258.398 0
    endloop
  endfacet
  facet normal -0 0 -1
    outer loop
      vertex 101.669 165.164 0
      vertex 94.5983 162.657 0
      vertex 101.417 166.41 0
    endloop
  endfacet
  facet normal 0 0 -1
    outer loop
      vertex 94.5983 117.343 0
      vertex 83.805 139.384 0
      vertex 83.9305 140.006 0
    endloop
  endfacet
  facet normal 0 0 -1
    outer loop
      vertex 94.5983 117.343 0
      vertex 83.4627 138.876 0
      vertex 83.805 139.384 0
    endloop
  endfacet
  facet normal 0 0 -1
    outer loop
      vertex 94.5983 117.343 0
      vertex 82.9549 138.534 0
      vertex 83.4627 138.876 0
    endloop
  endfacet
  facet normal 0 0 -1
    outer loop
      vertex 94.5983 117.343 0
      vertex 82.3331 138.408 0
      vertex 82.9549 138.534 0
    endloop
  endfacet
  facet normal 0 0 -1
    outer loop
      vertex 75.938 136.015 0
      vertex 82.3331 138.408 0
      vertex 94.5983 117.343 0
    endloop
  endfacet
  facet normal -0 0 -1
    outer loop
      vertex 82.3331 138.408 0
      vertex 75.938 136.015 0
      vertex 81.7114 138.534 0
    endloop
  endfacet
  facet normal -0 0 -1
    outer loop
      vertex 81.7114 138.534 0
      vertex 75.938 136.015 0
      vertex 81.2036 138.876 0
    endloop
  endfacet
  facet normal -0 0 -1
    outer loop
      vertex 80.8613 139.384 0
      vertex 75.938 136.015 0
      vertex 80.7358 140.006 0
    endloop
  endfacet
  facet normal -0 0 -1
    outer loop
      vertex 81.2036 138.876 0
      vertex 75.938 136.015 0
      vertex 80.8613 139.384 0
    endloop
  endfacet
  facet normal 0 0 -1
    outer loop
      vertex 83.805 140.627 0
      vertex 94.5983 162.657 0
      vertex 83.9305 140.006 0
    endloop
  endfacet
  facet normal 0 0 -1
    outer loop
      vertex 83.4627 141.135 0
      vertex 94.5983 162.657 0
      vertex 83.805 140.627 0
    endloop
  endfacet
  facet normal 0 0 -1
    outer loop
      vertex 82.9549 141.477 0
      vertex 94.5983 162.657 0
      vertex 83.4627 141.135 0
    endloop
  endfacet
  facet normal 0 0 -1
    outer loop
      vertex 82.3331 141.603 0
      vertex 94.5983 162.657 0
      vertex 82.9549 141.477 0
    endloop
  endfacet
  facet normal 0 0 -1
    outer loop
      vertex 75.938 143.985 0
      vertex 82.3331 141.603 0
      vertex 81.7114 141.477 0
    endloop
  endfacet
  facet normal 0 0 -1
    outer loop
      vertex 75.938 143.985 0
      vertex 81.7114 141.477 0
      vertex 81.2036 141.135 0
    endloop
  endfacet
  facet normal 0 0 -1
    outer loop
      vertex 75.938 143.985 0
      vertex 81.2036 141.135 0
      vertex 80.8613 140.627 0
    endloop
  endfacet
  facet normal 0 0 -1
    outer loop
      vertex 75.938 143.985 0
      vertex 80.7358 140.006 0
      vertex 75.938 136.015 0
    endloop
  endfacet
  facet normal 0 0 -1
    outer loop
      vertex 80.7358 140.006 0
      vertex 75.938 143.985 0
      vertex 80.8613 140.627 0
    endloop
  endfacet
  facet normal 0 0 -1
    outer loop
      vertex 82.3331 141.603 0
      vertex 75.938 143.985 0
      vertex 94.5983 162.657 0
    endloop
  endfacet
  facet normal 0 0 -1
    outer loop
      vertex 83.805 252.624 0
      vertex 84.9801 258.398 0
      vertex 83.9305 252.003 0
    endloop
  endfacet
  facet normal 0 0 -1
    outer loop
      vertex 83.4627 253.132 0
      vertex 84.9801 258.398 0
      vertex 83.805 252.624 0
    endloop
  endfacet
  facet normal 0 0 -1
    outer loop
      vertex 82.9549 253.474 0
      vertex 84.9801 258.398 0
      vertex 83.4627 253.132 0
    endloop
  endfacet
  facet normal 0 0 -1
    outer loop
      vertex 82.3331 253.6 0
      vertex 84.9801 258.398 0
      vertex 82.9549 253.474 0
    endloop
  endfacet
  facet normal 0 0 -1
    outer loop
      vertex 79.6857 258.398 0
      vertex 82.3331 253.6 0
      vertex 81.7114 253.474 0
    endloop
  endfacet
  facet normal 0 0 -1
    outer loop
      vertex 79.6857 258.398 0
      vertex 81.7114 253.474 0
      vertex 81.2036 253.132 0
    endloop
  endfacet
  facet normal 0 0 -1
    outer loop
      vertex 82.3331 253.6 0
      vertex 79.6857 258.398 0
      vertex 84.9801 258.398 0
    endloop
  endfacet
  facet normal 0 0 -1
    outer loop
      vertex 80.8613 252.624 0
      vertex 79.6857 258.398 0
      vertex 81.2036 253.132 0
    endloop
  endfacet
  facet normal 0 0 -1
    outer loop
      vertex 75.938 254.65 0
      vertex 80.7358 252.003 0
      vertex 75.938 249.355 0
    endloop
  endfacet
  facet normal 0 0 1
    outer loop
      vertex 104.617 191.477 3
      vertex 116.572 191.477 3
      vertex 104.736 206.13 3
    endloop
  endfacet
  facet normal 0 0 1
    outer loop
      vertex 116.572 191.477 3
      vertex 104.617 191.477 3
      vertex 116.572 191.466 3
    endloop
  endfacet
  facet normal 0 0 1
    outer loop
      vertex 104.736 206.13 3
      vertex 103.371 191.226 3
      vertex 104.617 191.477 3
    endloop
  endfacet
  facet normal -0 0 1
    outer loop
      vertex 94.5983 196.004 3
      vertex 103.371 191.226 3
      vertex 104.736 206.13 3
    endloop
  endfacet
  facet normal 0 0 1
    outer loop
      vertex 103.371 191.226 3
      vertex 94.5983 196.004 3
      vertex 102.354 190.54 3
    endloop
  endfacet
  facet normal 0 0 1
    outer loop
      vertex 102.354 190.54 3
      vertex 94.5983 196.004 3
      vertex 101.669 189.523 3
    endloop
  endfacet
  facet normal 0 0 1
    outer loop
      vertex 103.371 185.328 3
      vertex 100.598 178.914 3
      vertex 101.142 178.547 3
    endloop
  endfacet
  facet normal 0 0 1
    outer loop
      vertex 101.669 187.031 3
      vertex 99.9325 179.048 3
      vertex 100.598 178.914 3
    endloop
  endfacet
  facet normal 0 0 1
    outer loop
      vertex 101.669 187.031 3
      vertex 99.2668 178.914 3
      vertex 99.9325 179.048 3
    endloop
  endfacet
  facet normal 0 0 1
    outer loop
      vertex 101.669 189.523 3
      vertex 94.5983 196.004 3
      vertex 101.417 188.277 3
    endloop
  endfacet
  facet normal 0 -0 1
    outer loop
      vertex 98.7232 178.547 3
      vertex 101.417 188.277 3
      vertex 94.5983 196.004 3
    endloop
  endfacet
  facet normal 0 0 1
    outer loop
      vertex 101.669 187.031 3
      vertex 98.7232 178.547 3
      vertex 99.2668 178.914 3
    endloop
  endfacet
  facet normal 0 0 1
    outer loop
      vertex 98.3567 178.004 3
      vertex 94.5983 196.004 3
      vertex 98.2222 177.338 3
    endloop
  endfacet
  facet normal 0 0 1
    outer loop
      vertex 98.7232 178.547 3
      vertex 94.5983 196.004 3
      vertex 98.3567 178.004 3
    endloop
  endfacet
  facet normal 0 0 1
    outer loop
      vertex 103.371 185.328 3
      vertex 105.266 184.535 3
      vertex 104.617 185.076 3
    endloop
  endfacet
  facet normal 0 0 1
    outer loop
      vertex 105.266 184.535 3
      vertex 101.643 177.338 3
      vertex 105.266 170.13 3
    endloop
  endfacet
  facet normal 0 0 1
    outer loop
      vertex 105.266 184.535 3
      vertex 103.371 185.328 3
      vertex 101.142 178.547 3
    endloop
  endfacet
  facet normal -0 0 1
    outer loop
      vertex 101.508 176.672 3
      vertex 105.266 170.13 3
      vertex 101.643 177.338 3
    endloop
  endfacet
  facet normal 0 0 1
    outer loop
      vertex 100.598 178.914 3
      vertex 103.371 185.328 3
      vertex 102.354 186.014 3
    endloop
  endfacet
  facet normal -0 0 1
    outer loop
      vertex 101.142 176.129 3
      vertex 105.266 170.13 3
      vertex 101.508 176.672 3
    endloop
  endfacet
  facet normal 0 0 1
    outer loop
      vertex 100.598 178.914 3
      vertex 102.354 186.014 3
      vertex 101.669 187.031 3
    endloop
  endfacet
  facet normal 0 -0 1
    outer loop
      vertex 103.371 169.359 3
      vertex 105.266 170.13 3
      vertex 101.142 176.129 3
    endloop
  endfacet
  facet normal 0 0 1
    outer loop
      vertex 105.266 170.13 3
      vertex 103.371 169.359 3
      vertex 104.617 169.61 3
    endloop
  endfacet
  facet normal 0 0 1
    outer loop
      vertex 105.266 184.535 3
      vertex 101.508 178.004 3
      vertex 101.643 177.338 3
    endloop
  endfacet
  facet normal 0 0 1
    outer loop
      vertex 98.7232 178.547 3
      vertex 101.669 187.031 3
      vertex 101.417 188.277 3
    endloop
  endfacet
  facet normal 0 0 1
    outer loop
      vertex 105.266 184.535 3
      vertex 101.142 178.547 3
      vertex 101.508 178.004 3
    endloop
  endfacet
  facet normal -0 0 1
    outer loop
      vertex 100.598 175.762 3
      vertex 103.371 169.359 3
      vertex 101.142 176.129 3
    endloop
  endfacet
  facet normal -0 0 1
    outer loop
      vertex 99.9325 175.628 3
      vertex 103.371 169.359 3
      vertex 100.598 175.762 3
    endloop
  endfacet
  facet normal 0 0 1
    outer loop
      vertex 103.371 169.359 3
      vertex 99.9325 175.628 3
      vertex 102.354 168.673 3
    endloop
  endfacet
  facet normal 0 0 1
    outer loop
      vertex 115.935 170.13 3
      vertex 120.048 176.129 3
      vertex 119.681 176.672 3
    endloop
  endfacet
  facet normal 0 0 1
    outer loop
      vertex 115.935 170.13 3
      vertex 119.681 176.672 3
      vertex 119.547 177.338 3
    endloop
  endfacet
  facet normal 0 0 1
    outer loop
      vertex 120.048 176.129 3
      vertex 119.521 167.656 3
      vertex 119.773 166.41 3
    endloop
  endfacet
  facet normal -0 0 1
    outer loop
      vertex 115.935 184.535 3
      vertex 120.048 178.547 3
      vertex 117.818 185.328 3
    endloop
  endfacet
  facet normal 0 0 1
    outer loop
      vertex 120.048 178.547 3
      vertex 115.935 184.535 3
      vertex 119.681 178.004 3
    endloop
  endfacet
  facet normal 0 0 1
    outer loop
      vertex 120.048 176.129 3
      vertex 118.835 168.673 3
      vertex 119.521 167.656 3
    endloop
  endfacet
  facet normal 0 0 1
    outer loop
      vertex 119.681 178.004 3
      vertex 115.935 184.535 3
      vertex 119.547 177.338 3
    endloop
  endfacet
  facet normal 0 0 1
    outer loop
      vertex 120.048 176.129 3
      vertex 117.818 169.359 3
      vertex 118.835 168.673 3
    endloop
  endfacet
  facet normal 0 0 1
    outer loop
      vertex 115.935 184.535 3
      vertex 117.818 185.328 3
      vertex 116.572 185.076 3
    endloop
  endfacet
  facet normal 0 0 1
    outer loop
      vertex 115.935 170.13 3
      vertex 119.547 177.338 3
      vertex 115.935 184.535 3
    endloop
  endfacet
  facet normal 0 0 1
    outer loop
      vertex 120.048 176.129 3
      vertex 115.935 170.13 3
      vertex 117.818 169.359 3
    endloop
  endfacet
  facet normal 0 0 1
    outer loop
      vertex 117.818 169.359 3
      vertex 115.935 170.13 3
      vertex 116.572 169.61 3
    endloop
  endfacet
  facet normal 0 0 1
    outer loop
      vertex 140.996 169.87 3
      vertex 122.833 178.004 3
      vertex 122.967 177.338 3
    endloop
  endfacet
  facet normal 0 0 1
    outer loop
      vertex 150 214.665 3
      vertex 119.773 188.277 3
      vertex 122.833 178.004 3
    endloop
  endfacet
  facet normal 0 0 1
    outer loop
      vertex 122.833 178.004 3
      vertex 119.773 188.277 3
      vertex 122.467 178.547 3
    endloop
  endfacet
  facet normal -0 0 1
    outer loop
      vertex 119.521 187.031 3
      vertex 122.467 178.547 3
      vertex 119.773 188.277 3
    endloop
  endfacet
  facet normal 0 0 1
    outer loop
      vertex 122.467 178.547 3
      vertex 119.521 187.031 3
      vertex 121.923 178.914 3
    endloop
  endfacet
  facet normal -0 0 1
    outer loop
      vertex 118.835 186.014 3
      vertex 121.923 178.914 3
      vertex 119.521 187.031 3
    endloop
  endfacet
  facet normal 0 0 1
    outer loop
      vertex 121.923 178.914 3
      vertex 118.835 186.014 3
      vertex 121.257 179.048 3
    endloop
  endfacet
  facet normal 0 0 1
    outer loop
      vertex 150 214.665 3
      vertex 119.521 189.523 3
      vertex 119.773 188.277 3
    endloop
  endfacet
  facet normal 0 0 1
    outer loop
      vertex 128.714 214.665 3
      vertex 118.835 190.54 3
      vertex 119.521 189.523 3
    endloop
  endfacet
  facet normal 0 0 1
    outer loop
      vertex 128.714 214.665 3
      vertex 117.818 191.226 3
      vertex 118.835 190.54 3
    endloop
  endfacet
  facet normal 0 0 1
    outer loop
      vertex 128.714 214.665 3
      vertex 116.572 191.477 3
      vertex 117.818 191.226 3
    endloop
  endfacet
  facet normal 0 0 1
    outer loop
      vertex 128.714 214.665 3
      vertex 104.736 206.13 3
      vertex 116.572 191.477 3
    endloop
  endfacet
  facet normal 0 0 1
    outer loop
      vertex 104.736 206.13 3
      vertex 128.714 214.665 3
      vertex 104.736 220.546 3
    endloop
  endfacet
  facet normal 0 0 1
    outer loop
      vertex 93.3781 250 3
      vertex 104.736 220.546 3
      vertex 128.714 214.665 3
    endloop
  endfacet
  facet normal 0 0 1
    outer loop
      vertex 75.938 249.355 3
      vertex 93.3781 250 3
      vertex 75.938 250 3
    endloop
  endfacet
  facet normal 0 0 1
    outer loop
      vertex 93.3781 250 3
      vertex 75.938 249.355 3
      vertex 104.736 220.546 3
    endloop
  endfacet
  facet normal 0 0 1
    outer loop
      vertex 150 214.665 3
      vertex 140.996 169.87 3
      vertex 150 169.87 3
    endloop
  endfacet
  facet normal 0 0 1
    outer loop
      vertex 119.521 189.523 3
      vertex 150 214.665 3
      vertex 128.714 214.665 3
    endloop
  endfacet
  facet normal -0 0 1
    outer loop
      vertex 122.833 178.004 3
      vertex 140.996 169.87 3
      vertex 150 214.665 3
    endloop
  endfacet
  facet normal -0 0 1
    outer loop
      vertex 122.833 176.672 3
      vertex 140.996 169.87 3
      vertex 122.967 177.338 3
    endloop
  endfacet
  facet normal -0 0 1
    outer loop
      vertex 122.467 176.129 3
      vertex 140.996 169.87 3
      vertex 122.833 176.672 3
    endloop
  endfacet
  facet normal 0 0 1
    outer loop
      vertex 119.773 166.41 3
      vertex 122.467 176.129 3
      vertex 121.923 175.762 3
    endloop
  endfacet
  facet normal 0 0 1
    outer loop
      vertex 119.773 166.41 3
      vertex 121.923 175.762 3
      vertex 121.257 175.628 3
    endloop
  endfacet
  facet normal 0 0 1
    outer loop
      vertex 122.467 176.129 3
      vertex 119.773 166.41 3
      vertex 140.996 169.87 3
    endloop
  endfacet
  facet normal 0 0 1
    outer loop
      vertex 119.773 166.41 3
      vertex 121.257 175.628 3
      vertex 120.592 175.762 3
    endloop
  endfacet
  facet normal 0 0 1
    outer loop
      vertex 119.773 166.41 3
      vertex 120.592 175.762 3
      vertex 120.048 176.129 3
    endloop
  endfacet
  facet normal 0 0 1
    outer loop
      vertex 119.521 165.164 3
      vertex 140.996 169.87 3
      vertex 119.773 166.41 3
    endloop
  endfacet
  facet normal 0 0 1
    outer loop
      vertex 140.996 169.87 3
      vertex 119.521 165.164 3
      vertex 121.135 150 3
    endloop
  endfacet
  facet normal -0 0 1
    outer loop
      vertex 118.835 164.147 3
      vertex 121.135 150 3
      vertex 119.521 165.164 3
    endloop
  endfacet
  facet normal -0 0 1
    outer loop
      vertex 117.818 163.461 3
      vertex 121.135 150 3
      vertex 118.835 164.147 3
    endloop
  endfacet
  facet normal -0 0 1
    outer loop
      vertex 116.572 163.21 3
      vertex 121.135 150 3
      vertex 117.818 163.461 3
    endloop
  endfacet
  facet normal -0 0 1
    outer loop
      vertex 104.617 163.21 3
      vertex 121.135 150 3
      vertex 116.572 163.21 3
    endloop
  endfacet
  facet normal 0 0 1
    outer loop
      vertex 94.5983 162.657 3
      vertex 104.617 163.21 3
      vertex 103.371 163.461 3
    endloop
  endfacet
  facet normal 0 0 1
    outer loop
      vertex 94.5983 162.657 3
      vertex 103.371 163.461 3
      vertex 102.354 164.147 3
    endloop
  endfacet
  facet normal 0 0 1
    outer loop
      vertex 99.2668 175.762 3
      vertex 102.354 168.673 3
      vertex 99.9325 175.628 3
    endloop
  endfacet
  facet normal 0 0 1
    outer loop
      vertex 102.354 168.673 3
      vertex 99.2668 175.762 3
      vertex 101.669 167.656 3
    endloop
  endfacet
  facet normal 0 0 1
    outer loop
      vertex 98.7232 176.129 3
      vertex 101.669 167.656 3
      vertex 99.2668 175.762 3
    endloop
  endfacet
  facet normal 0 0 1
    outer loop
      vertex 101.669 167.656 3
      vertex 94.5983 162.657 3
      vertex 101.417 166.41 3
    endloop
  endfacet
  facet normal 0 0 1
    outer loop
      vertex 101.669 167.656 3
      vertex 98.7232 176.129 3
      vertex 94.5983 162.657 3
    endloop
  endfacet
  facet normal 0 0 1
    outer loop
      vertex 94.5983 162.657 3
      vertex 98.7232 176.129 3
      vertex 98.3567 176.672 3
    endloop
  endfacet
  facet normal 0 0 1
    outer loop
      vertex 94.5983 162.657 3
      vertex 98.2222 177.338 3
      vertex 94.5983 196.004 3
    endloop
  endfacet
  facet normal 0 0 1
    outer loop
      vertex 94.5983 162.657 3
      vertex 98.3567 176.672 3
      vertex 98.2222 177.338 3
    endloop
  endfacet
  facet normal 0 0 1
    outer loop
      vertex 101.417 166.41 3
      vertex 94.5983 162.657 3
      vertex 101.669 165.164 3
    endloop
  endfacet
  facet normal 0 0 1
    outer loop
      vertex 94.5983 162.657 3
      vertex 102.354 164.147 3
      vertex 101.669 165.164 3
    endloop
  endfacet
  facet normal 0 0 1
    outer loop
      vertex 104.617 163.21 3
      vertex 94.5983 162.657 3
      vertex 81.9492 150 3
    endloop
  endfacet
  facet normal 0 0 1
    outer loop
      vertex 104.617 163.21 3
      vertex 81.9492 150 3
      vertex 121.135 150 3
    endloop
  endfacet
  facet normal -0 0 1
    outer loop
      vertex 117.818 185.328 3
      vertex 121.257 179.048 3
      vertex 118.835 186.014 3
    endloop
  endfacet
  facet normal 0 0 1
    outer loop
      vertex 121.257 179.048 3
      vertex 117.818 185.328 3
      vertex 120.592 178.914 3
    endloop
  endfacet
  facet normal 0 0 1
    outer loop
      vertex 120.592 178.914 3
      vertex 117.818 185.328 3
      vertex 120.048 178.547 3
    endloop
  endfacet
  facet normal -0.559048 -0.829136 0
    outer loop
      vertex 117.818 191.226 1.5
      vertex 118.835 190.54 3
      vertex 117.818 191.226 3
    endloop
  endfacet
  facet normal -0.559048 -0.829136 -0
    outer loop
      vertex 118.835 190.54 3
      vertex 117.818 191.226 1.5
      vertex 118.835 190.54 1.5
    endloop
  endfacet
  facet normal -0.829067 -0.559149 0
    outer loop
      vertex 119.521 189.523 1.5
      vertex 118.835 190.54 3
      vertex 118.835 190.54 1.5
    endloop
  endfacet
  facet normal -0.829067 -0.559149 0
    outer loop
      vertex 118.835 190.54 3
      vertex 119.521 189.523 1.5
      vertex 119.521 189.523 3
    endloop
  endfacet
  facet normal -0.980247 -0.197779 0
    outer loop
      vertex 119.773 188.277 1.5
      vertex 119.521 189.523 3
      vertex 119.521 189.523 1.5
    endloop
  endfacet
  facet normal -0.980247 -0.197779 0
    outer loop
      vertex 119.521 189.523 3
      vertex 119.773 188.277 1.5
      vertex 119.773 188.277 3
    endloop
  endfacet
  facet normal -0.980246 0.197782 0
    outer loop
      vertex 119.521 187.031 1.5
      vertex 119.773 188.277 3
      vertex 119.773 188.277 1.5
    endloop
  endfacet
  facet normal -0.980246 0.197782 0
    outer loop
      vertex 119.773 188.277 3
      vertex 119.521 187.031 1.5
      vertex 119.521 187.031 3
    endloop
  endfacet
  facet normal -0.828927 0.559357 0
    outer loop
      vertex 118.835 186.014 1.5
      vertex 119.521 187.031 3
      vertex 119.521 187.031 1.5
    endloop
  endfacet
  facet normal -0.828927 0.559357 0
    outer loop
      vertex 119.521 187.031 3
      vertex 118.835 186.014 1.5
      vertex 118.835 186.014 3
    endloop
  endfacet
  facet normal -0.559355 0.828928 0
    outer loop
      vertex 118.835 186.014 1.5
      vertex 117.818 185.328 3
      vertex 118.835 186.014 3
    endloop
  endfacet
  facet normal -0.559355 0.828928 0
    outer loop
      vertex 117.818 185.328 3
      vertex 118.835 186.014 1.5
      vertex 117.818 185.328 1.5
    endloop
  endfacet
  facet normal -0.197788 0.980245 0
    outer loop
      vertex 117.818 185.328 1.5
      vertex 116.572 185.076 3
      vertex 117.818 185.328 3
    endloop
  endfacet
  facet normal -0.197788 0.980245 0
    outer loop
      vertex 116.572 185.076 3
      vertex 117.818 185.328 1.5
      vertex 116.572 185.076 1.5
    endloop
  endfacet
  facet normal -0.647473 0.762089 0
    outer loop
      vertex 116.572 185.076 1.5
      vertex 115.935 184.535 3
      vertex 116.572 185.076 3
    endloop
  endfacet
  facet normal -0.647473 0.762089 0
    outer loop
      vertex 115.935 184.535 3
      vertex 116.572 185.076 1.5
      vertex 115.935 184.535 1.5
    endloop
  endfacet
  facet normal -1 0 0
    outer loop
      vertex 115.935 170.13 1.5
      vertex 115.935 184.535 3
      vertex 115.935 184.535 1.5
    endloop
  endfacet
  facet normal -1 -0 0
    outer loop
      vertex 115.935 184.535 3
      vertex 115.935 170.13 1.5
      vertex 115.935 170.13 3
    endloop
  endfacet
  facet normal -0.631372 -0.77548 0
    outer loop
      vertex 115.935 170.13 1.5
      vertex 116.572 169.61 3
      vertex 115.935 170.13 3
    endloop
  endfacet
  facet normal -0.631372 -0.77548 -0
    outer loop
      vertex 116.572 169.61 3
      vertex 115.935 170.13 1.5
      vertex 116.572 169.61 1.5
    endloop
  endfacet
  facet normal -0.197776 -0.980247 0
    outer loop
      vertex 116.572 169.61 1.5
      vertex 117.818 169.359 3
      vertex 116.572 169.61 3
    endloop
  endfacet
  facet normal -0.197776 -0.980247 -0
    outer loop
      vertex 117.818 169.359 3
      vertex 116.572 169.61 1.5
      vertex 117.818 169.359 1.5
    endloop
  endfacet
  facet normal -0.559048 -0.829136 0
    outer loop
      vertex 117.818 169.359 1.5
      vertex 118.835 168.673 3
      vertex 117.818 169.359 3
    endloop
  endfacet
  facet normal -0.559048 -0.829136 -0
    outer loop
      vertex 118.835 168.673 3
      vertex 117.818 169.359 1.5
      vertex 118.835 168.673 1.5
    endloop
  endfacet
  facet normal -0.829071 -0.559144 0
    outer loop
      vertex 119.521 167.656 1.5
      vertex 118.835 168.673 3
      vertex 118.835 168.673 1.5
    endloop
  endfacet
  facet normal -0.829071 -0.559144 0
    outer loop
      vertex 118.835 168.673 3
      vertex 119.521 167.656 1.5
      vertex 119.521 167.656 3
    endloop
  endfacet
  facet normal -0.980246 -0.197782 0
    outer loop
      vertex 119.773 166.41 1.5
      vertex 119.521 167.656 3
      vertex 119.521 167.656 1.5
    endloop
  endfacet
  facet normal -0.980246 -0.197782 0
    outer loop
      vertex 119.521 167.656 3
      vertex 119.773 166.41 1.5
      vertex 119.773 166.41 3
    endloop
  endfacet
  facet normal -0.980247 0.197779 0
    outer loop
      vertex 119.521 165.164 1.5
      vertex 119.773 166.41 3
      vertex 119.773 166.41 1.5
    endloop
  endfacet
  facet normal -0.980247 0.197779 0
    outer loop
      vertex 119.773 166.41 3
      vertex 119.521 165.164 1.5
      vertex 119.521 165.164 3
    endloop
  endfacet
  facet normal -0.828927 0.559357 0
    outer loop
      vertex 118.835 164.147 1.5
      vertex 119.521 165.164 3
      vertex 119.521 165.164 1.5
    endloop
  endfacet
  facet normal -0.828927 0.559357 0
    outer loop
      vertex 119.521 165.164 3
      vertex 118.835 164.147 1.5
      vertex 118.835 164.147 3
    endloop
  endfacet
  facet normal -0.559355 0.828928 0
    outer loop
      vertex 118.835 164.147 1.5
      vertex 117.818 163.461 3
      vertex 118.835 164.147 3
    endloop
  endfacet
  facet normal -0.559355 0.828928 0
    outer loop
      vertex 117.818 163.461 3
      vertex 118.835 164.147 1.5
      vertex 117.818 163.461 1.5
    endloop
  endfacet
  facet normal -0.197788 0.980245 0
    outer loop
      vertex 117.818 163.461 1.5
      vertex 116.572 163.21 3
      vertex 117.818 163.461 3
    endloop
  endfacet
  facet normal -0.197788 0.980245 0
    outer loop
      vertex 116.572 163.21 3
      vertex 117.818 163.461 1.5
      vertex 116.572 163.21 1.5
    endloop
  endfacet
  facet normal 0 1 0
    outer loop
      vertex 112.5 163.21 1.5
      vertex 116.572 163.21 3
      vertex 116.572 163.21 1.5
    endloop
  endfacet
  facet normal 0 1 0
    outer loop
      vertex 116.572 163.21 3
      vertex 112.5 163.21 1.5
      vertex 104.617 163.21 3
    endloop
  endfacet
  facet normal 0 1 0
    outer loop
      vertex 104.617 163.21 0
      vertex 112.5 163.21 1.5
      vertex 112.5 163.21 0
    endloop
  endfacet
  facet normal 0 1 0
    outer loop
      vertex 112.5 163.21 1.5
      vertex 104.617 163.21 0
      vertex 104.617 163.21 3
    endloop
  endfacet
  facet normal 0.197786 0.980245 -0
    outer loop
      vertex 104.617 163.21 0
      vertex 103.371 163.461 3
      vertex 104.617 163.21 3
    endloop
  endfacet
  facet normal 0.197786 0.980245 0
    outer loop
      vertex 103.371 163.461 3
      vertex 104.617 163.21 0
      vertex 103.371 163.461 0
    endloop
  endfacet
  facet normal 0.559358 0.828926 -0
    outer loop
      vertex 103.371 163.461 0
      vertex 102.354 164.147 3
      vertex 103.371 163.461 3
    endloop
  endfacet
  facet normal 0.559358 0.828926 0
    outer loop
      vertex 102.354 164.147 3
      vertex 103.371 163.461 0
      vertex 102.354 164.147 0
    endloop
  endfacet
  facet normal 0.829132 0.559053 0
    outer loop
      vertex 102.354 164.147 3
      vertex 101.669 165.164 0
      vertex 101.669 165.164 3
    endloop
  endfacet
  facet normal 0.829132 0.559053 0
    outer loop
      vertex 101.669 165.164 0
      vertex 102.354 164.147 3
      vertex 102.354 164.147 0
    endloop
  endfacet
  facet normal 0.980163 0.198195 0
    outer loop
      vertex 101.669 165.164 3
      vertex 101.417 166.41 0
      vertex 101.417 166.41 3
    endloop
  endfacet
  facet normal 0.980163 0.198195 0
    outer loop
      vertex 101.417 166.41 0
      vertex 101.669 165.164 3
      vertex 101.669 165.164 0
    endloop
  endfacet
  facet normal 0.980162 -0.198197 0
    outer loop
      vertex 101.417 166.41 3
      vertex 101.669 167.656 0
      vertex 101.669 167.656 3
    endloop
  endfacet
  facet normal 0.980162 -0.198197 0
    outer loop
      vertex 101.669 167.656 0
      vertex 101.417 166.41 3
      vertex 101.417 166.41 0
    endloop
  endfacet
  facet normal 0.829275 -0.55884 0
    outer loop
      vertex 101.669 167.656 3
      vertex 102.354 168.673 0
      vertex 102.354 168.673 3
    endloop
  endfacet
  facet normal 0.829275 -0.55884 0
    outer loop
      vertex 102.354 168.673 0
      vertex 101.669 167.656 3
      vertex 101.669 167.656 0
    endloop
  endfacet
  facet normal 0.55905 -0.829134 0
    outer loop
      vertex 102.354 168.673 0
      vertex 103.371 169.359 3
      vertex 102.354 168.673 3
    endloop
  endfacet
  facet normal 0.55905 -0.829134 0
    outer loop
      vertex 103.371 169.359 3
      vertex 102.354 168.673 0
      vertex 103.371 169.359 0
    endloop
  endfacet
  facet normal 0.197775 -0.980247 0
    outer loop
      vertex 103.371 169.359 0
      vertex 104.617 169.61 3
      vertex 103.371 169.359 3
    endloop
  endfacet
  facet normal 0.197775 -0.980247 0
    outer loop
      vertex 104.617 169.61 3
      vertex 103.371 169.359 0
      vertex 104.617 169.61 0
    endloop
  endfacet
  facet normal 0.624536 -0.780996 0
    outer loop
      vertex 104.617 169.61 0
      vertex 105.266 170.13 3
      vertex 104.617 169.61 3
    endloop
  endfacet
  facet normal 0.624536 -0.780996 0
    outer loop
      vertex 105.266 170.13 3
      vertex 104.617 169.61 0
      vertex 105.266 170.13 0
    endloop
  endfacet
  facet normal 1 -0 0
    outer loop
      vertex 105.266 170.13 3
      vertex 105.266 184.535 0
      vertex 105.266 184.535 3
    endloop
  endfacet
  facet normal 1 0 0
    outer loop
      vertex 105.266 184.535 0
      vertex 105.266 170.13 3
      vertex 105.266 170.13 0
    endloop
  endfacet
  facet normal 0.640699 0.767792 -0
    outer loop
      vertex 105.266 184.535 0
      vertex 104.617 185.076 3
      vertex 105.266 184.535 3
    endloop
  endfacet
  facet normal 0.640699 0.767792 0
    outer loop
      vertex 104.617 185.076 3
      vertex 105.266 184.535 0
      vertex 104.617 185.076 0
    endloop
  endfacet
  facet normal 0.197786 0.980245 -0
    outer loop
      vertex 104.617 185.076 0
      vertex 103.371 185.328 3
      vertex 104.617 185.076 3
    endloop
  endfacet
  facet normal 0.197786 0.980245 0
    outer loop
      vertex 103.371 185.328 3
      vertex 104.617 185.076 0
      vertex 103.371 185.328 0
    endloop
  endfacet
  facet normal 0.559358 0.828926 -0
    outer loop
      vertex 103.371 185.328 0
      vertex 102.354 186.014 3
      vertex 103.371 185.328 3
    endloop
  endfacet
  facet normal 0.559358 0.828926 0
    outer loop
      vertex 102.354 186.014 3
      vertex 103.371 185.328 0
      vertex 102.354 186.014 0
    endloop
  endfacet
  facet normal 0.829132 0.559053 0
    outer loop
      vertex 102.354 186.014 3
      vertex 101.669 187.031 0
      vertex 101.669 187.031 3
    endloop
  endfacet
  facet normal 0.829132 0.559053 0
    outer loop
      vertex 101.669 187.031 0
      vertex 102.354 186.014 3
      vertex 102.354 186.014 0
    endloop
  endfacet
  facet normal 0.980162 0.198197 0
    outer loop
      vertex 101.669 187.031 3
      vertex 101.417 188.277 0
      vertex 101.417 188.277 3
    endloop
  endfacet
  facet normal 0.980162 0.198197 0
    outer loop
      vertex 101.417 188.277 0
      vertex 101.669 187.031 3
      vertex 101.669 187.031 0
    endloop
  endfacet
  facet normal 0.980163 -0.198195 0
    outer loop
      vertex 101.417 188.277 3
      vertex 101.669 189.523 0
      vertex 101.669 189.523 3
    endloop
  endfacet
  facet normal 0.980163 -0.198195 0
    outer loop
      vertex 101.669 189.523 0
      vertex 101.417 188.277 3
      vertex 101.417 188.277 0
    endloop
  endfacet
  facet normal 0.829272 -0.558846 0
    outer loop
      vertex 101.669 189.523 3
      vertex 102.354 190.54 0
      vertex 102.354 190.54 3
    endloop
  endfacet
  facet normal 0.829272 -0.558846 0
    outer loop
      vertex 102.354 190.54 0
      vertex 101.669 189.523 3
      vertex 101.669 189.523 0
    endloop
  endfacet
  facet normal 0.55905 -0.829134 0
    outer loop
      vertex 102.354 190.54 0
      vertex 103.371 191.226 3
      vertex 102.354 190.54 3
    endloop
  endfacet
  facet normal 0.55905 -0.829134 0
    outer loop
      vertex 103.371 191.226 3
      vertex 102.354 190.54 0
      vertex 103.371 191.226 0
    endloop
  endfacet
  facet normal 0.197786 -0.980245 0
    outer loop
      vertex 103.371 191.226 0
      vertex 104.617 191.477 3
      vertex 103.371 191.226 3
    endloop
  endfacet
  facet normal 0.197786 -0.980245 0
    outer loop
      vertex 104.617 191.477 3
      vertex 103.371 191.226 0
      vertex 104.617 191.477 0
    endloop
  endfacet
  facet normal -0.000922778 -1 2.88103e-06
    outer loop
      vertex 104.617 191.477 3
      vertex 112.5 191.47 1.5
      vertex 116.572 191.466 3
    endloop
  endfacet
  facet normal -0.000923327 -1 0
    outer loop
      vertex 104.617 191.477 0
      vertex 112.5 191.47 1.5
      vertex 104.617 191.477 3
    endloop
  endfacet
  facet normal -0.000923327 -1 -0
    outer loop
      vertex 112.5 191.47 1.5
      vertex 104.617 191.477 0
      vertex 112.5 191.47 0
    endloop
  endfacet
  facet normal -0.000921717 -1 -0
    outer loop
      vertex 116.572 191.466 3
      vertex 112.5 191.47 1.5
      vertex 116.572 191.466 1.5
    endloop
  endfacet
  facet normal 1 -0 0
    outer loop
      vertex 116.572 191.466 3
      vertex 116.572 191.477 1.5
      vertex 116.572 191.477 3
    endloop
  endfacet
  facet normal 1 0 0
    outer loop
      vertex 116.572 191.477 1.5
      vertex 116.572 191.466 3
      vertex 116.572 191.466 1.5
    endloop
  endfacet
  facet normal -0.197788 -0.980245 0
    outer loop
      vertex 116.572 191.477 1.5
      vertex 117.818 191.226 3
      vertex 116.572 191.477 3
    endloop
  endfacet
  facet normal -0.197788 -0.980245 -0
    outer loop
      vertex 117.818 191.226 3
      vertex 116.572 191.477 1.5
      vertex 117.818 191.226 1.5
    endloop
  endfacet
  facet normal 0.980162 0.198197 0
    outer loop
      vertex 101.642 112.5 1.5
      vertex 101.417 113.612 0
      vertex 101.417 113.612 1.5
    endloop
  endfacet
  facet normal 0.980162 0.198197 0
    outer loop
      vertex 101.417 113.612 0
      vertex 101.642 112.5 1.5
      vertex 101.642 112.5 0
    endloop
  endfacet
  facet normal 0.980162 -0.198197 0
    outer loop
      vertex 101.417 113.612 1.5
      vertex 101.669 114.858 0
      vertex 101.669 114.858 1.5
    endloop
  endfacet
  facet normal 0.980162 -0.198197 0
    outer loop
      vertex 101.669 114.858 0
      vertex 101.417 113.612 1.5
      vertex 101.417 113.612 0
    endloop
  endfacet
  facet normal 0.829275 -0.55884 0
    outer loop
      vertex 101.669 114.858 1.5
      vertex 102.354 115.875 0
      vertex 102.354 115.875 1.5
    endloop
  endfacet
  facet normal 0.829275 -0.55884 0
    outer loop
      vertex 102.354 115.875 0
      vertex 101.669 114.858 1.5
      vertex 101.669 114.858 0
    endloop
  endfacet
  facet normal 0.55905 -0.829134 0
    outer loop
      vertex 102.354 115.875 0
      vertex 103.371 116.561 1.5
      vertex 102.354 115.875 1.5
    endloop
  endfacet
  facet normal 0.55905 -0.829134 0
    outer loop
      vertex 103.371 116.561 1.5
      vertex 102.354 115.875 0
      vertex 103.371 116.561 0
    endloop
  endfacet
  facet normal 0.197781 -0.980246 0
    outer loop
      vertex 103.371 116.561 0
      vertex 104.617 116.812 1.5
      vertex 103.371 116.561 1.5
    endloop
  endfacet
  facet normal 0.197781 -0.980246 0
    outer loop
      vertex 104.617 116.812 1.5
      vertex 103.371 116.561 0
      vertex 104.617 116.812 0
    endloop
  endfacet
  facet normal -0.000922359 -1 0
    outer loop
      vertex 104.617 116.812 0
      vertex 112.5 116.805 1.5
      vertex 104.617 116.812 1.5
    endloop
  endfacet
  facet normal -0.000922359 -1 -0
    outer loop
      vertex 112.5 116.805 1.5
      vertex 104.617 116.812 0
      vertex 112.5 116.805 0
    endloop
  endfacet
  facet normal 0 1 -0
    outer loop
      vertex 150 214.665 1.5
      vertex 128.714 214.665 3
      vertex 150 214.665 3
    endloop
  endfacet
  facet normal 0 1 0
    outer loop
      vertex 128.714 214.665 3
      vertex 150 214.665 1.5
      vertex 128.714 214.665 1.5
    endloop
  endfacet
  facet normal -1 0 0
    outer loop
      vertex 94.5983 112.5 0
      vertex 94.5983 117.343 1.5
      vertex 94.5983 117.343 0
    endloop
  endfacet
  facet normal -1 -0 0
    outer loop
      vertex 94.5983 117.343 1.5
      vertex 94.5983 112.5 0
      vertex 94.5983 112.5 1.5
    endloop
  endfacet
  facet normal -0.707326 -0.706888 0
    outer loop
      vertex 94.5983 117.343 0
      vertex 75.938 136.015 1.5
      vertex 75.938 136.015 0
    endloop
  endfacet
  facet normal -0.707326 -0.706888 0
    outer loop
      vertex 75.938 136.015 1.5
      vertex 94.5983 117.343 0
      vertex 94.5983 117.343 1.5
    endloop
  endfacet
  facet normal -1 0 0
    outer loop
      vertex 75.938 136.015 0
      vertex 75.938 143.985 1.5
      vertex 75.938 143.985 0
    endloop
  endfacet
  facet normal -1 -0 0
    outer loop
      vertex 75.938 143.985 1.5
      vertex 75.938 136.015 0
      vertex 75.938 136.015 1.5
    endloop
  endfacet
  facet normal -0.707326 0.706888 0
    outer loop
      vertex 94.5983 162.657 0
      vertex 81.9492 150 1.5
      vertex 94.5983 162.657 3
    endloop
  endfacet
  facet normal -0.707326 0.706888 1.31953e-06
    outer loop
      vertex 75.938 143.985 0
      vertex 81.9492 150 1.5
      vertex 94.5983 162.657 0
    endloop
  endfacet
  facet normal -0.707326 0.706888 0
    outer loop
      vertex 81.9492 150 1.5
      vertex 75.938 143.985 0
      vertex 75.938 143.985 1.5
    endloop
  endfacet
  facet normal -0.707326 0.706888 0
    outer loop
      vertex 94.5983 162.657 3
      vertex 81.9492 150 1.5
      vertex 81.9492 150 3
    endloop
  endfacet
  facet normal -1 0 0
    outer loop
      vertex 94.5983 162.657 0
      vertex 94.5983 196.004 3
      vertex 94.5983 196.004 0
    endloop
  endfacet
  facet normal -1 -0 0
    outer loop
      vertex 94.5983 196.004 3
      vertex 94.5983 162.657 0
      vertex 94.5983 162.657 3
    endloop
  endfacet
  facet normal -0.706703 0.707511 0
    outer loop
      vertex 104.736 206.13 0
      vertex 94.5983 196.004 3
      vertex 104.736 206.13 3
    endloop
  endfacet
  facet normal -0.706703 0.707511 0
    outer loop
      vertex 94.5983 196.004 3
      vertex 104.736 206.13 0
      vertex 94.5983 196.004 0
    endloop
  endfacet
  facet normal -1 0 0
    outer loop
      vertex 104.736 206.13 0
      vertex 104.736 220.546 3
      vertex 104.736 220.546 0
    endloop
  endfacet
  facet normal -1 -0 0
    outer loop
      vertex 104.736 220.546 3
      vertex 104.736 206.13 0
      vertex 104.736 206.13 3
    endloop
  endfacet
  facet normal -0.707249 -0.706965 0
    outer loop
      vertex 104.736 220.546 0
      vertex 75.938 249.355 3
      vertex 75.938 249.355 0
    endloop
  endfacet
  facet normal -0.707249 -0.706965 0
    outer loop
      vertex 75.938 249.355 3
      vertex 104.736 220.546 0
      vertex 104.736 220.546 3
    endloop
  endfacet
  facet normal -1 0 0
    outer loop
      vertex 75.938 254.65 0
      vertex 75.938 250 1.5
      vertex 75.938 254.65 1.5
    endloop
  endfacet
  facet normal -1 0 0
    outer loop
      vertex 75.938 249.355 0
      vertex 75.938 250 1.5
      vertex 75.938 254.65 0
    endloop
  endfacet
  facet normal -1 0 0
    outer loop
      vertex 75.938 249.355 3
      vertex 75.938 250 1.5
      vertex 75.938 249.355 0
    endloop
  endfacet
  facet normal -1 0 0
    outer loop
      vertex 75.938 250 1.5
      vertex 75.938 249.355 3
      vertex 75.938 250 3
    endloop
  endfacet
  facet normal -0.707159 0.707055 0
    outer loop
      vertex 75.938 254.65 0
      vertex 79.6857 258.398 1.5
      vertex 79.6857 258.398 0
    endloop
  endfacet
  facet normal -0.707159 0.707055 0
    outer loop
      vertex 79.6857 258.398 1.5
      vertex 75.938 254.65 0
      vertex 75.938 254.65 1.5
    endloop
  endfacet
  facet normal 0 1 -0
    outer loop
      vertex 84.9801 258.398 0
      vertex 79.6857 258.398 1.5
      vertex 84.9801 258.398 1.5
    endloop
  endfacet
  facet normal 0 1 0
    outer loop
      vertex 79.6857 258.398 1.5
      vertex 84.9801 258.398 0
      vertex 79.6857 258.398 0
    endloop
  endfacet
  facet normal 0.707107 0.707107 0
    outer loop
      vertex 93.3781 250 3
      vertex 112.5 230.878 1.5
      vertex 93.3781 250 1.5
    endloop
  endfacet
  facet normal 0.707107 0.707107 0
    outer loop
      vertex 128.714 214.665 3
      vertex 112.5 230.878 1.5
      vertex 93.3781 250 3
    endloop
  endfacet
  facet normal 0.707107 0.707107 0
    outer loop
      vertex 112.5 230.878 1.5
      vertex 128.714 214.665 3
      vertex 128.714 214.665 1.5
    endloop
  endfacet
  facet normal 0.707106 0.707107 0
    outer loop
      vertex 93.3781 250 1.5
      vertex 84.9801 258.398 0
      vertex 84.9801 258.398 1.5
    endloop
  endfacet
  facet normal 0.707107 0.707107 -0
    outer loop
      vertex 112.5 230.878 0
      vertex 93.3781 250 1.5
      vertex 112.5 230.878 1.5
    endloop
  endfacet
  facet normal 0.707107 0.707107 -2.49901e-06
    outer loop
      vertex 93.3781 250 1.5
      vertex 112.5 230.878 0
      vertex 84.9801 258.398 0
    endloop
  endfacet
  facet normal 0.70727 -0.706944 0
    outer loop
      vertex 121.135 150 3
      vertex 140.996 169.87 1.5
      vertex 140.996 169.87 3
    endloop
  endfacet
  facet normal 0.70727 -0.706944 0
    outer loop
      vertex 140.996 169.87 1.5
      vertex 121.135 150 3
      vertex 121.135 150 1.5
    endloop
  endfacet
  facet normal 0 -1 0
    outer loop
      vertex 140.996 169.87 1.5
      vertex 150 169.87 3
      vertex 140.996 169.87 3
    endloop
  endfacet
  facet normal 0 -1 -0
    outer loop
      vertex 150 169.87 3
      vertex 140.996 169.87 1.5
      vertex 150 169.87 1.5
    endloop
  endfacet
  facet normal -0.829148 -0.559029 0
    outer loop
      vertex 101.508 178.004 0
      vertex 101.142 178.547 3
      vertex 101.142 178.547 0
    endloop
  endfacet
  facet normal -0.829148 -0.559029 0
    outer loop
      vertex 101.142 178.547 3
      vertex 101.508 178.004 0
      vertex 101.508 178.004 3
    endloop
  endfacet
  facet normal -0.559037 -0.829142 0
    outer loop
      vertex 100.598 178.914 0
      vertex 101.142 178.547 3
      vertex 100.598 178.914 3
    endloop
  endfacet
  facet normal -0.559037 -0.829142 -0
    outer loop
      vertex 101.142 178.547 3
      vertex 100.598 178.914 0
      vertex 101.142 178.547 0
    endloop
  endfacet
  facet normal -0.197894 -0.980223 0
    outer loop
      vertex 99.9325 179.048 0
      vertex 100.598 178.914 3
      vertex 99.9325 179.048 3
    endloop
  endfacet
  facet normal -0.197894 -0.980223 -0
    outer loop
      vertex 100.598 178.914 3
      vertex 99.9325 179.048 0
      vertex 100.598 178.914 0
    endloop
  endfacet
  facet normal 0.980221 -0.197907 0
    outer loop
      vertex 98.2222 177.338 3
      vertex 98.3567 178.004 0
      vertex 98.3567 178.004 3
    endloop
  endfacet
  facet normal 0.980221 -0.197907 0
    outer loop
      vertex 98.3567 178.004 0
      vertex 98.2222 177.338 3
      vertex 98.2222 177.338 0
    endloop
  endfacet
  facet normal -0.559037 0.829142 0
    outer loop
      vertex 101.142 176.129 0
      vertex 100.598 175.762 3
      vertex 101.142 176.129 3
    endloop
  endfacet
  facet normal -0.559037 0.829142 0
    outer loop
      vertex 100.598 175.762 3
      vertex 101.142 176.129 0
      vertex 100.598 175.762 0
    endloop
  endfacet
  facet normal 0.197896 -0.980223 0
    outer loop
      vertex 99.2668 178.914 0
      vertex 99.9325 179.048 3
      vertex 99.2668 178.914 3
    endloop
  endfacet
  facet normal 0.197896 -0.980223 0
    outer loop
      vertex 99.9325 179.048 3
      vertex 99.2668 178.914 0
      vertex 99.9325 179.048 0
    endloop
  endfacet
  facet normal -0.980223 0.197896 0
    outer loop
      vertex 101.508 176.672 0
      vertex 101.643 177.338 3
      vertex 101.643 177.338 0
    endloop
  endfacet
  facet normal -0.980223 0.197896 0
    outer loop
      vertex 101.643 177.338 3
      vertex 101.508 176.672 0
      vertex 101.508 176.672 3
    endloop
  endfacet
  facet normal 0.197896 0.980223 -0
    outer loop
      vertex 99.9325 175.628 0
      vertex 99.2668 175.762 3
      vertex 99.9325 175.628 3
    endloop
  endfacet
  facet normal 0.197896 0.980223 0
    outer loop
      vertex 99.2668 175.762 3
      vertex 99.9325 175.628 0
      vertex 99.2668 175.762 0
    endloop
  endfacet
  facet normal -0.197894 0.980223 0
    outer loop
      vertex 100.598 175.762 0
      vertex 99.9325 175.628 3
      vertex 100.598 175.762 3
    endloop
  endfacet
  facet normal -0.197894 0.980223 0
    outer loop
      vertex 99.9325 175.628 3
      vertex 100.598 175.762 0
      vertex 99.9325 175.628 0
    endloop
  endfacet
  facet normal -0.980223 -0.197896 0
    outer loop
      vertex 101.643 177.338 0
      vertex 101.508 178.004 3
      vertex 101.508 178.004 0
    endloop
  endfacet
  facet normal -0.980223 -0.197896 0
    outer loop
      vertex 101.508 178.004 3
      vertex 101.643 177.338 0
      vertex 101.643 177.338 3
    endloop
  endfacet
  facet normal 0.829148 0.559029 0
    outer loop
      vertex 98.7232 176.129 3
      vertex 98.3567 176.672 0
      vertex 98.3567 176.672 3
    endloop
  endfacet
  facet normal 0.829148 0.559029 0
    outer loop
      vertex 98.3567 176.672 0
      vertex 98.7232 176.129 3
      vertex 98.7232 176.129 0
    endloop
  endfacet
  facet normal -0.829148 0.559029 0
    outer loop
      vertex 101.142 176.129 0
      vertex 101.508 176.672 3
      vertex 101.508 176.672 0
    endloop
  endfacet
  facet normal -0.829148 0.559029 0
    outer loop
      vertex 101.508 176.672 3
      vertex 101.142 176.129 0
      vertex 101.142 176.129 3
    endloop
  endfacet
  facet normal 0.980221 0.197907 0
    outer loop
      vertex 98.3567 176.672 3
      vertex 98.2222 177.338 0
      vertex 98.2222 177.338 3
    endloop
  endfacet
  facet normal 0.980221 0.197907 0
    outer loop
      vertex 98.2222 177.338 0
      vertex 98.3567 176.672 3
      vertex 98.3567 176.672 0
    endloop
  endfacet
  facet normal 0.559037 0.829142 -0
    outer loop
      vertex 99.2668 175.762 0
      vertex 98.7232 176.129 3
      vertex 99.2668 175.762 3
    endloop
  endfacet
  facet normal 0.559037 0.829142 0
    outer loop
      vertex 98.7232 176.129 3
      vertex 99.2668 175.762 0
      vertex 98.7232 176.129 0
    endloop
  endfacet
  facet normal 0.829148 -0.559029 0
    outer loop
      vertex 98.3567 178.004 3
      vertex 98.7232 178.547 0
      vertex 98.7232 178.547 3
    endloop
  endfacet
  facet normal 0.829148 -0.559029 0
    outer loop
      vertex 98.7232 178.547 0
      vertex 98.3567 178.004 3
      vertex 98.3567 178.004 0
    endloop
  endfacet
  facet normal 0.559037 -0.829142 0
    outer loop
      vertex 98.7232 178.547 0
      vertex 99.2668 178.914 3
      vertex 98.7232 178.547 3
    endloop
  endfacet
  facet normal 0.559037 -0.829142 0
    outer loop
      vertex 99.2668 178.914 3
      vertex 98.7232 178.547 0
      vertex 99.2668 178.914 0
    endloop
  endfacet
  facet normal -0.829152 -0.559023 0
    outer loop
      vertex 83.805 140.627 0
      vertex 83.4627 141.135 1.5
      vertex 83.4627 141.135 0
    endloop
  endfacet
  facet normal -0.829152 -0.559023 0
    outer loop
      vertex 83.4627 141.135 1.5
      vertex 83.805 140.627 0
      vertex 83.805 140.627 1.5
    endloop
  endfacet
  facet normal -0.559011 -0.82916 0
    outer loop
      vertex 82.9549 141.477 0
      vertex 83.4627 141.135 1.5
      vertex 82.9549 141.477 1.5
    endloop
  endfacet
  facet normal -0.559011 -0.82916 -0
    outer loop
      vertex 83.4627 141.135 1.5
      vertex 82.9549 141.477 0
      vertex 83.4627 141.135 0
    endloop
  endfacet
  facet normal -0.197904 -0.980221 0
    outer loop
      vertex 82.3331 141.603 0
      vertex 82.9549 141.477 1.5
      vertex 82.3331 141.603 1.5
    endloop
  endfacet
  facet normal -0.197904 -0.980221 -0
    outer loop
      vertex 82.9549 141.477 1.5
      vertex 82.3331 141.603 0
      vertex 82.9549 141.477 0
    endloop
  endfacet
  facet normal -0.829152 0.559023 0
    outer loop
      vertex 83.4627 138.876 0
      vertex 83.805 139.384 1.5
      vertex 83.805 139.384 0
    endloop
  endfacet
  facet normal -0.829152 0.559023 0
    outer loop
      vertex 83.805 139.384 1.5
      vertex 83.4627 138.876 0
      vertex 83.4627 138.876 1.5
    endloop
  endfacet
  facet normal -0.980223 0.197895 0
    outer loop
      vertex 83.805 139.384 0
      vertex 83.9305 140.006 1.5
      vertex 83.9305 140.006 0
    endloop
  endfacet
  facet normal -0.980223 0.197895 0
    outer loop
      vertex 83.9305 140.006 1.5
      vertex 83.805 139.384 0
      vertex 83.805 139.384 1.5
    endloop
  endfacet
  facet normal 0.559028 0.829149 -0
    outer loop
      vertex 81.7114 138.534 0
      vertex 81.2036 138.876 1.5
      vertex 81.7114 138.534 1.5
    endloop
  endfacet
  facet normal 0.559028 0.829149 0
    outer loop
      vertex 81.2036 138.876 1.5
      vertex 81.7114 138.534 0
      vertex 81.2036 138.876 0
    endloop
  endfacet
  facet normal 0.197904 0.980221 -0
    outer loop
      vertex 82.3331 138.408 0
      vertex 81.7114 138.534 1.5
      vertex 82.3331 138.408 1.5
    endloop
  endfacet
  facet normal 0.197904 0.980221 0
    outer loop
      vertex 81.7114 138.534 1.5
      vertex 82.3331 138.408 0
      vertex 81.7114 138.534 0
    endloop
  endfacet
  facet normal -0.559028 0.829149 0
    outer loop
      vertex 83.4627 138.876 0
      vertex 82.9549 138.534 1.5
      vertex 83.4627 138.876 1.5
    endloop
  endfacet
  facet normal -0.559028 0.829149 0
    outer loop
      vertex 82.9549 138.534 1.5
      vertex 83.4627 138.876 0
      vertex 82.9549 138.534 0
    endloop
  endfacet
  facet normal -0.980223 -0.197895 0
    outer loop
      vertex 83.9305 140.006 0
      vertex 83.805 140.627 1.5
      vertex 83.805 140.627 0
    endloop
  endfacet
  facet normal -0.980223 -0.197895 0
    outer loop
      vertex 83.805 140.627 1.5
      vertex 83.9305 140.006 0
      vertex 83.9305 140.006 1.5
    endloop
  endfacet
  facet normal 0.829152 0.559023 0
    outer loop
      vertex 81.2036 138.876 1.5
      vertex 80.8613 139.384 0
      vertex 80.8613 139.384 1.5
    endloop
  endfacet
  facet normal 0.829152 0.559023 0
    outer loop
      vertex 80.8613 139.384 0
      vertex 81.2036 138.876 1.5
      vertex 81.2036 138.876 0
    endloop
  endfacet
  facet normal 0.197904 -0.980221 0
    outer loop
      vertex 81.7114 141.477 0
      vertex 82.3331 141.603 1.5
      vertex 81.7114 141.477 1.5
    endloop
  endfacet
  facet normal 0.197904 -0.980221 0
    outer loop
      vertex 82.3331 141.603 1.5
      vertex 81.7114 141.477 0
      vertex 82.3331 141.603 0
    endloop
  endfacet
  facet normal 0.829152 -0.559023 0
    outer loop
      vertex 80.8613 140.627 1.5
      vertex 81.2036 141.135 0
      vertex 81.2036 141.135 1.5
    endloop
  endfacet
  facet normal 0.829152 -0.559023 0
    outer loop
      vertex 81.2036 141.135 0
      vertex 80.8613 140.627 1.5
      vertex 80.8613 140.627 0
    endloop
  endfacet
  facet normal -0.197904 0.980221 0
    outer loop
      vertex 82.9549 138.534 0
      vertex 82.3331 138.408 1.5
      vertex 82.9549 138.534 1.5
    endloop
  endfacet
  facet normal -0.197904 0.980221 0
    outer loop
      vertex 82.3331 138.408 1.5
      vertex 82.9549 138.534 0
      vertex 82.3331 138.408 0
    endloop
  endfacet
  facet normal 0.980223 0.197895 0
    outer loop
      vertex 80.8613 139.384 1.5
      vertex 80.7358 140.006 0
      vertex 80.7358 140.006 1.5
    endloop
  endfacet
  facet normal 0.980223 0.197895 0
    outer loop
      vertex 80.7358 140.006 0
      vertex 80.8613 139.384 1.5
      vertex 80.8613 139.384 0
    endloop
  endfacet
  facet normal 0.980223 -0.197895 0
    outer loop
      vertex 80.7358 140.006 1.5
      vertex 80.8613 140.627 0
      vertex 80.8613 140.627 1.5
    endloop
  endfacet
  facet normal 0.980223 -0.197895 0
    outer loop
      vertex 80.8613 140.627 0
      vertex 80.7358 140.006 1.5
      vertex 80.7358 140.006 0
    endloop
  endfacet
  facet normal 0.559011 -0.82916 0
    outer loop
      vertex 81.2036 141.135 0
      vertex 81.7114 141.477 1.5
      vertex 81.2036 141.135 1.5
    endloop
  endfacet
  facet normal 0.559011 -0.82916 0
    outer loop
      vertex 81.7114 141.477 1.5
      vertex 81.2036 141.135 0
      vertex 81.7114 141.477 0
    endloop
  endfacet
  facet normal -0.829158 -0.559014 0
    outer loop
      vertex 83.805 252.624 0
      vertex 83.4627 253.132 1.5
      vertex 83.4627 253.132 0
    endloop
  endfacet
  facet normal -0.829158 -0.559014 0
    outer loop
      vertex 83.4627 253.132 1.5
      vertex 83.805 252.624 0
      vertex 83.805 252.624 1.5
    endloop
  endfacet
  facet normal -0.559005 -0.829164 0
    outer loop
      vertex 82.9549 253.474 0
      vertex 83.4627 253.132 1.5
      vertex 82.9549 253.474 1.5
    endloop
  endfacet
  facet normal -0.559005 -0.829164 -0
    outer loop
      vertex 83.4627 253.132 1.5
      vertex 82.9549 253.474 0
      vertex 83.4627 253.132 0
    endloop
  endfacet
  facet normal -0.197904 -0.980221 0
    outer loop
      vertex 82.3331 253.6 0
      vertex 82.9549 253.474 1.5
      vertex 82.3331 253.6 1.5
    endloop
  endfacet
  facet normal -0.197904 -0.980221 -0
    outer loop
      vertex 82.9549 253.474 1.5
      vertex 82.3331 253.6 0
      vertex 82.9549 253.474 0
    endloop
  endfacet
  facet normal -0.829158 0.559014 0
    outer loop
      vertex 83.4627 250.873 0
      vertex 83.805 251.381 1.5
      vertex 83.805 251.381 0
    endloop
  endfacet
  facet normal -0.829158 0.559014 0
    outer loop
      vertex 83.805 251.381 1.5
      vertex 83.4627 250.873 0
      vertex 83.4627 250.873 1.5
    endloop
  endfacet
  facet normal -0.980223 0.197895 0
    outer loop
      vertex 83.805 251.381 0
      vertex 83.9305 252.003 1.5
      vertex 83.9305 252.003 0
    endloop
  endfacet
  facet normal -0.980223 0.197895 0
    outer loop
      vertex 83.9305 252.003 1.5
      vertex 83.805 251.381 0
      vertex 83.805 251.381 1.5
    endloop
  endfacet
  facet normal 0.559028 0.829149 -0
    outer loop
      vertex 81.7114 250.531 0
      vertex 81.2036 250.873 1.5
      vertex 81.7114 250.531 1.5
    endloop
  endfacet
  facet normal 0.559028 0.829149 0
    outer loop
      vertex 81.2036 250.873 1.5
      vertex 81.7114 250.531 0
      vertex 81.2036 250.873 0
    endloop
  endfacet
  facet normal 0.197881 0.980226 -0
    outer loop
      vertex 82.3331 250.405 0
      vertex 81.7114 250.531 1.5
      vertex 82.3331 250.405 1.5
    endloop
  endfacet
  facet normal 0.197881 0.980226 0
    outer loop
      vertex 81.7114 250.531 1.5
      vertex 82.3331 250.405 0
      vertex 81.7114 250.531 0
    endloop
  endfacet
  facet normal -0.559023 0.829152 0
    outer loop
      vertex 83.4627 250.873 0
      vertex 82.9549 250.531 1.5
      vertex 83.4627 250.873 1.5
    endloop
  endfacet
  facet normal -0.559023 0.829152 0
    outer loop
      vertex 82.9549 250.531 1.5
      vertex 83.4627 250.873 0
      vertex 82.9549 250.531 0
    endloop
  endfacet
  facet normal -0.980224 -0.19789 0
    outer loop
      vertex 83.9305 252.003 0
      vertex 83.805 252.624 1.5
      vertex 83.805 252.624 0
    endloop
  endfacet
  facet normal -0.980224 -0.19789 0
    outer loop
      vertex 83.805 252.624 1.5
      vertex 83.9305 252.003 0
      vertex 83.9305 252.003 1.5
    endloop
  endfacet
  facet normal 0.829152 0.559023 0
    outer loop
      vertex 81.2036 250.873 1.5
      vertex 80.8613 251.381 0
      vertex 80.8613 251.381 1.5
    endloop
  endfacet
  facet normal 0.829152 0.559023 0
    outer loop
      vertex 80.8613 251.381 0
      vertex 81.2036 250.873 1.5
      vertex 81.2036 250.873 0
    endloop
  endfacet
  facet normal 0.197904 -0.980221 0
    outer loop
      vertex 81.7114 253.474 0
      vertex 82.3331 253.6 1.5
      vertex 81.7114 253.474 1.5
    endloop
  endfacet
  facet normal 0.197904 -0.980221 0
    outer loop
      vertex 82.3331 253.6 1.5
      vertex 81.7114 253.474 0
      vertex 82.3331 253.6 0
    endloop
  endfacet
  facet normal 0.829152 -0.559023 0
    outer loop
      vertex 80.8613 252.624 1.5
      vertex 81.2036 253.132 0
      vertex 81.2036 253.132 1.5
    endloop
  endfacet
  facet normal 0.829152 -0.559023 0
    outer loop
      vertex 81.2036 253.132 0
      vertex 80.8613 252.624 1.5
      vertex 80.8613 252.624 0
    endloop
  endfacet
  facet normal -0.197881 0.980226 0
    outer loop
      vertex 82.9549 250.531 0
      vertex 82.3331 250.405 1.5
      vertex 82.9549 250.531 1.5
    endloop
  endfacet
  facet normal -0.197881 0.980226 0
    outer loop
      vertex 82.3331 250.405 1.5
      vertex 82.9549 250.531 0
      vertex 82.3331 250.405 0
    endloop
  endfacet
  facet normal 0.980223 0.197895 0
    outer loop
      vertex 80.8613 251.381 1.5
      vertex 80.7358 252.003 0
      vertex 80.7358 252.003 1.5
    endloop
  endfacet
  facet normal 0.980223 0.197895 0
    outer loop
      vertex 80.7358 252.003 0
      vertex 80.8613 251.381 1.5
      vertex 80.8613 251.381 0
    endloop
  endfacet
  facet normal 0.980224 -0.19789 0
    outer loop
      vertex 80.7358 252.003 1.5
      vertex 80.8613 252.624 0
      vertex 80.8613 252.624 1.5
    endloop
  endfacet
  facet normal 0.980224 -0.19789 0
    outer loop
      vertex 80.8613 252.624 0
      vertex 80.7358 252.003 1.5
      vertex 80.7358 252.003 0
    endloop
  endfacet
  facet normal 0.559011 -0.82916 0
    outer loop
      vertex 81.2036 253.132 0
      vertex 81.7114 253.474 1.5
      vertex 81.2036 253.132 1.5
    endloop
  endfacet
  facet normal 0.559011 -0.82916 0
    outer loop
      vertex 81.7114 253.474 1.5
      vertex 81.2036 253.132 0
      vertex 81.7114 253.474 0
    endloop
  endfacet
  facet normal -0.829155 -0.559019 0
    outer loop
      vertex 122.833 178.004 1.5
      vertex 122.467 178.547 3
      vertex 122.467 178.547 1.5
    endloop
  endfacet
  facet normal -0.829155 -0.559019 0
    outer loop
      vertex 122.467 178.547 3
      vertex 122.833 178.004 1.5
      vertex 122.833 178.004 3
    endloop
  endfacet
  facet normal -0.559021 -0.829153 0
    outer loop
      vertex 121.923 178.914 1.5
      vertex 122.467 178.547 3
      vertex 121.923 178.914 3
    endloop
  endfacet
  facet normal -0.559021 -0.829153 -0
    outer loop
      vertex 122.467 178.547 3
      vertex 121.923 178.914 1.5
      vertex 122.467 178.547 1.5
    endloop
  endfacet
  facet normal -0.197894 -0.980223 0
    outer loop
      vertex 121.257 179.048 1.5
      vertex 121.923 178.914 3
      vertex 121.257 179.048 3
    endloop
  endfacet
  facet normal -0.197894 -0.980223 -0
    outer loop
      vertex 121.923 178.914 3
      vertex 121.257 179.048 1.5
      vertex 121.923 178.914 1.5
    endloop
  endfacet
  facet normal 0.980223 -0.197896 0
    outer loop
      vertex 119.547 177.338 3
      vertex 119.681 178.004 1.5
      vertex 119.681 178.004 3
    endloop
  endfacet
  facet normal 0.980223 -0.197896 0
    outer loop
      vertex 119.681 178.004 1.5
      vertex 119.547 177.338 3
      vertex 119.547 177.338 1.5
    endloop
  endfacet
  facet normal -0.559037 0.829142 0
    outer loop
      vertex 122.467 176.129 1.5
      vertex 121.923 175.762 3
      vertex 122.467 176.129 3
    endloop
  endfacet
  facet normal -0.559037 0.829142 0
    outer loop
      vertex 121.923 175.762 3
      vertex 122.467 176.129 1.5
      vertex 121.923 175.762 1.5
    endloop
  endfacet
  facet normal 0.197896 -0.980223 0
    outer loop
      vertex 120.592 178.914 1.5
      vertex 121.257 179.048 3
      vertex 120.592 178.914 3
    endloop
  endfacet
  facet normal 0.197896 -0.980223 0
    outer loop
      vertex 121.257 179.048 3
      vertex 120.592 178.914 1.5
      vertex 121.257 179.048 1.5
    endloop
  endfacet
  facet normal -0.980221 0.197907 0
    outer loop
      vertex 122.833 176.672 1.5
      vertex 122.967 177.338 3
      vertex 122.967 177.338 1.5
    endloop
  endfacet
  facet normal -0.980221 0.197907 0
    outer loop
      vertex 122.967 177.338 3
      vertex 122.833 176.672 1.5
      vertex 122.833 176.672 3
    endloop
  endfacet
  facet normal 0.197896 0.980223 -0
    outer loop
      vertex 121.257 175.628 1.5
      vertex 120.592 175.762 3
      vertex 121.257 175.628 3
    endloop
  endfacet
  facet normal 0.197896 0.980223 0
    outer loop
      vertex 120.592 175.762 3
      vertex 121.257 175.628 1.5
      vertex 120.592 175.762 1.5
    endloop
  endfacet
  facet normal -0.197894 0.980223 0
    outer loop
      vertex 121.923 175.762 1.5
      vertex 121.257 175.628 3
      vertex 121.923 175.762 3
    endloop
  endfacet
  facet normal -0.197894 0.980223 0
    outer loop
      vertex 121.257 175.628 3
      vertex 121.923 175.762 1.5
      vertex 121.257 175.628 1.5
    endloop
  endfacet
  facet normal -0.980221 -0.197907 0
    outer loop
      vertex 122.967 177.338 1.5
      vertex 122.833 178.004 3
      vertex 122.833 178.004 1.5
    endloop
  endfacet
  facet normal -0.980221 -0.197907 0
    outer loop
      vertex 122.833 178.004 3
      vertex 122.967 177.338 1.5
      vertex 122.967 177.338 3
    endloop
  endfacet
  facet normal 0.829148 0.559029 0
    outer loop
      vertex 120.048 176.129 3
      vertex 119.681 176.672 1.5
      vertex 119.681 176.672 3
    endloop
  endfacet
  facet normal 0.829148 0.559029 0
    outer loop
      vertex 119.681 176.672 1.5
      vertex 120.048 176.129 3
      vertex 120.048 176.129 1.5
    endloop
  endfacet
  facet normal -0.829148 0.559029 0
    outer loop
      vertex 122.467 176.129 1.5
      vertex 122.833 176.672 3
      vertex 122.833 176.672 1.5
    endloop
  endfacet
  facet normal -0.829148 0.559029 0
    outer loop
      vertex 122.833 176.672 3
      vertex 122.467 176.129 1.5
      vertex 122.467 176.129 3
    endloop
  endfacet
  facet normal 0.980223 0.197896 0
    outer loop
      vertex 119.681 176.672 3
      vertex 119.547 177.338 1.5
      vertex 119.547 177.338 3
    endloop
  endfacet
  facet normal 0.980223 0.197896 0
    outer loop
      vertex 119.547 177.338 1.5
      vertex 119.681 176.672 3
      vertex 119.681 176.672 1.5
    endloop
  endfacet
  facet normal 0.559032 0.829146 -0
    outer loop
      vertex 120.592 175.762 1.5
      vertex 120.048 176.129 3
      vertex 120.592 175.762 3
    endloop
  endfacet
  facet normal 0.559032 0.829146 0
    outer loop
      vertex 120.048 176.129 3
      vertex 120.592 175.762 1.5
      vertex 120.048 176.129 1.5
    endloop
  endfacet
  facet normal 0.829155 -0.559019 0
    outer loop
      vertex 119.681 178.004 3
      vertex 120.048 178.547 1.5
      vertex 120.048 178.547 3
    endloop
  endfacet
  facet normal 0.829155 -0.559019 0
    outer loop
      vertex 120.048 178.547 1.5
      vertex 119.681 178.004 3
      vertex 119.681 178.004 1.5
    endloop
  endfacet
  facet normal 0.559016 -0.829157 0
    outer loop
      vertex 120.048 178.547 1.5
      vertex 120.592 178.914 3
      vertex 120.048 178.547 3
    endloop
  endfacet
  facet normal 0.559016 -0.829157 0
    outer loop
      vertex 120.592 178.914 3
      vertex 120.048 178.547 1.5
      vertex 120.592 178.914 1.5
    endloop
  endfacet
  facet normal 0 0 -1
    outer loop
      vertex 116.572 191.466 1.5
      vertex 112.5 191.47 1.5
      vertex 116.572 191.477 1.5
    endloop
  endfacet
  facet normal 0 0 -1
    outer loop
      vertex 115.935 184.535 1.5
      vertex 120.048 178.547 1.5
      vertex 119.681 178.004 1.5
    endloop
  endfacet
  facet normal 0 0 -1
    outer loop
      vertex 115.935 184.535 1.5
      vertex 119.681 178.004 1.5
      vertex 119.547 177.338 1.5
    endloop
  endfacet
  facet normal 0 0 -1
    outer loop
      vertex 120.048 178.547 1.5
      vertex 119.521 187.031 1.5
      vertex 119.773 188.277 1.5
    endloop
  endfacet
  facet normal 0 0 -1
    outer loop
      vertex 115.935 170.13 1.5
      vertex 120.048 176.129 1.5
      vertex 117.818 169.359 1.5
    endloop
  endfacet
  facet normal -0 0 -1
    outer loop
      vertex 120.048 176.129 1.5
      vertex 115.935 170.13 1.5
      vertex 119.681 176.672 1.5
    endloop
  endfacet
  facet normal 0 0 -1
    outer loop
      vertex 120.048 178.547 1.5
      vertex 118.835 186.014 1.5
      vertex 119.521 187.031 1.5
    endloop
  endfacet
  facet normal -0 0 -1
    outer loop
      vertex 119.681 176.672 1.5
      vertex 115.935 170.13 1.5
      vertex 119.547 177.338 1.5
    endloop
  endfacet
  facet normal 0 0 -1
    outer loop
      vertex 120.048 178.547 1.5
      vertex 117.818 185.328 1.5
      vertex 118.835 186.014 1.5
    endloop
  endfacet
  facet normal 0 0 -1
    outer loop
      vertex 115.935 170.13 1.5
      vertex 117.818 169.359 1.5
      vertex 116.572 169.61 1.5
    endloop
  endfacet
  facet normal -0 0 -1
    outer loop
      vertex 119.547 177.338 1.5
      vertex 115.935 170.13 1.5
      vertex 115.935 184.535 1.5
    endloop
  endfacet
  facet normal 0 0 -1
    outer loop
      vertex 120.048 178.547 1.5
      vertex 115.935 184.535 1.5
      vertex 117.818 185.328 1.5
    endloop
  endfacet
  facet normal 0 0 -1
    outer loop
      vertex 117.818 185.328 1.5
      vertex 115.935 184.535 1.5
      vertex 116.572 185.076 1.5
    endloop
  endfacet
  facet normal 0 0 -1
    outer loop
      vertex 140.996 169.87 1.5
      vertex 150 214.665 1.5
      vertex 150 169.87 1.5
    endloop
  endfacet
  facet normal 0 0 -1
    outer loop
      vertex 119.773 188.277 1.5
      vertex 150 214.665 1.5
      vertex 140.996 169.87 1.5
    endloop
  endfacet
  facet normal 0 0 -1
    outer loop
      vertex 122.833 178.004 1.5
      vertex 140.996 169.87 1.5
      vertex 122.967 177.338 1.5
    endloop
  endfacet
  facet normal 0 0 -1
    outer loop
      vertex 140.996 169.87 1.5
      vertex 122.833 176.672 1.5
      vertex 122.967 177.338 1.5
    endloop
  endfacet
  facet normal 0 0 -1
    outer loop
      vertex 140.996 169.87 1.5
      vertex 122.467 176.129 1.5
      vertex 122.833 176.672 1.5
    endloop
  endfacet
  facet normal 0 0 -1
    outer loop
      vertex 119.773 166.41 1.5
      vertex 122.467 176.129 1.5
      vertex 140.996 169.87 1.5
    endloop
  endfacet
  facet normal 0 0 -1
    outer loop
      vertex 119.521 167.656 1.5
      vertex 122.467 176.129 1.5
      vertex 119.773 166.41 1.5
    endloop
  endfacet
  facet normal 0 0 -1
    outer loop
      vertex 119.521 165.164 1.5
      vertex 140.996 169.87 1.5
      vertex 121.135 150 1.5
    endloop
  endfacet
  facet normal 0 0 -1
    outer loop
      vertex 122.467 176.129 1.5
      vertex 119.521 167.656 1.5
      vertex 121.923 175.762 1.5
    endloop
  endfacet
  facet normal 0 0 -1
    outer loop
      vertex 118.835 168.673 1.5
      vertex 121.923 175.762 1.5
      vertex 119.521 167.656 1.5
    endloop
  endfacet
  facet normal 0 0 -1
    outer loop
      vertex 121.923 175.762 1.5
      vertex 118.835 168.673 1.5
      vertex 121.257 175.628 1.5
    endloop
  endfacet
  facet normal 0 0 -1
    outer loop
      vertex 140.996 169.87 1.5
      vertex 119.521 165.164 1.5
      vertex 119.773 166.41 1.5
    endloop
  endfacet
  facet normal 0 0 -1
    outer loop
      vertex 121.135 150 1.5
      vertex 118.835 164.147 1.5
      vertex 119.521 165.164 1.5
    endloop
  endfacet
  facet normal 0 0 -1
    outer loop
      vertex 121.135 150 1.5
      vertex 117.818 163.461 1.5
      vertex 118.835 164.147 1.5
    endloop
  endfacet
  facet normal 0 0 -1
    outer loop
      vertex 121.135 150 1.5
      vertex 116.572 163.21 1.5
      vertex 117.818 163.461 1.5
    endloop
  endfacet
  facet normal 0 0 -1
    outer loop
      vertex 112.5 150 1.5
      vertex 116.572 163.21 1.5
      vertex 121.135 150 1.5
    endloop
  endfacet
  facet normal -0 0 -1
    outer loop
      vertex 116.572 163.21 1.5
      vertex 112.5 150 1.5
      vertex 112.5 163.21 1.5
    endloop
  endfacet
  facet normal 0 0 -1
    outer loop
      vertex 119.773 188.277 1.5
      vertex 140.996 169.87 1.5
      vertex 122.833 178.004 1.5
    endloop
  endfacet
  facet normal 0 0 -1
    outer loop
      vertex 119.773 188.277 1.5
      vertex 122.833 178.004 1.5
      vertex 122.467 178.547 1.5
    endloop
  endfacet
  facet normal 0 0 -1
    outer loop
      vertex 119.773 188.277 1.5
      vertex 122.467 178.547 1.5
      vertex 121.923 178.914 1.5
    endloop
  endfacet
  facet normal 0 0 -1
    outer loop
      vertex 119.773 188.277 1.5
      vertex 121.923 178.914 1.5
      vertex 121.257 179.048 1.5
    endloop
  endfacet
  facet normal 0 0 -1
    outer loop
      vertex 119.773 188.277 1.5
      vertex 121.257 179.048 1.5
      vertex 120.592 178.914 1.5
    endloop
  endfacet
  facet normal 0 0 -1
    outer loop
      vertex 119.773 188.277 1.5
      vertex 120.592 178.914 1.5
      vertex 120.048 178.547 1.5
    endloop
  endfacet
  facet normal 0 0 -1
    outer loop
      vertex 150 214.665 1.5
      vertex 119.773 188.277 1.5
      vertex 119.521 189.523 1.5
    endloop
  endfacet
  facet normal -0 0 -1
    outer loop
      vertex 150 214.665 1.5
      vertex 119.521 189.523 1.5
      vertex 128.714 214.665 1.5
    endloop
  endfacet
  facet normal 0 0 -1
    outer loop
      vertex 118.835 190.54 1.5
      vertex 128.714 214.665 1.5
      vertex 119.521 189.523 1.5
    endloop
  endfacet
  facet normal 0 0 -1
    outer loop
      vertex 117.818 191.226 1.5
      vertex 128.714 214.665 1.5
      vertex 118.835 190.54 1.5
    endloop
  endfacet
  facet normal 0 0 -1
    outer loop
      vertex 116.572 191.477 1.5
      vertex 128.714 214.665 1.5
      vertex 117.818 191.226 1.5
    endloop
  endfacet
  facet normal 0 0 -1
    outer loop
      vertex 112.5 191.47 1.5
      vertex 128.714 214.665 1.5
      vertex 116.572 191.477 1.5
    endloop
  endfacet
  facet normal -0 0 -1
    outer loop
      vertex 128.714 214.665 1.5
      vertex 112.5 191.47 1.5
      vertex 112.5 230.878 1.5
    endloop
  endfacet
  facet normal 0 0 -1
    outer loop
      vertex 117.818 169.359 1.5
      vertex 121.257 175.628 1.5
      vertex 118.835 168.673 1.5
    endloop
  endfacet
  facet normal -0 0 -1
    outer loop
      vertex 121.257 175.628 1.5
      vertex 117.818 169.359 1.5
      vertex 120.592 175.762 1.5
    endloop
  endfacet
  facet normal -0 0 -1
    outer loop
      vertex 120.592 175.762 1.5
      vertex 117.818 169.359 1.5
      vertex 120.048 176.129 1.5
    endloop
  endfacet
  facet normal 0 0 1
    outer loop
      vertex 112.5 150 1.5
      vertex 104.617 116.812 1.5
      vertex 112.5 116.805 1.5
    endloop
  endfacet
  facet normal -0 0 1
    outer loop
      vertex 83.805 139.384 1.5
      vertex 104.617 116.812 1.5
      vertex 112.5 150 1.5
    endloop
  endfacet
  facet normal 0 0 1
    outer loop
      vertex 104.617 116.812 1.5
      vertex 83.805 139.384 1.5
      vertex 103.371 116.561 1.5
    endloop
  endfacet
  facet normal 0 0 1
    outer loop
      vertex 103.371 116.561 1.5
      vertex 94.5983 117.343 1.5
      vertex 102.354 115.875 1.5
    endloop
  endfacet
  facet normal 0 0 1
    outer loop
      vertex 101.669 114.858 1.5
      vertex 94.5983 117.343 1.5
      vertex 101.417 113.612 1.5
    endloop
  endfacet
  facet normal 0 0 1
    outer loop
      vertex 102.354 115.875 1.5
      vertex 94.5983 117.343 1.5
      vertex 101.669 114.858 1.5
    endloop
  endfacet
  facet normal 0 0 1
    outer loop
      vertex 83.805 139.384 1.5
      vertex 112.5 150 1.5
      vertex 83.9305 140.006 1.5
    endloop
  endfacet
  facet normal 0 0 1
    outer loop
      vertex 112.5 150 1.5
      vertex 83.805 140.627 1.5
      vertex 83.9305 140.006 1.5
    endloop
  endfacet
  facet normal -0 0 1
    outer loop
      vertex 81.9492 150 1.5
      vertex 83.805 140.627 1.5
      vertex 112.5 150 1.5
    endloop
  endfacet
  facet normal 0 0 1
    outer loop
      vertex 83.805 140.627 1.5
      vertex 81.9492 150 1.5
      vertex 83.4627 141.135 1.5
    endloop
  endfacet
  facet normal 0 0 1
    outer loop
      vertex 83.4627 141.135 1.5
      vertex 81.9492 150 1.5
      vertex 82.9549 141.477 1.5
    endloop
  endfacet
  facet normal 0 0 1
    outer loop
      vertex 82.9549 141.477 1.5
      vertex 81.9492 150 1.5
      vertex 82.3331 141.603 1.5
    endloop
  endfacet
  facet normal 0 0 1
    outer loop
      vertex 81.9492 150 1.5
      vertex 81.7114 141.477 1.5
      vertex 82.3331 141.603 1.5
    endloop
  endfacet
  facet normal -0 0 1
    outer loop
      vertex 75.938 143.985 1.5
      vertex 81.7114 141.477 1.5
      vertex 81.9492 150 1.5
    endloop
  endfacet
  facet normal 0 0 1
    outer loop
      vertex 81.7114 141.477 1.5
      vertex 75.938 143.985 1.5
      vertex 81.2036 141.135 1.5
    endloop
  endfacet
  facet normal 0 0 1
    outer loop
      vertex 81.2036 141.135 1.5
      vertex 75.938 143.985 1.5
      vertex 80.8613 140.627 1.5
    endloop
  endfacet
  facet normal 0 0 1
    outer loop
      vertex 80.8613 140.627 1.5
      vertex 75.938 143.985 1.5
      vertex 80.7358 140.006 1.5
    endloop
  endfacet
  facet normal 0 0 1
    outer loop
      vertex 94.5983 112.5 1.5
      vertex 101.417 113.612 1.5
      vertex 94.5983 117.343 1.5
    endloop
  endfacet
  facet normal 0 0 1
    outer loop
      vertex 101.417 113.612 1.5
      vertex 94.5983 112.5 1.5
      vertex 101.642 112.5 1.5
    endloop
  endfacet
  facet normal 0 0 1
    outer loop
      vertex 103.371 116.561 1.5
      vertex 83.805 139.384 1.5
      vertex 94.5983 117.343 1.5
    endloop
  endfacet
  facet normal -0 0 1
    outer loop
      vertex 83.4627 138.876 1.5
      vertex 94.5983 117.343 1.5
      vertex 83.805 139.384 1.5
    endloop
  endfacet
  facet normal -0 0 1
    outer loop
      vertex 82.9549 138.534 1.5
      vertex 94.5983 117.343 1.5
      vertex 83.4627 138.876 1.5
    endloop
  endfacet
  facet normal -0 0 1
    outer loop
      vertex 82.3331 138.408 1.5
      vertex 94.5983 117.343 1.5
      vertex 82.9549 138.534 1.5
    endloop
  endfacet
  facet normal 0 0 1
    outer loop
      vertex 75.938 136.015 1.5
      vertex 82.3331 138.408 1.5
      vertex 81.7114 138.534 1.5
    endloop
  endfacet
  facet normal 0 0 1
    outer loop
      vertex 75.938 136.015 1.5
      vertex 81.7114 138.534 1.5
      vertex 81.2036 138.876 1.5
    endloop
  endfacet
  facet normal 0 0 1
    outer loop
      vertex 75.938 136.015 1.5
      vertex 81.2036 138.876 1.5
      vertex 80.8613 139.384 1.5
    endloop
  endfacet
  facet normal 0 0 1
    outer loop
      vertex 75.938 136.015 1.5
      vertex 80.7358 140.006 1.5
      vertex 75.938 143.985 1.5
    endloop
  endfacet
  facet normal 0 0 1
    outer loop
      vertex 80.7358 140.006 1.5
      vertex 75.938 136.015 1.5
      vertex 80.8613 139.384 1.5
    endloop
  endfacet
  facet normal 0 0 1
    outer loop
      vertex 82.3331 138.408 1.5
      vertex 75.938 136.015 1.5
      vertex 94.5983 117.343 1.5
    endloop
  endfacet
  facet normal 0 0 1
    outer loop
      vertex 93.3781 250 1.5
      vertex 83.805 252.624 1.5
      vertex 83.9305 252.003 1.5
    endloop
  endfacet
  facet normal 0 0 1
    outer loop
      vertex 84.9801 258.398 1.5
      vertex 83.4627 253.132 1.5
      vertex 83.805 252.624 1.5
    endloop
  endfacet
  facet normal 0 0 1
    outer loop
      vertex 84.9801 258.398 1.5
      vertex 82.9549 253.474 1.5
      vertex 83.4627 253.132 1.5
    endloop
  endfacet
  facet normal 0 0 1
    outer loop
      vertex 84.9801 258.398 1.5
      vertex 82.3331 253.6 1.5
      vertex 82.9549 253.474 1.5
    endloop
  endfacet
  facet normal -0 0 1
    outer loop
      vertex 79.6857 258.398 1.5
      vertex 82.3331 253.6 1.5
      vertex 84.9801 258.398 1.5
    endloop
  endfacet
  facet normal 0 0 1
    outer loop
      vertex 82.3331 253.6 1.5
      vertex 79.6857 258.398 1.5
      vertex 81.7114 253.474 1.5
    endloop
  endfacet
  facet normal 0 0 1
    outer loop
      vertex 81.2036 253.132 1.5
      vertex 75.938 254.65 1.5
      vertex 80.8613 252.624 1.5
    endloop
  endfacet
  facet normal -0 0 1
    outer loop
      vertex 75.938 254.65 1.5
      vertex 81.2036 253.132 1.5
      vertex 79.6857 258.398 1.5
    endloop
  endfacet
  facet normal 0 0 1
    outer loop
      vertex 81.7114 253.474 1.5
      vertex 79.6857 258.398 1.5
      vertex 81.2036 253.132 1.5
    endloop
  endfacet
  facet normal -0 0 1
    outer loop
      vertex 83.805 252.624 1.5
      vertex 93.3781 250 1.5
      vertex 84.9801 258.398 1.5
    endloop
  endfacet
  facet normal -0 0 1
    outer loop
      vertex 83.805 251.381 1.5
      vertex 93.3781 250 1.5
      vertex 83.9305 252.003 1.5
    endloop
  endfacet
  facet normal -0 0 1
    outer loop
      vertex 83.4627 250.873 1.5
      vertex 93.3781 250 1.5
      vertex 83.805 251.381 1.5
    endloop
  endfacet
  facet normal -0 0 1
    outer loop
      vertex 82.9549 250.531 1.5
      vertex 93.3781 250 1.5
      vertex 83.4627 250.873 1.5
    endloop
  endfacet
  facet normal -0 0 1
    outer loop
      vertex 82.3331 250.405 1.5
      vertex 93.3781 250 1.5
      vertex 82.9549 250.531 1.5
    endloop
  endfacet
  facet normal 0 0 1
    outer loop
      vertex 80.8613 252.624 1.5
      vertex 75.938 254.65 1.5
      vertex 80.7358 252.003 1.5
    endloop
  endfacet
  facet normal 0 0 1
    outer loop
      vertex 75.938 250 1.5
      vertex 80.7358 252.003 1.5
      vertex 75.938 254.65 1.5
    endloop
  endfacet
  facet normal 0 0 1
    outer loop
      vertex 80.7358 252.003 1.5
      vertex 75.938 250 1.5
      vertex 80.8613 251.381 1.5
    endloop
  endfacet
  facet normal 0 0 1
    outer loop
      vertex 82.3331 250.405 1.5
      vertex 75.938 250 1.5
      vertex 93.3781 250 1.5
    endloop
  endfacet
  facet normal 0 0 1
    outer loop
      vertex 81.7114 250.531 1.5
      vertex 75.938 250 1.5
      vertex 82.3331 250.405 1.5
    endloop
  endfacet
  facet normal 0 0 1
    outer loop
      vertex 81.2036 250.873 1.5
      vertex 75.938 250 1.5
      vertex 81.7114 250.531 1.5
    endloop
  endfacet
  facet normal 0 0 1
    outer loop
      vertex 80.8613 251.381 1.5
      vertex 75.938 250 1.5
      vertex 81.2036 250.873 1.5
    endloop
  endfacet
  facet normal 1 -0 0
    outer loop
      vertex 112.5 191.47 1.5
      vertex 112.5 230.878 0
      vertex 112.5 230.878 1.5
    endloop
  endfacet
  facet normal 1 0 0
    outer loop
      vertex 112.5 230.878 0
      vertex 112.5 191.47 1.5
      vertex 112.5 191.47 0
    endloop
  endfacet
  facet normal 1 -0 0
    outer loop
      vertex 112.5 150 1.5
      vertex 112.5 163.21 0
      vertex 112.5 163.21 1.5
    endloop
  endfacet
  facet normal 1 0 0
    outer loop
      vertex 112.5 116.805 0
      vertex 112.5 150 1.5
      vertex 112.5 116.805 1.5
    endloop
  endfacet
  facet normal 1 0 0
    outer loop
      vertex 112.5 150 1.5
      vertex 112.5 116.805 0
      vertex 112.5 163.21 0
    endloop
  endfacet
  facet normal 0 -1 0
    outer loop
      vertex 94.5983 112.5 0
      vertex 101.642 112.5 1.5
      vertex 94.5983 112.5 1.5
    endloop
  endfacet
  facet normal 0 -1 -0
    outer loop
      vertex 101.642 112.5 1.5
      vertex 94.5983 112.5 0
      vertex 101.642 112.5 0
    endloop
  endfacet
  facet normal 1 -0 0
    outer loop
      vertex 150 169.87 3
      vertex 150 214.665 1.5
      vertex 150 214.665 3
    endloop
  endfacet
  facet normal 1 0 0
    outer loop
      vertex 150 214.665 1.5
      vertex 150 169.87 3
      vertex 150 169.87 1.5
    endloop
  endfacet
  facet normal 0 -1 0
    outer loop
      vertex 112.5 150 1.5
      vertex 81.9492 150 3
      vertex 81.9492 150 1.5
    endloop
  endfacet
  facet normal 0 -1 0
    outer loop
      vertex 81.9492 150 3
      vertex 112.5 150 1.5
      vertex 121.135 150 3
    endloop
  endfacet
  facet normal 0 -1 -0
    outer loop
      vertex 121.135 150 3
      vertex 112.5 150 1.5
      vertex 121.135 150 1.5
    endloop
  endfacet
  facet normal 0 1 -0
    outer loop
      vertex 93.3781 250 1.5
      vertex 75.938 250 3
      vertex 93.3781 250 3
    endloop
  endfacet
  facet normal 0 1 0
    outer loop
      vertex 75.938 250 3
      vertex 93.3781 250 1.5
      vertex 75.938 250 1.5
    endloop
  endfacet
endsolid OpenSCAD_Model
