solid OpenSCAD_Model
  facet normal 0 0 -1
    outer loop
      vertex 84.9801 21.602 0
      vertex 83.805 27.3867 0
      vertex 83.9305 28.0085 0
    endloop
  endfacet
  facet normal 0 0 -1
    outer loop
      vertex 84.9801 21.602 0
      vertex 83.4627 26.879 0
      vertex 83.805 27.3867 0
    endloop
  endfacet
  facet normal 0 0 -1
    outer loop
      vertex 84.9801 21.602 0
      vertex 82.9549 26.5366 0
      vertex 83.4627 26.879 0
    endloop
  endfacet
  facet normal 0 0 -1
    outer loop
      vertex 84.9801 21.602 0
      vertex 82.3331 26.4111 0
      vertex 82.9549 26.5366 0
    endloop
  endfacet
  facet normal 0 0 -1
    outer loop
      vertex 79.6857 21.602 0
      vertex 82.3331 26.4111 0
      vertex 84.9801 21.602 0
    endloop
  endfacet
  facet normal -0 0 -1
    outer loop
      vertex 82.3331 26.4111 0
      vertex 79.6857 21.602 0
      vertex 81.7114 26.5366 0
    endloop
  endfacet
  facet normal -0 0 -1
    outer loop
      vertex 81.2036 26.879 0
      vertex 75.938 25.3497 0
      vertex 80.8613 27.3867 0
    endloop
  endfacet
  facet normal 0 0 -1
    outer loop
      vertex 75.938 25.3497 0
      vertex 81.2036 26.879 0
      vertex 79.6857 21.602 0
    endloop
  endfacet
  facet normal -0 0 -1
    outer loop
      vertex 81.7114 26.5366 0
      vertex 79.6857 21.602 0
      vertex 81.2036 26.879 0
    endloop
  endfacet
  facet normal 0 0 -1
    outer loop
      vertex 104.736 73.8699 0
      vertex 112.5 49.1219 0
      vertex 104.736 59.4539 0
    endloop
  endfacet
  facet normal 0 0 -1
    outer loop
      vertex 83.9305 28.0085 0
      vertex 112.5 49.1219 0
      vertex 84.9801 21.602 0
    endloop
  endfacet
  facet normal 0 0 -1
    outer loop
      vertex 83.805 28.6303 0
      vertex 112.5 49.1219 0
      vertex 83.9305 28.0085 0
    endloop
  endfacet
  facet normal 0 0 -1
    outer loop
      vertex 83.4627 29.138 0
      vertex 112.5 49.1219 0
      vertex 83.805 28.6303 0
    endloop
  endfacet
  facet normal -0 0 -1
    outer loop
      vertex 112.5 49.1219 0
      vertex 83.4627 29.138 0
      vertex 104.736 59.4539 0
    endloop
  endfacet
  facet normal 0 0 -1
    outer loop
      vertex 82.9549 29.4803 0
      vertex 104.736 59.4539 0
      vertex 83.4627 29.138 0
    endloop
  endfacet
  facet normal 0 0 -1
    outer loop
      vertex 82.3331 29.6059 0
      vertex 104.736 59.4539 0
      vertex 82.9549 29.4803 0
    endloop
  endfacet
  facet normal 0 0 -1
    outer loop
      vertex 75.938 30.6557 0
      vertex 82.3331 29.6059 0
      vertex 81.7114 29.4803 0
    endloop
  endfacet
  facet normal 0 0 -1
    outer loop
      vertex 75.938 30.6557 0
      vertex 81.7114 29.4803 0
      vertex 81.2036 29.138 0
    endloop
  endfacet
  facet normal -0 0 -1
    outer loop
      vertex 80.8613 27.3867 0
      vertex 75.938 25.3497 0
      vertex 80.7358 28.0085 0
    endloop
  endfacet
  facet normal 0 0 -1
    outer loop
      vertex 75.938 30.6557 0
      vertex 80.7358 28.0085 0
      vertex 75.938 25.3497 0
    endloop
  endfacet
  facet normal 0 0 -1
    outer loop
      vertex 80.7358 28.0085 0
      vertex 75.938 30.6557 0
      vertex 80.8613 28.6303 0
    endloop
  endfacet
  facet normal 0 0 -1
    outer loop
      vertex 80.8613 28.6303 0
      vertex 75.938 30.6557 0
      vertex 81.2036 29.138 0
    endloop
  endfacet
  facet normal 0 0 -1
    outer loop
      vertex 82.3331 29.6059 0
      vertex 75.938 30.6557 0
      vertex 104.736 59.4539 0
    endloop
  endfacet
  facet normal 0 0 -1
    outer loop
      vertex 112.5 49.1219 0
      vertex 104.736 73.8699 0
      vertex 112.5 88.5449 0
    endloop
  endfacet
  facet normal 0 0 -1
    outer loop
      vertex 104.736 73.8699 0
      vertex 104.617 88.5449 0
      vertex 112.5 88.5449 0
    endloop
  endfacet
  facet normal 0 0 -1
    outer loop
      vertex 104.736 73.8699 0
      vertex 103.371 88.7968 0
      vertex 104.617 88.5449 0
    endloop
  endfacet
  facet normal 0 0 -1
    outer loop
      vertex 94.5983 84.0073 0
      vertex 103.371 88.7968 0
      vertex 104.736 73.8699 0
    endloop
  endfacet
  facet normal -0 0 -1
    outer loop
      vertex 103.371 88.7968 0
      vertex 94.5983 84.0073 0
      vertex 102.354 89.4825 0
    endloop
  endfacet
  facet normal -0 0 -1
    outer loop
      vertex 102.354 89.4825 0
      vertex 94.5983 84.0073 0
      vertex 101.669 90.5 0
    endloop
  endfacet
  facet normal 0 0 -1
    outer loop
      vertex 103.371 94.6942 0
      vertex 100.598 101.097 0
      vertex 101.142 101.464 0
    endloop
  endfacet
  facet normal 0 0 -1
    outer loop
      vertex 101.669 92.9915 0
      vertex 99.9325 100.963 0
      vertex 100.598 101.097 0
    endloop
  endfacet
  facet normal 0 0 -1
    outer loop
      vertex 101.669 92.9915 0
      vertex 99.2668 101.097 0
      vertex 99.9325 100.963 0
    endloop
  endfacet
  facet normal -0 0 -1
    outer loop
      vertex 101.669 90.5 0
      vertex 94.5983 84.0073 0
      vertex 101.417 91.7458 0
    endloop
  endfacet
  facet normal 0 -0 -1
    outer loop
      vertex 98.7232 101.464 0
      vertex 101.417 91.7458 0
      vertex 94.5983 84.0073 0
    endloop
  endfacet
  facet normal 0 0 -1
    outer loop
      vertex 101.669 92.9915 0
      vertex 98.7232 101.464 0
      vertex 99.2668 101.097 0
    endloop
  endfacet
  facet normal -0 0 -1
    outer loop
      vertex 98.3567 102.007 0
      vertex 94.5983 84.0073 0
      vertex 98.2222 102.673 0
    endloop
  endfacet
  facet normal -0 0 -1
    outer loop
      vertex 98.7232 101.464 0
      vertex 94.5983 84.0073 0
      vertex 98.3567 102.007 0
    endloop
  endfacet
  facet normal 0 0 -1
    outer loop
      vertex 103.371 94.6942 0
      vertex 105.266 95.4654 0
      vertex 104.617 94.9461 0
    endloop
  endfacet
  facet normal 0 0 -1
    outer loop
      vertex 105.266 95.4654 0
      vertex 101.643 102.673 0
      vertex 105.266 109.87 0
    endloop
  endfacet
  facet normal -0 0 -1
    outer loop
      vertex 105.266 95.4654 0
      vertex 103.371 94.6942 0
      vertex 101.142 101.464 0
    endloop
  endfacet
  facet normal 0 0 -1
    outer loop
      vertex 101.508 103.339 0
      vertex 105.266 109.87 0
      vertex 101.643 102.673 0
    endloop
  endfacet
  facet normal 0 0 -1
    outer loop
      vertex 100.598 101.097 0
      vertex 103.371 94.6942 0
      vertex 102.354 94.0085 0
    endloop
  endfacet
  facet normal 0 0 -1
    outer loop
      vertex 101.142 103.883 0
      vertex 105.266 109.87 0
      vertex 101.508 103.339 0
    endloop
  endfacet
  facet normal 0 0 -1
    outer loop
      vertex 100.598 101.097 0
      vertex 102.354 94.0085 0
      vertex 101.669 92.9915 0
    endloop
  endfacet
  facet normal 0 -0 -1
    outer loop
      vertex 103.371 110.664 0
      vertex 105.266 109.87 0
      vertex 101.142 103.883 0
    endloop
  endfacet
  facet normal 0 0 -1
    outer loop
      vertex 105.266 109.87 0
      vertex 103.371 110.664 0
      vertex 104.617 110.412 0
    endloop
  endfacet
  facet normal 0 0 -1
    outer loop
      vertex 105.266 95.4654 0
      vertex 101.508 102.007 0
      vertex 101.643 102.673 0
    endloop
  endfacet
  facet normal 0 0 -1
    outer loop
      vertex 98.7232 101.464 0
      vertex 101.669 92.9915 0
      vertex 101.417 91.7458 0
    endloop
  endfacet
  facet normal 0 0 -1
    outer loop
      vertex 105.266 95.4654 0
      vertex 101.142 101.464 0
      vertex 101.508 102.007 0
    endloop
  endfacet
  facet normal 0 0 -1
    outer loop
      vertex 100.598 104.249 0
      vertex 103.371 110.664 0
      vertex 101.142 103.883 0
    endloop
  endfacet
  facet normal 0 0 -1
    outer loop
      vertex 99.9325 104.383 0
      vertex 103.371 110.664 0
      vertex 100.598 104.249 0
    endloop
  endfacet
  facet normal -0 0 -1
    outer loop
      vertex 103.371 110.664 0
      vertex 99.9325 104.383 0
      vertex 102.354 111.349 0
    endloop
  endfacet
  facet normal 0 0 -1
    outer loop
      vertex 99.2668 104.249 0
      vertex 102.354 111.349 0
      vertex 99.9325 104.383 0
    endloop
  endfacet
  facet normal 0 0 -1
    outer loop
      vertex 94.5983 112.5 0
      vertex 102.354 111.349 0
      vertex 99.2668 104.249 0
    endloop
  endfacet
  facet normal 0 0 -1
    outer loop
      vertex 102.354 111.349 0
      vertex 94.5983 112.5 0
      vertex 101.669 112.366 0
    endloop
  endfacet
  facet normal 0 0 -1
    outer loop
      vertex 94.5983 112.5 0
      vertex 99.2668 104.249 0
      vertex 98.7232 103.883 0
    endloop
  endfacet
  facet normal 0 0 -1
    outer loop
      vertex 94.5983 112.5 0
      vertex 98.7232 103.883 0
      vertex 98.3567 103.339 0
    endloop
  endfacet
  facet normal 0 0 -1
    outer loop
      vertex 101.669 112.366 0
      vertex 94.5983 112.5 0
      vertex 101.642 112.5 0
    endloop
  endfacet
  facet normal 0 0 -1
    outer loop
      vertex 98.2222 102.673 0
      vertex 94.5983 112.5 0
      vertex 98.3567 103.339 0
    endloop
  endfacet
  facet normal 0 0 -1
    outer loop
      vertex 94.5983 112.5 0
      vertex 98.2222 102.673 0
      vertex 94.5983 84.0073 0
    endloop
  endfacet
  facet normal 0 0 1
    outer loop
      vertex 115.935 135.202 3
      vertex 83.805 139.384 3
      vertex 94.5983 117.343 3
    endloop
  endfacet
  facet normal -0 0 1
    outer loop
      vertex 83.4627 138.876 3
      vertex 94.5983 117.343 3
      vertex 83.805 139.384 3
    endloop
  endfacet
  facet normal -0 0 1
    outer loop
      vertex 82.9549 138.534 3
      vertex 94.5983 117.343 3
      vertex 83.4627 138.876 3
    endloop
  endfacet
  facet normal -0 0 1
    outer loop
      vertex 82.3331 138.408 3
      vertex 94.5983 117.343 3
      vertex 82.9549 138.534 3
    endloop
  endfacet
  facet normal 0 0 1
    outer loop
      vertex 75.938 136.015 3
      vertex 82.3331 138.408 3
      vertex 81.7114 138.534 3
    endloop
  endfacet
  facet normal 0 0 1
    outer loop
      vertex 75.938 136.015 3
      vertex 81.7114 138.534 3
      vertex 81.2036 138.876 3
    endloop
  endfacet
  facet normal 0 0 1
    outer loop
      vertex 75.938 136.015 3
      vertex 81.2036 138.876 3
      vertex 80.8613 139.384 3
    endloop
  endfacet
  facet normal 0 0 1
    outer loop
      vertex 75.938 136.015 3
      vertex 80.7358 140.006 3
      vertex 75.938 143.985 3
    endloop
  endfacet
  facet normal 0 0 1
    outer loop
      vertex 80.7358 140.006 3
      vertex 75.938 136.015 3
      vertex 80.8613 139.384 3
    endloop
  endfacet
  facet normal 0 0 1
    outer loop
      vertex 82.3331 138.408 3
      vertex 75.938 136.015 3
      vertex 94.5983 117.343 3
    endloop
  endfacet
  facet normal -0 0 1
    outer loop
      vertex 83.805 27.3867 3
      vertex 84.9801 21.602 3
      vertex 83.9305 28.0085 3
    endloop
  endfacet
  facet normal -0 0 1
    outer loop
      vertex 83.4627 26.879 3
      vertex 84.9801 21.602 3
      vertex 83.805 27.3867 3
    endloop
  endfacet
  facet normal -0 0 1
    outer loop
      vertex 82.9549 26.5366 3
      vertex 84.9801 21.602 3
      vertex 83.4627 26.879 3
    endloop
  endfacet
  facet normal -0 0 1
    outer loop
      vertex 82.3331 26.4111 3
      vertex 84.9801 21.602 3
      vertex 82.9549 26.5366 3
    endloop
  endfacet
  facet normal 0 0 1
    outer loop
      vertex 79.6857 21.602 3
      vertex 82.3331 26.4111 3
      vertex 81.7114 26.5366 3
    endloop
  endfacet
  facet normal 0 0 1
    outer loop
      vertex 79.6857 21.602 3
      vertex 81.7114 26.5366 3
      vertex 81.2036 26.879 3
    endloop
  endfacet
  facet normal 0 0 1
    outer loop
      vertex 82.3331 26.4111 3
      vertex 79.6857 21.602 3
      vertex 84.9801 21.602 3
    endloop
  endfacet
  facet normal 0 0 1
    outer loop
      vertex 75.938 25.3497 3
      vertex 81.2036 26.879 3
      vertex 80.8613 27.3867 3
    endloop
  endfacet
  facet normal 0 0 1
    outer loop
      vertex 75.938 25.3497 3
      vertex 80.8613 27.3867 3
      vertex 80.7358 28.0085 3
    endloop
  endfacet
  facet normal -0 0 1
    outer loop
      vertex 104.617 88.5449 3
      vertex 104.736 73.8699 3
      vertex 116.572 88.5449 3
    endloop
  endfacet
  facet normal 0 0 1
    outer loop
      vertex 103.371 88.7968 3
      vertex 104.736 73.8699 3
      vertex 104.617 88.5449 3
    endloop
  endfacet
  facet normal 0 0 1
    outer loop
      vertex 94.5983 84.0073 3
      vertex 103.371 88.7968 3
      vertex 102.354 89.4825 3
    endloop
  endfacet
  facet normal 0 0 1
    outer loop
      vertex 94.5983 84.0073 3
      vertex 102.354 89.4825 3
      vertex 101.669 90.5 3
    endloop
  endfacet
  facet normal 0 0 1
    outer loop
      vertex 94.5983 84.0073 3
      vertex 101.669 90.5 3
      vertex 101.417 91.7458 3
    endloop
  endfacet
  facet normal 0 0 1
    outer loop
      vertex 99.2668 101.097 3
      vertex 102.354 94.0085 3
      vertex 99.9325 100.963 3
    endloop
  endfacet
  facet normal 0 0 1
    outer loop
      vertex 102.354 94.0085 3
      vertex 99.2668 101.097 3
      vertex 101.669 92.9915 3
    endloop
  endfacet
  facet normal 0 0 1
    outer loop
      vertex 98.7232 101.464 3
      vertex 101.669 92.9915 3
      vertex 99.2668 101.097 3
    endloop
  endfacet
  facet normal 0 0 1
    outer loop
      vertex 101.669 92.9915 3
      vertex 98.7232 101.464 3
      vertex 101.417 91.7458 3
    endloop
  endfacet
  facet normal 0 0 1
    outer loop
      vertex 101.417 91.7458 3
      vertex 98.7232 101.464 3
      vertex 94.5983 84.0073 3
    endloop
  endfacet
  facet normal 0 0 1
    outer loop
      vertex 94.5983 84.0073 3
      vertex 98.7232 101.464 3
      vertex 98.3567 102.007 3
    endloop
  endfacet
  facet normal 0 0 1
    outer loop
      vertex 94.5983 84.0073 3
      vertex 98.2222 102.673 3
      vertex 94.5983 117.343 3
    endloop
  endfacet
  facet normal 0 0 1
    outer loop
      vertex 98.2222 102.673 3
      vertex 94.5983 84.0073 3
      vertex 98.3567 102.007 3
    endloop
  endfacet
  facet normal 0 0 1
    outer loop
      vertex 103.371 88.7968 3
      vertex 94.5983 84.0073 3
      vertex 104.736 73.8699 3
    endloop
  endfacet
  facet normal 0 0 1
    outer loop
      vertex 103.371 110.664 3
      vertex 105.266 109.87 3
      vertex 104.617 110.412 3
    endloop
  endfacet
  facet normal 0 0 1
    outer loop
      vertex 105.266 109.87 3
      vertex 101.643 102.673 3
      vertex 105.266 95.4654 3
    endloop
  endfacet
  facet normal 0 0 1
    outer loop
      vertex 105.266 109.87 3
      vertex 103.371 110.664 3
      vertex 101.142 103.883 3
    endloop
  endfacet
  facet normal -0 0 1
    outer loop
      vertex 101.508 102.007 3
      vertex 105.266 95.4654 3
      vertex 101.643 102.673 3
    endloop
  endfacet
  facet normal 0 0 1
    outer loop
      vertex 99.9325 104.383 3
      vertex 103.371 110.664 3
      vertex 102.354 111.349 3
    endloop
  endfacet
  facet normal -0 0 1
    outer loop
      vertex 101.142 101.464 3
      vertex 105.266 95.4654 3
      vertex 101.508 102.007 3
    endloop
  endfacet
  facet normal 0 0 1
    outer loop
      vertex 99.2668 104.249 3
      vertex 102.354 111.349 3
      vertex 101.669 112.366 3
    endloop
  endfacet
  facet normal 0 -0 1
    outer loop
      vertex 103.371 94.6942 3
      vertex 105.266 95.4654 3
      vertex 101.142 101.464 3
    endloop
  endfacet
  facet normal 0 0 1
    outer loop
      vertex 105.266 95.4654 3
      vertex 103.371 94.6942 3
      vertex 104.617 94.9461 3
    endloop
  endfacet
  facet normal 0 0 1
    outer loop
      vertex 105.266 109.87 3
      vertex 101.508 103.339 3
      vertex 101.643 102.673 3
    endloop
  endfacet
  facet normal 0 0 1
    outer loop
      vertex 94.5983 117.343 3
      vertex 101.669 112.366 3
      vertex 101.417 113.612 3
    endloop
  endfacet
  facet normal 0 0 1
    outer loop
      vertex 105.266 109.87 3
      vertex 101.142 103.883 3
      vertex 101.508 103.339 3
    endloop
  endfacet
  facet normal -0 0 1
    outer loop
      vertex 100.598 101.097 3
      vertex 103.371 94.6942 3
      vertex 101.142 101.464 3
    endloop
  endfacet
  facet normal -0 0 1
    outer loop
      vertex 99.9325 100.963 3
      vertex 103.371 94.6942 3
      vertex 100.598 101.097 3
    endloop
  endfacet
  facet normal 0 0 1
    outer loop
      vertex 103.371 94.6942 3
      vertex 99.9325 100.963 3
      vertex 102.354 94.0085 3
    endloop
  endfacet
  facet normal -0 0 1
    outer loop
      vertex 83.9305 140.006 3
      vertex 115.935 135.202 3
      vertex 115.935 144.798 3
    endloop
  endfacet
  facet normal -0 0 1
    outer loop
      vertex 83.805 139.384 3
      vertex 115.935 135.202 3
      vertex 83.9305 140.006 3
    endloop
  endfacet
  facet normal 0 0 1
    outer loop
      vertex 115.935 135.202 3
      vertex 103.371 116.561 3
      vertex 104.617 116.812 3
    endloop
  endfacet
  facet normal 0 0 1
    outer loop
      vertex 103.371 116.561 3
      vertex 94.5983 117.343 3
      vertex 102.354 115.875 3
    endloop
  endfacet
  facet normal 0 0 1
    outer loop
      vertex 103.371 110.664 3
      vertex 100.598 104.249 3
      vertex 101.142 103.883 3
    endloop
  endfacet
  facet normal 0 0 1
    outer loop
      vertex 103.371 110.664 3
      vertex 99.9325 104.383 3
      vertex 100.598 104.249 3
    endloop
  endfacet
  facet normal 0 0 1
    outer loop
      vertex 102.354 111.349 3
      vertex 99.2668 104.249 3
      vertex 99.9325 104.383 3
    endloop
  endfacet
  facet normal 0 0 1
    outer loop
      vertex 94.5983 117.343 3
      vertex 101.417 113.612 3
      vertex 101.669 114.858 3
    endloop
  endfacet
  facet normal 0 -0 1
    outer loop
      vertex 98.7232 103.883 3
      vertex 101.669 112.366 3
      vertex 94.5983 117.343 3
    endloop
  endfacet
  facet normal 0 0 1
    outer loop
      vertex 101.669 112.366 3
      vertex 98.7232 103.883 3
      vertex 99.2668 104.249 3
    endloop
  endfacet
  facet normal 0 0 1
    outer loop
      vertex 98.3567 103.339 3
      vertex 94.5983 117.343 3
      vertex 98.2222 102.673 3
    endloop
  endfacet
  facet normal 0 0 1
    outer loop
      vertex 98.7232 103.883 3
      vertex 94.5983 117.343 3
      vertex 98.3567 103.339 3
    endloop
  endfacet
  facet normal 0 0 1
    outer loop
      vertex 102.354 115.875 3
      vertex 94.5983 117.343 3
      vertex 101.669 114.858 3
    endloop
  endfacet
  facet normal 0 0 1
    outer loop
      vertex 115.935 135.202 3
      vertex 94.5983 117.343 3
      vertex 103.371 116.561 3
    endloop
  endfacet
  facet normal -0 0 1
    outer loop
      vertex 81.9492 150 3
      vertex 115.935 144.798 3
      vertex 121.135 150 3
    endloop
  endfacet
  facet normal 0 0 1
    outer loop
      vertex 115.935 144.798 3
      vertex 83.805 140.627 3
      vertex 83.9305 140.006 3
    endloop
  endfacet
  facet normal 0 0 1
    outer loop
      vertex 115.935 144.798 3
      vertex 81.9492 150 3
      vertex 83.805 140.627 3
    endloop
  endfacet
  facet normal 0 0 1
    outer loop
      vertex 83.805 140.627 3
      vertex 81.9492 150 3
      vertex 83.4627 141.135 3
    endloop
  endfacet
  facet normal 0 0 1
    outer loop
      vertex 83.4627 141.135 3
      vertex 81.9492 150 3
      vertex 82.9549 141.477 3
    endloop
  endfacet
  facet normal 0 0 1
    outer loop
      vertex 82.9549 141.477 3
      vertex 81.9492 150 3
      vertex 82.3331 141.603 3
    endloop
  endfacet
  facet normal 0 0 1
    outer loop
      vertex 81.9492 150 3
      vertex 81.7114 141.477 3
      vertex 82.3331 141.603 3
    endloop
  endfacet
  facet normal -0 0 1
    outer loop
      vertex 75.938 143.985 3
      vertex 81.7114 141.477 3
      vertex 81.9492 150 3
    endloop
  endfacet
  facet normal 0 0 1
    outer loop
      vertex 81.7114 141.477 3
      vertex 75.938 143.985 3
      vertex 81.2036 141.135 3
    endloop
  endfacet
  facet normal 0 0 1
    outer loop
      vertex 81.2036 141.135 3
      vertex 75.938 143.985 3
      vertex 80.8613 140.627 3
    endloop
  endfacet
  facet normal 0 0 1
    outer loop
      vertex 80.8613 140.627 3
      vertex 75.938 143.985 3
      vertex 80.7358 140.006 3
    endloop
  endfacet
  facet normal 0 0 1
    outer loop
      vertex 115.935 95.4654 3
      vertex 120.048 101.464 3
      vertex 119.681 102.007 3
    endloop
  endfacet
  facet normal 0 0 1
    outer loop
      vertex 115.935 95.4654 3
      vertex 119.681 102.007 3
      vertex 119.547 102.673 3
    endloop
  endfacet
  facet normal 0 0 1
    outer loop
      vertex 120.048 101.464 3
      vertex 119.521 92.9915 3
      vertex 119.773 91.7458 3
    endloop
  endfacet
  facet normal -0 0 1
    outer loop
      vertex 115.935 109.87 3
      vertex 120.048 103.883 3
      vertex 117.818 110.664 3
    endloop
  endfacet
  facet normal 0 0 1
    outer loop
      vertex 120.048 103.883 3
      vertex 115.935 109.87 3
      vertex 119.681 103.339 3
    endloop
  endfacet
  facet normal 0 0 1
    outer loop
      vertex 120.048 101.464 3
      vertex 118.835 94.0085 3
      vertex 119.521 92.9915 3
    endloop
  endfacet
  facet normal 0 0 1
    outer loop
      vertex 119.681 103.339 3
      vertex 115.935 109.87 3
      vertex 119.547 102.673 3
    endloop
  endfacet
  facet normal 0 0 1
    outer loop
      vertex 120.048 101.464 3
      vertex 117.818 94.6942 3
      vertex 118.835 94.0085 3
    endloop
  endfacet
  facet normal 0 0 1
    outer loop
      vertex 115.935 109.87 3
      vertex 117.818 110.664 3
      vertex 116.572 110.412 3
    endloop
  endfacet
  facet normal 0 0 1
    outer loop
      vertex 115.935 95.4654 3
      vertex 119.547 102.673 3
      vertex 115.935 109.87 3
    endloop
  endfacet
  facet normal 0 0 1
    outer loop
      vertex 120.048 101.464 3
      vertex 115.935 95.4654 3
      vertex 117.818 94.6942 3
    endloop
  endfacet
  facet normal 0 0 1
    outer loop
      vertex 117.818 94.6942 3
      vertex 115.935 95.4654 3
      vertex 116.572 94.9461 3
    endloop
  endfacet
  facet normal -0 0 1
    outer loop
      vertex 140.996 110.141 3
      vertex 150 65.3354 3
      vertex 150 110.141 3
    endloop
  endfacet
  facet normal -0 0 1
    outer loop
      vertex 119.773 91.7458 3
      vertex 150 65.3354 3
      vertex 140.996 110.141 3
    endloop
  endfacet
  facet normal 0 0 1
    outer loop
      vertex 122.833 102.007 3
      vertex 140.996 110.141 3
      vertex 122.967 102.673 3
    endloop
  endfacet
  facet normal 0 0 1
    outer loop
      vertex 140.996 110.141 3
      vertex 122.833 103.339 3
      vertex 122.967 102.673 3
    endloop
  endfacet
  facet normal 0 0 1
    outer loop
      vertex 140.996 110.141 3
      vertex 122.467 103.883 3
      vertex 122.833 103.339 3
    endloop
  endfacet
  facet normal 0 0 1
    outer loop
      vertex 119.773 113.612 3
      vertex 122.467 103.883 3
      vertex 140.996 110.141 3
    endloop
  endfacet
  facet normal -0 0 1
    outer loop
      vertex 119.521 112.366 3
      vertex 122.467 103.883 3
      vertex 119.773 113.612 3
    endloop
  endfacet
  facet normal -0 0 1
    outer loop
      vertex 118.835 111.349 3
      vertex 121.923 104.249 3
      vertex 119.521 112.366 3
    endloop
  endfacet
  facet normal 0 0 1
    outer loop
      vertex 121.923 104.249 3
      vertex 118.835 111.349 3
      vertex 121.257 104.383 3
    endloop
  endfacet
  facet normal 0 0 1
    outer loop
      vertex 122.467 103.883 3
      vertex 119.521 112.366 3
      vertex 121.923 104.249 3
    endloop
  endfacet
  facet normal 0 0 1
    outer loop
      vertex 140.996 110.141 3
      vertex 119.521 114.858 3
      vertex 119.773 113.612 3
    endloop
  endfacet
  facet normal 0 0 1
    outer loop
      vertex 140.996 110.141 3
      vertex 118.835 115.875 3
      vertex 119.521 114.858 3
    endloop
  endfacet
  facet normal 0 0 1
    outer loop
      vertex 115.935 135.202 3
      vertex 118.835 115.875 3
      vertex 140.996 110.141 3
    endloop
  endfacet
  facet normal 0 0 1
    outer loop
      vertex 118.835 115.875 3
      vertex 115.935 135.202 3
      vertex 117.818 116.561 3
    endloop
  endfacet
  facet normal 0 0 1
    outer loop
      vertex 115.935 135.202 3
      vertex 116.572 116.812 3
      vertex 117.818 116.561 3
    endloop
  endfacet
  facet normal 0 0 1
    outer loop
      vertex 104.617 116.812 3
      vertex 116.572 116.812 3
      vertex 115.935 135.202 3
    endloop
  endfacet
  facet normal 0 0 1
    outer loop
      vertex 116.572 116.812 3
      vertex 104.617 116.812 3
      vertex 116.572 116.801 3
    endloop
  endfacet
  facet normal 0 0 1
    outer loop
      vertex 119.773 91.7458 3
      vertex 140.996 110.141 3
      vertex 122.833 102.007 3
    endloop
  endfacet
  facet normal 0 0 1
    outer loop
      vertex 119.773 91.7458 3
      vertex 122.833 102.007 3
      vertex 122.467 101.464 3
    endloop
  endfacet
  facet normal 0 0 1
    outer loop
      vertex 119.773 91.7458 3
      vertex 122.467 101.464 3
      vertex 121.923 101.097 3
    endloop
  endfacet
  facet normal 0 0 1
    outer loop
      vertex 119.773 91.7458 3
      vertex 121.923 101.097 3
      vertex 121.257 100.963 3
    endloop
  endfacet
  facet normal 0 0 1
    outer loop
      vertex 119.773 91.7458 3
      vertex 121.257 100.963 3
      vertex 120.592 101.097 3
    endloop
  endfacet
  facet normal 0 0 1
    outer loop
      vertex 119.773 91.7458 3
      vertex 120.592 101.097 3
      vertex 120.048 101.464 3
    endloop
  endfacet
  facet normal 0 0 1
    outer loop
      vertex 150 65.3354 3
      vertex 119.773 91.7458 3
      vertex 119.521 90.5 3
    endloop
  endfacet
  facet normal 0 0 1
    outer loop
      vertex 150 65.3354 3
      vertex 119.521 90.5 3
      vertex 128.714 65.3354 3
    endloop
  endfacet
  facet normal -0 0 1
    outer loop
      vertex 118.835 89.4825 3
      vertex 128.714 65.3354 3
      vertex 119.521 90.5 3
    endloop
  endfacet
  facet normal -0 0 1
    outer loop
      vertex 117.818 88.7968 3
      vertex 128.714 65.3354 3
      vertex 118.835 89.4825 3
    endloop
  endfacet
  facet normal -0 0 1
    outer loop
      vertex 116.572 88.5449 3
      vertex 128.714 65.3354 3
      vertex 117.818 88.7968 3
    endloop
  endfacet
  facet normal -0 0 1
    outer loop
      vertex 104.736 73.8699 3
      vertex 128.714 65.3354 3
      vertex 116.572 88.5449 3
    endloop
  endfacet
  facet normal 0 0 1
    outer loop
      vertex 104.736 59.4539 3
      vertex 128.714 65.3354 3
      vertex 104.736 73.8699 3
    endloop
  endfacet
  facet normal -0 0 1
    outer loop
      vertex 104.736 59.4539 3
      vertex 84.9801 21.602 3
      vertex 128.714 65.3354 3
    endloop
  endfacet
  facet normal 0 0 1
    outer loop
      vertex 104.736 59.4539 3
      vertex 83.9305 28.0085 3
      vertex 84.9801 21.602 3
    endloop
  endfacet
  facet normal 0 0 1
    outer loop
      vertex 104.736 59.4539 3
      vertex 83.805 28.6303 3
      vertex 83.9305 28.0085 3
    endloop
  endfacet
  facet normal 0 0 1
    outer loop
      vertex 104.736 59.4539 3
      vertex 83.4627 29.138 3
      vertex 83.805 28.6303 3
    endloop
  endfacet
  facet normal 0 0 1
    outer loop
      vertex 104.736 59.4539 3
      vertex 82.9549 29.4803 3
      vertex 83.4627 29.138 3
    endloop
  endfacet
  facet normal 0 0 1
    outer loop
      vertex 104.736 59.4539 3
      vertex 82.3331 29.6059 3
      vertex 82.9549 29.4803 3
    endloop
  endfacet
  facet normal -0 0 1
    outer loop
      vertex 75.938 30.6557 3
      vertex 82.3331 29.6059 3
      vertex 104.736 59.4539 3
    endloop
  endfacet
  facet normal 0 0 1
    outer loop
      vertex 82.3331 29.6059 3
      vertex 75.938 30.6557 3
      vertex 81.7114 29.4803 3
    endloop
  endfacet
  facet normal 0 0 1
    outer loop
      vertex 81.7114 29.4803 3
      vertex 75.938 30.6557 3
      vertex 81.2036 29.138 3
    endloop
  endfacet
  facet normal 0 0 1
    outer loop
      vertex 75.938 30.6557 3
      vertex 80.8613 28.6303 3
      vertex 81.2036 29.138 3
    endloop
  endfacet
  facet normal 0 0 1
    outer loop
      vertex 75.938 30.6557 3
      vertex 80.7358 28.0085 3
      vertex 80.8613 28.6303 3
    endloop
  endfacet
  facet normal 0 0 1
    outer loop
      vertex 75.938 25.3497 3
      vertex 80.7358 28.0085 3
      vertex 75.938 30.6557 3
    endloop
  endfacet
  facet normal 0 0 1
    outer loop
      vertex 81.2036 26.879 3
      vertex 75.938 25.3497 3
      vertex 79.6857 21.602 3
    endloop
  endfacet
  facet normal -0 0 1
    outer loop
      vertex 117.818 110.664 3
      vertex 121.257 104.383 3
      vertex 118.835 111.349 3
    endloop
  endfacet
  facet normal 0 0 1
    outer loop
      vertex 121.257 104.383 3
      vertex 117.818 110.664 3
      vertex 120.592 104.249 3
    endloop
  endfacet
  facet normal 0 0 1
    outer loop
      vertex 120.592 104.249 3
      vertex 117.818 110.664 3
      vertex 120.048 103.883 3
    endloop
  endfacet
  facet normal -0.559048 -0.829136 0
    outer loop
      vertex 117.818 116.561 1.5
      vertex 118.835 115.875 3
      vertex 117.818 116.561 3
    endloop
  endfacet
  facet normal -0.559048 -0.829136 -0
    outer loop
      vertex 118.835 115.875 3
      vertex 117.818 116.561 1.5
      vertex 118.835 115.875 1.5
    endloop
  endfacet
  facet normal -0.829071 -0.559144 0
    outer loop
      vertex 119.521 114.858 1.5
      vertex 118.835 115.875 3
      vertex 118.835 115.875 1.5
    endloop
  endfacet
  facet normal -0.829071 -0.559144 0
    outer loop
      vertex 118.835 115.875 3
      vertex 119.521 114.858 1.5
      vertex 119.521 114.858 3
    endloop
  endfacet
  facet normal -0.980246 -0.197782 0
    outer loop
      vertex 119.773 113.612 1.5
      vertex 119.521 114.858 3
      vertex 119.521 114.858 1.5
    endloop
  endfacet
  facet normal -0.980246 -0.197782 0
    outer loop
      vertex 119.521 114.858 3
      vertex 119.773 113.612 1.5
      vertex 119.773 113.612 3
    endloop
  endfacet
  facet normal -0.980246 0.197782 0
    outer loop
      vertex 119.521 112.366 1.5
      vertex 119.773 113.612 3
      vertex 119.773 113.612 1.5
    endloop
  endfacet
  facet normal -0.980246 0.197782 0
    outer loop
      vertex 119.773 113.612 3
      vertex 119.521 112.366 1.5
      vertex 119.521 112.366 3
    endloop
  endfacet
  facet normal -0.828931 0.559351 0
    outer loop
      vertex 118.835 111.349 1.5
      vertex 119.521 112.366 3
      vertex 119.521 112.366 1.5
    endloop
  endfacet
  facet normal -0.828931 0.559351 0
    outer loop
      vertex 119.521 112.366 3
      vertex 118.835 111.349 1.5
      vertex 118.835 111.349 3
    endloop
  endfacet
  facet normal -0.559043 0.829138 0
    outer loop
      vertex 118.835 111.349 1.5
      vertex 117.818 110.664 3
      vertex 118.835 111.349 3
    endloop
  endfacet
  facet normal -0.559043 0.829138 0
    outer loop
      vertex 117.818 110.664 3
      vertex 118.835 111.349 1.5
      vertex 117.818 110.664 1.5
    endloop
  endfacet
  facet normal -0.198203 0.980161 0
    outer loop
      vertex 117.818 110.664 1.5
      vertex 116.572 110.412 3
      vertex 117.818 110.664 3
    endloop
  endfacet
  facet normal -0.198203 0.980161 0
    outer loop
      vertex 116.572 110.412 3
      vertex 117.818 110.664 1.5
      vertex 116.572 110.412 1.5
    endloop
  endfacet
  facet normal -0.647483 0.76208 0
    outer loop
      vertex 116.572 110.412 1.5
      vertex 115.935 109.87 3
      vertex 116.572 110.412 3
    endloop
  endfacet
  facet normal -0.647483 0.76208 0
    outer loop
      vertex 115.935 109.87 3
      vertex 116.572 110.412 1.5
      vertex 115.935 109.87 1.5
    endloop
  endfacet
  facet normal -1 0 0
    outer loop
      vertex 115.935 95.4654 1.5
      vertex 115.935 109.87 3
      vertex 115.935 109.87 1.5
    endloop
  endfacet
  facet normal -1 -0 0
    outer loop
      vertex 115.935 109.87 3
      vertex 115.935 95.4654 1.5
      vertex 115.935 95.4654 3
    endloop
  endfacet
  facet normal -0.631372 -0.77548 0
    outer loop
      vertex 115.935 95.4654 1.5
      vertex 116.572 94.9461 3
      vertex 115.935 95.4654 3
    endloop
  endfacet
  facet normal -0.631372 -0.77548 -0
    outer loop
      vertex 116.572 94.9461 3
      vertex 115.935 95.4654 1.5
      vertex 116.572 94.9461 1.5
    endloop
  endfacet
  facet normal -0.198203 -0.980161 0
    outer loop
      vertex 116.572 94.9461 1.5
      vertex 117.818 94.6942 3
      vertex 116.572 94.9461 3
    endloop
  endfacet
  facet normal -0.198203 -0.980161 -0
    outer loop
      vertex 117.818 94.6942 3
      vertex 116.572 94.9461 1.5
      vertex 117.818 94.6942 1.5
    endloop
  endfacet
  facet normal -0.559048 -0.829136 0
    outer loop
      vertex 117.818 94.6942 1.5
      vertex 118.835 94.0085 3
      vertex 117.818 94.6942 3
    endloop
  endfacet
  facet normal -0.559048 -0.829136 -0
    outer loop
      vertex 118.835 94.0085 3
      vertex 117.818 94.6942 1.5
      vertex 118.835 94.0085 1.5
    endloop
  endfacet
  facet normal -0.828929 -0.559354 0
    outer loop
      vertex 119.521 92.9915 1.5
      vertex 118.835 94.0085 3
      vertex 118.835 94.0085 1.5
    endloop
  endfacet
  facet normal -0.828929 -0.559354 0
    outer loop
      vertex 118.835 94.0085 3
      vertex 119.521 92.9915 1.5
      vertex 119.521 92.9915 3
    endloop
  endfacet
  facet normal -0.980246 -0.197782 0
    outer loop
      vertex 119.773 91.7458 1.5
      vertex 119.521 92.9915 3
      vertex 119.521 92.9915 1.5
    endloop
  endfacet
  facet normal -0.980246 -0.197782 0
    outer loop
      vertex 119.521 92.9915 3
      vertex 119.773 91.7458 1.5
      vertex 119.773 91.7458 3
    endloop
  endfacet
  facet normal -0.980246 0.197781 0
    outer loop
      vertex 119.521 90.5 1.5
      vertex 119.773 91.7458 3
      vertex 119.773 91.7458 1.5
    endloop
  endfacet
  facet normal -0.980246 0.197781 0
    outer loop
      vertex 119.773 91.7458 3
      vertex 119.521 90.5 1.5
      vertex 119.521 90.5 3
    endloop
  endfacet
  facet normal -0.829071 0.559144 0
    outer loop
      vertex 118.835 89.4825 1.5
      vertex 119.521 90.5 3
      vertex 119.521 90.5 1.5
    endloop
  endfacet
  facet normal -0.829071 0.559144 0
    outer loop
      vertex 119.521 90.5 3
      vertex 118.835 89.4825 1.5
      vertex 118.835 89.4825 3
    endloop
  endfacet
  facet normal -0.559043 0.829138 0
    outer loop
      vertex 118.835 89.4825 1.5
      vertex 117.818 88.7968 3
      vertex 118.835 89.4825 3
    endloop
  endfacet
  facet normal -0.559043 0.829138 0
    outer loop
      vertex 117.818 88.7968 3
      vertex 118.835 89.4825 1.5
      vertex 117.818 88.7968 1.5
    endloop
  endfacet
  facet normal -0.198197 0.980162 0
    outer loop
      vertex 117.818 88.7968 1.5
      vertex 116.572 88.5449 3
      vertex 117.818 88.7968 3
    endloop
  endfacet
  facet normal -0.198197 0.980162 0
    outer loop
      vertex 116.572 88.5449 3
      vertex 117.818 88.7968 1.5
      vertex 116.572 88.5449 1.5
    endloop
  endfacet
  facet normal 0 1 0
    outer loop
      vertex 112.5 88.5449 1.5
      vertex 116.572 88.5449 3
      vertex 116.572 88.5449 1.5
    endloop
  endfacet
  facet normal 0 1 0
    outer loop
      vertex 116.572 88.5449 3
      vertex 112.5 88.5449 1.5
      vertex 104.617 88.5449 3
    endloop
  endfacet
  facet normal 0 1 0
    outer loop
      vertex 104.617 88.5449 0
      vertex 112.5 88.5449 1.5
      vertex 112.5 88.5449 0
    endloop
  endfacet
  facet normal 0 1 0
    outer loop
      vertex 112.5 88.5449 1.5
      vertex 104.617 88.5449 0
      vertex 104.617 88.5449 3
    endloop
  endfacet
  facet normal 0.198196 0.980162 -0
    outer loop
      vertex 104.617 88.5449 0
      vertex 103.371 88.7968 3
      vertex 104.617 88.5449 3
    endloop
  endfacet
  facet normal 0.198196 0.980162 0
    outer loop
      vertex 103.371 88.7968 3
      vertex 104.617 88.5449 0
      vertex 103.371 88.7968 0
    endloop
  endfacet
  facet normal 0.559046 0.829136 -0
    outer loop
      vertex 103.371 88.7968 0
      vertex 102.354 89.4825 3
      vertex 103.371 88.7968 3
    endloop
  endfacet
  facet normal 0.559046 0.829136 0
    outer loop
      vertex 102.354 89.4825 3
      vertex 103.371 88.7968 0
      vertex 102.354 89.4825 0
    endloop
  endfacet
  facet normal 0.829275 0.55884 0
    outer loop
      vertex 102.354 89.4825 3
      vertex 101.669 90.5 0
      vertex 101.669 90.5 3
    endloop
  endfacet
  facet normal 0.829275 0.55884 0
    outer loop
      vertex 101.669 90.5 0
      vertex 102.354 89.4825 3
      vertex 102.354 89.4825 0
    endloop
  endfacet
  facet normal 0.980162 0.198196 0
    outer loop
      vertex 101.669 90.5 3
      vertex 101.417 91.7458 0
      vertex 101.417 91.7458 3
    endloop
  endfacet
  facet normal 0.980162 0.198196 0
    outer loop
      vertex 101.417 91.7458 0
      vertex 101.669 90.5 3
      vertex 101.669 90.5 0
    endloop
  endfacet
  facet normal 0.980162 -0.198197 0
    outer loop
      vertex 101.417 91.7458 3
      vertex 101.669 92.9915 0
      vertex 101.669 92.9915 3
    endloop
  endfacet
  facet normal 0.980162 -0.198197 0
    outer loop
      vertex 101.669 92.9915 0
      vertex 101.417 91.7458 3
      vertex 101.417 91.7458 0
    endloop
  endfacet
  facet normal 0.829134 -0.55905 0
    outer loop
      vertex 101.669 92.9915 3
      vertex 102.354 94.0085 0
      vertex 102.354 94.0085 3
    endloop
  endfacet
  facet normal 0.829134 -0.55905 0
    outer loop
      vertex 102.354 94.0085 0
      vertex 101.669 92.9915 3
      vertex 101.669 92.9915 0
    endloop
  endfacet
  facet normal 0.55905 -0.829134 0
    outer loop
      vertex 102.354 94.0085 0
      vertex 103.371 94.6942 3
      vertex 102.354 94.0085 3
    endloop
  endfacet
  facet normal 0.55905 -0.829134 0
    outer loop
      vertex 103.371 94.6942 3
      vertex 102.354 94.0085 0
      vertex 103.371 94.6942 0
    endloop
  endfacet
  facet normal 0.198202 -0.980161 0
    outer loop
      vertex 103.371 94.6942 0
      vertex 104.617 94.9461 3
      vertex 103.371 94.6942 3
    endloop
  endfacet
  facet normal 0.198202 -0.980161 0
    outer loop
      vertex 104.617 94.9461 3
      vertex 103.371 94.6942 0
      vertex 104.617 94.9461 0
    endloop
  endfacet
  facet normal 0.624536 -0.780996 0
    outer loop
      vertex 104.617 94.9461 0
      vertex 105.266 95.4654 3
      vertex 104.617 94.9461 3
    endloop
  endfacet
  facet normal 0.624536 -0.780996 0
    outer loop
      vertex 105.266 95.4654 3
      vertex 104.617 94.9461 0
      vertex 105.266 95.4654 0
    endloop
  endfacet
  facet normal 1 -0 0
    outer loop
      vertex 105.266 95.4654 3
      vertex 105.266 109.87 0
      vertex 105.266 109.87 3
    endloop
  endfacet
  facet normal 1 0 0
    outer loop
      vertex 105.266 109.87 0
      vertex 105.266 95.4654 3
      vertex 105.266 95.4654 0
    endloop
  endfacet
  facet normal 0.64071 0.767783 -0
    outer loop
      vertex 105.266 109.87 0
      vertex 104.617 110.412 3
      vertex 105.266 109.87 3
    endloop
  endfacet
  facet normal 0.64071 0.767783 0
    outer loop
      vertex 104.617 110.412 3
      vertex 105.266 109.87 0
      vertex 104.617 110.412 0
    endloop
  endfacet
  facet normal 0.198202 0.980161 -0
    outer loop
      vertex 104.617 110.412 0
      vertex 103.371 110.664 3
      vertex 104.617 110.412 3
    endloop
  endfacet
  facet normal 0.198202 0.980161 0
    outer loop
      vertex 103.371 110.664 3
      vertex 104.617 110.412 0
      vertex 103.371 110.664 0
    endloop
  endfacet
  facet normal 0.559046 0.829136 -0
    outer loop
      vertex 103.371 110.664 0
      vertex 102.354 111.349 3
      vertex 103.371 110.664 3
    endloop
  endfacet
  facet normal 0.559046 0.829136 0
    outer loop
      vertex 102.354 111.349 3
      vertex 103.371 110.664 0
      vertex 102.354 111.349 0
    endloop
  endfacet
  facet normal 0.829136 0.559048 0
    outer loop
      vertex 102.354 111.349 3
      vertex 101.669 112.366 0
      vertex 101.669 112.366 3
    endloop
  endfacet
  facet normal 0.829136 0.559048 0
    outer loop
      vertex 101.669 112.366 0
      vertex 102.354 111.349 3
      vertex 102.354 111.349 0
    endloop
  endfacet
  facet normal 0.980162 0.198197 0
    outer loop
      vertex 101.417 113.612 3
      vertex 101.642 112.5 1.5
      vertex 101.417 113.612 1.5
    endloop
  endfacet
  facet normal 0.980162 0.198197 -3.62112e-07
    outer loop
      vertex 101.669 112.366 3
      vertex 101.642 112.5 1.5
      vertex 101.417 113.612 3
    endloop
  endfacet
  facet normal 0.980161 0.198201 -0
    outer loop
      vertex 101.669 112.366 0
      vertex 101.642 112.5 1.5
      vertex 101.669 112.366 3
    endloop
  endfacet
  facet normal 0.980161 0.198201 0
    outer loop
      vertex 101.642 112.5 1.5
      vertex 101.669 112.366 0
      vertex 101.642 112.5 0
    endloop
  endfacet
  facet normal 0.980162 -0.198197 0
    outer loop
      vertex 101.417 113.612 3
      vertex 101.669 114.858 1.5
      vertex 101.669 114.858 3
    endloop
  endfacet
  facet normal 0.980162 -0.198197 0
    outer loop
      vertex 101.669 114.858 1.5
      vertex 101.417 113.612 3
      vertex 101.417 113.612 1.5
    endloop
  endfacet
  facet normal 0.829275 -0.55884 0
    outer loop
      vertex 101.669 114.858 3
      vertex 102.354 115.875 1.5
      vertex 102.354 115.875 3
    endloop
  endfacet
  facet normal 0.829275 -0.55884 0
    outer loop
      vertex 102.354 115.875 1.5
      vertex 101.669 114.858 3
      vertex 101.669 114.858 1.5
    endloop
  endfacet
  facet normal 0.55905 -0.829134 0
    outer loop
      vertex 102.354 115.875 1.5
      vertex 103.371 116.561 3
      vertex 102.354 115.875 3
    endloop
  endfacet
  facet normal 0.55905 -0.829134 0
    outer loop
      vertex 103.371 116.561 3
      vertex 102.354 115.875 1.5
      vertex 103.371 116.561 1.5
    endloop
  endfacet
  facet normal 0.197781 -0.980246 0
    outer loop
      vertex 103.371 116.561 1.5
      vertex 104.617 116.812 3
      vertex 103.371 116.561 3
    endloop
  endfacet
  facet normal 0.197781 -0.980246 0
    outer loop
      vertex 104.617 116.812 3
      vertex 103.371 116.561 1.5
      vertex 104.617 116.812 1.5
    endloop
  endfacet
  facet normal -0.000922778 -1 0
    outer loop
      vertex 104.617 116.812 1.5
      vertex 116.572 116.801 3
      vertex 104.617 116.812 3
    endloop
  endfacet
  facet normal -0.000922778 -1 -0
    outer loop
      vertex 116.572 116.801 3
      vertex 104.617 116.812 1.5
      vertex 116.572 116.801 1.5
    endloop
  endfacet
  facet normal 1 -0 0
    outer loop
      vertex 116.572 116.801 3
      vertex 116.572 116.812 1.5
      vertex 116.572 116.812 3
    endloop
  endfacet
  facet normal 1 0 0
    outer loop
      vertex 116.572 116.812 1.5
      vertex 116.572 116.801 3
      vertex 116.572 116.801 1.5
    endloop
  endfacet
  facet normal -0.197782 -0.980246 0
    outer loop
      vertex 116.572 116.812 1.5
      vertex 117.818 116.561 3
      vertex 116.572 116.812 3
    endloop
  endfacet
  facet normal -0.197782 -0.980246 -0
    outer loop
      vertex 117.818 116.561 3
      vertex 116.572 116.812 1.5
      vertex 117.818 116.561 1.5
    endloop
  endfacet
  facet normal 0 -1 0
    outer loop
      vertex 128.714 65.3354 1.5
      vertex 150 65.3354 3
      vertex 128.714 65.3354 3
    endloop
  endfacet
  facet normal 0 -1 -0
    outer loop
      vertex 150 65.3354 3
      vertex 128.714 65.3354 1.5
      vertex 150 65.3354 1.5
    endloop
  endfacet
  facet normal 0.707107 -0.707107 0
    outer loop
      vertex 128.714 65.3354 3
      vertex 112.5 49.1219 1.5
      vertex 128.714 65.3354 1.5
    endloop
  endfacet
  facet normal 0.707107 -0.707107 -2.01777e-07
    outer loop
      vertex 84.9801 21.602 3
      vertex 112.5 49.1219 1.5
      vertex 128.714 65.3354 3
    endloop
  endfacet
  facet normal 0.707107 -0.707107 0
    outer loop
      vertex 84.9801 21.602 0
      vertex 112.5 49.1219 1.5
      vertex 84.9801 21.602 3
    endloop
  endfacet
  facet normal 0.707107 -0.707107 0
    outer loop
      vertex 112.5 49.1219 1.5
      vertex 84.9801 21.602 0
      vertex 112.5 49.1219 0
    endloop
  endfacet
  facet normal 0 -1 0
    outer loop
      vertex 79.6857 21.602 0
      vertex 84.9801 21.602 3
      vertex 79.6857 21.602 3
    endloop
  endfacet
  facet normal 0 -1 -0
    outer loop
      vertex 84.9801 21.602 3
      vertex 79.6857 21.602 0
      vertex 84.9801 21.602 0
    endloop
  endfacet
  facet normal -0.707107 -0.707107 0
    outer loop
      vertex 79.6857 21.602 0
      vertex 75.938 25.3497 3
      vertex 75.938 25.3497 0
    endloop
  endfacet
  facet normal -0.707107 -0.707107 0
    outer loop
      vertex 75.938 25.3497 3
      vertex 79.6857 21.602 0
      vertex 79.6857 21.602 3
    endloop
  endfacet
  facet normal -1 0 0
    outer loop
      vertex 75.938 25.3497 0
      vertex 75.938 30.6557 3
      vertex 75.938 30.6557 0
    endloop
  endfacet
  facet normal -1 -0 0
    outer loop
      vertex 75.938 30.6557 3
      vertex 75.938 25.3497 0
      vertex 75.938 25.3497 3
    endloop
  endfacet
  facet normal -0.707114 0.7071 0
    outer loop
      vertex 75.938 30.6557 0
      vertex 104.736 59.4539 3
      vertex 104.736 59.4539 0
    endloop
  endfacet
  facet normal -0.707114 0.7071 0
    outer loop
      vertex 104.736 59.4539 3
      vertex 75.938 30.6557 0
      vertex 75.938 30.6557 3
    endloop
  endfacet
  facet normal -1 0 0
    outer loop
      vertex 104.736 59.4539 0
      vertex 104.736 73.8699 3
      vertex 104.736 73.8699 0
    endloop
  endfacet
  facet normal -1 -0 0
    outer loop
      vertex 104.736 73.8699 3
      vertex 104.736 59.4539 0
      vertex 104.736 59.4539 3
    endloop
  endfacet
  facet normal -0.707107 -0.707107 0
    outer loop
      vertex 94.5983 84.0073 0
      vertex 104.736 73.8699 3
      vertex 94.5983 84.0073 3
    endloop
  endfacet
  facet normal -0.707107 -0.707107 -0
    outer loop
      vertex 104.736 73.8699 3
      vertex 94.5983 84.0073 0
      vertex 104.736 73.8699 0
    endloop
  endfacet
  facet normal -1 0 0
    outer loop
      vertex 94.5983 112.5 0
      vertex 94.5983 84.0073 0
      vertex 94.5983 112.5 1.5
    endloop
  endfacet
  facet normal -1 0 0
    outer loop
      vertex 94.5983 112.5 1.5
      vertex 94.5983 117.343 3
      vertex 94.5983 117.343 1.5
    endloop
  endfacet
  facet normal -1 0 0
    outer loop
      vertex 94.5983 84.0073 3
      vertex 94.5983 112.5 1.5
      vertex 94.5983 84.0073 0
    endloop
  endfacet
  facet normal -1 0 0
    outer loop
      vertex 94.5983 112.5 1.5
      vertex 94.5983 84.0073 3
      vertex 94.5983 117.343 3
    endloop
  endfacet
  facet normal -0.707326 -0.706888 0
    outer loop
      vertex 94.5983 117.343 1.5
      vertex 75.938 136.015 3
      vertex 75.938 136.015 1.5
    endloop
  endfacet
  facet normal -0.707326 -0.706888 0
    outer loop
      vertex 75.938 136.015 3
      vertex 94.5983 117.343 1.5
      vertex 94.5983 117.343 3
    endloop
  endfacet
  facet normal -1 0 0
    outer loop
      vertex 75.938 136.015 1.5
      vertex 75.938 143.985 3
      vertex 75.938 143.985 1.5
    endloop
  endfacet
  facet normal -1 -0 0
    outer loop
      vertex 75.938 143.985 3
      vertex 75.938 136.015 1.5
      vertex 75.938 136.015 3
    endloop
  endfacet
  facet normal -0.707326 0.706888 0
    outer loop
      vertex 75.938 143.985 1.5
      vertex 81.9492 150 3
      vertex 81.9492 150 1.5
    endloop
  endfacet
  facet normal -0.707326 0.706888 0
    outer loop
      vertex 81.9492 150 3
      vertex 75.938 143.985 1.5
      vertex 75.938 143.985 3
    endloop
  endfacet
  facet normal 0 1 -0
    outer loop
      vertex 150 110.141 1.5
      vertex 140.996 110.141 3
      vertex 150 110.141 3
    endloop
  endfacet
  facet normal 0 1 0
    outer loop
      vertex 140.996 110.141 3
      vertex 150 110.141 1.5
      vertex 140.996 110.141 1.5
    endloop
  endfacet
  facet normal 0.707271 -0.706943 0
    outer loop
      vertex 115.935 144.798 3
      vertex 121.135 150 1.5
      vertex 121.135 150 3
    endloop
  endfacet
  facet normal 0.707271 -0.706943 0
    outer loop
      vertex 121.135 150 1.5
      vertex 115.935 144.798 3
      vertex 115.935 144.798 1.5
    endloop
  endfacet
  facet normal 0.707107 0.707107 0
    outer loop
      vertex 140.996 110.141 3
      vertex 115.935 135.202 1.5
      vertex 115.935 135.202 3
    endloop
  endfacet
  facet normal 0.707107 0.707107 0
    outer loop
      vertex 115.935 135.202 1.5
      vertex 140.996 110.141 3
      vertex 140.996 110.141 1.5
    endloop
  endfacet
  facet normal 1 -0 0
    outer loop
      vertex 115.935 135.202 3
      vertex 115.935 144.798 1.5
      vertex 115.935 144.798 3
    endloop
  endfacet
  facet normal 1 0 0
    outer loop
      vertex 115.935 144.798 1.5
      vertex 115.935 135.202 3
      vertex 115.935 135.202 1.5
    endloop
  endfacet
  facet normal -0.829152 -0.559023 0
    outer loop
      vertex 83.805 140.627 1.5
      vertex 83.4627 141.135 3
      vertex 83.4627 141.135 1.5
    endloop
  endfacet
  facet normal -0.829152 -0.559023 0
    outer loop
      vertex 83.4627 141.135 3
      vertex 83.805 140.627 1.5
      vertex 83.805 140.627 3
    endloop
  endfacet
  facet normal -0.559011 -0.82916 0
    outer loop
      vertex 82.9549 141.477 1.5
      vertex 83.4627 141.135 3
      vertex 82.9549 141.477 3
    endloop
  endfacet
  facet normal -0.559011 -0.82916 -0
    outer loop
      vertex 83.4627 141.135 3
      vertex 82.9549 141.477 1.5
      vertex 83.4627 141.135 1.5
    endloop
  endfacet
  facet normal -0.197904 -0.980221 0
    outer loop
      vertex 82.3331 141.603 1.5
      vertex 82.9549 141.477 3
      vertex 82.3331 141.603 3
    endloop
  endfacet
  facet normal -0.197904 -0.980221 -0
    outer loop
      vertex 82.9549 141.477 3
      vertex 82.3331 141.603 1.5
      vertex 82.9549 141.477 1.5
    endloop
  endfacet
  facet normal -0.829152 0.559023 0
    outer loop
      vertex 83.4627 138.876 1.5
      vertex 83.805 139.384 3
      vertex 83.805 139.384 1.5
    endloop
  endfacet
  facet normal -0.829152 0.559023 0
    outer loop
      vertex 83.805 139.384 3
      vertex 83.4627 138.876 1.5
      vertex 83.4627 138.876 3
    endloop
  endfacet
  facet normal -0.980223 0.197895 0
    outer loop
      vertex 83.805 139.384 1.5
      vertex 83.9305 140.006 3
      vertex 83.9305 140.006 1.5
    endloop
  endfacet
  facet normal -0.980223 0.197895 0
    outer loop
      vertex 83.9305 140.006 3
      vertex 83.805 139.384 1.5
      vertex 83.805 139.384 3
    endloop
  endfacet
  facet normal 0.559028 0.829149 -0
    outer loop
      vertex 81.7114 138.534 1.5
      vertex 81.2036 138.876 3
      vertex 81.7114 138.534 3
    endloop
  endfacet
  facet normal 0.559028 0.829149 0
    outer loop
      vertex 81.2036 138.876 3
      vertex 81.7114 138.534 1.5
      vertex 81.2036 138.876 1.5
    endloop
  endfacet
  facet normal 0.197904 0.980221 -0
    outer loop
      vertex 82.3331 138.408 1.5
      vertex 81.7114 138.534 3
      vertex 82.3331 138.408 3
    endloop
  endfacet
  facet normal 0.197904 0.980221 0
    outer loop
      vertex 81.7114 138.534 3
      vertex 82.3331 138.408 1.5
      vertex 81.7114 138.534 1.5
    endloop
  endfacet
  facet normal -0.559028 0.829149 0
    outer loop
      vertex 83.4627 138.876 1.5
      vertex 82.9549 138.534 3
      vertex 83.4627 138.876 3
    endloop
  endfacet
  facet normal -0.559028 0.829149 0
    outer loop
      vertex 82.9549 138.534 3
      vertex 83.4627 138.876 1.5
      vertex 82.9549 138.534 1.5
    endloop
  endfacet
  facet normal -0.980223 -0.197895 0
    outer loop
      vertex 83.9305 140.006 1.5
      vertex 83.805 140.627 3
      vertex 83.805 140.627 1.5
    endloop
  endfacet
  facet normal -0.980223 -0.197895 0
    outer loop
      vertex 83.805 140.627 3
      vertex 83.9305 140.006 1.5
      vertex 83.9305 140.006 3
    endloop
  endfacet
  facet normal 0.829152 0.559023 0
    outer loop
      vertex 81.2036 138.876 3
      vertex 80.8613 139.384 1.5
      vertex 80.8613 139.384 3
    endloop
  endfacet
  facet normal 0.829152 0.559023 0
    outer loop
      vertex 80.8613 139.384 1.5
      vertex 81.2036 138.876 3
      vertex 81.2036 138.876 1.5
    endloop
  endfacet
  facet normal 0.197904 -0.980221 0
    outer loop
      vertex 81.7114 141.477 1.5
      vertex 82.3331 141.603 3
      vertex 81.7114 141.477 3
    endloop
  endfacet
  facet normal 0.197904 -0.980221 0
    outer loop
      vertex 82.3331 141.603 3
      vertex 81.7114 141.477 1.5
      vertex 82.3331 141.603 1.5
    endloop
  endfacet
  facet normal 0.829152 -0.559023 0
    outer loop
      vertex 80.8613 140.627 3
      vertex 81.2036 141.135 1.5
      vertex 81.2036 141.135 3
    endloop
  endfacet
  facet normal 0.829152 -0.559023 0
    outer loop
      vertex 81.2036 141.135 1.5
      vertex 80.8613 140.627 3
      vertex 80.8613 140.627 1.5
    endloop
  endfacet
  facet normal -0.197904 0.980221 0
    outer loop
      vertex 82.9549 138.534 1.5
      vertex 82.3331 138.408 3
      vertex 82.9549 138.534 3
    endloop
  endfacet
  facet normal -0.197904 0.980221 0
    outer loop
      vertex 82.3331 138.408 3
      vertex 82.9549 138.534 1.5
      vertex 82.3331 138.408 1.5
    endloop
  endfacet
  facet normal 0.980223 0.197895 0
    outer loop
      vertex 80.8613 139.384 3
      vertex 80.7358 140.006 1.5
      vertex 80.7358 140.006 3
    endloop
  endfacet
  facet normal 0.980223 0.197895 0
    outer loop
      vertex 80.7358 140.006 1.5
      vertex 80.8613 139.384 3
      vertex 80.8613 139.384 1.5
    endloop
  endfacet
  facet normal 0.980223 -0.197895 0
    outer loop
      vertex 80.7358 140.006 3
      vertex 80.8613 140.627 1.5
      vertex 80.8613 140.627 3
    endloop
  endfacet
  facet normal 0.980223 -0.197895 0
    outer loop
      vertex 80.8613 140.627 1.5
      vertex 80.7358 140.006 3
      vertex 80.7358 140.006 1.5
    endloop
  endfacet
  facet normal 0.559011 -0.82916 0
    outer loop
      vertex 81.2036 141.135 1.5
      vertex 81.7114 141.477 3
      vertex 81.2036 141.135 3
    endloop
  endfacet
  facet normal 0.559011 -0.82916 0
    outer loop
      vertex 81.7114 141.477 3
      vertex 81.2036 141.135 1.5
      vertex 81.7114 141.477 1.5
    endloop
  endfacet
  facet normal -0.829148 -0.559029 0
    outer loop
      vertex 122.833 103.339 1.5
      vertex 122.467 103.883 3
      vertex 122.467 103.883 1.5
    endloop
  endfacet
  facet normal -0.829148 -0.559029 0
    outer loop
      vertex 122.467 103.883 3
      vertex 122.833 103.339 1.5
      vertex 122.833 103.339 3
    endloop
  endfacet
  facet normal -0.559024 -0.829151 0
    outer loop
      vertex 121.923 104.249 1.5
      vertex 122.467 103.883 3
      vertex 121.923 104.249 3
    endloop
  endfacet
  facet normal -0.559024 -0.829151 -0
    outer loop
      vertex 122.467 103.883 3
      vertex 121.923 104.249 1.5
      vertex 122.467 103.883 1.5
    endloop
  endfacet
  facet normal -0.197907 -0.980221 0
    outer loop
      vertex 121.257 104.383 1.5
      vertex 121.923 104.249 3
      vertex 121.257 104.383 3
    endloop
  endfacet
  facet normal -0.197907 -0.980221 -0
    outer loop
      vertex 121.923 104.249 3
      vertex 121.257 104.383 1.5
      vertex 121.923 104.249 1.5
    endloop
  endfacet
  facet normal 0.559016 0.829157 -0
    outer loop
      vertex 120.592 101.097 1.5
      vertex 120.048 101.464 3
      vertex 120.592 101.097 3
    endloop
  endfacet
  facet normal 0.559016 0.829157 0
    outer loop
      vertex 120.048 101.464 3
      vertex 120.592 101.097 1.5
      vertex 120.048 101.464 1.5
    endloop
  endfacet
  facet normal -0.980221 0.197905 0
    outer loop
      vertex 122.833 102.007 1.5
      vertex 122.967 102.673 3
      vertex 122.967 102.673 1.5
    endloop
  endfacet
  facet normal -0.980221 0.197905 0
    outer loop
      vertex 122.967 102.673 3
      vertex 122.833 102.007 1.5
      vertex 122.833 102.007 3
    endloop
  endfacet
  facet normal -0.980221 -0.197907 0
    outer loop
      vertex 122.967 102.673 1.5
      vertex 122.833 103.339 3
      vertex 122.833 103.339 1.5
    endloop
  endfacet
  facet normal -0.980221 -0.197907 0
    outer loop
      vertex 122.833 103.339 3
      vertex 122.967 102.673 1.5
      vertex 122.967 102.673 3
    endloop
  endfacet
  facet normal -0.559016 0.829157 0
    outer loop
      vertex 122.467 101.464 1.5
      vertex 121.923 101.097 3
      vertex 122.467 101.464 3
    endloop
  endfacet
  facet normal -0.559016 0.829157 0
    outer loop
      vertex 121.923 101.097 3
      vertex 122.467 101.464 1.5
      vertex 121.923 101.097 1.5
    endloop
  endfacet
  facet normal -0.197907 0.980221 0
    outer loop
      vertex 121.923 101.097 1.5
      vertex 121.257 100.963 3
      vertex 121.923 101.097 3
    endloop
  endfacet
  facet normal -0.197907 0.980221 0
    outer loop
      vertex 121.257 100.963 3
      vertex 121.923 101.097 1.5
      vertex 121.257 100.963 1.5
    endloop
  endfacet
  facet normal 0.197907 0.980221 -0
    outer loop
      vertex 121.257 100.963 1.5
      vertex 120.592 101.097 3
      vertex 121.257 100.963 3
    endloop
  endfacet
  facet normal 0.197907 0.980221 0
    outer loop
      vertex 120.592 101.097 3
      vertex 121.257 100.963 1.5
      vertex 120.592 101.097 1.5
    endloop
  endfacet
  facet normal 0.197907 -0.980221 0
    outer loop
      vertex 120.592 104.249 1.5
      vertex 121.257 104.383 3
      vertex 120.592 104.249 3
    endloop
  endfacet
  facet normal 0.197907 -0.980221 0
    outer loop
      vertex 121.257 104.383 3
      vertex 120.592 104.249 1.5
      vertex 121.257 104.383 1.5
    endloop
  endfacet
  facet normal 0.829148 -0.559029 0
    outer loop
      vertex 119.681 103.339 3
      vertex 120.048 103.883 1.5
      vertex 120.048 103.883 3
    endloop
  endfacet
  facet normal 0.829148 -0.559029 0
    outer loop
      vertex 120.048 103.883 1.5
      vertex 119.681 103.339 3
      vertex 119.681 103.339 1.5
    endloop
  endfacet
  facet normal 0.980223 0.197894 0
    outer loop
      vertex 119.681 102.007 3
      vertex 119.547 102.673 1.5
      vertex 119.547 102.673 3
    endloop
  endfacet
  facet normal 0.980223 0.197894 0
    outer loop
      vertex 119.547 102.673 1.5
      vertex 119.681 102.007 3
      vertex 119.681 102.007 1.5
    endloop
  endfacet
  facet normal 0.980223 -0.197896 0
    outer loop
      vertex 119.547 102.673 3
      vertex 119.681 103.339 1.5
      vertex 119.681 103.339 3
    endloop
  endfacet
  facet normal 0.980223 -0.197896 0
    outer loop
      vertex 119.681 103.339 1.5
      vertex 119.547 102.673 3
      vertex 119.547 102.673 1.5
    endloop
  endfacet
  facet normal 0.829151 0.559024 0
    outer loop
      vertex 120.048 101.464 3
      vertex 119.681 102.007 1.5
      vertex 119.681 102.007 3
    endloop
  endfacet
  facet normal 0.829151 0.559024 0
    outer loop
      vertex 119.681 102.007 1.5
      vertex 120.048 101.464 3
      vertex 120.048 101.464 1.5
    endloop
  endfacet
  facet normal -0.829151 0.559024 0
    outer loop
      vertex 122.467 101.464 1.5
      vertex 122.833 102.007 3
      vertex 122.833 102.007 1.5
    endloop
  endfacet
  facet normal -0.829151 0.559024 0
    outer loop
      vertex 122.833 102.007 3
      vertex 122.467 101.464 1.5
      vertex 122.467 101.464 3
    endloop
  endfacet
  facet normal 0.559024 -0.829151 0
    outer loop
      vertex 120.048 103.883 1.5
      vertex 120.592 104.249 3
      vertex 120.048 103.883 3
    endloop
  endfacet
  facet normal 0.559024 -0.829151 0
    outer loop
      vertex 120.592 104.249 3
      vertex 120.048 103.883 1.5
      vertex 120.592 104.249 1.5
    endloop
  endfacet
  facet normal -0.829148 -0.559029 0
    outer loop
      vertex 101.508 103.339 0
      vertex 101.142 103.883 3
      vertex 101.142 103.883 0
    endloop
  endfacet
  facet normal -0.829148 -0.559029 0
    outer loop
      vertex 101.142 103.883 3
      vertex 101.508 103.339 0
      vertex 101.508 103.339 3
    endloop
  endfacet
  facet normal -0.559029 -0.829148 0
    outer loop
      vertex 100.598 104.249 0
      vertex 101.142 103.883 3
      vertex 100.598 104.249 3
    endloop
  endfacet
  facet normal -0.559029 -0.829148 -0
    outer loop
      vertex 101.142 103.883 3
      vertex 100.598 104.249 0
      vertex 101.142 103.883 0
    endloop
  endfacet
  facet normal -0.197905 -0.980221 0
    outer loop
      vertex 99.9325 104.383 0
      vertex 100.598 104.249 3
      vertex 99.9325 104.383 3
    endloop
  endfacet
  facet normal -0.197905 -0.980221 -0
    outer loop
      vertex 100.598 104.249 3
      vertex 99.9325 104.383 0
      vertex 100.598 104.249 0
    endloop
  endfacet
  facet normal 0.559021 0.829153 -0
    outer loop
      vertex 99.2668 101.097 0
      vertex 98.7232 101.464 3
      vertex 99.2668 101.097 3
    endloop
  endfacet
  facet normal 0.559021 0.829153 0
    outer loop
      vertex 98.7232 101.464 3
      vertex 99.2668 101.097 0
      vertex 98.7232 101.464 0
    endloop
  endfacet
  facet normal 0.197907 -0.980221 0
    outer loop
      vertex 99.2668 104.249 0
      vertex 99.9325 104.383 3
      vertex 99.2668 104.249 3
    endloop
  endfacet
  facet normal 0.197907 -0.980221 0
    outer loop
      vertex 99.9325 104.383 3
      vertex 99.2668 104.249 0
      vertex 99.9325 104.383 0
    endloop
  endfacet
  facet normal -0.829151 0.559024 0
    outer loop
      vertex 101.142 101.464 0
      vertex 101.508 102.007 3
      vertex 101.508 102.007 0
    endloop
  endfacet
  facet normal -0.829151 0.559024 0
    outer loop
      vertex 101.508 102.007 3
      vertex 101.142 101.464 0
      vertex 101.142 101.464 3
    endloop
  endfacet
  facet normal -0.980223 0.197894 0
    outer loop
      vertex 101.508 102.007 0
      vertex 101.643 102.673 3
      vertex 101.643 102.673 0
    endloop
  endfacet
  facet normal -0.980223 0.197894 0
    outer loop
      vertex 101.643 102.673 3
      vertex 101.508 102.007 0
      vertex 101.508 102.007 3
    endloop
  endfacet
  facet normal -0.980223 -0.197896 0
    outer loop
      vertex 101.643 102.673 0
      vertex 101.508 103.339 3
      vertex 101.508 103.339 0
    endloop
  endfacet
  facet normal -0.980223 -0.197896 0
    outer loop
      vertex 101.508 103.339 3
      vertex 101.643 102.673 0
      vertex 101.643 102.673 3
    endloop
  endfacet
  facet normal 0.980221 -0.197907 0
    outer loop
      vertex 98.2222 102.673 3
      vertex 98.3567 103.339 0
      vertex 98.3567 103.339 3
    endloop
  endfacet
  facet normal 0.980221 -0.197907 0
    outer loop
      vertex 98.3567 103.339 0
      vertex 98.2222 102.673 3
      vertex 98.2222 102.673 0
    endloop
  endfacet
  facet normal 0.197907 0.980221 -0
    outer loop
      vertex 99.9325 100.963 0
      vertex 99.2668 101.097 3
      vertex 99.9325 100.963 3
    endloop
  endfacet
  facet normal 0.197907 0.980221 0
    outer loop
      vertex 99.2668 101.097 3
      vertex 99.9325 100.963 0
      vertex 99.2668 101.097 0
    endloop
  endfacet
  facet normal -0.197905 0.980221 0
    outer loop
      vertex 100.598 101.097 0
      vertex 99.9325 100.963 3
      vertex 100.598 101.097 3
    endloop
  endfacet
  facet normal -0.197905 0.980221 0
    outer loop
      vertex 99.9325 100.963 3
      vertex 100.598 101.097 0
      vertex 99.9325 100.963 0
    endloop
  endfacet
  facet normal -0.559021 0.829153 0
    outer loop
      vertex 101.142 101.464 0
      vertex 100.598 101.097 3
      vertex 101.142 101.464 3
    endloop
  endfacet
  facet normal -0.559021 0.829153 0
    outer loop
      vertex 100.598 101.097 3
      vertex 101.142 101.464 0
      vertex 100.598 101.097 0
    endloop
  endfacet
  facet normal 0.980221 0.197905 0
    outer loop
      vertex 98.3567 102.007 3
      vertex 98.2222 102.673 0
      vertex 98.2222 102.673 3
    endloop
  endfacet
  facet normal 0.980221 0.197905 0
    outer loop
      vertex 98.2222 102.673 0
      vertex 98.3567 102.007 3
      vertex 98.3567 102.007 0
    endloop
  endfacet
  facet normal 0.829151 0.559024 0
    outer loop
      vertex 98.7232 101.464 3
      vertex 98.3567 102.007 0
      vertex 98.3567 102.007 3
    endloop
  endfacet
  facet normal 0.829151 0.559024 0
    outer loop
      vertex 98.3567 102.007 0
      vertex 98.7232 101.464 3
      vertex 98.7232 101.464 0
    endloop
  endfacet
  facet normal 0.829148 -0.559029 0
    outer loop
      vertex 98.3567 103.339 3
      vertex 98.7232 103.883 0
      vertex 98.7232 103.883 3
    endloop
  endfacet
  facet normal 0.829148 -0.559029 0
    outer loop
      vertex 98.7232 103.883 0
      vertex 98.3567 103.339 3
      vertex 98.3567 103.339 0
    endloop
  endfacet
  facet normal 0.559029 -0.829148 0
    outer loop
      vertex 98.7232 103.883 0
      vertex 99.2668 104.249 3
      vertex 98.7232 103.883 3
    endloop
  endfacet
  facet normal 0.559029 -0.829148 0
    outer loop
      vertex 99.2668 104.249 3
      vertex 98.7232 103.883 0
      vertex 99.2668 104.249 0
    endloop
  endfacet
  facet normal -0.82915 -0.559025 0
    outer loop
      vertex 83.805 28.6303 0
      vertex 83.4627 29.138 3
      vertex 83.4627 29.138 0
    endloop
  endfacet
  facet normal -0.82915 -0.559025 0
    outer loop
      vertex 83.4627 29.138 3
      vertex 83.805 28.6303 0
      vertex 83.805 28.6303 3
    endloop
  endfacet
  facet normal -0.559028 -0.829149 0
    outer loop
      vertex 82.9549 29.4803 0
      vertex 83.4627 29.138 3
      vertex 82.9549 29.4803 3
    endloop
  endfacet
  facet normal -0.559028 -0.829149 -0
    outer loop
      vertex 83.4627 29.138 3
      vertex 82.9549 29.4803 0
      vertex 83.4627 29.138 0
    endloop
  endfacet
  facet normal -0.197898 -0.980223 0
    outer loop
      vertex 82.3331 29.6059 0
      vertex 82.9549 29.4803 3
      vertex 82.3331 29.6059 3
    endloop
  endfacet
  facet normal -0.197898 -0.980223 -0
    outer loop
      vertex 82.9549 29.4803 3
      vertex 82.3331 29.6059 0
      vertex 82.9549 29.4803 0
    endloop
  endfacet
  facet normal 0.980224 -0.197893 0
    outer loop
      vertex 80.7358 28.0085 3
      vertex 80.8613 28.6303 0
      vertex 80.8613 28.6303 3
    endloop
  endfacet
  facet normal 0.980224 -0.197893 0
    outer loop
      vertex 80.8613 28.6303 0
      vertex 80.7358 28.0085 3
      vertex 80.7358 28.0085 0
    endloop
  endfacet
  facet normal -0.559026 0.82915 0
    outer loop
      vertex 83.4627 26.879 0
      vertex 82.9549 26.5366 3
      vertex 83.4627 26.879 3
    endloop
  endfacet
  facet normal -0.559026 0.82915 0
    outer loop
      vertex 82.9549 26.5366 3
      vertex 83.4627 26.879 0
      vertex 82.9549 26.5366 0
    endloop
  endfacet
  facet normal 0.197898 -0.980223 0
    outer loop
      vertex 81.7114 29.4803 0
      vertex 82.3331 29.6059 3
      vertex 81.7114 29.4803 3
    endloop
  endfacet
  facet normal 0.197898 -0.980223 0
    outer loop
      vertex 82.3331 29.6059 3
      vertex 81.7114 29.4803 0
      vertex 82.3331 29.6059 0
    endloop
  endfacet
  facet normal -0.980223 0.197894 0
    outer loop
      vertex 83.805 27.3867 0
      vertex 83.9305 28.0085 3
      vertex 83.9305 28.0085 0
    endloop
  endfacet
  facet normal -0.980223 0.197894 0
    outer loop
      vertex 83.9305 28.0085 3
      vertex 83.805 27.3867 0
      vertex 83.805 27.3867 3
    endloop
  endfacet
  facet normal 0.197901 0.980222 -0
    outer loop
      vertex 82.3331 26.4111 0
      vertex 81.7114 26.5366 3
      vertex 82.3331 26.4111 3
    endloop
  endfacet
  facet normal 0.197901 0.980222 0
    outer loop
      vertex 81.7114 26.5366 3
      vertex 82.3331 26.4111 0
      vertex 81.7114 26.5366 0
    endloop
  endfacet
  facet normal -0.197901 0.980222 0
    outer loop
      vertex 82.9549 26.5366 0
      vertex 82.3331 26.4111 3
      vertex 82.9549 26.5366 3
    endloop
  endfacet
  facet normal -0.197901 0.980222 0
    outer loop
      vertex 82.3331 26.4111 3
      vertex 82.9549 26.5366 0
      vertex 82.3331 26.4111 0
    endloop
  endfacet
  facet normal -0.980224 -0.197893 0
    outer loop
      vertex 83.9305 28.0085 0
      vertex 83.805 28.6303 3
      vertex 83.805 28.6303 0
    endloop
  endfacet
  facet normal -0.980224 -0.197893 0
    outer loop
      vertex 83.805 28.6303 3
      vertex 83.9305 28.0085 0
      vertex 83.9305 28.0085 3
    endloop
  endfacet
  facet normal 0.82915 0.559025 0
    outer loop
      vertex 81.2036 26.879 3
      vertex 80.8613 27.3867 0
      vertex 80.8613 27.3867 3
    endloop
  endfacet
  facet normal 0.82915 0.559025 0
    outer loop
      vertex 80.8613 27.3867 0
      vertex 81.2036 26.879 3
      vertex 81.2036 26.879 0
    endloop
  endfacet
  facet normal -0.82915 0.559025 0
    outer loop
      vertex 83.4627 26.879 0
      vertex 83.805 27.3867 3
      vertex 83.805 27.3867 0
    endloop
  endfacet
  facet normal -0.82915 0.559025 0
    outer loop
      vertex 83.805 27.3867 3
      vertex 83.4627 26.879 0
      vertex 83.4627 26.879 3
    endloop
  endfacet
  facet normal 0.980223 0.197894 0
    outer loop
      vertex 80.8613 27.3867 3
      vertex 80.7358 28.0085 0
      vertex 80.7358 28.0085 3
    endloop
  endfacet
  facet normal 0.980223 0.197894 0
    outer loop
      vertex 80.7358 28.0085 0
      vertex 80.8613 27.3867 3
      vertex 80.8613 27.3867 0
    endloop
  endfacet
  facet normal 0.559026 0.82915 -0
    outer loop
      vertex 81.7114 26.5366 0
      vertex 81.2036 26.879 3
      vertex 81.7114 26.5366 3
    endloop
  endfacet
  facet normal 0.559026 0.82915 0
    outer loop
      vertex 81.2036 26.879 3
      vertex 81.7114 26.5366 0
      vertex 81.2036 26.879 0
    endloop
  endfacet
  facet normal 0.82915 -0.559025 0
    outer loop
      vertex 80.8613 28.6303 3
      vertex 81.2036 29.138 0
      vertex 81.2036 29.138 3
    endloop
  endfacet
  facet normal 0.82915 -0.559025 0
    outer loop
      vertex 81.2036 29.138 0
      vertex 80.8613 28.6303 3
      vertex 80.8613 28.6303 0
    endloop
  endfacet
  facet normal 0.559028 -0.829149 0
    outer loop
      vertex 81.2036 29.138 0
      vertex 81.7114 29.4803 3
      vertex 81.2036 29.138 3
    endloop
  endfacet
  facet normal 0.559028 -0.829149 0
    outer loop
      vertex 81.7114 29.4803 3
      vertex 81.2036 29.138 0
      vertex 81.7114 29.4803 0
    endloop
  endfacet
  facet normal 0 0 -1
    outer loop
      vertex 101.642 112.5 1.5
      vertex 94.5983 112.5 1.5
      vertex 101.417 113.612 1.5
    endloop
  endfacet
  facet normal 0 0 -1
    outer loop
      vertex 104.617 116.812 1.5
      vertex 116.572 116.812 1.5
      vertex 116.572 116.801 1.5
    endloop
  endfacet
  facet normal 0 0 -1
    outer loop
      vertex 103.371 116.561 1.5
      vertex 115.935 135.202 1.5
      vertex 104.617 116.812 1.5
    endloop
  endfacet
  facet normal 0 0 -1
    outer loop
      vertex 116.572 116.812 1.5
      vertex 104.617 116.812 1.5
      vertex 115.935 135.202 1.5
    endloop
  endfacet
  facet normal 0 0 -1
    outer loop
      vertex 94.5983 117.343 1.5
      vertex 115.935 135.202 1.5
      vertex 103.371 116.561 1.5
    endloop
  endfacet
  facet normal 0 0 -1
    outer loop
      vertex 94.5983 117.343 1.5
      vertex 103.371 116.561 1.5
      vertex 102.354 115.875 1.5
    endloop
  endfacet
  facet normal 0 0 -1
    outer loop
      vertex 94.5983 117.343 1.5
      vertex 102.354 115.875 1.5
      vertex 101.669 114.858 1.5
    endloop
  endfacet
  facet normal 0 0 -1
    outer loop
      vertex 94.5983 117.343 1.5
      vertex 101.417 113.612 1.5
      vertex 94.5983 112.5 1.5
    endloop
  endfacet
  facet normal 0 0 -1
    outer loop
      vertex 101.417 113.612 1.5
      vertex 94.5983 117.343 1.5
      vertex 101.669 114.858 1.5
    endloop
  endfacet
  facet normal -0 0 -1
    outer loop
      vertex 115.935 135.202 1.5
      vertex 94.5983 117.343 1.5
      vertex 83.805 139.384 1.5
    endloop
  endfacet
  facet normal 0 -0 -1
    outer loop
      vertex 83.9305 140.006 1.5
      vertex 115.935 135.202 1.5
      vertex 83.805 139.384 1.5
    endloop
  endfacet
  facet normal 0 0 -1
    outer loop
      vertex 83.805 140.627 1.5
      vertex 115.935 144.798 1.5
      vertex 83.9305 140.006 1.5
    endloop
  endfacet
  facet normal 0 0 -1
    outer loop
      vertex 81.9492 150 1.5
      vertex 115.935 144.798 1.5
      vertex 83.805 140.627 1.5
    endloop
  endfacet
  facet normal 0 0 -1
    outer loop
      vertex 81.9492 150 1.5
      vertex 83.805 140.627 1.5
      vertex 83.4627 141.135 1.5
    endloop
  endfacet
  facet normal 0 0 -1
    outer loop
      vertex 81.9492 150 1.5
      vertex 83.4627 141.135 1.5
      vertex 82.9549 141.477 1.5
    endloop
  endfacet
  facet normal 0 0 -1
    outer loop
      vertex 81.9492 150 1.5
      vertex 82.9549 141.477 1.5
      vertex 82.3331 141.603 1.5
    endloop
  endfacet
  facet normal 0 0 -1
    outer loop
      vertex 115.935 144.798 1.5
      vertex 81.9492 150 1.5
      vertex 121.135 150 1.5
    endloop
  endfacet
  facet normal 0 0 -1
    outer loop
      vertex 81.7114 141.477 1.5
      vertex 81.9492 150 1.5
      vertex 82.3331 141.603 1.5
    endloop
  endfacet
  facet normal 0 0 -1
    outer loop
      vertex 75.938 143.985 1.5
      vertex 81.7114 141.477 1.5
      vertex 81.2036 141.135 1.5
    endloop
  endfacet
  facet normal 0 0 -1
    outer loop
      vertex 75.938 143.985 1.5
      vertex 81.2036 141.135 1.5
      vertex 80.8613 140.627 1.5
    endloop
  endfacet
  facet normal 0 0 -1
    outer loop
      vertex 75.938 143.985 1.5
      vertex 80.8613 140.627 1.5
      vertex 80.7358 140.006 1.5
    endloop
  endfacet
  facet normal 0 0 -1
    outer loop
      vertex 75.938 143.985 1.5
      vertex 80.7358 140.006 1.5
      vertex 75.938 136.015 1.5
    endloop
  endfacet
  facet normal 0 0 -1
    outer loop
      vertex 81.7114 141.477 1.5
      vertex 75.938 143.985 1.5
      vertex 81.9492 150 1.5
    endloop
  endfacet
  facet normal 0 0 -1
    outer loop
      vertex 115.935 135.202 1.5
      vertex 83.9305 140.006 1.5
      vertex 115.935 144.798 1.5
    endloop
  endfacet
  facet normal 0 0 -1
    outer loop
      vertex 94.5983 117.343 1.5
      vertex 83.4627 138.876 1.5
      vertex 83.805 139.384 1.5
    endloop
  endfacet
  facet normal 0 0 -1
    outer loop
      vertex 94.5983 117.343 1.5
      vertex 82.9549 138.534 1.5
      vertex 83.4627 138.876 1.5
    endloop
  endfacet
  facet normal 0 0 -1
    outer loop
      vertex 94.5983 117.343 1.5
      vertex 82.3331 138.408 1.5
      vertex 82.9549 138.534 1.5
    endloop
  endfacet
  facet normal 0 0 -1
    outer loop
      vertex 75.938 136.015 1.5
      vertex 82.3331 138.408 1.5
      vertex 94.5983 117.343 1.5
    endloop
  endfacet
  facet normal -0 0 -1
    outer loop
      vertex 82.3331 138.408 1.5
      vertex 75.938 136.015 1.5
      vertex 81.7114 138.534 1.5
    endloop
  endfacet
  facet normal -0 0 -1
    outer loop
      vertex 81.7114 138.534 1.5
      vertex 75.938 136.015 1.5
      vertex 81.2036 138.876 1.5
    endloop
  endfacet
  facet normal -0 0 -1
    outer loop
      vertex 80.8613 139.384 1.5
      vertex 75.938 136.015 1.5
      vertex 80.7358 140.006 1.5
    endloop
  endfacet
  facet normal -0 0 -1
    outer loop
      vertex 81.2036 138.876 1.5
      vertex 75.938 136.015 1.5
      vertex 80.8613 139.384 1.5
    endloop
  endfacet
  facet normal 0 0 -1
    outer loop
      vertex 115.935 109.87 1.5
      vertex 120.048 103.883 1.5
      vertex 119.681 103.339 1.5
    endloop
  endfacet
  facet normal 0 0 -1
    outer loop
      vertex 115.935 109.87 1.5
      vertex 119.681 103.339 1.5
      vertex 119.547 102.673 1.5
    endloop
  endfacet
  facet normal 0 0 -1
    outer loop
      vertex 120.048 103.883 1.5
      vertex 119.521 112.366 1.5
      vertex 119.773 113.612 1.5
    endloop
  endfacet
  facet normal 0 0 -1
    outer loop
      vertex 115.935 95.4654 1.5
      vertex 120.048 101.464 1.5
      vertex 117.818 94.6942 1.5
    endloop
  endfacet
  facet normal -0 0 -1
    outer loop
      vertex 120.048 101.464 1.5
      vertex 115.935 95.4654 1.5
      vertex 119.681 102.007 1.5
    endloop
  endfacet
  facet normal 0 0 -1
    outer loop
      vertex 120.048 103.883 1.5
      vertex 118.835 111.349 1.5
      vertex 119.521 112.366 1.5
    endloop
  endfacet
  facet normal -0 0 -1
    outer loop
      vertex 119.681 102.007 1.5
      vertex 115.935 95.4654 1.5
      vertex 119.547 102.673 1.5
    endloop
  endfacet
  facet normal 0 0 -1
    outer loop
      vertex 120.048 103.883 1.5
      vertex 117.818 110.664 1.5
      vertex 118.835 111.349 1.5
    endloop
  endfacet
  facet normal 0 0 -1
    outer loop
      vertex 115.935 95.4654 1.5
      vertex 117.818 94.6942 1.5
      vertex 116.572 94.9461 1.5
    endloop
  endfacet
  facet normal -0 0 -1
    outer loop
      vertex 119.547 102.673 1.5
      vertex 115.935 95.4654 1.5
      vertex 115.935 109.87 1.5
    endloop
  endfacet
  facet normal 0 0 -1
    outer loop
      vertex 120.048 103.883 1.5
      vertex 115.935 109.87 1.5
      vertex 117.818 110.664 1.5
    endloop
  endfacet
  facet normal 0 0 -1
    outer loop
      vertex 117.818 110.664 1.5
      vertex 115.935 109.87 1.5
      vertex 116.572 110.412 1.5
    endloop
  endfacet
  facet normal 0 0 -1
    outer loop
      vertex 140.996 110.141 1.5
      vertex 122.833 102.007 1.5
      vertex 122.967 102.673 1.5
    endloop
  endfacet
  facet normal 0 0 -1
    outer loop
      vertex 150 65.3354 1.5
      vertex 119.773 91.7458 1.5
      vertex 122.833 102.007 1.5
    endloop
  endfacet
  facet normal 0 0 -1
    outer loop
      vertex 122.833 102.007 1.5
      vertex 119.773 91.7458 1.5
      vertex 122.467 101.464 1.5
    endloop
  endfacet
  facet normal 0 0 -1
    outer loop
      vertex 119.521 92.9915 1.5
      vertex 122.467 101.464 1.5
      vertex 119.773 91.7458 1.5
    endloop
  endfacet
  facet normal 0 0 -1
    outer loop
      vertex 122.467 101.464 1.5
      vertex 119.521 92.9915 1.5
      vertex 121.923 101.097 1.5
    endloop
  endfacet
  facet normal 0 0 -1
    outer loop
      vertex 118.835 94.0085 1.5
      vertex 121.923 101.097 1.5
      vertex 119.521 92.9915 1.5
    endloop
  endfacet
  facet normal 0 0 -1
    outer loop
      vertex 121.923 101.097 1.5
      vertex 118.835 94.0085 1.5
      vertex 121.257 100.963 1.5
    endloop
  endfacet
  facet normal 0 0 -1
    outer loop
      vertex 150 65.3354 1.5
      vertex 119.521 90.5 1.5
      vertex 119.773 91.7458 1.5
    endloop
  endfacet
  facet normal 0 0 -1
    outer loop
      vertex 128.714 65.3354 1.5
      vertex 118.835 89.4825 1.5
      vertex 119.521 90.5 1.5
    endloop
  endfacet
  facet normal 0 0 -1
    outer loop
      vertex 128.714 65.3354 1.5
      vertex 117.818 88.7968 1.5
      vertex 118.835 89.4825 1.5
    endloop
  endfacet
  facet normal 0 0 -1
    outer loop
      vertex 128.714 65.3354 1.5
      vertex 116.572 88.5449 1.5
      vertex 117.818 88.7968 1.5
    endloop
  endfacet
  facet normal 0 0 -1
    outer loop
      vertex 112.5 88.5449 1.5
      vertex 128.714 65.3354 1.5
      vertex 112.5 49.1219 1.5
    endloop
  endfacet
  facet normal 0 0 -1
    outer loop
      vertex 128.714 65.3354 1.5
      vertex 112.5 88.5449 1.5
      vertex 116.572 88.5449 1.5
    endloop
  endfacet
  facet normal 0 0 -1
    outer loop
      vertex 150 65.3354 1.5
      vertex 140.996 110.141 1.5
      vertex 150 110.141 1.5
    endloop
  endfacet
  facet normal 0 0 -1
    outer loop
      vertex 119.521 90.5 1.5
      vertex 150 65.3354 1.5
      vertex 128.714 65.3354 1.5
    endloop
  endfacet
  facet normal 0 0 -1
    outer loop
      vertex 122.833 102.007 1.5
      vertex 140.996 110.141 1.5
      vertex 150 65.3354 1.5
    endloop
  endfacet
  facet normal 0 0 -1
    outer loop
      vertex 122.833 103.339 1.5
      vertex 140.996 110.141 1.5
      vertex 122.967 102.673 1.5
    endloop
  endfacet
  facet normal 0 0 -1
    outer loop
      vertex 122.467 103.883 1.5
      vertex 140.996 110.141 1.5
      vertex 122.833 103.339 1.5
    endloop
  endfacet
  facet normal 0 0 -1
    outer loop
      vertex 119.773 113.612 1.5
      vertex 122.467 103.883 1.5
      vertex 121.923 104.249 1.5
    endloop
  endfacet
  facet normal 0 0 -1
    outer loop
      vertex 119.773 113.612 1.5
      vertex 121.923 104.249 1.5
      vertex 121.257 104.383 1.5
    endloop
  endfacet
  facet normal 0 0 -1
    outer loop
      vertex 119.773 113.612 1.5
      vertex 121.257 104.383 1.5
      vertex 120.592 104.249 1.5
    endloop
  endfacet
  facet normal 0 0 -1
    outer loop
      vertex 119.773 113.612 1.5
      vertex 120.592 104.249 1.5
      vertex 120.048 103.883 1.5
    endloop
  endfacet
  facet normal 0 0 -1
    outer loop
      vertex 122.467 103.883 1.5
      vertex 119.773 113.612 1.5
      vertex 140.996 110.141 1.5
    endloop
  endfacet
  facet normal 0 0 -1
    outer loop
      vertex 119.521 114.858 1.5
      vertex 140.996 110.141 1.5
      vertex 119.773 113.612 1.5
    endloop
  endfacet
  facet normal 0 0 -1
    outer loop
      vertex 118.835 115.875 1.5
      vertex 140.996 110.141 1.5
      vertex 119.521 114.858 1.5
    endloop
  endfacet
  facet normal 0 0 -1
    outer loop
      vertex 115.935 135.202 1.5
      vertex 118.835 115.875 1.5
      vertex 117.818 116.561 1.5
    endloop
  endfacet
  facet normal 0 0 -1
    outer loop
      vertex 118.835 115.875 1.5
      vertex 115.935 135.202 1.5
      vertex 140.996 110.141 1.5
    endloop
  endfacet
  facet normal 0 0 -1
    outer loop
      vertex 115.935 135.202 1.5
      vertex 117.818 116.561 1.5
      vertex 116.572 116.812 1.5
    endloop
  endfacet
  facet normal 0 0 -1
    outer loop
      vertex 117.818 94.6942 1.5
      vertex 121.257 100.963 1.5
      vertex 118.835 94.0085 1.5
    endloop
  endfacet
  facet normal -0 0 -1
    outer loop
      vertex 121.257 100.963 1.5
      vertex 117.818 94.6942 1.5
      vertex 120.592 101.097 1.5
    endloop
  endfacet
  facet normal -0 0 -1
    outer loop
      vertex 120.592 101.097 1.5
      vertex 117.818 94.6942 1.5
      vertex 120.048 101.464 1.5
    endloop
  endfacet
  facet normal 1 -0 0
    outer loop
      vertex 112.5 49.1219 1.5
      vertex 112.5 88.5449 0
      vertex 112.5 88.5449 1.5
    endloop
  endfacet
  facet normal 1 0 0
    outer loop
      vertex 112.5 88.5449 0
      vertex 112.5 49.1219 1.5
      vertex 112.5 49.1219 0
    endloop
  endfacet
  facet normal 0 1 -0
    outer loop
      vertex 101.642 112.5 0
      vertex 94.5983 112.5 1.5
      vertex 101.642 112.5 1.5
    endloop
  endfacet
  facet normal 0 1 0
    outer loop
      vertex 94.5983 112.5 1.5
      vertex 101.642 112.5 0
      vertex 94.5983 112.5 0
    endloop
  endfacet
  facet normal 1 -0 0
    outer loop
      vertex 150 65.3354 3
      vertex 150 110.141 1.5
      vertex 150 110.141 3
    endloop
  endfacet
  facet normal 1 0 0
    outer loop
      vertex 150 110.141 1.5
      vertex 150 65.3354 3
      vertex 150 65.3354 1.5
    endloop
  endfacet
  facet normal 0 1 -0
    outer loop
      vertex 121.135 150 1.5
      vertex 81.9492 150 3
      vertex 121.135 150 3
    endloop
  endfacet
  facet normal 0 1 0
    outer loop
      vertex 81.9492 150 3
      vertex 121.135 150 1.5
      vertex 81.9492 150 1.5
    endloop
  endfacet
endsolid OpenSCAD_Model
