solid OpenSCAD_Model
  facet normal 0 0 -1
    outer loop
      vertex 112.5 354.669 0
      vertex 287.5 397.33 0
      vertex 287.5 354.669 0
    endloop
  endfacet
  facet normal -0 0 -1
    outer loop
      vertex 287.5 397.33 0
      vertex 112.5 354.669 0
      vertex 112.5 397.33 0
    endloop
  endfacet
  facet normal -0 0 1
    outer loop
      vertex 150 397.33 3
      vertex 250 354.669 3
      vertex 250 397.33 3
    endloop
  endfacet
  facet normal 0 0 1
    outer loop
      vertex 250 354.669 3
      vertex 150 397.33 3
      vertex 150 354.669 3
    endloop
  endfacet
  facet normal 0 1 -0
    outer loop
      vertex 287.5 397.33 0
      vertex 250 397.33 1.5
      vertex 287.5 397.33 1.5
    endloop
  endfacet
  facet normal 0 1 0
    outer loop
      vertex 250 397.33 1.5
      vertex 287.5 397.33 0
      vertex 150 397.33 1.5
    endloop
  endfacet
  facet normal 0 1 0
    outer loop
      vertex 112.5 397.33 0
      vertex 150 397.33 1.5
      vertex 287.5 397.33 0
    endloop
  endfacet
  facet normal 0 1 0
    outer loop
      vertex 150 397.33 1.5
      vertex 112.5 397.33 0
      vertex 112.5 397.33 1.5
    endloop
  endfacet
  facet normal 0 1 -0
    outer loop
      vertex 250 397.33 1.5
      vertex 150 397.33 3
      vertex 250 397.33 3
    endloop
  endfacet
  facet normal 0 1 0
    outer loop
      vertex 150 397.33 3
      vertex 250 397.33 1.5
      vertex 150 397.33 1.5
    endloop
  endfacet
  facet normal 0 -1 0
    outer loop
      vertex 112.5 354.669 0
      vertex 150 354.669 1.5
      vertex 112.5 354.669 1.5
    endloop
  endfacet
  facet normal 0 -1 -0
    outer loop
      vertex 150 354.669 1.5
      vertex 112.5 354.669 0
      vertex 250 354.669 1.5
    endloop
  endfacet
  facet normal 0 -1 0
    outer loop
      vertex 287.5 354.669 0
      vertex 250 354.669 1.5
      vertex 112.5 354.669 0
    endloop
  endfacet
  facet normal 0 -1 0
    outer loop
      vertex 250 354.669 1.5
      vertex 287.5 354.669 0
      vertex 287.5 354.669 1.5
    endloop
  endfacet
  facet normal 0 -1 0
    outer loop
      vertex 150 354.669 1.5
      vertex 250 354.669 3
      vertex 150 354.669 3
    endloop
  endfacet
  facet normal 0 -1 -0
    outer loop
      vertex 250 354.669 3
      vertex 150 354.669 1.5
      vertex 250 354.669 1.5
    endloop
  endfacet
  facet normal -1 0 0
    outer loop
      vertex 112.5 354.669 0
      vertex 112.5 397.33 1.5
      vertex 112.5 397.33 0
    endloop
  endfacet
  facet normal -1 -0 0
    outer loop
      vertex 112.5 397.33 1.5
      vertex 112.5 354.669 0
      vertex 112.5 354.669 1.5
    endloop
  endfacet
  facet normal -0 0 1
    outer loop
      vertex 112.5 397.33 1.5
      vertex 150 354.669 1.5
      vertex 150 397.33 1.5
    endloop
  endfacet
  facet normal 0 0 1
    outer loop
      vertex 150 354.669 1.5
      vertex 112.5 397.33 1.5
      vertex 112.5 354.669 1.5
    endloop
  endfacet
  facet normal -0 0 1
    outer loop
      vertex 250 397.33 1.5
      vertex 287.5 354.669 1.5
      vertex 287.5 397.33 1.5
    endloop
  endfacet
  facet normal 0 0 1
    outer loop
      vertex 287.5 354.669 1.5
      vertex 250 397.33 1.5
      vertex 250 354.669 1.5
    endloop
  endfacet
  facet normal 1 -0 0
    outer loop
      vertex 287.5 354.669 1.5
      vertex 287.5 397.33 0
      vertex 287.5 397.33 1.5
    endloop
  endfacet
  facet normal 1 0 0
    outer loop
      vertex 287.5 397.33 0
      vertex 287.5 354.669 1.5
      vertex 287.5 354.669 0
    endloop
  endfacet
  facet normal -1 0 0
    outer loop
      vertex 150 354.669 1.5
      vertex 150 397.33 3
      vertex 150 397.33 1.5
    endloop
  endfacet
  facet normal -1 -0 0
    outer loop
      vertex 150 397.33 3
      vertex 150 354.669 1.5
      vertex 150 354.669 3
    endloop
  endfacet
  facet normal 1 -0 0
    outer loop
      vertex 250 354.669 3
      vertex 250 397.33 1.5
      vertex 250 397.33 3
    endloop
  endfacet
  facet normal 1 0 0
    outer loop
      vertex 250 397.33 1.5
      vertex 250 354.669 3
      vertex 250 354.669 1.5
    endloop
  endfacet
endsolid OpenSCAD_Model
