solid OpenSCAD_Model
  facet normal 0 0 -1
    outer loop
      vertex 46.8267 175.26 0
      vertex 8.0819 195.23 0
      vertex 8.20743 195.851 0
    endloop
  endfacet
  facet normal 0 0 -1
    outer loop
      vertex 7.23182 194.379 0
      vertex 8.50746 176.732 0
      vertex 7.88569 176.858 0
    endloop
  endfacet
  facet normal 0 0 -1
    outer loop
      vertex 9.01521 176.39 0
      vertex 7.73956 194.722 0
      vertex 8.0819 195.23 0
    endloop
  endfacet
  facet normal 0 0 -1
    outer loop
      vertex 6.61005 194.254 0
      vertex 7.88569 176.858 0
      vertex 7.26392 176.732 0
    endloop
  endfacet
  facet normal 0 0 -1
    outer loop
      vertex 8.50746 176.732 0
      vertex 7.23182 194.379 0
      vertex 7.73956 194.722 0
    endloop
  endfacet
  facet normal 0 0 -1
    outer loop
      vertex 5.98828 194.379 0
      vertex 7.26392 176.732 0
      vertex 6.75618 176.39 0
    endloop
  endfacet
  facet normal 0 0 -1
    outer loop
      vertex 7.88569 176.858 0
      vertex 6.61005 194.254 0
      vertex 7.23182 194.379 0
    endloop
  endfacet
  facet normal 0 0 -1
    outer loop
      vertex 5.48053 194.722 0
      vertex 6.75618 176.39 0
      vertex 6.41385 175.882 0
    endloop
  endfacet
  facet normal 0 0 -1
    outer loop
      vertex 5.1382 195.23 0
      vertex 6.41385 175.882 0
      vertex 6.28831 175.26 0
    endloop
  endfacet
  facet normal 0 0 -1
    outer loop
      vertex 7.26392 176.732 0
      vertex 5.98828 194.379 0
      vertex 6.61005 194.254 0
    endloop
  endfacet
  facet normal 0 0 -1
    outer loop
      vertex 56.0046 112.5 0
      vertex 54.3903 189.022 0
      vertex 56.0046 287.5 0
    endloop
  endfacet
  facet normal 0 0 -1
    outer loop
      vertex 56.0046 112.5 0
      vertex 54.2647 188.4 0
      vertex 54.3903 189.022 0
    endloop
  endfacet
  facet normal 0 0 -1
    outer loop
      vertex 49.8959 174.639 0
      vertex 54.2647 188.4 0
      vertex 56.0046 112.5 0
    endloop
  endfacet
  facet normal 0 -0 -1
    outer loop
      vertex 50.0215 175.26 0
      vertex 54.2647 188.4 0
      vertex 49.8959 174.639 0
    endloop
  endfacet
  facet normal 0 0 -1
    outer loop
      vertex 49.8959 175.882 0
      vertex 53.9224 187.892 0
      vertex 50.0215 175.26 0
    endloop
  endfacet
  facet normal 0 0 -1
    outer loop
      vertex 53.9224 187.892 0
      vertex 49.8959 175.882 0
      vertex 53.4147 187.55 0
    endloop
  endfacet
  facet normal 0 0 -1
    outer loop
      vertex 49.5536 176.39 0
      vertex 53.4147 187.55 0
      vertex 49.8959 175.882 0
    endloop
  endfacet
  facet normal 0 0 -1
    outer loop
      vertex 53.4147 187.55 0
      vertex 49.5536 176.39 0
      vertex 52.7929 187.424 0
    endloop
  endfacet
  facet normal 0 0 -1
    outer loop
      vertex 49.0459 176.732 0
      vertex 52.7929 187.424 0
      vertex 49.5536 176.39 0
    endloop
  endfacet
  facet normal -0 0 -1
    outer loop
      vertex 52.7929 187.424 0
      vertex 49.0459 176.732 0
      vertex 52.1711 187.55 0
    endloop
  endfacet
  facet normal 0 0 -1
    outer loop
      vertex 54.2647 188.4 0
      vertex 50.0215 175.26 0
      vertex 53.9224 187.892 0
    endloop
  endfacet
  facet normal 0 0 -1
    outer loop
      vertex 56.0046 112.5 0
      vertex 49.5536 174.131 0
      vertex 49.8959 174.639 0
    endloop
  endfacet
  facet normal 0 0 -1
    outer loop
      vertex 56.0046 112.5 0
      vertex 49.0459 173.789 0
      vertex 49.5536 174.131 0
    endloop
  endfacet
  facet normal 0 0 -1
    outer loop
      vertex 56.0046 112.5 0
      vertex 48.4241 173.663 0
      vertex 49.0459 173.789 0
    endloop
  endfacet
  facet normal 0 0 -1
    outer loop
      vertex 56.0046 112.5 0
      vertex 47.8023 173.789 0
      vertex 48.4241 173.663 0
    endloop
  endfacet
  facet normal 0 0 -1
    outer loop
      vertex 2.66458 112.5 0
      vertex 47.8023 173.789 0
      vertex 56.0046 112.5 0
    endloop
  endfacet
  facet normal 0 -0 -1
    outer loop
      vertex 8.50746 173.789 0
      vertex 47.8023 173.789 0
      vertex 2.66458 112.5 0
    endloop
  endfacet
  facet normal 0 0 -1
    outer loop
      vertex 47.8023 173.789 0
      vertex 8.50746 173.789 0
      vertex 47.2946 174.131 0
    endloop
  endfacet
  facet normal 0 -0 -1
    outer loop
      vertex 9.01521 174.131 0
      vertex 47.2946 174.131 0
      vertex 8.50746 173.789 0
    endloop
  endfacet
  facet normal 0 0 -1
    outer loop
      vertex 46.8267 175.26 0
      vertex 20.1384 266.372 0
      vertex 20.264 266.994 0
    endloop
  endfacet
  facet normal 0 0 -1
    outer loop
      vertex 8.0819 196.473 0
      vertex 46.8267 175.26 0
      vertex 8.20743 195.851 0
    endloop
  endfacet
  facet normal 0 0 -1
    outer loop
      vertex 7.73956 196.981 0
      vertex 46.8267 175.26 0
      vertex 8.0819 196.473 0
    endloop
  endfacet
  facet normal 0 0 -1
    outer loop
      vertex 46.8267 175.26 0
      vertex 19.7961 265.864 0
      vertex 20.1384 266.372 0
    endloop
  endfacet
  facet normal 0 0 -1
    outer loop
      vertex 46.8267 175.26 0
      vertex 7.73956 196.981 0
      vertex 19.7961 265.864 0
    endloop
  endfacet
  facet normal 0 0 -1
    outer loop
      vertex 19.7961 265.864 0
      vertex 7.73956 196.981 0
      vertex 19.2884 265.522 0
    endloop
  endfacet
  facet normal 0 0 -1
    outer loop
      vertex 7.23182 197.323 0
      vertex 19.2884 265.522 0
      vertex 7.73956 196.981 0
    endloop
  endfacet
  facet normal 0 0 -1
    outer loop
      vertex 19.2884 265.522 0
      vertex 7.23182 197.323 0
      vertex 18.6666 265.397 0
    endloop
  endfacet
  facet normal 0 0 -1
    outer loop
      vertex 9.35754 175.882 0
      vertex 46.8267 175.26 0
      vertex 9.48307 175.26 0
    endloop
  endfacet
  facet normal -0 0 -1
    outer loop
      vertex 46.8267 175.26 0
      vertex 9.35754 174.639 0
      vertex 9.48307 175.26 0
    endloop
  endfacet
  facet normal 0 0 -1
    outer loop
      vertex 46.9522 174.639 0
      vertex 9.35754 174.639 0
      vertex 46.8267 175.26 0
    endloop
  endfacet
  facet normal 0 -0 -1
    outer loop
      vertex 9.35754 174.639 0
      vertex 46.9522 174.639 0
      vertex 9.01521 174.131 0
    endloop
  endfacet
  facet normal 0 0 -1
    outer loop
      vertex 47.2946 174.131 0
      vertex 9.01521 174.131 0
      vertex 46.9522 174.639 0
    endloop
  endfacet
  facet normal 0 0 -1
    outer loop
      vertex 8.50746 173.789 0
      vertex 2.66458 112.5 0
      vertex 7.88569 173.663 0
    endloop
  endfacet
  facet normal -0 0 -1
    outer loop
      vertex 7.88569 173.663 0
      vertex 2.66458 112.5 0
      vertex 7.26392 173.789 0
    endloop
  endfacet
  facet normal 0 0 -1
    outer loop
      vertex 6.75618 176.39 0
      vertex 5.48053 194.722 0
      vertex 5.98828 194.379 0
    endloop
  endfacet
  facet normal 0 0 -1
    outer loop
      vertex 6.41385 175.882 0
      vertex 5.1382 195.23 0
      vertex 5.48053 194.722 0
    endloop
  endfacet
  facet normal 0 0 -1
    outer loop
      vertex 6.28831 175.26 0
      vertex 5.01267 195.851 0
      vertex 5.1382 195.23 0
    endloop
  endfacet
  facet normal -0 0 -1
    outer loop
      vertex 6.28831 175.26 0
      vertex 2.66458 112.5 0
      vertex 5.01267 195.851 0
    endloop
  endfacet
  facet normal -0 0 -1
    outer loop
      vertex 6.41385 174.639 0
      vertex 2.66458 112.5 0
      vertex 6.28831 175.26 0
    endloop
  endfacet
  facet normal -0 0 -1
    outer loop
      vertex 6.75618 174.131 0
      vertex 2.66458 112.5 0
      vertex 6.41385 174.639 0
    endloop
  endfacet
  facet normal -0 0 -1
    outer loop
      vertex 7.26392 173.789 0
      vertex 2.66458 112.5 0
      vertex 6.75618 174.131 0
    endloop
  endfacet
  facet normal 0 0 -1
    outer loop
      vertex 54.2647 189.643 0
      vertex 56.0046 287.5 0
      vertex 54.3903 189.022 0
    endloop
  endfacet
  facet normal 0 0 -1
    outer loop
      vertex 53.9224 190.151 0
      vertex 56.0046 287.5 0
      vertex 54.2647 189.643 0
    endloop
  endfacet
  facet normal 0 0 -1
    outer loop
      vertex 53.4147 190.493 0
      vertex 56.0046 287.5 0
      vertex 53.9224 190.151 0
    endloop
  endfacet
  facet normal 0 0 -1
    outer loop
      vertex 52.7929 190.619 0
      vertex 56.0046 287.5 0
      vertex 53.4147 190.493 0
    endloop
  endfacet
  facet normal 0 0 -1
    outer loop
      vertex 20.264 266.994 0
      vertex 52.7929 190.619 0
      vertex 52.1711 190.493 0
    endloop
  endfacet
  facet normal 0 0 -1
    outer loop
      vertex 20.264 266.994 0
      vertex 52.1711 190.493 0
      vertex 51.6634 190.151 0
    endloop
  endfacet
  facet normal 0 0 -1
    outer loop
      vertex 20.264 266.994 0
      vertex 51.6634 190.151 0
      vertex 51.321 189.643 0
    endloop
  endfacet
  facet normal 0 0 -1
    outer loop
      vertex 46.9522 175.882 0
      vertex 51.321 189.643 0
      vertex 51.1955 189.022 0
    endloop
  endfacet
  facet normal 0 0 -1
    outer loop
      vertex 48.4241 176.858 0
      vertex 52.1711 187.55 0
      vertex 49.0459 176.732 0
    endloop
  endfacet
  facet normal -0 0 -1
    outer loop
      vertex 52.1711 187.55 0
      vertex 48.4241 176.858 0
      vertex 51.6634 187.892 0
    endloop
  endfacet
  facet normal 0 0 -1
    outer loop
      vertex 47.8023 176.732 0
      vertex 51.6634 187.892 0
      vertex 48.4241 176.858 0
    endloop
  endfacet
  facet normal -0 0 -1
    outer loop
      vertex 51.6634 187.892 0
      vertex 47.8023 176.732 0
      vertex 51.321 188.4 0
    endloop
  endfacet
  facet normal 0 0 -1
    outer loop
      vertex 47.2946 176.39 0
      vertex 51.321 188.4 0
      vertex 47.8023 176.732 0
    endloop
  endfacet
  facet normal -0 0 -1
    outer loop
      vertex 51.321 188.4 0
      vertex 47.2946 176.39 0
      vertex 51.1955 189.022 0
    endloop
  endfacet
  facet normal 0 0 -1
    outer loop
      vertex 46.9522 175.882 0
      vertex 51.1955 189.022 0
      vertex 47.2946 176.39 0
    endloop
  endfacet
  facet normal -0 0 -1
    outer loop
      vertex 51.321 189.643 0
      vertex 46.9522 175.882 0
      vertex 20.264 266.994 0
    endloop
  endfacet
  facet normal 0 0 -1
    outer loop
      vertex 20.264 266.994 0
      vertex 46.9522 175.882 0
      vertex 46.8267 175.26 0
    endloop
  endfacet
  facet normal 0 0 -1
    outer loop
      vertex 52.7929 190.619 0
      vertex 20.264 266.994 0
      vertex 56.0046 287.5 0
    endloop
  endfacet
  facet normal 0 0 -1
    outer loop
      vertex 20.1384 267.616 0
      vertex 56.0046 287.5 0
      vertex 20.264 266.994 0
    endloop
  endfacet
  facet normal 0 0 -1
    outer loop
      vertex 19.7961 268.123 0
      vertex 56.0046 287.5 0
      vertex 20.1384 267.616 0
    endloop
  endfacet
  facet normal 0 0 -1
    outer loop
      vertex 19.2884 268.466 0
      vertex 56.0046 287.5 0
      vertex 19.7961 268.123 0
    endloop
  endfacet
  facet normal 0 0 -1
    outer loop
      vertex 2.66458 287.5 0
      vertex 19.2884 268.466 0
      vertex 18.6666 268.591 0
    endloop
  endfacet
  facet normal 0 0 -1
    outer loop
      vertex 2.66458 287.5 0
      vertex 18.6666 268.591 0
      vertex 18.0448 268.466 0
    endloop
  endfacet
  facet normal 0 0 -1
    outer loop
      vertex 8.0819 195.23 0
      vertex 46.8267 175.26 0
      vertex 9.35754 175.882 0
    endloop
  endfacet
  facet normal 0 0 -1
    outer loop
      vertex 8.0819 195.23 0
      vertex 9.35754 175.882 0
      vertex 9.01521 176.39 0
    endloop
  endfacet
  facet normal 0 0 -1
    outer loop
      vertex 7.73956 194.722 0
      vertex 9.01521 176.39 0
      vertex 8.50746 176.732 0
    endloop
  endfacet
  facet normal 0 0 -1
    outer loop
      vertex 6.61005 197.449 0
      vertex 18.6666 265.397 0
      vertex 7.23182 197.323 0
    endloop
  endfacet
  facet normal -0 0 -1
    outer loop
      vertex 18.6666 265.397 0
      vertex 6.61005 197.449 0
      vertex 18.0448 265.522 0
    endloop
  endfacet
  facet normal 0 0 -1
    outer loop
      vertex 5.98828 197.323 0
      vertex 18.0448 265.522 0
      vertex 6.61005 197.449 0
    endloop
  endfacet
  facet normal -0 0 -1
    outer loop
      vertex 18.0448 265.522 0
      vertex 5.98828 197.323 0
      vertex 17.5371 265.864 0
    endloop
  endfacet
  facet normal 0 0 -1
    outer loop
      vertex 5.48053 196.981 0
      vertex 17.5371 265.864 0
      vertex 5.98828 197.323 0
    endloop
  endfacet
  facet normal -0 0 -1
    outer loop
      vertex 17.5371 265.864 0
      vertex 5.48053 196.981 0
      vertex 17.1947 266.372 0
    endloop
  endfacet
  facet normal 0 0 -1
    outer loop
      vertex 2.66458 287.5 0
      vertex 17.1947 266.372 0
      vertex 5.48053 196.981 0
    endloop
  endfacet
  facet normal 0 0 -1
    outer loop
      vertex 2.66458 287.5 0
      vertex 5.48053 196.981 0
      vertex 5.1382 196.473 0
    endloop
  endfacet
  facet normal 0 0 -1
    outer loop
      vertex 2.66458 287.5 0
      vertex 5.1382 196.473 0
      vertex 5.01267 195.851 0
    endloop
  endfacet
  facet normal 0 0 -1
    outer loop
      vertex 19.2884 268.466 0
      vertex 2.66458 287.5 0
      vertex 56.0046 287.5 0
    endloop
  endfacet
  facet normal 0 0 -1
    outer loop
      vertex 17.5371 268.123 0
      vertex 2.66458 287.5 0
      vertex 18.0448 268.466 0
    endloop
  endfacet
  facet normal 0 0 -1
    outer loop
      vertex 17.1947 267.616 0
      vertex 2.66458 287.5 0
      vertex 17.5371 268.123 0
    endloop
  endfacet
  facet normal 0 0 -1
    outer loop
      vertex 17.0692 266.994 0
      vertex 2.66458 287.5 0
      vertex 17.1947 267.616 0
    endloop
  endfacet
  facet normal 0 0 -1
    outer loop
      vertex 17.1947 266.372 0
      vertex 2.66458 287.5 0
      vertex 17.0692 266.994 0
    endloop
  endfacet
  facet normal 0 0 -1
    outer loop
      vertex 2.66458 287.5 0
      vertex 5.01267 195.851 0
      vertex 2.66458 112.5 0
    endloop
  endfacet
  facet normal 0 0 1
    outer loop
      vertex 56.0046 250 3
      vertex 54.3903 189.022 3
      vertex 56.0046 150 3
    endloop
  endfacet
  facet normal 0 0 1
    outer loop
      vertex 56.0046 250 3
      vertex 54.2647 189.643 3
      vertex 54.3903 189.022 3
    endloop
  endfacet
  facet normal 0 0 1
    outer loop
      vertex 56.0046 250 3
      vertex 53.9224 190.151 3
      vertex 54.2647 189.643 3
    endloop
  endfacet
  facet normal 0 0 1
    outer loop
      vertex 56.0046 250 3
      vertex 53.4147 190.493 3
      vertex 53.9224 190.151 3
    endloop
  endfacet
  facet normal 0 0 1
    outer loop
      vertex 56.0046 250 3
      vertex 52.7929 190.619 3
      vertex 53.4147 190.493 3
    endloop
  endfacet
  facet normal 0 0 1
    outer loop
      vertex 56.0046 250 3
      vertex 52.1711 190.493 3
      vertex 52.7929 190.619 3
    endloop
  endfacet
  facet normal -0 0 1
    outer loop
      vertex 7.73956 196.981 3
      vertex 52.1711 190.493 3
      vertex 56.0046 250 3
    endloop
  endfacet
  facet normal 0 0 1
    outer loop
      vertex 52.1711 190.493 3
      vertex 7.73956 196.981 3
      vertex 51.6634 190.151 3
    endloop
  endfacet
  facet normal -0 -0 1
    outer loop
      vertex 8.0819 196.473 3
      vertex 51.6634 190.151 3
      vertex 7.73956 196.981 3
    endloop
  endfacet
  facet normal 0 0 1
    outer loop
      vertex 51.6634 190.151 3
      vertex 8.0819 196.473 3
      vertex 51.321 189.643 3
    endloop
  endfacet
  facet normal 0 0 1
    outer loop
      vertex 51.1955 189.022 3
      vertex 49.8959 175.882 3
      vertex 50.0215 175.26 3
    endloop
  endfacet
  facet normal 0 0 1
    outer loop
      vertex 51.1955 189.022 3
      vertex 49.5536 176.39 3
      vertex 49.8959 175.882 3
    endloop
  endfacet
  facet normal 0 0 1
    outer loop
      vertex 51.1955 189.022 3
      vertex 49.0459 176.732 3
      vertex 49.5536 176.39 3
    endloop
  endfacet
  facet normal 0 0 1
    outer loop
      vertex 51.1955 189.022 3
      vertex 48.4241 176.858 3
      vertex 49.0459 176.732 3
    endloop
  endfacet
  facet normal 0 0 1
    outer loop
      vertex 51.321 189.643 3
      vertex 8.20743 195.851 3
      vertex 51.1955 189.022 3
    endloop
  endfacet
  facet normal 0 0 1
    outer loop
      vertex 51.1955 189.022 3
      vertex 47.8023 176.732 3
      vertex 48.4241 176.858 3
    endloop
  endfacet
  facet normal -0 0 1
    outer loop
      vertex 8.0819 195.23 3
      vertex 51.1955 189.022 3
      vertex 8.20743 195.851 3
    endloop
  endfacet
  facet normal 0 0 1
    outer loop
      vertex 51.1955 189.022 3
      vertex 47.2946 176.39 3
      vertex 47.8023 176.732 3
    endloop
  endfacet
  facet normal 0 0 1
    outer loop
      vertex 51.1955 189.022 3
      vertex 8.0819 195.23 3
      vertex 47.2946 176.39 3
    endloop
  endfacet
  facet normal 0 0 1
    outer loop
      vertex 46.8267 175.26 3
      vertex 9.35754 175.882 3
      vertex 9.48307 175.26 3
    endloop
  endfacet
  facet normal 0 -0 1
    outer loop
      vertex 9.35754 175.882 3
      vertex 46.9522 175.882 3
      vertex 8.0819 195.23 3
    endloop
  endfacet
  facet normal 0 0 1
    outer loop
      vertex 46.9522 175.882 3
      vertex 9.35754 175.882 3
      vertex 46.8267 175.26 3
    endloop
  endfacet
  facet normal 0 0 1
    outer loop
      vertex 9.35754 175.882 3
      vertex 8.0819 195.23 3
      vertex 9.01521 176.39 3
    endloop
  endfacet
  facet normal 0 0 1
    outer loop
      vertex 47.2946 176.39 3
      vertex 8.0819 195.23 3
      vertex 46.9522 175.882 3
    endloop
  endfacet
  facet normal -0 -0 1
    outer loop
      vertex 8.20743 195.851 3
      vertex 51.321 189.643 3
      vertex 8.0819 196.473 3
    endloop
  endfacet
  facet normal -0 0 1
    outer loop
      vertex 2.66458 250 3
      vertex 7.73956 196.981 3
      vertex 56.0046 250 3
    endloop
  endfacet
  facet normal 0 0 1
    outer loop
      vertex 7.73956 196.981 3
      vertex 2.66458 250 3
      vertex 7.23182 197.323 3
    endloop
  endfacet
  facet normal 0 0 1
    outer loop
      vertex 7.23182 197.323 3
      vertex 2.66458 250 3
      vertex 6.61005 197.449 3
    endloop
  endfacet
  facet normal 0 0 1
    outer loop
      vertex 6.61005 197.449 3
      vertex 2.66458 250 3
      vertex 5.98828 197.323 3
    endloop
  endfacet
  facet normal 0 0 1
    outer loop
      vertex 5.1382 196.473 3
      vertex 2.66458 250 3
      vertex 5.01267 195.851 3
    endloop
  endfacet
  facet normal 0 0 1
    outer loop
      vertex 5.48053 196.981 3
      vertex 2.66458 250 3
      vertex 5.1382 196.473 3
    endloop
  endfacet
  facet normal 0 0 1
    outer loop
      vertex 5.98828 197.323 3
      vertex 2.66458 250 3
      vertex 5.48053 196.981 3
    endloop
  endfacet
  facet normal -0 0 1
    outer loop
      vertex 54.2647 188.4 3
      vertex 56.0046 150 3
      vertex 54.3903 189.022 3
    endloop
  endfacet
  facet normal 0 0 1
    outer loop
      vertex 50.0215 175.26 3
      vertex 54.2647 188.4 3
      vertex 53.9224 187.892 3
    endloop
  endfacet
  facet normal 0 0 1
    outer loop
      vertex 50.0215 175.26 3
      vertex 53.9224 187.892 3
      vertex 53.4147 187.55 3
    endloop
  endfacet
  facet normal 0 0 1
    outer loop
      vertex 50.0215 175.26 3
      vertex 53.4147 187.55 3
      vertex 52.7929 187.424 3
    endloop
  endfacet
  facet normal 0 0 1
    outer loop
      vertex 50.0215 175.26 3
      vertex 52.7929 187.424 3
      vertex 52.1711 187.55 3
    endloop
  endfacet
  facet normal 0 0 1
    outer loop
      vertex 50.0215 175.26 3
      vertex 52.1711 187.55 3
      vertex 51.6634 187.892 3
    endloop
  endfacet
  facet normal 0 0 1
    outer loop
      vertex 50.0215 175.26 3
      vertex 51.6634 187.892 3
      vertex 51.321 188.4 3
    endloop
  endfacet
  facet normal 0 0 1
    outer loop
      vertex 50.0215 175.26 3
      vertex 51.321 188.4 3
      vertex 51.1955 189.022 3
    endloop
  endfacet
  facet normal 0 0 1
    outer loop
      vertex 54.2647 188.4 3
      vertex 50.0215 175.26 3
      vertex 56.0046 150 3
    endloop
  endfacet
  facet normal -0 0 1
    outer loop
      vertex 49.8959 174.639 3
      vertex 56.0046 150 3
      vertex 50.0215 175.26 3
    endloop
  endfacet
  facet normal -0 0 1
    outer loop
      vertex 49.5536 174.131 3
      vertex 56.0046 150 3
      vertex 49.8959 174.639 3
    endloop
  endfacet
  facet normal -0 0 1
    outer loop
      vertex 49.0459 173.789 3
      vertex 56.0046 150 3
      vertex 49.5536 174.131 3
    endloop
  endfacet
  facet normal -0 0 1
    outer loop
      vertex 48.4241 173.663 3
      vertex 56.0046 150 3
      vertex 49.0459 173.789 3
    endloop
  endfacet
  facet normal 0 0 1
    outer loop
      vertex 47.8023 173.789 3
      vertex 56.0046 150 3
      vertex 48.4241 173.663 3
    endloop
  endfacet
  facet normal 0 0 1
    outer loop
      vertex 47.2946 174.131 3
      vertex 56.0046 150 3
      vertex 47.8023 173.789 3
    endloop
  endfacet
  facet normal 0 0 1
    outer loop
      vertex 9.01521 174.131 3
      vertex 47.2946 174.131 3
      vertex 46.9522 174.639 3
    endloop
  endfacet
  facet normal -0 0 1
    outer loop
      vertex 9.48307 175.26 3
      vertex 46.9522 174.639 3
      vertex 46.8267 175.26 3
    endloop
  endfacet
  facet normal 0 0 1
    outer loop
      vertex 9.35754 174.639 3
      vertex 46.9522 174.639 3
      vertex 9.48307 175.26 3
    endloop
  endfacet
  facet normal 0 0 1
    outer loop
      vertex 9.01521 174.131 3
      vertex 46.9522 174.639 3
      vertex 9.35754 174.639 3
    endloop
  endfacet
  facet normal 0 0 1
    outer loop
      vertex 47.2946 174.131 3
      vertex 9.01521 174.131 3
      vertex 2.66458 150 3
    endloop
  endfacet
  facet normal 0 0 1
    outer loop
      vertex 2.66458 150 3
      vertex 9.01521 174.131 3
      vertex 8.50746 173.789 3
    endloop
  endfacet
  facet normal 0 0 1
    outer loop
      vertex 2.66458 150 3
      vertex 8.50746 173.789 3
      vertex 7.88569 173.663 3
    endloop
  endfacet
  facet normal 0 0 1
    outer loop
      vertex 2.66458 150 3
      vertex 7.88569 173.663 3
      vertex 7.26392 173.789 3
    endloop
  endfacet
  facet normal 0 0 1
    outer loop
      vertex 5.1382 195.23 3
      vertex 6.41385 175.882 3
      vertex 5.48053 194.722 3
    endloop
  endfacet
  facet normal 0 0 1
    outer loop
      vertex 6.41385 175.882 3
      vertex 5.1382 195.23 3
      vertex 6.28831 175.26 3
    endloop
  endfacet
  facet normal 0 0 1
    outer loop
      vertex 5.01267 195.851 3
      vertex 6.28831 175.26 3
      vertex 5.1382 195.23 3
    endloop
  endfacet
  facet normal 0 0 1
    outer loop
      vertex 47.2946 174.131 3
      vertex 2.66458 150 3
      vertex 56.0046 150 3
    endloop
  endfacet
  facet normal 0 0 1
    outer loop
      vertex 6.75618 174.131 3
      vertex 2.66458 150 3
      vertex 7.26392 173.789 3
    endloop
  endfacet
  facet normal 0 0 1
    outer loop
      vertex 6.41385 174.639 3
      vertex 2.66458 150 3
      vertex 6.75618 174.131 3
    endloop
  endfacet
  facet normal 0 0 1
    outer loop
      vertex 6.28831 175.26 3
      vertex 2.66458 150 3
      vertex 6.41385 174.639 3
    endloop
  endfacet
  facet normal 0 0 1
    outer loop
      vertex 5.01267 195.851 3
      vertex 2.66458 150 3
      vertex 6.28831 175.26 3
    endloop
  endfacet
  facet normal 0 0 1
    outer loop
      vertex 2.66458 150 3
      vertex 5.01267 195.851 3
      vertex 2.66458 250 3
    endloop
  endfacet
  facet normal -0 0 1
    outer loop
      vertex 7.73956 194.722 3
      vertex 9.01521 176.39 3
      vertex 8.0819 195.23 3
    endloop
  endfacet
  facet normal 0 0 1
    outer loop
      vertex 9.01521 176.39 3
      vertex 7.73956 194.722 3
      vertex 8.50746 176.732 3
    endloop
  endfacet
  facet normal -0 0 1
    outer loop
      vertex 7.23182 194.379 3
      vertex 8.50746 176.732 3
      vertex 7.73956 194.722 3
    endloop
  endfacet
  facet normal 0 0 1
    outer loop
      vertex 8.50746 176.732 3
      vertex 7.23182 194.379 3
      vertex 7.88569 176.858 3
    endloop
  endfacet
  facet normal -0 0 1
    outer loop
      vertex 6.61005 194.254 3
      vertex 7.88569 176.858 3
      vertex 7.23182 194.379 3
    endloop
  endfacet
  facet normal 0 0 1
    outer loop
      vertex 7.88569 176.858 3
      vertex 6.61005 194.254 3
      vertex 7.26392 176.732 3
    endloop
  endfacet
  facet normal 0 0 1
    outer loop
      vertex 5.98828 194.379 3
      vertex 7.26392 176.732 3
      vertex 6.61005 194.254 3
    endloop
  endfacet
  facet normal 0 0 1
    outer loop
      vertex 7.26392 176.732 3
      vertex 5.98828 194.379 3
      vertex 6.75618 176.39 3
    endloop
  endfacet
  facet normal 0 0 1
    outer loop
      vertex 5.48053 194.722 3
      vertex 6.75618 176.39 3
      vertex 5.98828 194.379 3
    endloop
  endfacet
  facet normal 0 0 1
    outer loop
      vertex 6.75618 176.39 3
      vertex 5.48053 194.722 3
      vertex 6.41385 175.882 3
    endloop
  endfacet
  facet normal -1 0 0
    outer loop
      vertex 2.66458 287.5 0
      vertex 2.66458 250 1.5
      vertex 2.66458 287.5 1.5
    endloop
  endfacet
  facet normal -1 0 0
    outer loop
      vertex 2.66458 250 1.5
      vertex 2.66458 150 1.5
      vertex 2.66458 250 3
    endloop
  endfacet
  facet normal -1 0 0
    outer loop
      vertex 2.66458 287.5 0
      vertex 2.66458 150 1.5
      vertex 2.66458 250 1.5
    endloop
  endfacet
  facet normal -1 0 0
    outer loop
      vertex 2.66458 112.5 0
      vertex 2.66458 150 1.5
      vertex 2.66458 287.5 0
    endloop
  endfacet
  facet normal -1 -0 0
    outer loop
      vertex 2.66458 150 1.5
      vertex 2.66458 112.5 0
      vertex 2.66458 112.5 1.5
    endloop
  endfacet
  facet normal -1 -0 0
    outer loop
      vertex 2.66458 250 3
      vertex 2.66458 150 1.5
      vertex 2.66458 150 3
    endloop
  endfacet
  facet normal -0.82915 -0.559027 0
    outer loop
      vertex 9.35754 175.882 0
      vertex 9.01521 176.39 3
      vertex 9.01521 176.39 0
    endloop
  endfacet
  facet normal -0.82915 -0.559027 0
    outer loop
      vertex 9.01521 176.39 3
      vertex 9.35754 175.882 0
      vertex 9.35754 175.882 3
    endloop
  endfacet
  facet normal -0.55903 -0.829148 0
    outer loop
      vertex 8.50746 176.732 0
      vertex 9.01521 176.39 3
      vertex 8.50746 176.732 3
    endloop
  endfacet
  facet normal -0.55903 -0.829148 -0
    outer loop
      vertex 9.01521 176.39 3
      vertex 8.50746 176.732 0
      vertex 9.01521 176.39 0
    endloop
  endfacet
  facet normal -0.197881 -0.980226 0
    outer loop
      vertex 7.88569 176.858 0
      vertex 8.50746 176.732 3
      vertex 7.88569 176.858 3
    endloop
  endfacet
  facet normal -0.197881 -0.980226 -0
    outer loop
      vertex 8.50746 176.732 3
      vertex 7.88569 176.858 0
      vertex 8.50746 176.732 0
    endloop
  endfacet
  facet normal 0.55903 0.829148 -0
    outer loop
      vertex 7.26392 173.789 0
      vertex 6.75618 174.131 3
      vertex 7.26392 173.789 3
    endloop
  endfacet
  facet normal 0.55903 0.829148 0
    outer loop
      vertex 6.75618 174.131 3
      vertex 7.26392 173.789 0
      vertex 6.75618 174.131 0
    endloop
  endfacet
  facet normal 0.19788 -0.980226 0
    outer loop
      vertex 7.26392 176.732 0
      vertex 7.88569 176.858 3
      vertex 7.26392 176.732 3
    endloop
  endfacet
  facet normal 0.19788 -0.980226 0
    outer loop
      vertex 7.88569 176.858 3
      vertex 7.26392 176.732 0
      vertex 7.88569 176.858 0
    endloop
  endfacet
  facet normal -0.980224 0.19789 0
    outer loop
      vertex 9.35754 174.639 0
      vertex 9.48307 175.26 3
      vertex 9.48307 175.26 0
    endloop
  endfacet
  facet normal -0.980224 0.19789 0
    outer loop
      vertex 9.48307 175.26 3
      vertex 9.35754 174.639 0
      vertex 9.35754 174.639 3
    endloop
  endfacet
  facet normal -0.980223 -0.197895 0
    outer loop
      vertex 9.48307 175.26 0
      vertex 9.35754 175.882 3
      vertex 9.35754 175.882 0
    endloop
  endfacet
  facet normal -0.980223 -0.197895 0
    outer loop
      vertex 9.35754 175.882 3
      vertex 9.48307 175.26 0
      vertex 9.48307 175.26 3
    endloop
  endfacet
  facet normal 0.980222 -0.1979 0
    outer loop
      vertex 6.28831 175.26 3
      vertex 6.41385 175.882 0
      vertex 6.41385 175.882 3
    endloop
  endfacet
  facet normal 0.980222 -0.1979 0
    outer loop
      vertex 6.41385 175.882 0
      vertex 6.28831 175.26 3
      vertex 6.28831 175.26 0
    endloop
  endfacet
  facet normal 0.197903 0.980222 -0
    outer loop
      vertex 7.88569 173.663 0
      vertex 7.26392 173.789 3
      vertex 7.88569 173.663 3
    endloop
  endfacet
  facet normal 0.197903 0.980222 0
    outer loop
      vertex 7.26392 173.789 3
      vertex 7.88569 173.663 0
      vertex 7.26392 173.789 0
    endloop
  endfacet
  facet normal -0.197904 0.980221 0
    outer loop
      vertex 8.50746 173.789 0
      vertex 7.88569 173.663 3
      vertex 8.50746 173.789 3
    endloop
  endfacet
  facet normal -0.197904 0.980221 0
    outer loop
      vertex 7.88569 173.663 3
      vertex 8.50746 173.789 0
      vertex 7.88569 173.663 0
    endloop
  endfacet
  facet normal -0.55903 0.829148 0
    outer loop
      vertex 9.01521 174.131 0
      vertex 8.50746 173.789 3
      vertex 9.01521 174.131 3
    endloop
  endfacet
  facet normal -0.55903 0.829148 0
    outer loop
      vertex 8.50746 173.789 3
      vertex 9.01521 174.131 0
      vertex 8.50746 173.789 0
    endloop
  endfacet
  facet normal 0.980223 0.197896 0
    outer loop
      vertex 6.41385 174.639 3
      vertex 6.28831 175.26 0
      vertex 6.28831 175.26 3
    endloop
  endfacet
  facet normal 0.980223 0.197896 0
    outer loop
      vertex 6.28831 175.26 0
      vertex 6.41385 174.639 3
      vertex 6.41385 174.639 0
    endloop
  endfacet
  facet normal 0.829145 0.559034 0
    outer loop
      vertex 6.75618 174.131 3
      vertex 6.41385 174.639 0
      vertex 6.41385 174.639 3
    endloop
  endfacet
  facet normal 0.829145 0.559034 0
    outer loop
      vertex 6.41385 174.639 0
      vertex 6.75618 174.131 3
      vertex 6.75618 174.131 0
    endloop
  endfacet
  facet normal -0.829142 0.559038 0
    outer loop
      vertex 9.01521 174.131 0
      vertex 9.35754 174.639 3
      vertex 9.35754 174.639 0
    endloop
  endfacet
  facet normal -0.829142 0.559038 0
    outer loop
      vertex 9.35754 174.639 3
      vertex 9.01521 174.131 0
      vertex 9.01521 174.131 3
    endloop
  endfacet
  facet normal 0.829152 -0.559023 0
    outer loop
      vertex 6.41385 175.882 3
      vertex 6.75618 176.39 0
      vertex 6.75618 176.39 3
    endloop
  endfacet
  facet normal 0.829152 -0.559023 0
    outer loop
      vertex 6.75618 176.39 0
      vertex 6.41385 175.882 3
      vertex 6.41385 175.882 0
    endloop
  endfacet
  facet normal 0.55903 -0.829148 0
    outer loop
      vertex 6.75618 176.39 0
      vertex 7.26392 176.732 3
      vertex 6.75618 176.39 3
    endloop
  endfacet
  facet normal 0.55903 -0.829148 0
    outer loop
      vertex 7.26392 176.732 3
      vertex 6.75618 176.39 0
      vertex 7.26392 176.732 0
    endloop
  endfacet
  facet normal -0.829137 -0.559046 0
    outer loop
      vertex 20.1384 267.616 0
      vertex 19.7961 268.123 1.5
      vertex 19.7961 268.123 0
    endloop
  endfacet
  facet normal -0.829137 -0.559046 0
    outer loop
      vertex 19.7961 268.123 1.5
      vertex 20.1384 267.616 0
      vertex 20.1384 267.616 1.5
    endloop
  endfacet
  facet normal -0.559044 -0.829138 0
    outer loop
      vertex 19.2884 268.466 0
      vertex 19.7961 268.123 1.5
      vertex 19.2884 268.466 1.5
    endloop
  endfacet
  facet normal -0.559044 -0.829138 -0
    outer loop
      vertex 19.7961 268.123 1.5
      vertex 19.2884 268.466 0
      vertex 19.7961 268.123 0
    endloop
  endfacet
  facet normal -0.197881 -0.980226 0
    outer loop
      vertex 18.6666 268.591 0
      vertex 19.2884 268.466 1.5
      vertex 18.6666 268.591 1.5
    endloop
  endfacet
  facet normal -0.197881 -0.980226 -0
    outer loop
      vertex 19.2884 268.466 1.5
      vertex 18.6666 268.591 0
      vertex 19.2884 268.466 0
    endloop
  endfacet
  facet normal 0.980224 -0.197891 0
    outer loop
      vertex 17.0692 266.994 1.5
      vertex 17.1947 267.616 0
      vertex 17.1947 267.616 1.5
    endloop
  endfacet
  facet normal 0.980224 -0.197891 0
    outer loop
      vertex 17.1947 267.616 0
      vertex 17.0692 266.994 1.5
      vertex 17.0692 266.994 0
    endloop
  endfacet
  facet normal -0.55901 0.829161 0
    outer loop
      vertex 19.7961 265.864 0
      vertex 19.2884 265.522 1.5
      vertex 19.7961 265.864 1.5
    endloop
  endfacet
  facet normal -0.55901 0.829161 0
    outer loop
      vertex 19.2884 265.522 1.5
      vertex 19.7961 265.864 0
      vertex 19.2884 265.522 0
    endloop
  endfacet
  facet normal 0.197882 -0.980226 0
    outer loop
      vertex 18.0448 268.466 0
      vertex 18.6666 268.591 1.5
      vertex 18.0448 268.466 1.5
    endloop
  endfacet
  facet normal 0.197882 -0.980226 0
    outer loop
      vertex 18.6666 268.591 1.5
      vertex 18.0448 268.466 0
      vertex 18.6666 268.591 0
    endloop
  endfacet
  facet normal -0.980222 0.1979 0
    outer loop
      vertex 20.1384 266.372 0
      vertex 20.264 266.994 1.5
      vertex 20.264 266.994 0
    endloop
  endfacet
  facet normal -0.980222 0.1979 0
    outer loop
      vertex 20.264 266.994 1.5
      vertex 20.1384 266.372 0
      vertex 20.1384 266.372 1.5
    endloop
  endfacet
  facet normal 0.197928 0.980217 -0
    outer loop
      vertex 18.6666 265.397 0
      vertex 18.0448 265.522 1.5
      vertex 18.6666 265.397 1.5
    endloop
  endfacet
  facet normal 0.197928 0.980217 0
    outer loop
      vertex 18.0448 265.522 1.5
      vertex 18.6666 265.397 0
      vertex 18.0448 265.522 0
    endloop
  endfacet
  facet normal -0.197927 0.980217 0
    outer loop
      vertex 19.2884 265.522 0
      vertex 18.6666 265.397 1.5
      vertex 19.2884 265.522 1.5
    endloop
  endfacet
  facet normal -0.197927 0.980217 0
    outer loop
      vertex 18.6666 265.397 1.5
      vertex 19.2884 265.522 0
      vertex 18.6666 265.397 0
    endloop
  endfacet
  facet normal -0.980224 -0.197891 0
    outer loop
      vertex 20.264 266.994 0
      vertex 20.1384 267.616 1.5
      vertex 20.1384 267.616 0
    endloop
  endfacet
  facet normal -0.980224 -0.197891 0
    outer loop
      vertex 20.1384 267.616 1.5
      vertex 20.264 266.994 0
      vertex 20.264 266.994 1.5
    endloop
  endfacet
  facet normal 0.829152 0.559023 0
    outer loop
      vertex 17.5371 265.864 1.5
      vertex 17.1947 266.372 0
      vertex 17.1947 266.372 1.5
    endloop
  endfacet
  facet normal 0.829152 0.559023 0
    outer loop
      vertex 17.1947 266.372 0
      vertex 17.5371 265.864 1.5
      vertex 17.5371 265.864 0
    endloop
  endfacet
  facet normal -0.829152 0.559023 0
    outer loop
      vertex 19.7961 265.864 0
      vertex 20.1384 266.372 1.5
      vertex 20.1384 266.372 0
    endloop
  endfacet
  facet normal -0.829152 0.559023 0
    outer loop
      vertex 20.1384 266.372 1.5
      vertex 19.7961 265.864 0
      vertex 19.7961 265.864 1.5
    endloop
  endfacet
  facet normal 0.980222 0.1979 0
    outer loop
      vertex 17.1947 266.372 1.5
      vertex 17.0692 266.994 0
      vertex 17.0692 266.994 1.5
    endloop
  endfacet
  facet normal 0.980222 0.1979 0
    outer loop
      vertex 17.0692 266.994 0
      vertex 17.1947 266.372 1.5
      vertex 17.1947 266.372 0
    endloop
  endfacet
  facet normal 0.559008 0.829162 -0
    outer loop
      vertex 18.0448 265.522 0
      vertex 17.5371 265.864 1.5
      vertex 18.0448 265.522 1.5
    endloop
  endfacet
  facet normal 0.559008 0.829162 0
    outer loop
      vertex 17.5371 265.864 1.5
      vertex 18.0448 265.522 0
      vertex 17.5371 265.864 0
    endloop
  endfacet
  facet normal 0.829137 -0.559046 0
    outer loop
      vertex 17.1947 267.616 1.5
      vertex 17.5371 268.123 0
      vertex 17.5371 268.123 1.5
    endloop
  endfacet
  facet normal 0.829137 -0.559046 0
    outer loop
      vertex 17.5371 268.123 0
      vertex 17.1947 267.616 1.5
      vertex 17.1947 267.616 0
    endloop
  endfacet
  facet normal 0.559043 -0.829139 0
    outer loop
      vertex 17.5371 268.123 0
      vertex 18.0448 268.466 1.5
      vertex 17.5371 268.123 1.5
    endloop
  endfacet
  facet normal 0.559043 -0.829139 0
    outer loop
      vertex 18.0448 268.466 1.5
      vertex 17.5371 268.123 0
      vertex 18.0448 268.466 0
    endloop
  endfacet
  facet normal -0.829152 -0.559023 0
    outer loop
      vertex 54.2647 189.643 0
      vertex 53.9224 190.151 3
      vertex 53.9224 190.151 0
    endloop
  endfacet
  facet normal -0.829152 -0.559023 0
    outer loop
      vertex 53.9224 190.151 3
      vertex 54.2647 189.643 0
      vertex 54.2647 189.643 3
    endloop
  endfacet
  facet normal -0.559025 -0.82915 0
    outer loop
      vertex 53.4147 190.493 0
      vertex 53.9224 190.151 3
      vertex 53.4147 190.493 3
    endloop
  endfacet
  facet normal -0.559025 -0.82915 -0
    outer loop
      vertex 53.9224 190.151 3
      vertex 53.4147 190.493 0
      vertex 53.9224 190.151 0
    endloop
  endfacet
  facet normal -0.980223 0.197896 0
    outer loop
      vertex 54.2647 188.4 0
      vertex 54.3903 189.022 3
      vertex 54.3903 189.022 0
    endloop
  endfacet
  facet normal -0.980223 0.197896 0
    outer loop
      vertex 54.3903 189.022 3
      vertex 54.2647 188.4 0
      vertex 54.2647 188.4 3
    endloop
  endfacet
  facet normal 0.559028 0.829149 -0
    outer loop
      vertex 52.1711 187.55 0
      vertex 51.6634 187.892 3
      vertex 52.1711 187.55 3
    endloop
  endfacet
  facet normal 0.559028 0.829149 0
    outer loop
      vertex 51.6634 187.892 3
      vertex 52.1711 187.55 0
      vertex 51.6634 187.892 0
    endloop
  endfacet
  facet normal 0.197904 0.980221 -0
    outer loop
      vertex 52.7929 187.424 0
      vertex 52.1711 187.55 3
      vertex 52.7929 187.424 3
    endloop
  endfacet
  facet normal 0.197904 0.980221 0
    outer loop
      vertex 52.1711 187.55 3
      vertex 52.7929 187.424 0
      vertex 52.1711 187.55 0
    endloop
  endfacet
  facet normal -0.559025 0.82915 0
    outer loop
      vertex 53.9224 187.892 0
      vertex 53.4147 187.55 3
      vertex 53.9224 187.892 3
    endloop
  endfacet
  facet normal -0.559025 0.82915 0
    outer loop
      vertex 53.4147 187.55 3
      vertex 53.9224 187.892 0
      vertex 53.4147 187.55 0
    endloop
  endfacet
  facet normal -0.980222 -0.1979 0
    outer loop
      vertex 54.3903 189.022 0
      vertex 54.2647 189.643 3
      vertex 54.2647 189.643 0
    endloop
  endfacet
  facet normal -0.980222 -0.1979 0
    outer loop
      vertex 54.2647 189.643 3
      vertex 54.3903 189.022 0
      vertex 54.3903 189.022 3
    endloop
  endfacet
  facet normal 0.829145 0.559034 0
    outer loop
      vertex 51.6634 187.892 3
      vertex 51.321 188.4 0
      vertex 51.321 188.4 3
    endloop
  endfacet
  facet normal 0.829145 0.559034 0
    outer loop
      vertex 51.321 188.4 0
      vertex 51.6634 187.892 3
      vertex 51.6634 187.892 0
    endloop
  endfacet
  facet normal 0.197904 -0.980221 0
    outer loop
      vertex 52.1711 190.493 0
      vertex 52.7929 190.619 3
      vertex 52.1711 190.493 3
    endloop
  endfacet
  facet normal 0.197904 -0.980221 0
    outer loop
      vertex 52.7929 190.619 3
      vertex 52.1711 190.493 0
      vertex 52.7929 190.619 0
    endloop
  endfacet
  facet normal 0.829152 -0.559023 0
    outer loop
      vertex 51.321 189.643 3
      vertex 51.6634 190.151 0
      vertex 51.6634 190.151 3
    endloop
  endfacet
  facet normal 0.829152 -0.559023 0
    outer loop
      vertex 51.6634 190.151 0
      vertex 51.321 189.643 3
      vertex 51.321 189.643 0
    endloop
  endfacet
  facet normal -0.197905 -0.980221 0
    outer loop
      vertex 52.7929 190.619 0
      vertex 53.4147 190.493 3
      vertex 52.7929 190.619 3
    endloop
  endfacet
  facet normal -0.197905 -0.980221 -0
    outer loop
      vertex 53.4147 190.493 3
      vertex 52.7929 190.619 0
      vertex 53.4147 190.493 0
    endloop
  endfacet
  facet normal -0.197905 0.980221 0
    outer loop
      vertex 53.4147 187.55 0
      vertex 52.7929 187.424 3
      vertex 53.4147 187.55 3
    endloop
  endfacet
  facet normal -0.197905 0.980221 0
    outer loop
      vertex 52.7929 187.424 3
      vertex 53.4147 187.55 0
      vertex 52.7929 187.424 0
    endloop
  endfacet
  facet normal -0.829145 0.559034 0
    outer loop
      vertex 53.9224 187.892 0
      vertex 54.2647 188.4 3
      vertex 54.2647 188.4 0
    endloop
  endfacet
  facet normal -0.829145 0.559034 0
    outer loop
      vertex 54.2647 188.4 3
      vertex 53.9224 187.892 0
      vertex 53.9224 187.892 3
    endloop
  endfacet
  facet normal 0.980222 0.197901 0
    outer loop
      vertex 51.321 188.4 3
      vertex 51.1955 189.022 0
      vertex 51.1955 189.022 3
    endloop
  endfacet
  facet normal 0.980222 0.197901 0
    outer loop
      vertex 51.1955 189.022 0
      vertex 51.321 188.4 3
      vertex 51.321 188.4 0
    endloop
  endfacet
  facet normal 0.980221 -0.197906 0
    outer loop
      vertex 51.1955 189.022 3
      vertex 51.321 189.643 0
      vertex 51.321 189.643 3
    endloop
  endfacet
  facet normal 0.980221 -0.197906 0
    outer loop
      vertex 51.321 189.643 0
      vertex 51.1955 189.022 3
      vertex 51.1955 189.022 0
    endloop
  endfacet
  facet normal 0.559028 -0.829149 0
    outer loop
      vertex 51.6634 190.151 0
      vertex 52.1711 190.493 3
      vertex 51.6634 190.151 3
    endloop
  endfacet
  facet normal 0.559028 -0.829149 0
    outer loop
      vertex 52.1711 190.493 3
      vertex 51.6634 190.151 0
      vertex 52.1711 190.493 0
    endloop
  endfacet
  facet normal -0.829147 -0.559031 0
    outer loop
      vertex 49.8959 175.882 0
      vertex 49.5536 176.39 3
      vertex 49.5536 176.39 0
    endloop
  endfacet
  facet normal -0.829147 -0.559031 0
    outer loop
      vertex 49.5536 176.39 3
      vertex 49.8959 175.882 0
      vertex 49.8959 175.882 3
    endloop
  endfacet
  facet normal -0.559031 -0.829147 0
    outer loop
      vertex 49.0459 176.732 0
      vertex 49.5536 176.39 3
      vertex 49.0459 176.732 3
    endloop
  endfacet
  facet normal -0.559031 -0.829147 -0
    outer loop
      vertex 49.5536 176.39 3
      vertex 49.0459 176.732 0
      vertex 49.5536 176.39 0
    endloop
  endfacet
  facet normal -0.197882 -0.980226 0
    outer loop
      vertex 48.4241 176.858 0
      vertex 49.0459 176.732 3
      vertex 48.4241 176.858 3
    endloop
  endfacet
  facet normal -0.197882 -0.980226 -0
    outer loop
      vertex 49.0459 176.732 3
      vertex 48.4241 176.858 0
      vertex 49.0459 176.732 0
    endloop
  endfacet
  facet normal 0.559028 0.829149 -0
    outer loop
      vertex 47.8023 173.789 0
      vertex 47.2946 174.131 3
      vertex 47.8023 173.789 3
    endloop
  endfacet
  facet normal 0.559028 0.829149 0
    outer loop
      vertex 47.2946 174.131 3
      vertex 47.8023 173.789 0
      vertex 47.2946 174.131 0
    endloop
  endfacet
  facet normal 0.197879 -0.980226 0
    outer loop
      vertex 47.8023 176.732 0
      vertex 48.4241 176.858 3
      vertex 47.8023 176.732 3
    endloop
  endfacet
  facet normal 0.197879 -0.980226 0
    outer loop
      vertex 48.4241 176.858 3
      vertex 47.8023 176.732 0
      vertex 48.4241 176.858 0
    endloop
  endfacet
  facet normal -0.980224 0.19789 0
    outer loop
      vertex 49.8959 174.639 0
      vertex 50.0215 175.26 3
      vertex 50.0215 175.26 0
    endloop
  endfacet
  facet normal -0.980224 0.19789 0
    outer loop
      vertex 50.0215 175.26 3
      vertex 49.8959 174.639 0
      vertex 49.8959 174.639 3
    endloop
  endfacet
  facet normal -0.980223 -0.197895 0
    outer loop
      vertex 50.0215 175.26 0
      vertex 49.8959 175.882 3
      vertex 49.8959 175.882 0
    endloop
  endfacet
  facet normal -0.980223 -0.197895 0
    outer loop
      vertex 49.8959 175.882 3
      vertex 50.0215 175.26 0
      vertex 50.0215 175.26 3
    endloop
  endfacet
  facet normal 0.980222 -0.1979 0
    outer loop
      vertex 46.8267 175.26 3
      vertex 46.9522 175.882 0
      vertex 46.9522 175.882 3
    endloop
  endfacet
  facet normal 0.980222 -0.1979 0
    outer loop
      vertex 46.9522 175.882 0
      vertex 46.8267 175.26 3
      vertex 46.8267 175.26 0
    endloop
  endfacet
  facet normal 0.197903 0.980222 -0
    outer loop
      vertex 48.4241 173.663 0
      vertex 47.8023 173.789 3
      vertex 48.4241 173.663 3
    endloop
  endfacet
  facet normal 0.197903 0.980222 0
    outer loop
      vertex 47.8023 173.789 3
      vertex 48.4241 173.663 0
      vertex 47.8023 173.789 0
    endloop
  endfacet
  facet normal -0.197905 0.980221 0
    outer loop
      vertex 49.0459 173.789 0
      vertex 48.4241 173.663 3
      vertex 49.0459 173.789 3
    endloop
  endfacet
  facet normal -0.197905 0.980221 0
    outer loop
      vertex 48.4241 173.663 3
      vertex 49.0459 173.789 0
      vertex 48.4241 173.663 0
    endloop
  endfacet
  facet normal -0.559031 0.829147 0
    outer loop
      vertex 49.5536 174.131 0
      vertex 49.0459 173.789 3
      vertex 49.5536 174.131 3
    endloop
  endfacet
  facet normal -0.559031 0.829147 0
    outer loop
      vertex 49.0459 173.789 3
      vertex 49.5536 174.131 0
      vertex 49.0459 173.789 0
    endloop
  endfacet
  facet normal 0.980223 0.197896 0
    outer loop
      vertex 46.9522 174.639 3
      vertex 46.8267 175.26 0
      vertex 46.8267 175.26 3
    endloop
  endfacet
  facet normal 0.980223 0.197896 0
    outer loop
      vertex 46.8267 175.26 0
      vertex 46.9522 174.639 3
      vertex 46.9522 174.639 0
    endloop
  endfacet
  facet normal 0.829145 0.559034 0
    outer loop
      vertex 47.2946 174.131 3
      vertex 46.9522 174.639 0
      vertex 46.9522 174.639 3
    endloop
  endfacet
  facet normal 0.829145 0.559034 0
    outer loop
      vertex 46.9522 174.639 0
      vertex 47.2946 174.131 3
      vertex 47.2946 174.131 0
    endloop
  endfacet
  facet normal -0.829139 0.559043 0
    outer loop
      vertex 49.5536 174.131 0
      vertex 49.8959 174.639 3
      vertex 49.8959 174.639 0
    endloop
  endfacet
  facet normal -0.829139 0.559043 0
    outer loop
      vertex 49.8959 174.639 3
      vertex 49.5536 174.131 0
      vertex 49.5536 174.131 3
    endloop
  endfacet
  facet normal 0.829152 -0.559023 0
    outer loop
      vertex 46.9522 175.882 3
      vertex 47.2946 176.39 0
      vertex 47.2946 176.39 3
    endloop
  endfacet
  facet normal 0.829152 -0.559023 0
    outer loop
      vertex 47.2946 176.39 0
      vertex 46.9522 175.882 3
      vertex 46.9522 175.882 0
    endloop
  endfacet
  facet normal 0.559028 -0.829149 0
    outer loop
      vertex 47.2946 176.39 0
      vertex 47.8023 176.732 3
      vertex 47.2946 176.39 3
    endloop
  endfacet
  facet normal 0.559028 -0.829149 0
    outer loop
      vertex 47.8023 176.732 3
      vertex 47.2946 176.39 0
      vertex 47.8023 176.732 0
    endloop
  endfacet
  facet normal 1 0 0
    outer loop
      vertex 56.0046 250 3
      vertex 56.0046 150 3
      vertex 56.0046 250 1.5
    endloop
  endfacet
  facet normal 1 -0 0
    outer loop
      vertex 56.0046 250 1.5
      vertex 56.0046 287.5 0
      vertex 56.0046 287.5 1.5
    endloop
  endfacet
  facet normal 1 0 0
    outer loop
      vertex 56.0046 150 1.5
      vertex 56.0046 250 1.5
      vertex 56.0046 150 3
    endloop
  endfacet
  facet normal 1 0 0
    outer loop
      vertex 56.0046 250 1.5
      vertex 56.0046 150 1.5
      vertex 56.0046 287.5 0
    endloop
  endfacet
  facet normal 1 0 0
    outer loop
      vertex 56.0046 112.5 0
      vertex 56.0046 150 1.5
      vertex 56.0046 112.5 1.5
    endloop
  endfacet
  facet normal 1 0 0
    outer loop
      vertex 56.0046 150 1.5
      vertex 56.0046 112.5 0
      vertex 56.0046 287.5 0
    endloop
  endfacet
  facet normal -0.829152 -0.559023 0
    outer loop
      vertex 8.0819 196.473 0
      vertex 7.73956 196.981 3
      vertex 7.73956 196.981 0
    endloop
  endfacet
  facet normal -0.829152 -0.559023 0
    outer loop
      vertex 7.73956 196.981 3
      vertex 8.0819 196.473 0
      vertex 8.0819 196.473 3
    endloop
  endfacet
  facet normal -0.559026 -0.82915 0
    outer loop
      vertex 7.23182 197.323 0
      vertex 7.73956 196.981 3
      vertex 7.23182 197.323 3
    endloop
  endfacet
  facet normal -0.559026 -0.82915 -0
    outer loop
      vertex 7.73956 196.981 3
      vertex 7.23182 197.323 0
      vertex 7.73956 196.981 0
    endloop
  endfacet
  facet normal -0.197904 -0.980221 0
    outer loop
      vertex 6.61005 197.449 0
      vertex 7.23182 197.323 3
      vertex 6.61005 197.449 3
    endloop
  endfacet
  facet normal -0.197904 -0.980221 -0
    outer loop
      vertex 7.23182 197.323 3
      vertex 6.61005 197.449 0
      vertex 7.23182 197.323 0
    endloop
  endfacet
  facet normal 0.980222 -0.197902 0
    outer loop
      vertex 5.01267 195.851 3
      vertex 5.1382 196.473 0
      vertex 5.1382 196.473 3
    endloop
  endfacet
  facet normal 0.980222 -0.197902 0
    outer loop
      vertex 5.1382 196.473 0
      vertex 5.01267 195.851 3
      vertex 5.01267 195.851 0
    endloop
  endfacet
  facet normal -0.559026 0.82915 0
    outer loop
      vertex 7.73956 194.722 0
      vertex 7.23182 194.379 3
      vertex 7.73956 194.722 3
    endloop
  endfacet
  facet normal -0.559026 0.82915 0
    outer loop
      vertex 7.23182 194.379 3
      vertex 7.73956 194.722 0
      vertex 7.23182 194.379 0
    endloop
  endfacet
  facet normal 0.197904 -0.980221 0
    outer loop
      vertex 5.98828 197.323 0
      vertex 6.61005 197.449 3
      vertex 5.98828 197.323 3
    endloop
  endfacet
  facet normal 0.197904 -0.980221 0
    outer loop
      vertex 6.61005 197.449 3
      vertex 5.98828 197.323 0
      vertex 6.61005 197.449 0
    endloop
  endfacet
  facet normal -0.980222 0.1979 0
    outer loop
      vertex 8.0819 195.23 0
      vertex 8.20743 195.851 3
      vertex 8.20743 195.851 0
    endloop
  endfacet
  facet normal -0.980222 0.1979 0
    outer loop
      vertex 8.20743 195.851 3
      vertex 8.0819 195.23 0
      vertex 8.0819 195.23 3
    endloop
  endfacet
  facet normal 0.197881 0.980226 -0
    outer loop
      vertex 6.61005 194.254 0
      vertex 5.98828 194.379 3
      vertex 6.61005 194.254 3
    endloop
  endfacet
  facet normal 0.197881 0.980226 0
    outer loop
      vertex 5.98828 194.379 3
      vertex 6.61005 194.254 0
      vertex 5.98828 194.379 0
    endloop
  endfacet
  facet normal -0.197881 0.980226 0
    outer loop
      vertex 7.23182 194.379 0
      vertex 6.61005 194.254 3
      vertex 7.23182 194.379 3
    endloop
  endfacet
  facet normal -0.197881 0.980226 0
    outer loop
      vertex 6.61005 194.254 3
      vertex 7.23182 194.379 0
      vertex 6.61005 194.254 0
    endloop
  endfacet
  facet normal -0.980222 -0.1979 0
    outer loop
      vertex 8.20743 195.851 0
      vertex 8.0819 196.473 3
      vertex 8.0819 196.473 0
    endloop
  endfacet
  facet normal -0.980222 -0.1979 0
    outer loop
      vertex 8.0819 196.473 3
      vertex 8.20743 195.851 0
      vertex 8.20743 195.851 3
    endloop
  endfacet
  facet normal 0.829153 0.559021 0
    outer loop
      vertex 5.48053 194.722 3
      vertex 5.1382 195.23 0
      vertex 5.1382 195.23 3
    endloop
  endfacet
  facet normal 0.829153 0.559021 0
    outer loop
      vertex 5.1382 195.23 0
      vertex 5.48053 194.722 3
      vertex 5.48053 194.722 0
    endloop
  endfacet
  facet normal -0.829152 0.559023 0
    outer loop
      vertex 7.73956 194.722 0
      vertex 8.0819 195.23 3
      vertex 8.0819 195.23 0
    endloop
  endfacet
  facet normal -0.829152 0.559023 0
    outer loop
      vertex 8.0819 195.23 3
      vertex 7.73956 194.722 0
      vertex 7.73956 194.722 3
    endloop
  endfacet
  facet normal 0.980222 0.197902 0
    outer loop
      vertex 5.1382 195.23 3
      vertex 5.01267 195.851 0
      vertex 5.01267 195.851 3
    endloop
  endfacet
  facet normal 0.980222 0.197902 0
    outer loop
      vertex 5.01267 195.851 0
      vertex 5.1382 195.23 3
      vertex 5.1382 195.23 0
    endloop
  endfacet
  facet normal 0.559026 0.82915 -0
    outer loop
      vertex 5.98828 194.379 0
      vertex 5.48053 194.722 3
      vertex 5.98828 194.379 3
    endloop
  endfacet
  facet normal 0.559026 0.82915 0
    outer loop
      vertex 5.48053 194.722 3
      vertex 5.98828 194.379 0
      vertex 5.48053 194.722 0
    endloop
  endfacet
  facet normal 0.829153 -0.559021 0
    outer loop
      vertex 5.1382 196.473 3
      vertex 5.48053 196.981 0
      vertex 5.48053 196.981 3
    endloop
  endfacet
  facet normal 0.829153 -0.559021 0
    outer loop
      vertex 5.48053 196.981 0
      vertex 5.1382 196.473 3
      vertex 5.1382 196.473 0
    endloop
  endfacet
  facet normal 0.559026 -0.82915 0
    outer loop
      vertex 5.48053 196.981 0
      vertex 5.98828 197.323 3
      vertex 5.48053 196.981 3
    endloop
  endfacet
  facet normal 0.559026 -0.82915 0
    outer loop
      vertex 5.98828 197.323 3
      vertex 5.48053 196.981 0
      vertex 5.98828 197.323 0
    endloop
  endfacet
  facet normal -0 0 1
    outer loop
      vertex 2.66458 150 1.5
      vertex 56.0046 112.5 1.5
      vertex 56.0046 150 1.5
    endloop
  endfacet
  facet normal 0 0 1
    outer loop
      vertex 56.0046 112.5 1.5
      vertex 2.66458 150 1.5
      vertex 2.66458 112.5 1.5
    endloop
  endfacet
  facet normal 0 0 1
    outer loop
      vertex 56.0046 287.5 1.5
      vertex 20.264 266.994 1.5
      vertex 56.0046 250 1.5
    endloop
  endfacet
  facet normal 0 0 1
    outer loop
      vertex 56.0046 287.5 1.5
      vertex 20.1384 267.616 1.5
      vertex 20.264 266.994 1.5
    endloop
  endfacet
  facet normal 0 0 1
    outer loop
      vertex 56.0046 287.5 1.5
      vertex 19.7961 268.123 1.5
      vertex 20.1384 267.616 1.5
    endloop
  endfacet
  facet normal 0 0 1
    outer loop
      vertex 56.0046 287.5 1.5
      vertex 19.2884 268.466 1.5
      vertex 19.7961 268.123 1.5
    endloop
  endfacet
  facet normal -0 0 1
    outer loop
      vertex 2.66458 287.5 1.5
      vertex 19.2884 268.466 1.5
      vertex 56.0046 287.5 1.5
    endloop
  endfacet
  facet normal 0 0 1
    outer loop
      vertex 19.2884 268.466 1.5
      vertex 2.66458 287.5 1.5
      vertex 18.6666 268.591 1.5
    endloop
  endfacet
  facet normal 0 0 1
    outer loop
      vertex 17.1947 267.616 1.5
      vertex 2.66458 287.5 1.5
      vertex 17.0692 266.994 1.5
    endloop
  endfacet
  facet normal 0 0 1
    outer loop
      vertex 17.5371 268.123 1.5
      vertex 2.66458 287.5 1.5
      vertex 17.1947 267.616 1.5
    endloop
  endfacet
  facet normal 0 0 1
    outer loop
      vertex 18.0448 268.466 1.5
      vertex 2.66458 287.5 1.5
      vertex 17.5371 268.123 1.5
    endloop
  endfacet
  facet normal 0 0 1
    outer loop
      vertex 18.6666 268.591 1.5
      vertex 2.66458 287.5 1.5
      vertex 18.0448 268.466 1.5
    endloop
  endfacet
  facet normal -0 0 1
    outer loop
      vertex 20.1384 266.372 1.5
      vertex 56.0046 250 1.5
      vertex 20.264 266.994 1.5
    endloop
  endfacet
  facet normal -0 0 1
    outer loop
      vertex 19.7961 265.864 1.5
      vertex 56.0046 250 1.5
      vertex 20.1384 266.372 1.5
    endloop
  endfacet
  facet normal -0 0 1
    outer loop
      vertex 19.2884 265.522 1.5
      vertex 56.0046 250 1.5
      vertex 19.7961 265.864 1.5
    endloop
  endfacet
  facet normal 0 0 1
    outer loop
      vertex 2.66458 250 1.5
      vertex 19.2884 265.522 1.5
      vertex 18.6666 265.397 1.5
    endloop
  endfacet
  facet normal 0 0 1
    outer loop
      vertex 2.66458 250 1.5
      vertex 18.6666 265.397 1.5
      vertex 18.0448 265.522 1.5
    endloop
  endfacet
  facet normal 0 0 1
    outer loop
      vertex 2.66458 250 1.5
      vertex 17.0692 266.994 1.5
      vertex 2.66458 287.5 1.5
    endloop
  endfacet
  facet normal 0 0 1
    outer loop
      vertex 17.0692 266.994 1.5
      vertex 2.66458 250 1.5
      vertex 17.1947 266.372 1.5
    endloop
  endfacet
  facet normal 0 0 1
    outer loop
      vertex 19.2884 265.522 1.5
      vertex 2.66458 250 1.5
      vertex 56.0046 250 1.5
    endloop
  endfacet
  facet normal 0 0 1
    outer loop
      vertex 17.5371 265.864 1.5
      vertex 2.66458 250 1.5
      vertex 18.0448 265.522 1.5
    endloop
  endfacet
  facet normal 0 0 1
    outer loop
      vertex 17.1947 266.372 1.5
      vertex 2.66458 250 1.5
      vertex 17.5371 265.864 1.5
    endloop
  endfacet
  facet normal 0 -1 0
    outer loop
      vertex 2.66458 112.5 0
      vertex 56.0046 112.5 1.5
      vertex 2.66458 112.5 1.5
    endloop
  endfacet
  facet normal 0 -1 -0
    outer loop
      vertex 56.0046 112.5 1.5
      vertex 2.66458 112.5 0
      vertex 56.0046 112.5 0
    endloop
  endfacet
  facet normal 0 1 -0
    outer loop
      vertex 56.0046 287.5 0
      vertex 2.66458 287.5 1.5
      vertex 56.0046 287.5 1.5
    endloop
  endfacet
  facet normal 0 1 0
    outer loop
      vertex 2.66458 287.5 1.5
      vertex 56.0046 287.5 0
      vertex 2.66458 287.5 0
    endloop
  endfacet
  facet normal 0 1 -0
    outer loop
      vertex 56.0046 250 1.5
      vertex 2.66458 250 3
      vertex 56.0046 250 3
    endloop
  endfacet
  facet normal 0 1 0
    outer loop
      vertex 2.66458 250 3
      vertex 56.0046 250 1.5
      vertex 2.66458 250 1.5
    endloop
  endfacet
  facet normal 0 -1 0
    outer loop
      vertex 2.66458 150 1.5
      vertex 56.0046 150 3
      vertex 2.66458 150 3
    endloop
  endfacet
  facet normal 0 -1 -0
    outer loop
      vertex 56.0046 150 3
      vertex 2.66458 150 1.5
      vertex 56.0046 150 1.5
    endloop
  endfacet
endsolid OpenSCAD_Model
