solid OpenSCAD_Model
  facet normal 0 0 -1
    outer loop
      vertex 140.996 110.141 0
      vertex 122.833 102.007 0
      vertex 122.967 102.673 0
    endloop
  endfacet
  facet normal -0 0 -1
    outer loop
      vertex 160.198 92.4624 0
      vertex 119.773 91.7458 0
      vertex 122.833 102.007 0
    endloop
  endfacet
  facet normal 0 0 -1
    outer loop
      vertex 122.833 102.007 0
      vertex 119.773 91.7458 0
      vertex 122.467 101.464 0
    endloop
  endfacet
  facet normal 0 0 -1
    outer loop
      vertex 119.521 92.9915 0
      vertex 122.467 101.464 0
      vertex 119.773 91.7458 0
    endloop
  endfacet
  facet normal 0 0 -1
    outer loop
      vertex 122.467 101.464 0
      vertex 119.521 92.9915 0
      vertex 121.923 101.097 0
    endloop
  endfacet
  facet normal 0 0 -1
    outer loop
      vertex 118.835 94.0085 0
      vertex 121.923 101.097 0
      vertex 119.521 92.9915 0
    endloop
  endfacet
  facet normal 0 0 -1
    outer loop
      vertex 121.923 101.097 0
      vertex 118.835 94.0085 0
      vertex 121.257 100.963 0
    endloop
  endfacet
  facet normal 0 0 -1
    outer loop
      vertex 160.198 92.4624 0
      vertex 119.521 90.5 0
      vertex 119.773 91.7458 0
    endloop
  endfacet
  facet normal 0 0 -1
    outer loop
      vertex 128.714 65.3354 0
      vertex 118.835 89.4825 0
      vertex 119.521 90.5 0
    endloop
  endfacet
  facet normal 0 0 -1
    outer loop
      vertex 128.714 65.3354 0
      vertex 117.818 88.7968 0
      vertex 118.835 89.4825 0
    endloop
  endfacet
  facet normal 0 0 -1
    outer loop
      vertex 128.714 65.3354 0
      vertex 116.572 88.5449 0
      vertex 117.818 88.7968 0
    endloop
  endfacet
  facet normal 0 0 -1
    outer loop
      vertex 112.5 88.5449 0
      vertex 128.714 65.3354 0
      vertex 112.5 49.1219 0
    endloop
  endfacet
  facet normal 0 0 -1
    outer loop
      vertex 128.714 65.3354 0
      vertex 112.5 88.5449 0
      vertex 116.572 88.5449 0
    endloop
  endfacet
  facet normal 0 0 -1
    outer loop
      vertex 265.286 65.3354 0
      vertex 287.5 61.2177 0
      vertex 287.5 43.1219 0
    endloop
  endfacet
  facet normal 0 0 -1
    outer loop
      vertex 265.286 65.3354 0
      vertex 277.535 95.5558 0
      vertex 277.535 71.1827 0
    endloop
  endfacet
  facet normal 0 0 -1
    outer loop
      vertex 287.5 61.2177 0
      vertex 265.286 65.3354 0
      vertex 277.535 71.1827 0
    endloop
  endfacet
  facet normal -0 0 -1
    outer loop
      vertex 277.535 95.5558 0
      vertex 265.286 65.3354 0
      vertex 264.722 102.103 0
    endloop
  endfacet
  facet normal 0 0 -1
    outer loop
      vertex 277.535 95.5558 0
      vertex 264.722 102.103 0
      vertex 275.109 112.5 0
    endloop
  endfacet
  facet normal 0 0 -1
    outer loop
      vertex 248.094 65.3354 0
      vertex 264.722 102.103 0
      vertex 265.286 65.3354 0
    endloop
  endfacet
  facet normal 0 0 -1
    outer loop
      vertex 238.069 92.5527 0
      vertex 264.722 102.103 0
      vertex 248.094 65.3354 0
    endloop
  endfacet
  facet normal 0 0 -1
    outer loop
      vertex 238.069 92.5527 0
      vertex 248.094 65.3354 0
      vertex 238.069 73.4068 0
    endloop
  endfacet
  facet normal 0 0 -1
    outer loop
      vertex 203.593 38.9418 0
      vertex 248.094 65.3354 0
      vertex 204.36 21.602 0
    endloop
  endfacet
  facet normal -0 0 -1
    outer loop
      vertex 248.094 65.3354 0
      vertex 203.593 38.9418 0
      vertex 238.069 73.4068 0
    endloop
  endfacet
  facet normal 0 0 -1
    outer loop
      vertex 204.36 21.602 0
      vertex 201.256 28.0085 0
      vertex 203.593 38.9418 0
    endloop
  endfacet
  facet normal 0 0 -1
    outer loop
      vertex 204.36 21.602 0
      vertex 201.13 27.3867 0
      vertex 201.256 28.0085 0
    endloop
  endfacet
  facet normal 0 0 -1
    outer loop
      vertex 204.36 21.602 0
      vertex 200.788 26.879 0
      vertex 201.13 27.3867 0
    endloop
  endfacet
  facet normal 0 0 -1
    outer loop
      vertex 204.36 21.602 0
      vertex 200.28 26.5366 0
      vertex 200.788 26.879 0
    endloop
  endfacet
  facet normal 0 0 -1
    outer loop
      vertex 204.36 21.602 0
      vertex 199.659 26.4111 0
      vertex 200.28 26.5366 0
    endloop
  endfacet
  facet normal 0 0 -1
    outer loop
      vertex 194.968 21.602 0
      vertex 199.659 26.4111 0
      vertex 204.36 21.602 0
    endloop
  endfacet
  facet normal -0 0 -1
    outer loop
      vertex 199.659 26.4111 0
      vertex 194.968 21.602 0
      vertex 199.037 26.5366 0
    endloop
  endfacet
  facet normal 0 0 -1
    outer loop
      vertex 194.968 21.602 0
      vertex 198.061 28.0085 0
      vertex 198.187 27.3867 0
    endloop
  endfacet
  facet normal -0 0 -1
    outer loop
      vertex 199.037 26.5366 0
      vertex 194.968 21.602 0
      vertex 198.529 26.879 0
    endloop
  endfacet
  facet normal 0 0 -1
    outer loop
      vertex 194.968 21.602 0
      vertex 198.187 27.3867 0
      vertex 198.529 26.879 0
    endloop
  endfacet
  facet normal -0 0 -1
    outer loop
      vertex 198.061 28.0085 0
      vertex 194.968 21.602 0
      vertex 195.736 38.9531 0
    endloop
  endfacet
  facet normal 0 0 -1
    outer loop
      vertex 151.246 65.3354 0
      vertex 195.736 38.9531 0
      vertex 194.968 21.602 0
    endloop
  endfacet
  facet normal 0 0 -1
    outer loop
      vertex 151.246 65.3354 0
      vertex 160.198 92.4624 0
      vertex 160.198 74.4905 0
    endloop
  endfacet
  facet normal 0 0 -1
    outer loop
      vertex 195.736 38.9531 0
      vertex 151.246 65.3354 0
      vertex 160.198 74.4905 0
    endloop
  endfacet
  facet normal 0 0 -1
    outer loop
      vertex 119.521 90.5 0
      vertex 151.246 65.3354 0
      vertex 128.714 65.3354 0
    endloop
  endfacet
  facet normal 0 0 -1
    outer loop
      vertex 160.198 92.4624 0
      vertex 140.996 110.141 0
      vertex 159.115 110.141 0
    endloop
  endfacet
  facet normal 0 0 -1
    outer loop
      vertex 122.833 102.007 0
      vertex 140.996 110.141 0
      vertex 160.198 92.4624 0
    endloop
  endfacet
  facet normal 0 0 -1
    outer loop
      vertex 151.246 65.3354 0
      vertex 119.521 90.5 0
      vertex 160.198 92.4624 0
    endloop
  endfacet
  facet normal -0 0 -1
    outer loop
      vertex 140.996 110.141 0
      vertex 122.967 102.673 0
      vertex 138.637 112.5 0
    endloop
  endfacet
  facet normal 0 0 -1
    outer loop
      vertex 122.833 103.339 0
      vertex 138.637 112.5 0
      vertex 122.967 102.673 0
    endloop
  endfacet
  facet normal 0 0 -1
    outer loop
      vertex 122.467 103.883 0
      vertex 138.637 112.5 0
      vertex 122.833 103.339 0
    endloop
  endfacet
  facet normal 0 0 -1
    outer loop
      vertex 119.521 112.366 0
      vertex 122.467 103.883 0
      vertex 121.923 104.249 0
    endloop
  endfacet
  facet normal 0 0 -1
    outer loop
      vertex 118.835 111.349 0
      vertex 121.923 104.249 0
      vertex 121.257 104.383 0
    endloop
  endfacet
  facet normal 0 0 -1
    outer loop
      vertex 117.818 110.664 0
      vertex 121.257 104.383 0
      vertex 120.592 104.249 0
    endloop
  endfacet
  facet normal 0 0 -1
    outer loop
      vertex 122.467 103.883 0
      vertex 119.521 112.366 0
      vertex 119.548 112.5 0
    endloop
  endfacet
  facet normal 0 0 -1
    outer loop
      vertex 117.818 110.664 0
      vertex 120.592 104.249 0
      vertex 120.048 103.883 0
    endloop
  endfacet
  facet normal 0 0 -1
    outer loop
      vertex 115.935 109.87 0
      vertex 120.048 103.883 0
      vertex 119.681 103.339 0
    endloop
  endfacet
  facet normal 0 0 -1
    outer loop
      vertex 115.935 109.87 0
      vertex 119.681 103.339 0
      vertex 119.547 102.673 0
    endloop
  endfacet
  facet normal 0 0 -1
    outer loop
      vertex 115.935 95.4654 0
      vertex 120.048 101.464 0
      vertex 117.818 94.6942 0
    endloop
  endfacet
  facet normal 0 0 -1
    outer loop
      vertex 122.467 103.883 0
      vertex 119.548 112.5 0
      vertex 138.637 112.5 0
    endloop
  endfacet
  facet normal -0 0 -1
    outer loop
      vertex 120.048 101.464 0
      vertex 115.935 95.4654 0
      vertex 119.681 102.007 0
    endloop
  endfacet
  facet normal 0 0 -1
    outer loop
      vertex 121.923 104.249 0
      vertex 118.835 111.349 0
      vertex 119.521 112.366 0
    endloop
  endfacet
  facet normal -0 0 -1
    outer loop
      vertex 119.681 102.007 0
      vertex 115.935 95.4654 0
      vertex 119.547 102.673 0
    endloop
  endfacet
  facet normal 0 0 -1
    outer loop
      vertex 121.257 104.383 0
      vertex 117.818 110.664 0
      vertex 118.835 111.349 0
    endloop
  endfacet
  facet normal 0 0 -1
    outer loop
      vertex 115.935 95.4654 0
      vertex 117.818 94.6942 0
      vertex 116.572 94.9461 0
    endloop
  endfacet
  facet normal -0 0 -1
    outer loop
      vertex 119.547 102.673 0
      vertex 115.935 95.4654 0
      vertex 115.935 109.87 0
    endloop
  endfacet
  facet normal 0 0 -1
    outer loop
      vertex 120.048 103.883 0
      vertex 115.935 109.87 0
      vertex 117.818 110.664 0
    endloop
  endfacet
  facet normal 0 0 -1
    outer loop
      vertex 117.818 110.664 0
      vertex 115.935 109.87 0
      vertex 116.572 110.412 0
    endloop
  endfacet
  facet normal 0 0 -1
    outer loop
      vertex 275.109 112.5 0
      vertex 287.5 105.523 0
      vertex 277.535 95.5558 0
    endloop
  endfacet
  facet normal 0 0 -1
    outer loop
      vertex 287.5 105.523 0
      vertex 275.109 112.5 0
      vertex 287.5 112.5 0
    endloop
  endfacet
  facet normal -0 0 -1
    outer loop
      vertex 264.722 102.103 0
      vertex 238.069 92.5527 0
      vertex 246.615 102.103 0
    endloop
  endfacet
  facet normal 0 0 -1
    outer loop
      vertex 238.069 92.5527 0
      vertex 236.222 112.5 0
      vertex 246.615 102.103 0
    endloop
  endfacet
  facet normal 0 0 -1
    outer loop
      vertex 220.481 110.141 0
      vertex 236.222 112.5 0
      vertex 238.069 92.5527 0
    endloop
  endfacet
  facet normal 0 0 -1
    outer loop
      vertex 177.877 110.141 0
      vertex 236.222 112.5 0
      vertex 220.481 110.141 0
    endloop
  endfacet
  facet normal 0 0 -1
    outer loop
      vertex 177.877 110.141 0
      vertex 161.474 112.5 0
      vertex 236.222 112.5 0
    endloop
  endfacet
  facet normal 0 0 -1
    outer loop
      vertex 159.115 110.141 0
      vertex 177.877 110.141 0
      vertex 160.198 92.4624 0
    endloop
  endfacet
  facet normal 0 0 -1
    outer loop
      vertex 177.877 110.141 0
      vertex 159.115 110.141 0
      vertex 161.474 112.5 0
    endloop
  endfacet
  facet normal 0 0 -1
    outer loop
      vertex 201.13 28.6303 0
      vertex 203.593 38.9418 0
      vertex 201.256 28.0085 0
    endloop
  endfacet
  facet normal 0 0 -1
    outer loop
      vertex 200.788 29.138 0
      vertex 203.593 38.9418 0
      vertex 201.13 28.6303 0
    endloop
  endfacet
  facet normal 0 0 -1
    outer loop
      vertex 200.28 29.4803 0
      vertex 203.593 38.9418 0
      vertex 200.788 29.138 0
    endloop
  endfacet
  facet normal 0 0 -1
    outer loop
      vertex 199.659 29.6059 0
      vertex 203.593 38.9418 0
      vertex 200.28 29.4803 0
    endloop
  endfacet
  facet normal 0 0 -1
    outer loop
      vertex 195.736 38.9531 0
      vertex 199.659 29.6059 0
      vertex 199.037 29.4803 0
    endloop
  endfacet
  facet normal 0 0 -1
    outer loop
      vertex 195.736 38.9531 0
      vertex 199.037 29.4803 0
      vertex 198.529 29.138 0
    endloop
  endfacet
  facet normal 0 0 -1
    outer loop
      vertex 195.736 38.9531 0
      vertex 198.529 29.138 0
      vertex 198.187 28.6303 0
    endloop
  endfacet
  facet normal 0 0 -1
    outer loop
      vertex 199.659 29.6059 0
      vertex 195.736 38.9531 0
      vertex 203.593 38.9418 0
    endloop
  endfacet
  facet normal 0 0 -1
    outer loop
      vertex 195.736 38.9531 0
      vertex 198.187 28.6303 0
      vertex 198.061 28.0085 0
    endloop
  endfacet
  facet normal 0 0 -1
    outer loop
      vertex 117.818 94.6942 0
      vertex 121.257 100.963 0
      vertex 118.835 94.0085 0
    endloop
  endfacet
  facet normal -0 0 -1
    outer loop
      vertex 121.257 100.963 0
      vertex 117.818 94.6942 0
      vertex 120.592 101.097 0
    endloop
  endfacet
  facet normal -0 0 -1
    outer loop
      vertex 120.592 101.097 0
      vertex 117.818 94.6942 0
      vertex 120.048 101.464 0
    endloop
  endfacet
  facet normal 0 0 1
    outer loop
      vertex 203.593 38.9418 3
      vertex 201.13 28.6303 3
      vertex 201.256 28.0085 3
    endloop
  endfacet
  facet normal 0 0 1
    outer loop
      vertex 203.593 38.9418 3
      vertex 200.788 29.138 3
      vertex 201.13 28.6303 3
    endloop
  endfacet
  facet normal 0 0 1
    outer loop
      vertex 203.593 38.9418 3
      vertex 200.28 29.4803 3
      vertex 200.788 29.138 3
    endloop
  endfacet
  facet normal 0 0 1
    outer loop
      vertex 203.593 38.9418 3
      vertex 199.659 29.6059 3
      vertex 200.28 29.4803 3
    endloop
  endfacet
  facet normal 0 0 1
    outer loop
      vertex 195.736 38.9531 3
      vertex 199.659 29.6059 3
      vertex 203.593 38.9418 3
    endloop
  endfacet
  facet normal 0 0 1
    outer loop
      vertex 199.659 29.6059 3
      vertex 195.736 38.9531 3
      vertex 199.037 29.4803 3
    endloop
  endfacet
  facet normal 0 0 1
    outer loop
      vertex 199.037 29.4803 3
      vertex 195.736 38.9531 3
      vertex 198.529 29.138 3
    endloop
  endfacet
  facet normal 0 0 1
    outer loop
      vertex 198.187 28.6303 3
      vertex 195.736 38.9531 3
      vertex 198.061 28.0085 3
    endloop
  endfacet
  facet normal 0 0 1
    outer loop
      vertex 198.529 29.138 3
      vertex 195.736 38.9531 3
      vertex 198.187 28.6303 3
    endloop
  endfacet
  facet normal -0 0 1
    outer loop
      vertex 201.256 140.006 3
      vertex 217.805 130.923 3
      vertex 217.805 149.088 3
    endloop
  endfacet
  facet normal 0 0 1
    outer loop
      vertex 217.805 130.923 3
      vertex 202.733 119.833 3
      vertex 202.859 119.211 3
    endloop
  endfacet
  facet normal 0 0 1
    outer loop
      vertex 217.805 130.923 3
      vertex 202.391 120.341 3
      vertex 202.733 119.833 3
    endloop
  endfacet
  facet normal -0 0 1
    outer loop
      vertex 200.788 138.876 3
      vertex 217.805 130.923 3
      vertex 201.13 139.384 3
    endloop
  endfacet
  facet normal 0 -0 1
    outer loop
      vertex 201.883 120.683 3
      vertex 217.805 130.923 3
      vertex 200.788 138.876 3
    endloop
  endfacet
  facet normal 0 0 1
    outer loop
      vertex 217.805 130.923 3
      vertex 201.256 140.006 3
      vertex 201.13 139.384 3
    endloop
  endfacet
  facet normal 0 0 1
    outer loop
      vertex 199.659 141.603 3
      vertex 217.805 149.088 3
      vertex 218.718 150 3
    endloop
  endfacet
  facet normal 0 0 1
    outer loop
      vertex 217.805 149.088 3
      vertex 201.13 140.627 3
      vertex 201.256 140.006 3
    endloop
  endfacet
  facet normal 0 0 1
    outer loop
      vertex 217.805 149.088 3
      vertex 200.788 141.135 3
      vertex 201.13 140.627 3
    endloop
  endfacet
  facet normal 0 0 1
    outer loop
      vertex 217.805 149.088 3
      vertex 200.28 141.477 3
      vertex 200.788 141.135 3
    endloop
  endfacet
  facet normal 0 0 1
    outer loop
      vertex 217.805 149.088 3
      vertex 199.659 141.603 3
      vertex 200.28 141.477 3
    endloop
  endfacet
  facet normal -0 0 1
    outer loop
      vertex 178.974 150 3
      vertex 199.659 141.603 3
      vertex 218.718 150 3
    endloop
  endfacet
  facet normal 0 0 1
    outer loop
      vertex 198.187 140.627 3
      vertex 180.462 148.512 3
      vertex 198.061 140.006 3
    endloop
  endfacet
  facet normal 0 0 1
    outer loop
      vertex 198.529 141.135 3
      vertex 180.462 148.512 3
      vertex 198.187 140.627 3
    endloop
  endfacet
  facet normal 0 0 1
    outer loop
      vertex 199.037 141.477 3
      vertex 180.462 148.512 3
      vertex 198.529 141.135 3
    endloop
  endfacet
  facet normal -0 -0 1
    outer loop
      vertex 180.462 148.512 3
      vertex 199.659 141.603 3
      vertex 178.974 150 3
    endloop
  endfacet
  facet normal 0 0 1
    outer loop
      vertex 199.659 141.603 3
      vertex 180.462 148.512 3
      vertex 199.037 141.477 3
    endloop
  endfacet
  facet normal 0 0 1
    outer loop
      vertex 246.615 102.103 3
      vertex 220.481 110.141 3
      vertex 238.069 92.5527 3
    endloop
  endfacet
  facet normal 0 0 1
    outer loop
      vertex 217.805 130.923 3
      vertex 220.481 110.141 3
      vertex 246.615 102.103 3
    endloop
  endfacet
  facet normal -0 0 1
    outer loop
      vertex 202.859 119.211 3
      vertex 220.481 110.141 3
      vertex 217.805 130.923 3
    endloop
  endfacet
  facet normal -0 0 1
    outer loop
      vertex 202.733 118.59 3
      vertex 220.481 110.141 3
      vertex 202.859 119.211 3
    endloop
  endfacet
  facet normal -0 0 1
    outer loop
      vertex 202.391 118.082 3
      vertex 220.481 110.141 3
      vertex 202.733 118.59 3
    endloop
  endfacet
  facet normal -0 0 1
    outer loop
      vertex 201.883 117.74 3
      vertex 220.481 110.141 3
      vertex 202.391 118.082 3
    endloop
  endfacet
  facet normal -0 0 1
    outer loop
      vertex 201.262 117.614 3
      vertex 220.481 110.141 3
      vertex 201.883 117.74 3
    endloop
  endfacet
  facet normal 0 0 1
    outer loop
      vertex 177.877 110.141 3
      vertex 201.262 117.614 3
      vertex 200.64 117.74 3
    endloop
  endfacet
  facet normal 0 0 1
    outer loop
      vertex 200.132 120.341 3
      vertex 180.462 131.488 3
      vertex 199.79 119.833 3
    endloop
  endfacet
  facet normal 0 0 1
    outer loop
      vertex 180.462 131.488 3
      vertex 199.037 138.534 3
      vertex 198.529 138.876 3
    endloop
  endfacet
  facet normal 0 0 1
    outer loop
      vertex 180.462 131.488 3
      vertex 198.529 138.876 3
      vertex 198.187 139.384 3
    endloop
  endfacet
  facet normal 0 0 1
    outer loop
      vertex 180.462 131.488 3
      vertex 198.187 139.384 3
      vertex 198.061 140.006 3
    endloop
  endfacet
  facet normal 0 0 1
    outer loop
      vertex 180.462 131.488 3
      vertex 198.061 140.006 3
      vertex 180.462 148.512 3
    endloop
  endfacet
  facet normal 0 0 1
    outer loop
      vertex 199.79 119.833 3
      vertex 180.462 131.488 3
      vertex 199.664 119.211 3
    endloop
  endfacet
  facet normal 0 0 1
    outer loop
      vertex 177.877 110.141 3
      vertex 199.664 119.211 3
      vertex 180.462 131.488 3
    endloop
  endfacet
  facet normal 0 0 1
    outer loop
      vertex 199.664 119.211 3
      vertex 177.877 110.141 3
      vertex 199.79 118.59 3
    endloop
  endfacet
  facet normal 0 0 1
    outer loop
      vertex 201.262 117.614 3
      vertex 177.877 110.141 3
      vertex 220.481 110.141 3
    endloop
  endfacet
  facet normal 0 0 1
    outer loop
      vertex 200.132 118.082 3
      vertex 177.877 110.141 3
      vertex 200.64 117.74 3
    endloop
  endfacet
  facet normal 0 0 1
    outer loop
      vertex 199.79 118.59 3
      vertex 177.877 110.141 3
      vertex 200.132 118.082 3
    endloop
  endfacet
  facet normal -0 0 1
    outer loop
      vertex 159.115 110.141 3
      vertex 177.877 110.141 3
      vertex 180.462 131.488 3
    endloop
  endfacet
  facet normal -0 0 1
    outer loop
      vertex 150 110.141 3
      vertex 160.198 92.4624 3
      vertex 159.115 110.141 3
    endloop
  endfacet
  facet normal 0 0 1
    outer loop
      vertex 177.877 110.141 3
      vertex 159.115 110.141 3
      vertex 160.198 92.4624 3
    endloop
  endfacet
  facet normal -0 0 1
    outer loop
      vertex 238.069 92.5527 3
      vertex 250 65.3354 3
      vertex 250 102.103 3
    endloop
  endfacet
  facet normal 0 0 1
    outer loop
      vertex 238.069 92.5527 3
      vertex 250 102.103 3
      vertex 246.615 102.103 3
    endloop
  endfacet
  facet normal -0 0 1
    outer loop
      vertex 238.069 73.4068 3
      vertex 250 65.3354 3
      vertex 238.069 92.5527 3
    endloop
  endfacet
  facet normal 0 0 1
    outer loop
      vertex 250 65.3354 3
      vertex 238.069 73.4068 3
      vertex 248.094 65.3354 3
    endloop
  endfacet
  facet normal 0 0 1
    outer loop
      vertex 203.593 38.9418 3
      vertex 248.094 65.3354 3
      vertex 238.069 73.4068 3
    endloop
  endfacet
  facet normal 0 0 1
    outer loop
      vertex 248.094 65.3354 3
      vertex 203.593 38.9418 3
      vertex 204.36 21.602 3
    endloop
  endfacet
  facet normal -0 0 1
    outer loop
      vertex 201.256 28.0085 3
      vertex 204.36 21.602 3
      vertex 203.593 38.9418 3
    endloop
  endfacet
  facet normal -0 0 1
    outer loop
      vertex 201.13 27.3867 3
      vertex 204.36 21.602 3
      vertex 201.256 28.0085 3
    endloop
  endfacet
  facet normal -0 0 1
    outer loop
      vertex 200.788 26.879 3
      vertex 204.36 21.602 3
      vertex 201.13 27.3867 3
    endloop
  endfacet
  facet normal -0 0 1
    outer loop
      vertex 200.28 26.5366 3
      vertex 204.36 21.602 3
      vertex 200.788 26.879 3
    endloop
  endfacet
  facet normal -0 0 1
    outer loop
      vertex 199.659 26.4111 3
      vertex 204.36 21.602 3
      vertex 200.28 26.5366 3
    endloop
  endfacet
  facet normal 0 0 1
    outer loop
      vertex 194.968 21.602 3
      vertex 199.659 26.4111 3
      vertex 199.037 26.5366 3
    endloop
  endfacet
  facet normal 0 0 1
    outer loop
      vertex 194.968 21.602 3
      vertex 199.037 26.5366 3
      vertex 198.529 26.879 3
    endloop
  endfacet
  facet normal 0 0 1
    outer loop
      vertex 194.968 21.602 3
      vertex 198.061 28.0085 3
      vertex 195.736 38.9531 3
    endloop
  endfacet
  facet normal 0 0 1
    outer loop
      vertex 199.659 26.4111 3
      vertex 194.968 21.602 3
      vertex 204.36 21.602 3
    endloop
  endfacet
  facet normal 0 0 1
    outer loop
      vertex 198.187 27.3867 3
      vertex 194.968 21.602 3
      vertex 198.529 26.879 3
    endloop
  endfacet
  facet normal 0 0 1
    outer loop
      vertex 198.061 28.0085 3
      vertex 194.968 21.602 3
      vertex 198.187 27.3867 3
    endloop
  endfacet
  facet normal -0 0 1
    outer loop
      vertex 151.246 65.3354 3
      vertex 195.736 38.9531 3
      vertex 160.198 74.4905 3
    endloop
  endfacet
  facet normal 0 0 1
    outer loop
      vertex 195.736 38.9531 3
      vertex 151.246 65.3354 3
      vertex 194.968 21.602 3
    endloop
  endfacet
  facet normal 0 0 1
    outer loop
      vertex 150 65.3354 3
      vertex 160.198 92.4624 3
      vertex 150 110.141 3
    endloop
  endfacet
  facet normal 0 0 1
    outer loop
      vertex 160.198 92.4624 3
      vertex 150 65.3354 3
      vertex 160.198 74.4905 3
    endloop
  endfacet
  facet normal 0 0 1
    outer loop
      vertex 160.198 74.4905 3
      vertex 150 65.3354 3
      vertex 151.246 65.3354 3
    endloop
  endfacet
  facet normal 0 0 1
    outer loop
      vertex 217.805 130.923 3
      vertex 201.883 120.683 3
      vertex 202.391 120.341 3
    endloop
  endfacet
  facet normal -0 0 1
    outer loop
      vertex 200.28 138.534 3
      vertex 201.883 120.683 3
      vertex 200.788 138.876 3
    endloop
  endfacet
  facet normal 0 0 1
    outer loop
      vertex 201.883 120.683 3
      vertex 200.28 138.534 3
      vertex 201.262 120.809 3
    endloop
  endfacet
  facet normal -0 0 1
    outer loop
      vertex 199.659 138.408 3
      vertex 201.262 120.809 3
      vertex 200.28 138.534 3
    endloop
  endfacet
  facet normal 0 0 1
    outer loop
      vertex 201.262 120.809 3
      vertex 199.659 138.408 3
      vertex 200.64 120.683 3
    endloop
  endfacet
  facet normal 0 0 1
    outer loop
      vertex 199.037 138.534 3
      vertex 200.64 120.683 3
      vertex 199.659 138.408 3
    endloop
  endfacet
  facet normal 0 0 1
    outer loop
      vertex 200.64 120.683 3
      vertex 199.037 138.534 3
      vertex 200.132 120.341 3
    endloop
  endfacet
  facet normal -0 0 1
    outer loop
      vertex 180.462 131.488 3
      vertex 200.132 120.341 3
      vertex 199.037 138.534 3
    endloop
  endfacet
  facet normal -0.980237 0.197825 0
    outer loop
      vertex 119.521 112.366 0
      vertex 119.548 112.5 1.5
      vertex 119.548 112.5 0
    endloop
  endfacet
  facet normal -0.980237 0.197825 0
    outer loop
      vertex 119.548 112.5 1.5
      vertex 119.521 112.366 0
      vertex 119.521 112.366 1.5
    endloop
  endfacet
  facet normal -0.828931 0.559351 0
    outer loop
      vertex 118.835 111.349 0
      vertex 119.521 112.366 1.5
      vertex 119.521 112.366 0
    endloop
  endfacet
  facet normal -0.828931 0.559351 0
    outer loop
      vertex 119.521 112.366 1.5
      vertex 118.835 111.349 0
      vertex 118.835 111.349 1.5
    endloop
  endfacet
  facet normal -0.559043 0.829138 0
    outer loop
      vertex 118.835 111.349 0
      vertex 117.818 110.664 1.5
      vertex 118.835 111.349 1.5
    endloop
  endfacet
  facet normal -0.559043 0.829138 0
    outer loop
      vertex 117.818 110.664 1.5
      vertex 118.835 111.349 0
      vertex 117.818 110.664 0
    endloop
  endfacet
  facet normal -0.198203 0.980161 0
    outer loop
      vertex 117.818 110.664 0
      vertex 116.572 110.412 1.5
      vertex 117.818 110.664 1.5
    endloop
  endfacet
  facet normal -0.198203 0.980161 0
    outer loop
      vertex 116.572 110.412 1.5
      vertex 117.818 110.664 0
      vertex 116.572 110.412 0
    endloop
  endfacet
  facet normal -0.647483 0.76208 0
    outer loop
      vertex 116.572 110.412 0
      vertex 115.935 109.87 1.5
      vertex 116.572 110.412 1.5
    endloop
  endfacet
  facet normal -0.647483 0.76208 0
    outer loop
      vertex 115.935 109.87 1.5
      vertex 116.572 110.412 0
      vertex 115.935 109.87 0
    endloop
  endfacet
  facet normal -1 0 0
    outer loop
      vertex 115.935 95.4654 0
      vertex 115.935 109.87 1.5
      vertex 115.935 109.87 0
    endloop
  endfacet
  facet normal -1 -0 0
    outer loop
      vertex 115.935 109.87 1.5
      vertex 115.935 95.4654 0
      vertex 115.935 95.4654 1.5
    endloop
  endfacet
  facet normal -0.631372 -0.77548 0
    outer loop
      vertex 115.935 95.4654 0
      vertex 116.572 94.9461 1.5
      vertex 115.935 95.4654 1.5
    endloop
  endfacet
  facet normal -0.631372 -0.77548 -0
    outer loop
      vertex 116.572 94.9461 1.5
      vertex 115.935 95.4654 0
      vertex 116.572 94.9461 0
    endloop
  endfacet
  facet normal -0.198203 -0.980161 0
    outer loop
      vertex 116.572 94.9461 0
      vertex 117.818 94.6942 1.5
      vertex 116.572 94.9461 1.5
    endloop
  endfacet
  facet normal -0.198203 -0.980161 -0
    outer loop
      vertex 117.818 94.6942 1.5
      vertex 116.572 94.9461 0
      vertex 117.818 94.6942 0
    endloop
  endfacet
  facet normal -0.559048 -0.829136 0
    outer loop
      vertex 117.818 94.6942 0
      vertex 118.835 94.0085 1.5
      vertex 117.818 94.6942 1.5
    endloop
  endfacet
  facet normal -0.559048 -0.829136 -0
    outer loop
      vertex 118.835 94.0085 1.5
      vertex 117.818 94.6942 0
      vertex 118.835 94.0085 0
    endloop
  endfacet
  facet normal -0.828929 -0.559354 0
    outer loop
      vertex 119.521 92.9915 0
      vertex 118.835 94.0085 1.5
      vertex 118.835 94.0085 0
    endloop
  endfacet
  facet normal -0.828929 -0.559354 0
    outer loop
      vertex 118.835 94.0085 1.5
      vertex 119.521 92.9915 0
      vertex 119.521 92.9915 1.5
    endloop
  endfacet
  facet normal -0.980246 -0.197782 0
    outer loop
      vertex 119.773 91.7458 0
      vertex 119.521 92.9915 1.5
      vertex 119.521 92.9915 0
    endloop
  endfacet
  facet normal -0.980246 -0.197782 0
    outer loop
      vertex 119.521 92.9915 1.5
      vertex 119.773 91.7458 0
      vertex 119.773 91.7458 1.5
    endloop
  endfacet
  facet normal -0.980246 0.197781 0
    outer loop
      vertex 119.521 90.5 0
      vertex 119.773 91.7458 1.5
      vertex 119.773 91.7458 0
    endloop
  endfacet
  facet normal -0.980246 0.197781 0
    outer loop
      vertex 119.773 91.7458 1.5
      vertex 119.521 90.5 0
      vertex 119.521 90.5 1.5
    endloop
  endfacet
  facet normal -0.829071 0.559144 0
    outer loop
      vertex 118.835 89.4825 0
      vertex 119.521 90.5 1.5
      vertex 119.521 90.5 0
    endloop
  endfacet
  facet normal -0.829071 0.559144 0
    outer loop
      vertex 119.521 90.5 1.5
      vertex 118.835 89.4825 0
      vertex 118.835 89.4825 1.5
    endloop
  endfacet
  facet normal -0.559043 0.829138 0
    outer loop
      vertex 118.835 89.4825 0
      vertex 117.818 88.7968 1.5
      vertex 118.835 89.4825 1.5
    endloop
  endfacet
  facet normal -0.559043 0.829138 0
    outer loop
      vertex 117.818 88.7968 1.5
      vertex 118.835 89.4825 0
      vertex 117.818 88.7968 0
    endloop
  endfacet
  facet normal -0.198197 0.980162 0
    outer loop
      vertex 117.818 88.7968 0
      vertex 116.572 88.5449 1.5
      vertex 117.818 88.7968 1.5
    endloop
  endfacet
  facet normal -0.198197 0.980162 0
    outer loop
      vertex 116.572 88.5449 1.5
      vertex 117.818 88.7968 0
      vertex 116.572 88.5449 0
    endloop
  endfacet
  facet normal 0 1 -0
    outer loop
      vertex 116.572 88.5449 0
      vertex 112.5 88.5449 1.5
      vertex 116.572 88.5449 1.5
    endloop
  endfacet
  facet normal 0 1 0
    outer loop
      vertex 112.5 88.5449 1.5
      vertex 116.572 88.5449 0
      vertex 112.5 88.5449 0
    endloop
  endfacet
  facet normal 0.707203 -0.70701 0
    outer loop
      vertex 277.535 95.5558 1.5
      vertex 287.5 105.523 0
      vertex 287.5 105.523 1.5
    endloop
  endfacet
  facet normal 0.707203 -0.70701 0
    outer loop
      vertex 287.5 105.523 0
      vertex 277.535 95.5558 1.5
      vertex 277.535 95.5558 0
    endloop
  endfacet
  facet normal 1 -0 0
    outer loop
      vertex 277.535 71.1827 1.5
      vertex 277.535 95.5558 0
      vertex 277.535 95.5558 1.5
    endloop
  endfacet
  facet normal 1 0 0
    outer loop
      vertex 277.535 95.5558 0
      vertex 277.535 71.1827 1.5
      vertex 277.535 71.1827 0
    endloop
  endfacet
  facet normal 0.707107 0.707107 0
    outer loop
      vertex 287.5 61.2177 1.5
      vertex 277.535 71.1827 0
      vertex 277.535 71.1827 1.5
    endloop
  endfacet
  facet normal 0.707107 0.707107 0
    outer loop
      vertex 277.535 71.1827 0
      vertex 287.5 61.2177 1.5
      vertex 287.5 61.2177 0
    endloop
  endfacet
  facet normal -0.707107 -0.707107 0
    outer loop
      vertex 265.286 65.3354 0
      vertex 287.5 43.1219 1.5
      vertex 265.286 65.3354 1.5
    endloop
  endfacet
  facet normal -0.707107 -0.707107 -0
    outer loop
      vertex 287.5 43.1219 1.5
      vertex 265.286 65.3354 0
      vertex 287.5 43.1219 0
    endloop
  endfacet
  facet normal 0 -1 0
    outer loop
      vertex 248.094 65.3354 3
      vertex 250 65.3354 1.5
      vertex 250 65.3354 3
    endloop
  endfacet
  facet normal 0 -1 0
    outer loop
      vertex 248.094 65.3354 0
      vertex 250 65.3354 1.5
      vertex 248.094 65.3354 3
    endloop
  endfacet
  facet normal 0 -1 0
    outer loop
      vertex 265.286 65.3354 0
      vertex 250 65.3354 1.5
      vertex 248.094 65.3354 0
    endloop
  endfacet
  facet normal 0 -1 0
    outer loop
      vertex 250 65.3354 1.5
      vertex 265.286 65.3354 0
      vertex 265.286 65.3354 1.5
    endloop
  endfacet
  facet normal 0.707107 -0.707107 0
    outer loop
      vertex 204.36 21.602 3
      vertex 248.094 65.3354 0
      vertex 248.094 65.3354 3
    endloop
  endfacet
  facet normal 0.707107 -0.707107 0
    outer loop
      vertex 248.094 65.3354 0
      vertex 204.36 21.602 3
      vertex 204.36 21.602 0
    endloop
  endfacet
  facet normal 0 -1 0
    outer loop
      vertex 194.968 21.602 0
      vertex 204.36 21.602 3
      vertex 194.968 21.602 3
    endloop
  endfacet
  facet normal 0 -1 -0
    outer loop
      vertex 204.36 21.602 3
      vertex 194.968 21.602 0
      vertex 204.36 21.602 0
    endloop
  endfacet
  facet normal -0.7072 -0.707013 0
    outer loop
      vertex 194.968 21.602 0
      vertex 151.246 65.3354 3
      vertex 151.246 65.3354 0
    endloop
  endfacet
  facet normal -0.7072 -0.707013 0
    outer loop
      vertex 151.246 65.3354 3
      vertex 194.968 21.602 0
      vertex 194.968 21.602 3
    endloop
  endfacet
  facet normal 0 -1 0
    outer loop
      vertex 128.714 65.3354 1.5
      vertex 128.714 65.3354 0
      vertex 150 65.3354 1.5
    endloop
  endfacet
  facet normal 0 -1 0
    outer loop
      vertex 150 65.3354 1.5
      vertex 151.246 65.3354 3
      vertex 150 65.3354 3
    endloop
  endfacet
  facet normal 0 -1 0
    outer loop
      vertex 150 65.3354 1.5
      vertex 151.246 65.3354 0
      vertex 151.246 65.3354 3
    endloop
  endfacet
  facet normal 0 -1 0
    outer loop
      vertex 151.246 65.3354 0
      vertex 150 65.3354 1.5
      vertex 128.714 65.3354 0
    endloop
  endfacet
  facet normal 0.707107 -0.707107 0
    outer loop
      vertex 112.5 49.1219 1.5
      vertex 128.714 65.3354 0
      vertex 128.714 65.3354 1.5
    endloop
  endfacet
  facet normal 0.707107 -0.707107 0
    outer loop
      vertex 128.714 65.3354 0
      vertex 112.5 49.1219 1.5
      vertex 112.5 49.1219 0
    endloop
  endfacet
  facet normal -0.82915 -0.559025 0
    outer loop
      vertex 201.13 28.6303 0
      vertex 200.788 29.138 3
      vertex 200.788 29.138 0
    endloop
  endfacet
  facet normal -0.82915 -0.559025 0
    outer loop
      vertex 200.788 29.138 3
      vertex 201.13 28.6303 0
      vertex 201.13 28.6303 3
    endloop
  endfacet
  facet normal -0.559023 -0.829152 0
    outer loop
      vertex 200.28 29.4803 0
      vertex 200.788 29.138 3
      vertex 200.28 29.4803 3
    endloop
  endfacet
  facet normal -0.559023 -0.829152 -0
    outer loop
      vertex 200.788 29.138 3
      vertex 200.28 29.4803 0
      vertex 200.788 29.138 0
    endloop
  endfacet
  facet normal -0.1979 -0.980222 0
    outer loop
      vertex 199.659 29.6059 0
      vertex 200.28 29.4803 3
      vertex 199.659 29.6059 3
    endloop
  endfacet
  facet normal -0.1979 -0.980222 -0
    outer loop
      vertex 200.28 29.4803 3
      vertex 199.659 29.6059 0
      vertex 200.28 29.4803 0
    endloop
  endfacet
  facet normal 0.980221 -0.197904 0
    outer loop
      vertex 198.061 28.0085 3
      vertex 198.187 28.6303 0
      vertex 198.187 28.6303 3
    endloop
  endfacet
  facet normal 0.980221 -0.197904 0
    outer loop
      vertex 198.187 28.6303 0
      vertex 198.061 28.0085 3
      vertex 198.061 28.0085 0
    endloop
  endfacet
  facet normal -0.55902 0.829154 0
    outer loop
      vertex 200.788 26.879 0
      vertex 200.28 26.5366 3
      vertex 200.788 26.879 3
    endloop
  endfacet
  facet normal -0.55902 0.829154 0
    outer loop
      vertex 200.28 26.5366 3
      vertex 200.788 26.879 0
      vertex 200.28 26.5366 0
    endloop
  endfacet
  facet normal 0.1979 -0.980222 0
    outer loop
      vertex 199.037 29.4803 0
      vertex 199.659 29.6059 3
      vertex 199.037 29.4803 3
    endloop
  endfacet
  facet normal 0.1979 -0.980222 0
    outer loop
      vertex 199.659 29.6059 3
      vertex 199.037 29.4803 0
      vertex 199.659 29.6059 0
    endloop
  endfacet
  facet normal -0.980221 0.197906 0
    outer loop
      vertex 201.13 27.3867 0
      vertex 201.256 28.0085 3
      vertex 201.256 28.0085 0
    endloop
  endfacet
  facet normal -0.980221 0.197906 0
    outer loop
      vertex 201.256 28.0085 3
      vertex 201.13 27.3867 0
      vertex 201.13 27.3867 3
    endloop
  endfacet
  facet normal 0.197903 0.980222 -0
    outer loop
      vertex 199.659 26.4111 0
      vertex 199.037 26.5366 3
      vertex 199.659 26.4111 3
    endloop
  endfacet
  facet normal 0.197903 0.980222 0
    outer loop
      vertex 199.037 26.5366 3
      vertex 199.659 26.4111 0
      vertex 199.037 26.5366 0
    endloop
  endfacet
  facet normal -0.197903 0.980222 0
    outer loop
      vertex 200.28 26.5366 0
      vertex 199.659 26.4111 3
      vertex 200.28 26.5366 3
    endloop
  endfacet
  facet normal -0.197903 0.980222 0
    outer loop
      vertex 199.659 26.4111 3
      vertex 200.28 26.5366 0
      vertex 199.659 26.4111 0
    endloop
  endfacet
  facet normal -0.980221 -0.197904 0
    outer loop
      vertex 201.256 28.0085 0
      vertex 201.13 28.6303 3
      vertex 201.13 28.6303 0
    endloop
  endfacet
  facet normal -0.980221 -0.197904 0
    outer loop
      vertex 201.13 28.6303 3
      vertex 201.256 28.0085 0
      vertex 201.256 28.0085 3
    endloop
  endfacet
  facet normal 0.82915 0.559025 0
    outer loop
      vertex 198.529 26.879 3
      vertex 198.187 27.3867 0
      vertex 198.187 27.3867 3
    endloop
  endfacet
  facet normal 0.82915 0.559025 0
    outer loop
      vertex 198.187 27.3867 0
      vertex 198.529 26.879 3
      vertex 198.529 26.879 0
    endloop
  endfacet
  facet normal -0.82915 0.559025 0
    outer loop
      vertex 200.788 26.879 0
      vertex 201.13 27.3867 3
      vertex 201.13 27.3867 0
    endloop
  endfacet
  facet normal -0.82915 0.559025 0
    outer loop
      vertex 201.13 27.3867 3
      vertex 200.788 26.879 0
      vertex 200.788 26.879 3
    endloop
  endfacet
  facet normal 0.980221 0.197906 0
    outer loop
      vertex 198.187 27.3867 3
      vertex 198.061 28.0085 0
      vertex 198.061 28.0085 3
    endloop
  endfacet
  facet normal 0.980221 0.197906 0
    outer loop
      vertex 198.061 28.0085 0
      vertex 198.187 27.3867 3
      vertex 198.187 27.3867 0
    endloop
  endfacet
  facet normal 0.55902 0.829154 -0
    outer loop
      vertex 199.037 26.5366 0
      vertex 198.529 26.879 3
      vertex 199.037 26.5366 3
    endloop
  endfacet
  facet normal 0.55902 0.829154 0
    outer loop
      vertex 198.529 26.879 3
      vertex 199.037 26.5366 0
      vertex 198.529 26.879 0
    endloop
  endfacet
  facet normal 0.82915 -0.559025 0
    outer loop
      vertex 198.187 28.6303 3
      vertex 198.529 29.138 0
      vertex 198.529 29.138 3
    endloop
  endfacet
  facet normal 0.82915 -0.559025 0
    outer loop
      vertex 198.529 29.138 0
      vertex 198.187 28.6303 3
      vertex 198.187 28.6303 0
    endloop
  endfacet
  facet normal 0.559023 -0.829152 0
    outer loop
      vertex 198.529 29.138 0
      vertex 199.037 29.4803 3
      vertex 198.529 29.138 3
    endloop
  endfacet
  facet normal 0.559023 -0.829152 0
    outer loop
      vertex 199.037 29.4803 3
      vertex 198.529 29.138 0
      vertex 199.037 29.4803 0
    endloop
  endfacet
  facet normal -0.707107 0.707107 0
    outer loop
      vertex 161.474 112.5 0
      vertex 159.115 110.141 0
      vertex 161.474 112.5 1.5
    endloop
  endfacet
  facet normal -0.707107 0.707107 0
    outer loop
      vertex 161.474 112.5 1.5
      vertex 180.462 131.488 3
      vertex 180.462 131.488 1.5
    endloop
  endfacet
  facet normal -0.707107 0.707107 0
    outer loop
      vertex 161.474 112.5 1.5
      vertex 159.115 110.141 3
      vertex 180.462 131.488 3
    endloop
  endfacet
  facet normal -0.707107 0.707107 0
    outer loop
      vertex 159.115 110.141 3
      vertex 161.474 112.5 1.5
      vertex 159.115 110.141 0
    endloop
  endfacet
  facet normal -1 0 0
    outer loop
      vertex 180.462 131.488 1.5
      vertex 180.462 148.512 3
      vertex 180.462 148.512 1.5
    endloop
  endfacet
  facet normal -1 -0 0
    outer loop
      vertex 180.462 148.512 3
      vertex 180.462 131.488 1.5
      vertex 180.462 131.488 3
    endloop
  endfacet
  facet normal 0 1 0
    outer loop
      vertex 159.115 110.141 3
      vertex 150 110.141 1.5
      vertex 150 110.141 3
    endloop
  endfacet
  facet normal 0 1 -0
    outer loop
      vertex 159.115 110.141 0
      vertex 150 110.141 1.5
      vertex 159.115 110.141 3
    endloop
  endfacet
  facet normal 0 1 0
    outer loop
      vertex 140.996 110.141 0
      vertex 150 110.141 1.5
      vertex 159.115 110.141 0
    endloop
  endfacet
  facet normal 0 1 0
    outer loop
      vertex 150 110.141 1.5
      vertex 140.996 110.141 0
      vertex 140.996 110.141 1.5
    endloop
  endfacet
  facet normal 0.707107 0.707107 0
    outer loop
      vertex 140.996 110.141 1.5
      vertex 138.637 112.5 0
      vertex 138.637 112.5 1.5
    endloop
  endfacet
  facet normal 0.707107 0.707107 0
    outer loop
      vertex 138.637 112.5 0
      vertex 140.996 110.141 1.5
      vertex 140.996 110.141 0
    endloop
  endfacet
  facet normal -0.707299 -0.706915 0
    outer loop
      vertex 180.462 148.512 1.5
      vertex 178.974 150 3
      vertex 178.974 150 1.5
    endloop
  endfacet
  facet normal -0.707299 -0.706915 0
    outer loop
      vertex 178.974 150 3
      vertex 180.462 148.512 1.5
      vertex 180.462 148.512 3
    endloop
  endfacet
  facet normal 0 1 0
    outer loop
      vertex 264.722 102.103 1.5
      vertex 264.722 102.103 0
      vertex 250 102.103 1.5
    endloop
  endfacet
  facet normal 0 1 -0
    outer loop
      vertex 250 102.103 1.5
      vertex 246.615 102.103 3
      vertex 250 102.103 3
    endloop
  endfacet
  facet normal 0 1 0
    outer loop
      vertex 250 102.103 1.5
      vertex 246.615 102.103 0
      vertex 246.615 102.103 3
    endloop
  endfacet
  facet normal 0 1 0
    outer loop
      vertex 246.615 102.103 0
      vertex 250 102.103 1.5
      vertex 264.722 102.103 0
    endloop
  endfacet
  facet normal 1 -0 0
    outer loop
      vertex 217.805 130.923 3
      vertex 217.805 149.088 1.5
      vertex 217.805 149.088 3
    endloop
  endfacet
  facet normal 1 0 0
    outer loop
      vertex 217.805 149.088 1.5
      vertex 217.805 130.923 3
      vertex 217.805 130.923 1.5
    endloop
  endfacet
  facet normal 0.707242 0.706972 0
    outer loop
      vertex 217.805 130.923 3
      vertex 236.222 112.5 1.5
      vertex 217.805 130.923 1.5
    endloop
  endfacet
  facet normal 0.707242 0.706972 -7.15682e-07
    outer loop
      vertex 246.615 102.103 3
      vertex 236.222 112.5 1.5
      vertex 217.805 130.923 3
    endloop
  endfacet
  facet normal 0.707242 0.706972 -0
    outer loop
      vertex 246.615 102.103 0
      vertex 236.222 112.5 1.5
      vertex 246.615 102.103 3
    endloop
  endfacet
  facet normal 0.707242 0.706972 0
    outer loop
      vertex 236.222 112.5 1.5
      vertex 246.615 102.103 0
      vertex 236.222 112.5 0
    endloop
  endfacet
  facet normal -0.707454 0.706759 0
    outer loop
      vertex 264.722 102.103 0
      vertex 275.109 112.5 1.5
      vertex 275.109 112.5 0
    endloop
  endfacet
  facet normal -0.707454 0.706759 0
    outer loop
      vertex 275.109 112.5 1.5
      vertex 264.722 102.103 0
      vertex 264.722 102.103 1.5
    endloop
  endfacet
  facet normal 0.707101 -0.707113 0
    outer loop
      vertex 217.805 149.088 1.5
      vertex 218.718 150 3
      vertex 217.805 149.088 3
    endloop
  endfacet
  facet normal 0.707101 -0.707113 0
    outer loop
      vertex 218.718 150 3
      vertex 217.805 149.088 1.5
      vertex 218.718 150 1.5
    endloop
  endfacet
  facet normal -0.829152 -0.559023 0
    outer loop
      vertex 201.13 140.627 1.5
      vertex 200.788 141.135 3
      vertex 200.788 141.135 1.5
    endloop
  endfacet
  facet normal -0.829152 -0.559023 0
    outer loop
      vertex 200.788 141.135 3
      vertex 201.13 140.627 1.5
      vertex 201.13 140.627 3
    endloop
  endfacet
  facet normal -0.559034 -0.829145 0
    outer loop
      vertex 200.28 141.477 1.5
      vertex 200.788 141.135 3
      vertex 200.28 141.477 3
    endloop
  endfacet
  facet normal -0.559034 -0.829145 -0
    outer loop
      vertex 200.788 141.135 3
      vertex 200.28 141.477 1.5
      vertex 200.788 141.135 1.5
    endloop
  endfacet
  facet normal -0.197878 -0.980227 0
    outer loop
      vertex 199.659 141.603 1.5
      vertex 200.28 141.477 3
      vertex 199.659 141.603 3
    endloop
  endfacet
  facet normal -0.197878 -0.980227 -0
    outer loop
      vertex 200.28 141.477 3
      vertex 199.659 141.603 1.5
      vertex 200.28 141.477 1.5
    endloop
  endfacet
  facet normal 0.980221 -0.197906 0
    outer loop
      vertex 198.061 140.006 3
      vertex 198.187 140.627 1.5
      vertex 198.187 140.627 3
    endloop
  endfacet
  facet normal 0.980221 -0.197906 0
    outer loop
      vertex 198.187 140.627 1.5
      vertex 198.061 140.006 3
      vertex 198.061 140.006 1.5
    endloop
  endfacet
  facet normal -0.559034 0.829145 0
    outer loop
      vertex 200.788 138.876 1.5
      vertex 200.28 138.534 3
      vertex 200.788 138.876 3
    endloop
  endfacet
  facet normal -0.559034 0.829145 0
    outer loop
      vertex 200.28 138.534 3
      vertex 200.788 138.876 1.5
      vertex 200.28 138.534 1.5
    endloop
  endfacet
  facet normal 0.197883 -0.980226 0
    outer loop
      vertex 199.037 141.477 1.5
      vertex 199.659 141.603 3
      vertex 199.037 141.477 3
    endloop
  endfacet
  facet normal 0.197883 -0.980226 0
    outer loop
      vertex 199.659 141.603 3
      vertex 199.037 141.477 1.5
      vertex 199.659 141.603 1.5
    endloop
  endfacet
  facet normal -0.980221 0.197906 0
    outer loop
      vertex 201.13 139.384 1.5
      vertex 201.256 140.006 3
      vertex 201.256 140.006 1.5
    endloop
  endfacet
  facet normal -0.980221 0.197906 0
    outer loop
      vertex 201.256 140.006 3
      vertex 201.13 139.384 1.5
      vertex 201.13 139.384 3
    endloop
  endfacet
  facet normal 0.197906 0.980221 -0
    outer loop
      vertex 199.659 138.408 1.5
      vertex 199.037 138.534 3
      vertex 199.659 138.408 3
    endloop
  endfacet
  facet normal 0.197906 0.980221 0
    outer loop
      vertex 199.037 138.534 3
      vertex 199.659 138.408 1.5
      vertex 199.037 138.534 1.5
    endloop
  endfacet
  facet normal -0.197901 0.980222 0
    outer loop
      vertex 200.28 138.534 1.5
      vertex 199.659 138.408 3
      vertex 200.28 138.534 3
    endloop
  endfacet
  facet normal -0.197901 0.980222 0
    outer loop
      vertex 199.659 138.408 3
      vertex 200.28 138.534 1.5
      vertex 199.659 138.408 1.5
    endloop
  endfacet
  facet normal -0.980221 -0.197906 0
    outer loop
      vertex 201.256 140.006 1.5
      vertex 201.13 140.627 3
      vertex 201.13 140.627 1.5
    endloop
  endfacet
  facet normal -0.980221 -0.197906 0
    outer loop
      vertex 201.13 140.627 3
      vertex 201.256 140.006 1.5
      vertex 201.256 140.006 3
    endloop
  endfacet
  facet normal 0.829152 0.559023 0
    outer loop
      vertex 198.529 138.876 3
      vertex 198.187 139.384 1.5
      vertex 198.187 139.384 3
    endloop
  endfacet
  facet normal 0.829152 0.559023 0
    outer loop
      vertex 198.187 139.384 1.5
      vertex 198.529 138.876 3
      vertex 198.529 138.876 1.5
    endloop
  endfacet
  facet normal -0.829152 0.559023 0
    outer loop
      vertex 200.788 138.876 1.5
      vertex 201.13 139.384 3
      vertex 201.13 139.384 1.5
    endloop
  endfacet
  facet normal -0.829152 0.559023 0
    outer loop
      vertex 201.13 139.384 3
      vertex 200.788 138.876 1.5
      vertex 200.788 138.876 3
    endloop
  endfacet
  facet normal 0.980221 0.197906 0
    outer loop
      vertex 198.187 139.384 3
      vertex 198.061 140.006 1.5
      vertex 198.061 140.006 3
    endloop
  endfacet
  facet normal 0.980221 0.197906 0
    outer loop
      vertex 198.061 140.006 1.5
      vertex 198.187 139.384 3
      vertex 198.187 139.384 1.5
    endloop
  endfacet
  facet normal 0.559023 0.829152 -0
    outer loop
      vertex 199.037 138.534 1.5
      vertex 198.529 138.876 3
      vertex 199.037 138.534 3
    endloop
  endfacet
  facet normal 0.559023 0.829152 0
    outer loop
      vertex 198.529 138.876 3
      vertex 199.037 138.534 1.5
      vertex 198.529 138.876 1.5
    endloop
  endfacet
  facet normal 0.829152 -0.559023 0
    outer loop
      vertex 198.187 140.627 3
      vertex 198.529 141.135 1.5
      vertex 198.529 141.135 3
    endloop
  endfacet
  facet normal 0.829152 -0.559023 0
    outer loop
      vertex 198.529 141.135 1.5
      vertex 198.187 140.627 3
      vertex 198.187 140.627 1.5
    endloop
  endfacet
  facet normal 0.559023 -0.829152 0
    outer loop
      vertex 198.529 141.135 1.5
      vertex 199.037 141.477 3
      vertex 198.529 141.135 3
    endloop
  endfacet
  facet normal 0.559023 -0.829152 0
    outer loop
      vertex 199.037 141.477 3
      vertex 198.529 141.135 1.5
      vertex 199.037 141.477 1.5
    endloop
  endfacet
  facet normal -0.829148 -0.559029 0
    outer loop
      vertex 122.833 103.339 0
      vertex 122.467 103.883 1.5
      vertex 122.467 103.883 0
    endloop
  endfacet
  facet normal -0.829148 -0.559029 0
    outer loop
      vertex 122.467 103.883 1.5
      vertex 122.833 103.339 0
      vertex 122.833 103.339 1.5
    endloop
  endfacet
  facet normal -0.559024 -0.829151 0
    outer loop
      vertex 121.923 104.249 0
      vertex 122.467 103.883 1.5
      vertex 121.923 104.249 1.5
    endloop
  endfacet
  facet normal -0.559024 -0.829151 -0
    outer loop
      vertex 122.467 103.883 1.5
      vertex 121.923 104.249 0
      vertex 122.467 103.883 0
    endloop
  endfacet
  facet normal -0.197907 -0.980221 0
    outer loop
      vertex 121.257 104.383 0
      vertex 121.923 104.249 1.5
      vertex 121.257 104.383 1.5
    endloop
  endfacet
  facet normal -0.197907 -0.980221 -0
    outer loop
      vertex 121.923 104.249 1.5
      vertex 121.257 104.383 0
      vertex 121.923 104.249 0
    endloop
  endfacet
  facet normal 0.559016 0.829157 -0
    outer loop
      vertex 120.592 101.097 0
      vertex 120.048 101.464 1.5
      vertex 120.592 101.097 1.5
    endloop
  endfacet
  facet normal 0.559016 0.829157 0
    outer loop
      vertex 120.048 101.464 1.5
      vertex 120.592 101.097 0
      vertex 120.048 101.464 0
    endloop
  endfacet
  facet normal -0.980221 0.197905 0
    outer loop
      vertex 122.833 102.007 0
      vertex 122.967 102.673 1.5
      vertex 122.967 102.673 0
    endloop
  endfacet
  facet normal -0.980221 0.197905 0
    outer loop
      vertex 122.967 102.673 1.5
      vertex 122.833 102.007 0
      vertex 122.833 102.007 1.5
    endloop
  endfacet
  facet normal -0.980221 -0.197907 0
    outer loop
      vertex 122.967 102.673 0
      vertex 122.833 103.339 1.5
      vertex 122.833 103.339 0
    endloop
  endfacet
  facet normal -0.980221 -0.197907 0
    outer loop
      vertex 122.833 103.339 1.5
      vertex 122.967 102.673 0
      vertex 122.967 102.673 1.5
    endloop
  endfacet
  facet normal -0.559016 0.829157 0
    outer loop
      vertex 122.467 101.464 0
      vertex 121.923 101.097 1.5
      vertex 122.467 101.464 1.5
    endloop
  endfacet
  facet normal -0.559016 0.829157 0
    outer loop
      vertex 121.923 101.097 1.5
      vertex 122.467 101.464 0
      vertex 121.923 101.097 0
    endloop
  endfacet
  facet normal -0.197907 0.980221 0
    outer loop
      vertex 121.923 101.097 0
      vertex 121.257 100.963 1.5
      vertex 121.923 101.097 1.5
    endloop
  endfacet
  facet normal -0.197907 0.980221 0
    outer loop
      vertex 121.257 100.963 1.5
      vertex 121.923 101.097 0
      vertex 121.257 100.963 0
    endloop
  endfacet
  facet normal 0.197907 0.980221 -0
    outer loop
      vertex 121.257 100.963 0
      vertex 120.592 101.097 1.5
      vertex 121.257 100.963 1.5
    endloop
  endfacet
  facet normal 0.197907 0.980221 0
    outer loop
      vertex 120.592 101.097 1.5
      vertex 121.257 100.963 0
      vertex 120.592 101.097 0
    endloop
  endfacet
  facet normal 0.197907 -0.980221 0
    outer loop
      vertex 120.592 104.249 0
      vertex 121.257 104.383 1.5
      vertex 120.592 104.249 1.5
    endloop
  endfacet
  facet normal 0.197907 -0.980221 0
    outer loop
      vertex 121.257 104.383 1.5
      vertex 120.592 104.249 0
      vertex 121.257 104.383 0
    endloop
  endfacet
  facet normal 0.829148 -0.559029 0
    outer loop
      vertex 119.681 103.339 1.5
      vertex 120.048 103.883 0
      vertex 120.048 103.883 1.5
    endloop
  endfacet
  facet normal 0.829148 -0.559029 0
    outer loop
      vertex 120.048 103.883 0
      vertex 119.681 103.339 1.5
      vertex 119.681 103.339 0
    endloop
  endfacet
  facet normal 0.980223 0.197894 0
    outer loop
      vertex 119.681 102.007 1.5
      vertex 119.547 102.673 0
      vertex 119.547 102.673 1.5
    endloop
  endfacet
  facet normal 0.980223 0.197894 0
    outer loop
      vertex 119.547 102.673 0
      vertex 119.681 102.007 1.5
      vertex 119.681 102.007 0
    endloop
  endfacet
  facet normal 0.980223 -0.197896 0
    outer loop
      vertex 119.547 102.673 1.5
      vertex 119.681 103.339 0
      vertex 119.681 103.339 1.5
    endloop
  endfacet
  facet normal 0.980223 -0.197896 0
    outer loop
      vertex 119.681 103.339 0
      vertex 119.547 102.673 1.5
      vertex 119.547 102.673 0
    endloop
  endfacet
  facet normal 0.829151 0.559024 0
    outer loop
      vertex 120.048 101.464 1.5
      vertex 119.681 102.007 0
      vertex 119.681 102.007 1.5
    endloop
  endfacet
  facet normal 0.829151 0.559024 0
    outer loop
      vertex 119.681 102.007 0
      vertex 120.048 101.464 1.5
      vertex 120.048 101.464 0
    endloop
  endfacet
  facet normal -0.829151 0.559024 0
    outer loop
      vertex 122.467 101.464 0
      vertex 122.833 102.007 1.5
      vertex 122.833 102.007 0
    endloop
  endfacet
  facet normal -0.829151 0.559024 0
    outer loop
      vertex 122.833 102.007 1.5
      vertex 122.467 101.464 0
      vertex 122.467 101.464 1.5
    endloop
  endfacet
  facet normal 0.559024 -0.829151 0
    outer loop
      vertex 120.048 103.883 0
      vertex 120.592 104.249 1.5
      vertex 120.048 103.883 1.5
    endloop
  endfacet
  facet normal 0.559024 -0.829151 0
    outer loop
      vertex 120.592 104.249 1.5
      vertex 120.048 103.883 0
      vertex 120.592 104.249 0
    endloop
  endfacet
  facet normal -0.829149 -0.559028 0
    outer loop
      vertex 202.733 119.833 1.5
      vertex 202.391 120.341 3
      vertex 202.391 120.341 1.5
    endloop
  endfacet
  facet normal -0.829149 -0.559028 0
    outer loop
      vertex 202.391 120.341 3
      vertex 202.733 119.833 1.5
      vertex 202.733 119.833 3
    endloop
  endfacet
  facet normal -0.559014 -0.829158 0
    outer loop
      vertex 201.883 120.683 1.5
      vertex 202.391 120.341 3
      vertex 201.883 120.683 3
    endloop
  endfacet
  facet normal -0.559014 -0.829158 -0
    outer loop
      vertex 202.391 120.341 3
      vertex 201.883 120.683 1.5
      vertex 202.391 120.341 1.5
    endloop
  endfacet
  facet normal -0.197906 -0.980221 0
    outer loop
      vertex 201.262 120.809 1.5
      vertex 201.883 120.683 3
      vertex 201.262 120.809 3
    endloop
  endfacet
  facet normal -0.197906 -0.980221 -0
    outer loop
      vertex 201.883 120.683 3
      vertex 201.262 120.809 1.5
      vertex 201.883 120.683 1.5
    endloop
  endfacet
  facet normal -0.829145 0.559034 0
    outer loop
      vertex 202.391 118.082 1.5
      vertex 202.733 118.59 3
      vertex 202.733 118.59 1.5
    endloop
  endfacet
  facet normal -0.829145 0.559034 0
    outer loop
      vertex 202.733 118.59 3
      vertex 202.391 118.082 1.5
      vertex 202.391 118.082 3
    endloop
  endfacet
  facet normal -0.980226 0.197881 0
    outer loop
      vertex 202.733 118.59 1.5
      vertex 202.859 119.211 3
      vertex 202.859 119.211 1.5
    endloop
  endfacet
  facet normal -0.980226 0.197881 0
    outer loop
      vertex 202.859 119.211 3
      vertex 202.733 118.59 1.5
      vertex 202.733 118.59 3
    endloop
  endfacet
  facet normal 0.559043 0.829139 -0
    outer loop
      vertex 200.64 117.74 1.5
      vertex 200.132 118.082 3
      vertex 200.64 117.74 3
    endloop
  endfacet
  facet normal 0.559043 0.829139 0
    outer loop
      vertex 200.132 118.082 3
      vertex 200.64 117.74 1.5
      vertex 200.132 118.082 1.5
    endloop
  endfacet
  facet normal 0.19789 0.980224 -0
    outer loop
      vertex 201.262 117.614 1.5
      vertex 200.64 117.74 3
      vertex 201.262 117.614 3
    endloop
  endfacet
  facet normal 0.19789 0.980224 0
    outer loop
      vertex 200.64 117.74 3
      vertex 201.262 117.614 1.5
      vertex 200.64 117.74 1.5
    endloop
  endfacet
  facet normal -0.559031 0.829147 0
    outer loop
      vertex 202.391 118.082 1.5
      vertex 201.883 117.74 3
      vertex 202.391 118.082 3
    endloop
  endfacet
  facet normal -0.559031 0.829147 0
    outer loop
      vertex 201.883 117.74 3
      vertex 202.391 118.082 1.5
      vertex 201.883 117.74 1.5
    endloop
  endfacet
  facet normal -0.980227 -0.197878 0
    outer loop
      vertex 202.859 119.211 1.5
      vertex 202.733 119.833 3
      vertex 202.733 119.833 1.5
    endloop
  endfacet
  facet normal -0.980227 -0.197878 0
    outer loop
      vertex 202.733 119.833 3
      vertex 202.859 119.211 1.5
      vertex 202.859 119.211 3
    endloop
  endfacet
  facet normal 0.829145 0.559034 0
    outer loop
      vertex 200.132 118.082 3
      vertex 199.79 118.59 1.5
      vertex 199.79 118.59 3
    endloop
  endfacet
  facet normal 0.829145 0.559034 0
    outer loop
      vertex 199.79 118.59 1.5
      vertex 200.132 118.082 3
      vertex 200.132 118.082 1.5
    endloop
  endfacet
  facet normal 0.197901 -0.980222 0
    outer loop
      vertex 200.64 120.683 1.5
      vertex 201.262 120.809 3
      vertex 200.64 120.683 3
    endloop
  endfacet
  facet normal 0.197901 -0.980222 0
    outer loop
      vertex 201.262 120.809 3
      vertex 200.64 120.683 1.5
      vertex 201.262 120.809 1.5
    endloop
  endfacet
  facet normal 0.829149 -0.559028 0
    outer loop
      vertex 199.79 119.833 3
      vertex 200.132 120.341 1.5
      vertex 200.132 120.341 3
    endloop
  endfacet
  facet normal 0.829149 -0.559028 0
    outer loop
      vertex 200.132 120.341 1.5
      vertex 199.79 119.833 3
      vertex 199.79 119.833 1.5
    endloop
  endfacet
  facet normal -0.197895 0.980223 0
    outer loop
      vertex 201.883 117.74 1.5
      vertex 201.262 117.614 3
      vertex 201.883 117.74 3
    endloop
  endfacet
  facet normal -0.197895 0.980223 0
    outer loop
      vertex 201.262 117.614 3
      vertex 201.883 117.74 1.5
      vertex 201.262 117.614 1.5
    endloop
  endfacet
  facet normal 0.980221 0.197904 0
    outer loop
      vertex 199.79 118.59 3
      vertex 199.664 119.211 1.5
      vertex 199.664 119.211 3
    endloop
  endfacet
  facet normal 0.980221 0.197904 0
    outer loop
      vertex 199.664 119.211 1.5
      vertex 199.79 118.59 3
      vertex 199.79 118.59 1.5
    endloop
  endfacet
  facet normal 0.980222 -0.197901 0
    outer loop
      vertex 199.664 119.211 3
      vertex 199.79 119.833 1.5
      vertex 199.79 119.833 3
    endloop
  endfacet
  facet normal 0.980222 -0.197901 0
    outer loop
      vertex 199.79 119.833 1.5
      vertex 199.664 119.211 3
      vertex 199.664 119.211 1.5
    endloop
  endfacet
  facet normal 0.559026 -0.82915 0
    outer loop
      vertex 200.132 120.341 1.5
      vertex 200.64 120.683 3
      vertex 200.132 120.341 3
    endloop
  endfacet
  facet normal 0.559026 -0.82915 0
    outer loop
      vertex 200.64 120.683 3
      vertex 200.132 120.341 1.5
      vertex 200.64 120.683 1.5
    endloop
  endfacet
  facet normal -0.706991 0.707223 0
    outer loop
      vertex 238.069 73.4068 0
      vertex 203.593 38.9418 3
      vertex 238.069 73.4068 3
    endloop
  endfacet
  facet normal -0.706991 0.707223 0
    outer loop
      vertex 203.593 38.9418 3
      vertex 238.069 73.4068 0
      vertex 203.593 38.9418 0
    endloop
  endfacet
  facet normal -1 0 0
    outer loop
      vertex 238.069 73.4068 0
      vertex 238.069 92.5527 3
      vertex 238.069 92.5527 0
    endloop
  endfacet
  facet normal -1 -0 0
    outer loop
      vertex 238.069 92.5527 3
      vertex 238.069 73.4068 0
      vertex 238.069 73.4068 3
    endloop
  endfacet
  facet normal -0.707107 -0.707107 0
    outer loop
      vertex 238.069 92.5527 0
      vertex 220.481 110.141 3
      vertex 220.481 110.141 0
    endloop
  endfacet
  facet normal -0.707107 -0.707107 0
    outer loop
      vertex 220.481 110.141 3
      vertex 238.069 92.5527 0
      vertex 238.069 92.5527 3
    endloop
  endfacet
  facet normal 0.707107 0.707107 -0
    outer loop
      vertex 195.736 38.9531 0
      vertex 160.198 74.4905 3
      vertex 195.736 38.9531 3
    endloop
  endfacet
  facet normal 0.707107 0.707107 0
    outer loop
      vertex 160.198 74.4905 3
      vertex 195.736 38.9531 0
      vertex 160.198 74.4905 0
    endloop
  endfacet
  facet normal 0.00143663 0.999999 -0
    outer loop
      vertex 203.593 38.9418 0
      vertex 195.736 38.9531 3
      vertex 203.593 38.9418 3
    endloop
  endfacet
  facet normal 0.00143663 0.999999 0
    outer loop
      vertex 195.736 38.9531 3
      vertex 203.593 38.9418 0
      vertex 195.736 38.9531 0
    endloop
  endfacet
  facet normal 0 -1 0
    outer loop
      vertex 177.877 110.141 0
      vertex 220.481 110.141 3
      vertex 177.877 110.141 3
    endloop
  endfacet
  facet normal 0 -1 -0
    outer loop
      vertex 220.481 110.141 3
      vertex 177.877 110.141 0
      vertex 220.481 110.141 0
    endloop
  endfacet
  facet normal 1 -0 0
    outer loop
      vertex 160.198 74.4905 3
      vertex 160.198 92.4624 0
      vertex 160.198 92.4624 3
    endloop
  endfacet
  facet normal 1 0 0
    outer loop
      vertex 160.198 92.4624 0
      vertex 160.198 74.4905 3
      vertex 160.198 74.4905 0
    endloop
  endfacet
  facet normal 0.707107 -0.707107 0
    outer loop
      vertex 160.198 92.4624 0
      vertex 177.877 110.141 3
      vertex 160.198 92.4624 3
    endloop
  endfacet
  facet normal 0.707107 -0.707107 0
    outer loop
      vertex 177.877 110.141 3
      vertex 160.198 92.4624 0
      vertex 177.877 110.141 0
    endloop
  endfacet
  facet normal -1 0 0
    outer loop
      vertex 112.5 49.1219 0
      vertex 112.5 88.5449 1.5
      vertex 112.5 88.5449 0
    endloop
  endfacet
  facet normal -1 -0 0
    outer loop
      vertex 112.5 88.5449 1.5
      vertex 112.5 49.1219 0
      vertex 112.5 49.1219 1.5
    endloop
  endfacet
  facet normal 0 0 -1
    outer loop
      vertex 217.805 130.923 1.5
      vertex 201.13 139.384 1.5
      vertex 201.256 140.006 1.5
    endloop
  endfacet
  facet normal 0 0 -1
    outer loop
      vertex 201.883 120.683 1.5
      vertex 200.788 138.876 1.5
      vertex 201.13 139.384 1.5
    endloop
  endfacet
  facet normal 0 0 -1
    outer loop
      vertex 199.659 138.408 1.5
      vertex 201.262 120.809 1.5
      vertex 200.64 120.683 1.5
    endloop
  endfacet
  facet normal 0 0 -1
    outer loop
      vertex 201.883 120.683 1.5
      vertex 200.28 138.534 1.5
      vertex 200.788 138.876 1.5
    endloop
  endfacet
  facet normal 0 0 -1
    outer loop
      vertex 199.037 138.534 1.5
      vertex 200.64 120.683 1.5
      vertex 200.132 120.341 1.5
    endloop
  endfacet
  facet normal 0 0 -1
    outer loop
      vertex 180.462 131.488 1.5
      vertex 200.132 120.341 1.5
      vertex 199.79 119.833 1.5
    endloop
  endfacet
  facet normal 0 0 -1
    outer loop
      vertex 180.462 131.488 1.5
      vertex 199.79 119.833 1.5
      vertex 199.664 119.211 1.5
    endloop
  endfacet
  facet normal 0 0 -1
    outer loop
      vertex 201.262 120.809 1.5
      vertex 199.659 138.408 1.5
      vertex 200.28 138.534 1.5
    endloop
  endfacet
  facet normal 0 0 -1
    outer loop
      vertex 202.733 119.833 1.5
      vertex 217.805 130.923 1.5
      vertex 202.859 119.211 1.5
    endloop
  endfacet
  facet normal 0 0 -1
    outer loop
      vertex 202.733 118.59 1.5
      vertex 217.805 130.923 1.5
      vertex 236.222 112.5 1.5
    endloop
  endfacet
  facet normal 0 0 -1
    outer loop
      vertex 217.805 130.923 1.5
      vertex 202.733 118.59 1.5
      vertex 202.859 119.211 1.5
    endloop
  endfacet
  facet normal 0 0 -1
    outer loop
      vertex 236.222 112.5 1.5
      vertex 202.391 118.082 1.5
      vertex 202.733 118.59 1.5
    endloop
  endfacet
  facet normal 0 0 -1
    outer loop
      vertex 236.222 112.5 1.5
      vertex 201.883 117.74 1.5
      vertex 202.391 118.082 1.5
    endloop
  endfacet
  facet normal 0 0 -1
    outer loop
      vertex 236.222 112.5 1.5
      vertex 201.262 117.614 1.5
      vertex 201.883 117.74 1.5
    endloop
  endfacet
  facet normal 0 0 -1
    outer loop
      vertex 200.64 120.683 1.5
      vertex 199.037 138.534 1.5
      vertex 199.659 138.408 1.5
    endloop
  endfacet
  facet normal 0 -0 -1
    outer loop
      vertex 198.529 138.876 1.5
      vertex 200.132 120.341 1.5
      vertex 180.462 131.488 1.5
    endloop
  endfacet
  facet normal 0 0 -1
    outer loop
      vertex 200.132 120.341 1.5
      vertex 198.529 138.876 1.5
      vertex 199.037 138.534 1.5
    endloop
  endfacet
  facet normal -0 0 -1
    outer loop
      vertex 198.529 138.876 1.5
      vertex 180.462 131.488 1.5
      vertex 198.187 139.384 1.5
    endloop
  endfacet
  facet normal -0 0 -1
    outer loop
      vertex 198.187 139.384 1.5
      vertex 180.462 131.488 1.5
      vertex 198.061 140.006 1.5
    endloop
  endfacet
  facet normal 0 0 -1
    outer loop
      vertex 199.79 118.59 1.5
      vertex 180.462 131.488 1.5
      vertex 199.664 119.211 1.5
    endloop
  endfacet
  facet normal 0 0 -1
    outer loop
      vertex 161.474 112.5 1.5
      vertex 199.79 118.59 1.5
      vertex 200.132 118.082 1.5
    endloop
  endfacet
  facet normal -0 0 -1
    outer loop
      vertex 199.79 118.59 1.5
      vertex 161.474 112.5 1.5
      vertex 180.462 131.488 1.5
    endloop
  endfacet
  facet normal -0 0 -1
    outer loop
      vertex 200.64 117.74 1.5
      vertex 161.474 112.5 1.5
      vertex 200.132 118.082 1.5
    endloop
  endfacet
  facet normal -0 0 -1
    outer loop
      vertex 201.262 117.614 1.5
      vertex 161.474 112.5 1.5
      vertex 200.64 117.74 1.5
    endloop
  endfacet
  facet normal 0 0 -1
    outer loop
      vertex 161.474 112.5 1.5
      vertex 201.262 117.614 1.5
      vertex 236.222 112.5 1.5
    endloop
  endfacet
  facet normal 0 0 -1
    outer loop
      vertex 202.391 120.341 1.5
      vertex 217.805 130.923 1.5
      vertex 202.733 119.833 1.5
    endloop
  endfacet
  facet normal 0 0 -1
    outer loop
      vertex 201.883 120.683 1.5
      vertex 217.805 130.923 1.5
      vertex 202.391 120.341 1.5
    endloop
  endfacet
  facet normal 0 0 -1
    outer loop
      vertex 201.13 139.384 1.5
      vertex 217.805 130.923 1.5
      vertex 201.883 120.683 1.5
    endloop
  endfacet
  facet normal 0 0 -1
    outer loop
      vertex 200.28 138.534 1.5
      vertex 201.883 120.683 1.5
      vertex 201.262 120.809 1.5
    endloop
  endfacet
  facet normal 0 0 -1
    outer loop
      vertex 217.805 130.923 1.5
      vertex 201.256 140.006 1.5
      vertex 217.805 149.088 1.5
    endloop
  endfacet
  facet normal 0 0 -1
    outer loop
      vertex 201.13 140.627 1.5
      vertex 217.805 149.088 1.5
      vertex 201.256 140.006 1.5
    endloop
  endfacet
  facet normal 0 0 -1
    outer loop
      vertex 200.788 141.135 1.5
      vertex 217.805 149.088 1.5
      vertex 201.13 140.627 1.5
    endloop
  endfacet
  facet normal 0 0 -1
    outer loop
      vertex 200.28 141.477 1.5
      vertex 217.805 149.088 1.5
      vertex 200.788 141.135 1.5
    endloop
  endfacet
  facet normal 0 0 -1
    outer loop
      vertex 199.659 141.603 1.5
      vertex 217.805 149.088 1.5
      vertex 200.28 141.477 1.5
    endloop
  endfacet
  facet normal -0 0 -1
    outer loop
      vertex 217.805 149.088 1.5
      vertex 199.659 141.603 1.5
      vertex 218.718 150 1.5
    endloop
  endfacet
  facet normal 0 0 -1
    outer loop
      vertex 180.462 148.512 1.5
      vertex 199.659 141.603 1.5
      vertex 199.037 141.477 1.5
    endloop
  endfacet
  facet normal 0 0 -1
    outer loop
      vertex 180.462 148.512 1.5
      vertex 198.061 140.006 1.5
      vertex 180.462 131.488 1.5
    endloop
  endfacet
  facet normal 0 0 -1
    outer loop
      vertex 198.061 140.006 1.5
      vertex 180.462 148.512 1.5
      vertex 198.187 140.627 1.5
    endloop
  endfacet
  facet normal 0 0 -1
    outer loop
      vertex 198.187 140.627 1.5
      vertex 180.462 148.512 1.5
      vertex 198.529 141.135 1.5
    endloop
  endfacet
  facet normal 0 0 -1
    outer loop
      vertex 198.529 141.135 1.5
      vertex 180.462 148.512 1.5
      vertex 199.037 141.477 1.5
    endloop
  endfacet
  facet normal 0 0 -1
    outer loop
      vertex 199.659 141.603 1.5
      vertex 180.462 148.512 1.5
      vertex 178.974 150 1.5
    endloop
  endfacet
  facet normal 0 0 -1
    outer loop
      vertex 199.659 141.603 1.5
      vertex 178.974 150 1.5
      vertex 218.718 150 1.5
    endloop
  endfacet
  facet normal 0 0 1
    outer loop
      vertex 115.935 95.4654 1.5
      vertex 120.048 101.464 1.5
      vertex 119.681 102.007 1.5
    endloop
  endfacet
  facet normal 0 0 1
    outer loop
      vertex 115.935 95.4654 1.5
      vertex 119.681 102.007 1.5
      vertex 119.547 102.673 1.5
    endloop
  endfacet
  facet normal 0 0 1
    outer loop
      vertex 120.048 101.464 1.5
      vertex 119.521 92.9915 1.5
      vertex 119.773 91.7458 1.5
    endloop
  endfacet
  facet normal -0 0 1
    outer loop
      vertex 115.935 109.87 1.5
      vertex 120.048 103.883 1.5
      vertex 117.818 110.664 1.5
    endloop
  endfacet
  facet normal 0 0 1
    outer loop
      vertex 120.048 103.883 1.5
      vertex 115.935 109.87 1.5
      vertex 119.681 103.339 1.5
    endloop
  endfacet
  facet normal 0 0 1
    outer loop
      vertex 120.048 101.464 1.5
      vertex 118.835 94.0085 1.5
      vertex 119.521 92.9915 1.5
    endloop
  endfacet
  facet normal 0 0 1
    outer loop
      vertex 119.681 103.339 1.5
      vertex 115.935 109.87 1.5
      vertex 119.547 102.673 1.5
    endloop
  endfacet
  facet normal 0 0 1
    outer loop
      vertex 120.048 101.464 1.5
      vertex 117.818 94.6942 1.5
      vertex 118.835 94.0085 1.5
    endloop
  endfacet
  facet normal 0 0 1
    outer loop
      vertex 115.935 109.87 1.5
      vertex 117.818 110.664 1.5
      vertex 116.572 110.412 1.5
    endloop
  endfacet
  facet normal 0 0 1
    outer loop
      vertex 115.935 95.4654 1.5
      vertex 119.547 102.673 1.5
      vertex 115.935 109.87 1.5
    endloop
  endfacet
  facet normal 0 0 1
    outer loop
      vertex 120.048 101.464 1.5
      vertex 115.935 95.4654 1.5
      vertex 117.818 94.6942 1.5
    endloop
  endfacet
  facet normal 0 0 1
    outer loop
      vertex 117.818 94.6942 1.5
      vertex 115.935 95.4654 1.5
      vertex 116.572 94.9461 1.5
    endloop
  endfacet
  facet normal -0 0 1
    outer loop
      vertex 140.996 110.141 1.5
      vertex 150 65.3354 1.5
      vertex 150 110.141 1.5
    endloop
  endfacet
  facet normal 0 0 1
    outer loop
      vertex 122.967 102.673 1.5
      vertex 140.996 110.141 1.5
      vertex 138.637 112.5 1.5
    endloop
  endfacet
  facet normal 0 0 1
    outer loop
      vertex 140.996 110.141 1.5
      vertex 119.773 91.7458 1.5
      vertex 150 65.3354 1.5
    endloop
  endfacet
  facet normal 0 0 1
    outer loop
      vertex 140.996 110.141 1.5
      vertex 122.967 102.673 1.5
      vertex 122.833 102.007 1.5
    endloop
  endfacet
  facet normal 0 0 1
    outer loop
      vertex 138.637 112.5 1.5
      vertex 122.833 103.339 1.5
      vertex 122.967 102.673 1.5
    endloop
  endfacet
  facet normal 0 0 1
    outer loop
      vertex 138.637 112.5 1.5
      vertex 122.467 103.883 1.5
      vertex 122.833 103.339 1.5
    endloop
  endfacet
  facet normal -0 0 1
    outer loop
      vertex 119.548 112.5 1.5
      vertex 122.467 103.883 1.5
      vertex 138.637 112.5 1.5
    endloop
  endfacet
  facet normal -0 0 1
    outer loop
      vertex 119.521 112.366 1.5
      vertex 122.467 103.883 1.5
      vertex 119.548 112.5 1.5
    endloop
  endfacet
  facet normal -0 0 1
    outer loop
      vertex 118.835 111.349 1.5
      vertex 121.923 104.249 1.5
      vertex 119.521 112.366 1.5
    endloop
  endfacet
  facet normal 0 0 1
    outer loop
      vertex 122.467 103.883 1.5
      vertex 119.521 112.366 1.5
      vertex 121.923 104.249 1.5
    endloop
  endfacet
  facet normal 0 0 1
    outer loop
      vertex 121.923 104.249 1.5
      vertex 118.835 111.349 1.5
      vertex 121.257 104.383 1.5
    endloop
  endfacet
  facet normal -0 0 1
    outer loop
      vertex 117.818 110.664 1.5
      vertex 121.257 104.383 1.5
      vertex 118.835 111.349 1.5
    endloop
  endfacet
  facet normal 0 0 1
    outer loop
      vertex 121.257 104.383 1.5
      vertex 117.818 110.664 1.5
      vertex 120.592 104.249 1.5
    endloop
  endfacet
  facet normal 0 0 1
    outer loop
      vertex 120.592 104.249 1.5
      vertex 117.818 110.664 1.5
      vertex 120.048 103.883 1.5
    endloop
  endfacet
  facet normal 0 0 1
    outer loop
      vertex 140.996 110.141 1.5
      vertex 122.833 102.007 1.5
      vertex 119.773 91.7458 1.5
    endloop
  endfacet
  facet normal 0 0 1
    outer loop
      vertex 119.773 91.7458 1.5
      vertex 122.833 102.007 1.5
      vertex 122.467 101.464 1.5
    endloop
  endfacet
  facet normal 0 0 1
    outer loop
      vertex 119.773 91.7458 1.5
      vertex 122.467 101.464 1.5
      vertex 121.923 101.097 1.5
    endloop
  endfacet
  facet normal 0 0 1
    outer loop
      vertex 119.773 91.7458 1.5
      vertex 121.923 101.097 1.5
      vertex 121.257 100.963 1.5
    endloop
  endfacet
  facet normal 0 0 1
    outer loop
      vertex 119.773 91.7458 1.5
      vertex 121.257 100.963 1.5
      vertex 120.592 101.097 1.5
    endloop
  endfacet
  facet normal 0 0 1
    outer loop
      vertex 119.773 91.7458 1.5
      vertex 120.592 101.097 1.5
      vertex 120.048 101.464 1.5
    endloop
  endfacet
  facet normal -0 0 1
    outer loop
      vertex 119.521 90.5 1.5
      vertex 150 65.3354 1.5
      vertex 119.773 91.7458 1.5
    endloop
  endfacet
  facet normal 0 0 1
    outer loop
      vertex 150 65.3354 1.5
      vertex 119.521 90.5 1.5
      vertex 128.714 65.3354 1.5
    endloop
  endfacet
  facet normal -0 0 1
    outer loop
      vertex 118.835 89.4825 1.5
      vertex 128.714 65.3354 1.5
      vertex 119.521 90.5 1.5
    endloop
  endfacet
  facet normal -0 0 1
    outer loop
      vertex 117.818 88.7968 1.5
      vertex 128.714 65.3354 1.5
      vertex 118.835 89.4825 1.5
    endloop
  endfacet
  facet normal -0 0 1
    outer loop
      vertex 116.572 88.5449 1.5
      vertex 128.714 65.3354 1.5
      vertex 117.818 88.7968 1.5
    endloop
  endfacet
  facet normal -0 0 1
    outer loop
      vertex 112.5 88.5449 1.5
      vertex 128.714 65.3354 1.5
      vertex 116.572 88.5449 1.5
    endloop
  endfacet
  facet normal 0 0 1
    outer loop
      vertex 128.714 65.3354 1.5
      vertex 112.5 88.5449 1.5
      vertex 112.5 49.1219 1.5
    endloop
  endfacet
  facet normal -0 0 1
    outer loop
      vertex 275.109 112.5 1.5
      vertex 287.5 105.523 1.5
      vertex 287.5 112.5 1.5
    endloop
  endfacet
  facet normal -0 0 1
    outer loop
      vertex 264.722 102.103 1.5
      vertex 277.535 95.5558 1.5
      vertex 275.109 112.5 1.5
    endloop
  endfacet
  facet normal 0 0 1
    outer loop
      vertex 287.5 105.523 1.5
      vertex 275.109 112.5 1.5
      vertex 277.535 95.5558 1.5
    endloop
  endfacet
  facet normal -0 0 1
    outer loop
      vertex 265.286 65.3354 1.5
      vertex 287.5 61.2177 1.5
      vertex 277.535 71.1827 1.5
    endloop
  endfacet
  facet normal 0 0 1
    outer loop
      vertex 287.5 61.2177 1.5
      vertex 265.286 65.3354 1.5
      vertex 287.5 43.1219 1.5
    endloop
  endfacet
  facet normal 0 -0 1
    outer loop
      vertex 265.286 65.3354 1.5
      vertex 277.535 95.5558 1.5
      vertex 264.722 102.103 1.5
    endloop
  endfacet
  facet normal 0 0 1
    outer loop
      vertex 277.535 95.5558 1.5
      vertex 265.286 65.3354 1.5
      vertex 277.535 71.1827 1.5
    endloop
  endfacet
  facet normal 0 0 1
    outer loop
      vertex 250 65.3354 1.5
      vertex 264.722 102.103 1.5
      vertex 250 102.103 1.5
    endloop
  endfacet
  facet normal 0 0 1
    outer loop
      vertex 264.722 102.103 1.5
      vertex 250 65.3354 1.5
      vertex 265.286 65.3354 1.5
    endloop
  endfacet
  facet normal 1 -0 0
    outer loop
      vertex 287.5 105.523 1.5
      vertex 287.5 112.5 0
      vertex 287.5 112.5 1.5
    endloop
  endfacet
  facet normal 1 0 0
    outer loop
      vertex 287.5 112.5 0
      vertex 287.5 105.523 1.5
      vertex 287.5 105.523 0
    endloop
  endfacet
  facet normal 1 -0 0
    outer loop
      vertex 287.5 43.1219 1.5
      vertex 287.5 61.2177 0
      vertex 287.5 61.2177 1.5
    endloop
  endfacet
  facet normal 1 0 0
    outer loop
      vertex 287.5 61.2177 0
      vertex 287.5 43.1219 1.5
      vertex 287.5 43.1219 0
    endloop
  endfacet
  facet normal 0 1 -0
    outer loop
      vertex 287.5 112.5 0
      vertex 275.109 112.5 1.5
      vertex 287.5 112.5 1.5
    endloop
  endfacet
  facet normal 0 1 0
    outer loop
      vertex 275.109 112.5 1.5
      vertex 287.5 112.5 0
      vertex 275.109 112.5 0
    endloop
  endfacet
  facet normal 0 1 -0
    outer loop
      vertex 138.637 112.5 0
      vertex 119.548 112.5 1.5
      vertex 138.637 112.5 1.5
    endloop
  endfacet
  facet normal 0 1 0
    outer loop
      vertex 119.548 112.5 1.5
      vertex 138.637 112.5 0
      vertex 119.548 112.5 0
    endloop
  endfacet
  facet normal 0 1 -0
    outer loop
      vertex 236.222 112.5 0
      vertex 161.474 112.5 1.5
      vertex 236.222 112.5 1.5
    endloop
  endfacet
  facet normal 0 1 0
    outer loop
      vertex 161.474 112.5 1.5
      vertex 236.222 112.5 0
      vertex 161.474 112.5 0
    endloop
  endfacet
  facet normal -1 0 0
    outer loop
      vertex 150 65.3354 1.5
      vertex 150 110.141 3
      vertex 150 110.141 1.5
    endloop
  endfacet
  facet normal -1 -0 0
    outer loop
      vertex 150 110.141 3
      vertex 150 65.3354 1.5
      vertex 150 65.3354 3
    endloop
  endfacet
  facet normal 1 -0 0
    outer loop
      vertex 250 65.3354 3
      vertex 250 102.103 1.5
      vertex 250 102.103 3
    endloop
  endfacet
  facet normal 1 0 0
    outer loop
      vertex 250 102.103 1.5
      vertex 250 65.3354 3
      vertex 250 65.3354 1.5
    endloop
  endfacet
  facet normal 0 1 -0
    outer loop
      vertex 218.718 150 1.5
      vertex 178.974 150 3
      vertex 218.718 150 3
    endloop
  endfacet
  facet normal 0 1 0
    outer loop
      vertex 178.974 150 3
      vertex 218.718 150 1.5
      vertex 178.974 150 1.5
    endloop
  endfacet
endsolid OpenSCAD_Model
