  0
SECTION
  2
HEADER
  9
$ACADVER
  1
AC1014
  9
$HANDSEED
  5
FFFF
  9
$MEASUREMENT
 70
     1
  0
ENDSEC
  0
SECTION
  2
TABLES
  0
TABLE
  2
VPORT
  5
8
330
0
100
AcDbSymbolTable
 70
     4
  0
VPORT
  5
2E
330
8
100
AcDbSymbolTableRecord
100
AcDbViewportTableRecord
  2
*ACTIVE
 70
     0
 10
0.0
 20
0.0
 11
1.0
 21
1.0
 12
210.0
 22
148.5
 13
0.0
 23
0.0
 14
10.0
 24
10.0
 15
10.0
 25
10.0
 16
0.0
 26
0.0
 36
1.0
 17
0.0
 27
0.0
 37
0.0
 40
341.0
 41
1.24
 42
50.0
 43
0.0
 44
0.0
 50
0.0
 51
0.0
 71
     0
 72
   100
 73
     1
 74
     3
 75
     0
 76
     0
 77
     0
 78
     0
  0
ENDTAB
  0
TABLE
  2
LTYPE
  5
5
330
0
100
AcDbSymbolTable
 70
     1
  0
LTYPE
  5
14
330
5
100
AcDbSymbolTableRecord
100
AcDbLinetypeTableRecord
  2
BYBLOCK
 70
     0
  3

 72
    65
 73
     0
 40
0.0
  0
LTYPE
  5
15
330
5
100
AcDbSymbolTableRecord
100
AcDbLinetypeTableRecord
  2
BYLAYER
 70
     0
  3

 72
    65
 73
     0
 40
0.0
  0
LTYPE
  5
16
330
5
100
AcDbSymbolTableRecord
100
AcDbLinetypeTableRecord
  2
CONTINUOUS
 70
     0
  3
Solid line
 72
    65
 73
     0
 40
0.0
  0
ENDTAB
  0
TABLE
  2
LAYER
  5
2
100
AcDbSymbolTable
 70
1
  0
LAYER
  5
50
100
AcDbSymbolTableRecord
100
AcDbLayerTableRecord
  2
0
 70
0
  6
CONTINUOUS
  0
ENDTAB
  0
TABLE
  2
STYLE
  5
3
330
0
100
AcDbSymbolTable
 70
     1
  0
STYLE
  5
11
330
3
100
AcDbSymbolTableRecord
100
AcDbTextStyleTableRecord
  2
STANDARD
 70
     0
 40
0.0
 41
1.0
 50
0.0
 71
     0
 42
2.5
  3
txt
  4

  0
ENDTAB
  0
TABLE
  2
VIEW
  5
6
330
0
100
AcDbSymbolTable
 70
     0
  0
ENDTAB
  0
TABLE
  2
UCS
  5
7
330
0
100
AcDbSymbolTable
 70
     0
  0
ENDTAB
  0
TABLE
  2
APPID
  5
9
330
0
100
AcDbSymbolTable
 70
     2
  0
APPID
  5
12
330
9
100
AcDbSymbolTableRecord
100
AcDbRegAppTableRecord
  2
ACAD
 70
     0
  0
ENDTAB
  0
TABLE
  2
DIMSTYLE
  5
A
330
0
100
AcDbSymbolTable
 70
     1
  0
DIMSTYLE
105
27
330
A
100
AcDbSymbolTableRecord
100
AcDbDimStyleTableRecord
  2
ISO-25
 70
     0
  3

  4

  5

  6

  7

 40
1.0
 41
2.5
 42
0.625
 43
3.75
 44
1.25
 45
0.0
 46
0.0
 47
0.0
 48
0.0
140
2.5
141
2.5
142
0.0
143
0.03937007874016
144
1.0
145
0.0
146
1.0
147
0.625
 71
     0
 72
     0
 73
     0
 74
     0
 75
     0
 76
     0
 77
     1
 78
     8
170
     0
171
     3
172
     1
173
     0
174
     0
175
     0
176
     0
177
     0
178
     0
270
     2
271
     2
272
     2
273
     2
274
     3
340
11
275
     0
280
     0
281
     0
282
     0
283
     0
284
     8
285
     0
286
     0
287
     3
288
     0
  0
ENDTAB
  0
TABLE
  2
BLOCK_RECORD
  5
1
330
0
100
AcDbSymbolTable
 70
     1
  0
BLOCK_RECORD
  5
1F
330
1
100
AcDbSymbolTableRecord
100
AcDbBlockTableRecord
  2
*MODEL_SPACE
  0
BLOCK_RECORD
  5
1B
330
1
100
AcDbSymbolTableRecord
100
AcDbBlockTableRecord
  2
*PAPER_SPACE
  0
ENDTAB
  0
ENDSEC
  0
SECTION
  2
BLOCKS
  0
BLOCK
  5
20
330
1F
100
AcDbEntity
  8
0
100
AcDbBlockBegin
  2
*MODEL_SPACE
 70
     0
 10
0.0
 20
0.0
 30
0.0
  3
*MODEL_SPACE
  1

  0
ENDBLK
  5
21
330
1F
100
AcDbEntity
  8
0
100
AcDbBlockEnd
  0
BLOCK
  5
1C
330
1B
100
AcDbEntity
 67
     1
  8
0
100
AcDbBlockBegin
  2
*PAPER_SPACE
  1

  0
ENDBLK
  5
1D
330
1B
100
AcDbEntity
 67
     1
  8
0
100
AcDbBlockEnd
  0
ENDSEC
  0
SECTION
  2
ENTITIES
  0
LINE
  5
100
100
AcDbEntity
  8
0
 62
7
100
AcDbLine
 10
238.826728
 20
86.541945
 30
0.0
 11
248.826726
 21
103.541954
 31
0.0
  0
LINE
  5
101
100
AcDbEntity
  8
0
 62
7
100
AcDbLine
 10
53.826728
 20
86.541945
 30
0.0
 11
238.826728
 21
86.541945
 31
0.0
  0
LINE
  5
102
100
AcDbEntity
  8
0
 62
7
100
AcDbLine
 10
43.826729
 20
103.541954
 30
0.0
 11
53.826728
 21
86.541945
 31
0.0
  0
LINE
  5
103
100
AcDbEntity
  8
0
 62
7
100
AcDbLine
 10
43.826729
 20
129.541949
 30
0.0
 11
43.826729
 21
103.541954
 31
0.0
  0
LINE
  5
104
100
AcDbEntity
  8
0
 62
7
100
AcDbLine
 10
51.326727
 20
136.541951
 30
0.0
 11
43.826729
 21
129.541949
 31
0.0
  0
LINE
  5
105
100
AcDbEntity
  8
0
 62
7
100
AcDbLine
 10
82.326729
 20
136.541951
 30
0.0
 11
51.326727
 21
136.541951
 31
0.0
  0
LINE
  5
106
100
AcDbEntity
  8
0
 62
7
100
AcDbLine
 10
94.326729
 20
125.041942
 30
0.0
 11
82.326729
 21
136.541951
 31
0.0
  0
LINE
  5
107
100
AcDbEntity
  8
0
 62
7
100
AcDbLine
 10
198.326727
 20
125.041942
 30
0.0
 11
94.326729
 21
125.041942
 31
0.0
  0
LINE
  5
108
100
AcDbEntity
  8
0
 62
7
100
AcDbLine
 10
210.326727
 20
136.541951
 30
0.0
 11
198.326727
 21
125.041942
 31
0.0
  0
LINE
  5
109
100
AcDbEntity
  8
0
 62
7
100
AcDbLine
 10
241.326728
 20
136.541951
 30
0.0
 11
210.326727
 21
136.541951
 31
0.0
  0
LINE
  5
10a
100
AcDbEntity
  8
0
 62
7
100
AcDbLine
 10
248.826726
 20
129.541949
 30
0.0
 11
241.326728
 21
136.541951
 31
0.0
  0
LINE
  5
10b
100
AcDbEntity
  8
0
 62
7
100
AcDbLine
 10
248.826726
 20
103.541954
 30
0.0
 11
248.826726
 21
129.541949
 31
0.0
  0
LINE
  5
10c
100
AcDbEntity
  8
0
 62
7
100
AcDbLine
 10
242.665427
 20
124.155668
 30
0.0
 11
242.154228
 21
124.264358
 31
0.0
  0
LINE
  5
10d
100
AcDbEntity
  8
0
 62
7
100
AcDbLine
 10
242.154228
 20
124.264358
 30
0.0
 11
241.676727
 21
124.476845
 31
0.0
  0
LINE
  5
10e
100
AcDbEntity
  8
0
 62
7
100
AcDbLine
 10
241.676727
 20
124.476845
 30
0.0
 11
241.253928
 21
124.784053
 31
0.0
  0
LINE
  5
10f
100
AcDbEntity
  8
0
 62
7
100
AcDbLine
 10
241.253928
 20
124.784053
 30
0.0
 11
240.904228
 21
125.172461
 31
0.0
  0
LINE
  5
110
100
AcDbEntity
  8
0
 62
7
100
AcDbLine
 10
240.904228
 20
125.172461
 30
0.0
 11
240.642828
 21
125.625163
 31
0.0
  0
LINE
  5
111
100
AcDbEntity
  8
0
 62
7
100
AcDbLine
 10
240.642828
 20
125.625163
 30
0.0
 11
240.481329
 21
126.122157
 31
0.0
  0
LINE
  5
112
100
AcDbEntity
  8
0
 62
7
100
AcDbLine
 10
240.481329
 20
126.122157
 30
0.0
 11
240.426727
 21
126.641957
 31
0.0
  0
LINE
  5
113
100
AcDbEntity
  8
0
 62
7
100
AcDbLine
 10
240.426727
 20
126.641957
 30
0.0
 11
240.481329
 21
127.161731
 31
0.0
  0
LINE
  5
114
100
AcDbEntity
  8
0
 62
7
100
AcDbLine
 10
240.481329
 20
127.161731
 30
0.0
 11
240.642828
 21
127.658804
 31
0.0
  0
LINE
  5
115
100
AcDbEntity
  8
0
 62
7
100
AcDbLine
 10
240.642828
 20
127.658804
 30
0.0
 11
240.904228
 21
128.111427
 31
0.0
  0
LINE
  5
116
100
AcDbEntity
  8
0
 62
7
100
AcDbLine
 10
240.904228
 20
128.111427
 30
0.0
 11
241.253928
 21
128.499835
 31
0.0
  0
LINE
  5
117
100
AcDbEntity
  8
0
 62
7
100
AcDbLine
 10
241.253928
 20
128.499835
 30
0.0
 11
241.676727
 21
128.807043
 31
0.0
  0
LINE
  5
118
100
AcDbEntity
  8
0
 62
7
100
AcDbLine
 10
241.676727
 20
128.807043
 30
0.0
 11
242.154228
 21
129.019609
 31
0.0
  0
LINE
  5
119
100
AcDbEntity
  8
0
 62
7
100
AcDbLine
 10
242.154228
 20
129.019609
 30
0.0
 11
242.665427
 21
129.128273
 31
0.0
  0
LINE
  5
11a
100
AcDbEntity
  8
0
 62
7
100
AcDbLine
 10
242.665427
 20
129.128273
 30
0.0
 11
243.188027
 21
129.128273
 31
0.0
  0
LINE
  5
11b
100
AcDbEntity
  8
0
 62
7
100
AcDbLine
 10
243.188027
 20
129.128273
 30
0.0
 11
243.699228
 21
129.019609
 31
0.0
  0
LINE
  5
11c
100
AcDbEntity
  8
0
 62
7
100
AcDbLine
 10
243.699228
 20
129.019609
 30
0.0
 11
244.176727
 21
128.807043
 31
0.0
  0
LINE
  5
11d
100
AcDbEntity
  8
0
 62
7
100
AcDbLine
 10
244.176727
 20
128.807043
 30
0.0
 11
244.599529
 21
128.499835
 31
0.0
  0
LINE
  5
11e
100
AcDbEntity
  8
0
 62
7
100
AcDbLine
 10
244.599529
 20
128.499835
 30
0.0
 11
244.949229
 21
128.111427
 31
0.0
  0
LINE
  5
11f
100
AcDbEntity
  8
0
 62
7
100
AcDbLine
 10
244.949229
 20
128.111427
 30
0.0
 11
245.210626
 21
127.658804
 31
0.0
  0
LINE
  5
120
100
AcDbEntity
  8
0
 62
7
100
AcDbLine
 10
245.210626
 20
127.658804
 30
0.0
 11
245.372128
 21
127.161731
 31
0.0
  0
LINE
  5
121
100
AcDbEntity
  8
0
 62
7
100
AcDbLine
 10
245.372128
 20
127.161731
 30
0.0
 11
245.426727
 21
126.641957
 31
0.0
  0
LINE
  5
122
100
AcDbEntity
  8
0
 62
7
100
AcDbLine
 10
245.426727
 20
126.641957
 30
0.0
 11
245.372128
 21
126.122157
 31
0.0
  0
LINE
  5
123
100
AcDbEntity
  8
0
 62
7
100
AcDbLine
 10
245.372128
 20
126.122157
 30
0.0
 11
245.210626
 21
125.625163
 31
0.0
  0
LINE
  5
124
100
AcDbEntity
  8
0
 62
7
100
AcDbLine
 10
245.210626
 20
125.625163
 30
0.0
 11
244.949229
 21
125.172461
 31
0.0
  0
LINE
  5
125
100
AcDbEntity
  8
0
 62
7
100
AcDbLine
 10
244.949229
 20
125.172461
 30
0.0
 11
244.599529
 21
124.784053
 31
0.0
  0
LINE
  5
126
100
AcDbEntity
  8
0
 62
7
100
AcDbLine
 10
244.599529
 20
124.784053
 30
0.0
 11
244.176727
 21
124.476845
 31
0.0
  0
LINE
  5
127
100
AcDbEntity
  8
0
 62
7
100
AcDbLine
 10
244.176727
 20
124.476845
 30
0.0
 11
243.699228
 21
124.264358
 31
0.0
  0
LINE
  5
128
100
AcDbEntity
  8
0
 62
7
100
AcDbLine
 10
243.699228
 20
124.264358
 30
0.0
 11
243.188027
 21
124.155668
 31
0.0
  0
LINE
  5
129
100
AcDbEntity
  8
0
 62
7
100
AcDbLine
 10
243.188027
 20
124.155668
 30
0.0
 11
242.665427
 21
124.155668
 31
0.0
  0
LINE
  5
12a
100
AcDbEntity
  8
0
 62
7
100
AcDbLine
 10
219.465427
 20
124.155668
 30
0.0
 11
218.954228
 21
124.264358
 31
0.0
  0
LINE
  5
12b
100
AcDbEntity
  8
0
 62
7
100
AcDbLine
 10
218.954228
 20
124.264358
 30
0.0
 11
218.476727
 21
124.476845
 31
0.0
  0
LINE
  5
12c
100
AcDbEntity
  8
0
 62
7
100
AcDbLine
 10
218.476727
 20
124.476845
 30
0.0
 11
218.053928
 21
124.784053
 31
0.0
  0
LINE
  5
12d
100
AcDbEntity
  8
0
 62
7
100
AcDbLine
 10
218.053928
 20
124.784053
 30
0.0
 11
217.704228
 21
125.172461
 31
0.0
  0
LINE
  5
12e
100
AcDbEntity
  8
0
 62
7
100
AcDbLine
 10
217.704228
 20
125.172461
 30
0.0
 11
217.442828
 21
125.625163
 31
0.0
  0
LINE
  5
12f
100
AcDbEntity
  8
0
 62
7
100
AcDbLine
 10
217.442828
 20
125.625163
 30
0.0
 11
217.281329
 21
126.122157
 31
0.0
  0
LINE
  5
130
100
AcDbEntity
  8
0
 62
7
100
AcDbLine
 10
217.281329
 20
126.122157
 30
0.0
 11
217.226727
 21
126.641957
 31
0.0
  0
LINE
  5
131
100
AcDbEntity
  8
0
 62
7
100
AcDbLine
 10
217.226727
 20
126.641957
 30
0.0
 11
217.281329
 21
127.161731
 31
0.0
  0
LINE
  5
132
100
AcDbEntity
  8
0
 62
7
100
AcDbLine
 10
217.281329
 20
127.161731
 30
0.0
 11
217.442828
 21
127.658804
 31
0.0
  0
LINE
  5
133
100
AcDbEntity
  8
0
 62
7
100
AcDbLine
 10
217.442828
 20
127.658804
 30
0.0
 11
217.704228
 21
128.111427
 31
0.0
  0
LINE
  5
134
100
AcDbEntity
  8
0
 62
7
100
AcDbLine
 10
217.704228
 20
128.111427
 30
0.0
 11
218.053928
 21
128.499835
 31
0.0
  0
LINE
  5
135
100
AcDbEntity
  8
0
 62
7
100
AcDbLine
 10
218.053928
 20
128.499835
 30
0.0
 11
218.476727
 21
128.807043
 31
0.0
  0
LINE
  5
136
100
AcDbEntity
  8
0
 62
7
100
AcDbLine
 10
218.476727
 20
128.807043
 30
0.0
 11
218.954228
 21
129.019609
 31
0.0
  0
LINE
  5
137
100
AcDbEntity
  8
0
 62
7
100
AcDbLine
 10
218.954228
 20
129.019609
 30
0.0
 11
219.465427
 21
129.128273
 31
0.0
  0
LINE
  5
138
100
AcDbEntity
  8
0
 62
7
100
AcDbLine
 10
219.465427
 20
129.128273
 30
0.0
 11
219.988027
 21
129.128273
 31
0.0
  0
LINE
  5
139
100
AcDbEntity
  8
0
 62
7
100
AcDbLine
 10
219.988027
 20
129.128273
 30
0.0
 11
220.499228
 21
129.019609
 31
0.0
  0
LINE
  5
13a
100
AcDbEntity
  8
0
 62
7
100
AcDbLine
 10
220.499228
 20
129.019609
 30
0.0
 11
220.976727
 21
128.807043
 31
0.0
  0
LINE
  5
13b
100
AcDbEntity
  8
0
 62
7
100
AcDbLine
 10
220.976727
 20
128.807043
 30
0.0
 11
221.399529
 21
128.499835
 31
0.0
  0
LINE
  5
13c
100
AcDbEntity
  8
0
 62
7
100
AcDbLine
 10
221.399529
 20
128.499835
 30
0.0
 11
221.749228
 21
128.111427
 31
0.0
  0
LINE
  5
13d
100
AcDbEntity
  8
0
 62
7
100
AcDbLine
 10
221.749228
 20
128.111427
 30
0.0
 11
222.010629
 21
127.658804
 31
0.0
  0
LINE
  5
13e
100
AcDbEntity
  8
0
 62
7
100
AcDbLine
 10
222.010629
 20
127.658804
 30
0.0
 11
222.172128
 21
127.161731
 31
0.0
  0
LINE
  5
13f
100
AcDbEntity
  8
0
 62
7
100
AcDbLine
 10
222.172128
 20
127.161731
 30
0.0
 11
222.226727
 21
126.641957
 31
0.0
  0
LINE
  5
140
100
AcDbEntity
  8
0
 62
7
100
AcDbLine
 10
222.226727
 20
126.641957
 30
0.0
 11
222.172128
 21
126.122157
 31
0.0
  0
LINE
  5
141
100
AcDbEntity
  8
0
 62
7
100
AcDbLine
 10
222.172128
 20
126.122157
 30
0.0
 11
222.010629
 21
125.625163
 31
0.0
  0
LINE
  5
142
100
AcDbEntity
  8
0
 62
7
100
AcDbLine
 10
222.010629
 20
125.625163
 30
0.0
 11
221.749228
 21
125.172461
 31
0.0
  0
LINE
  5
143
100
AcDbEntity
  8
0
 62
7
100
AcDbLine
 10
221.749228
 20
125.172461
 30
0.0
 11
221.399529
 21
124.784053
 31
0.0
  0
LINE
  5
144
100
AcDbEntity
  8
0
 62
7
100
AcDbLine
 10
221.399529
 20
124.784053
 30
0.0
 11
220.976727
 21
124.476845
 31
0.0
  0
LINE
  5
145
100
AcDbEntity
  8
0
 62
7
100
AcDbLine
 10
220.976727
 20
124.476845
 30
0.0
 11
220.499228
 21
124.264358
 31
0.0
  0
LINE
  5
146
100
AcDbEntity
  8
0
 62
7
100
AcDbLine
 10
220.499228
 20
124.264358
 30
0.0
 11
219.988027
 21
124.155668
 31
0.0
  0
LINE
  5
147
100
AcDbEntity
  8
0
 62
7
100
AcDbLine
 10
219.988027
 20
124.155668
 30
0.0
 11
219.465427
 21
124.155668
 31
0.0
  0
LINE
  5
148
100
AcDbEntity
  8
0
 62
7
100
AcDbLine
 10
49.465428
 20
124.155668
 30
0.0
 11
48.954227
 21
124.264358
 31
0.0
  0
LINE
  5
149
100
AcDbEntity
  8
0
 62
7
100
AcDbLine
 10
48.954227
 20
124.264358
 30
0.0
 11
48.476728
 21
124.476845
 31
0.0
  0
LINE
  5
14a
100
AcDbEntity
  8
0
 62
7
100
AcDbLine
 10
48.476728
 20
124.476845
 30
0.0
 11
48.053927
 21
124.784053
 31
0.0
  0
LINE
  5
14b
100
AcDbEntity
  8
0
 62
7
100
AcDbLine
 10
48.053927
 20
124.784053
 30
0.0
 11
47.704227
 21
125.172461
 31
0.0
  0
LINE
  5
14c
100
AcDbEntity
  8
0
 62
7
100
AcDbLine
 10
47.704227
 20
125.172461
 30
0.0
 11
47.442829
 21
125.625163
 31
0.0
  0
LINE
  5
14d
100
AcDbEntity
  8
0
 62
7
100
AcDbLine
 10
47.442829
 20
125.625163
 30
0.0
 11
47.281327
 21
126.122157
 31
0.0
  0
LINE
  5
14e
100
AcDbEntity
  8
0
 62
7
100
AcDbLine
 10
47.281327
 20
126.122157
 30
0.0
 11
47.226728
 21
126.641957
 31
0.0
  0
LINE
  5
14f
100
AcDbEntity
  8
0
 62
7
100
AcDbLine
 10
47.226728
 20
126.641957
 30
0.0
 11
47.281327
 21
127.161731
 31
0.0
  0
LINE
  5
150
100
AcDbEntity
  8
0
 62
7
100
AcDbLine
 10
47.281327
 20
127.161731
 30
0.0
 11
47.442829
 21
127.658804
 31
0.0
  0
LINE
  5
151
100
AcDbEntity
  8
0
 62
7
100
AcDbLine
 10
47.442829
 20
127.658804
 30
0.0
 11
47.704227
 21
128.111427
 31
0.0
  0
LINE
  5
152
100
AcDbEntity
  8
0
 62
7
100
AcDbLine
 10
47.704227
 20
128.111427
 30
0.0
 11
48.053927
 21
128.499835
 31
0.0
  0
LINE
  5
153
100
AcDbEntity
  8
0
 62
7
100
AcDbLine
 10
48.053927
 20
128.499835
 30
0.0
 11
48.476728
 21
128.807043
 31
0.0
  0
LINE
  5
154
100
AcDbEntity
  8
0
 62
7
100
AcDbLine
 10
48.476728
 20
128.807043
 30
0.0
 11
48.954227
 21
129.019609
 31
0.0
  0
LINE
  5
155
100
AcDbEntity
  8
0
 62
7
100
AcDbLine
 10
48.954227
 20
129.019609
 30
0.0
 11
49.465428
 21
129.128273
 31
0.0
  0
LINE
  5
156
100
AcDbEntity
  8
0
 62
7
100
AcDbLine
 10
49.465428
 20
129.128273
 30
0.0
 11
49.988028
 21
129.128273
 31
0.0
  0
LINE
  5
157
100
AcDbEntity
  8
0
 62
7
100
AcDbLine
 10
49.988028
 20
129.128273
 30
0.0
 11
50.499227
 21
129.019609
 31
0.0
  0
LINE
  5
158
100
AcDbEntity
  8
0
 62
7
100
AcDbLine
 10
50.499227
 20
129.019609
 30
0.0
 11
50.976728
 21
128.807043
 31
0.0
  0
LINE
  5
159
100
AcDbEntity
  8
0
 62
7
100
AcDbLine
 10
50.976728
 20
128.807043
 30
0.0
 11
51.399527
 21
128.499835
 31
0.0
  0
LINE
  5
15a
100
AcDbEntity
  8
0
 62
7
100
AcDbLine
 10
51.399527
 20
128.499835
 30
0.0
 11
51.749227
 21
128.111427
 31
0.0
  0
LINE
  5
15b
100
AcDbEntity
  8
0
 62
7
100
AcDbLine
 10
51.749227
 20
128.111427
 30
0.0
 11
52.010628
 21
127.658804
 31
0.0
  0
LINE
  5
15c
100
AcDbEntity
  8
0
 62
7
100
AcDbLine
 10
52.010628
 20
127.658804
 30
0.0
 11
52.172127
 21
127.161731
 31
0.0
  0
LINE
  5
15d
100
AcDbEntity
  8
0
 62
7
100
AcDbLine
 10
52.172127
 20
127.161731
 30
0.0
 11
52.226729
 21
126.641957
 31
0.0
  0
LINE
  5
15e
100
AcDbEntity
  8
0
 62
7
100
AcDbLine
 10
52.226729
 20
126.641957
 30
0.0
 11
52.172127
 21
126.122157
 31
0.0
  0
LINE
  5
15f
100
AcDbEntity
  8
0
 62
7
100
AcDbLine
 10
52.172127
 20
126.122157
 30
0.0
 11
52.010628
 21
125.625163
 31
0.0
  0
LINE
  5
160
100
AcDbEntity
  8
0
 62
7
100
AcDbLine
 10
52.010628
 20
125.625163
 30
0.0
 11
51.749227
 21
125.172461
 31
0.0
  0
LINE
  5
161
100
AcDbEntity
  8
0
 62
7
100
AcDbLine
 10
51.749227
 20
125.172461
 30
0.0
 11
51.399527
 21
124.784053
 31
0.0
  0
LINE
  5
162
100
AcDbEntity
  8
0
 62
7
100
AcDbLine
 10
51.399527
 20
124.784053
 30
0.0
 11
50.976728
 21
124.476845
 31
0.0
  0
LINE
  5
163
100
AcDbEntity
  8
0
 62
7
100
AcDbLine
 10
50.976728
 20
124.476845
 30
0.0
 11
50.499227
 21
124.264358
 31
0.0
  0
LINE
  5
164
100
AcDbEntity
  8
0
 62
7
100
AcDbLine
 10
50.499227
 20
124.264358
 30
0.0
 11
49.988028
 21
124.155668
 31
0.0
  0
LINE
  5
165
100
AcDbEntity
  8
0
 62
7
100
AcDbLine
 10
49.988028
 20
124.155668
 30
0.0
 11
49.465428
 21
124.155668
 31
0.0
  0
LINE
  5
166
100
AcDbEntity
  8
0
 62
7
100
AcDbLine
 10
72.665429
 20
124.155668
 30
0.0
 11
72.154227
 21
124.264358
 31
0.0
  0
LINE
  5
167
100
AcDbEntity
  8
0
 62
7
100
AcDbLine
 10
72.154227
 20
124.264358
 30
0.0
 11
71.676728
 21
124.476845
 31
0.0
  0
LINE
  5
168
100
AcDbEntity
  8
0
 62
7
100
AcDbLine
 10
71.676728
 20
124.476845
 30
0.0
 11
71.253927
 21
124.784053
 31
0.0
  0
LINE
  5
169
100
AcDbEntity
  8
0
 62
7
100
AcDbLine
 10
71.253927
 20
124.784053
 30
0.0
 11
70.904227
 21
125.172461
 31
0.0
  0
LINE
  5
16a
100
AcDbEntity
  8
0
 62
7
100
AcDbLine
 10
70.904227
 20
125.172461
 30
0.0
 11
70.642827
 21
125.625163
 31
0.0
  0
LINE
  5
16b
100
AcDbEntity
  8
0
 62
7
100
AcDbLine
 10
70.642827
 20
125.625163
 30
0.0
 11
70.481328
 21
126.122157
 31
0.0
  0
LINE
  5
16c
100
AcDbEntity
  8
0
 62
7
100
AcDbLine
 10
70.481328
 20
126.122157
 30
0.0
 11
70.426728
 21
126.641957
 31
0.0
  0
LINE
  5
16d
100
AcDbEntity
  8
0
 62
7
100
AcDbLine
 10
70.426728
 20
126.641957
 30
0.0
 11
70.481328
 21
127.161731
 31
0.0
  0
LINE
  5
16e
100
AcDbEntity
  8
0
 62
7
100
AcDbLine
 10
70.481328
 20
127.161731
 30
0.0
 11
70.642827
 21
127.658804
 31
0.0
  0
LINE
  5
16f
100
AcDbEntity
  8
0
 62
7
100
AcDbLine
 10
70.642827
 20
127.658804
 30
0.0
 11
70.904227
 21
128.111427
 31
0.0
  0
LINE
  5
170
100
AcDbEntity
  8
0
 62
7
100
AcDbLine
 10
70.904227
 20
128.111427
 30
0.0
 11
71.253927
 21
128.499835
 31
0.0
  0
LINE
  5
171
100
AcDbEntity
  8
0
 62
7
100
AcDbLine
 10
71.253927
 20
128.499835
 30
0.0
 11
71.676728
 21
128.807043
 31
0.0
  0
LINE
  5
172
100
AcDbEntity
  8
0
 62
7
100
AcDbLine
 10
71.676728
 20
128.807043
 30
0.0
 11
72.154227
 21
129.019609
 31
0.0
  0
LINE
  5
173
100
AcDbEntity
  8
0
 62
7
100
AcDbLine
 10
72.154227
 20
129.019609
 30
0.0
 11
72.665429
 21
129.128273
 31
0.0
  0
LINE
  5
174
100
AcDbEntity
  8
0
 62
7
100
AcDbLine
 10
72.665429
 20
129.128273
 30
0.0
 11
73.188028
 21
129.128273
 31
0.0
  0
LINE
  5
175
100
AcDbEntity
  8
0
 62
7
100
AcDbLine
 10
73.188028
 20
129.128273
 30
0.0
 11
73.699227
 21
129.019609
 31
0.0
  0
LINE
  5
176
100
AcDbEntity
  8
0
 62
7
100
AcDbLine
 10
73.699227
 20
129.019609
 30
0.0
 11
74.176729
 21
128.807043
 31
0.0
  0
LINE
  5
177
100
AcDbEntity
  8
0
 62
7
100
AcDbLine
 10
74.176729
 20
128.807043
 30
0.0
 11
74.599527
 21
128.499835
 31
0.0
  0
LINE
  5
178
100
AcDbEntity
  8
0
 62
7
100
AcDbLine
 10
74.599527
 20
128.499835
 30
0.0
 11
74.949227
 21
128.111427
 31
0.0
  0
LINE
  5
179
100
AcDbEntity
  8
0
 62
7
100
AcDbLine
 10
74.949227
 20
128.111427
 30
0.0
 11
75.210628
 21
127.658804
 31
0.0
  0
LINE
  5
17a
100
AcDbEntity
  8
0
 62
7
100
AcDbLine
 10
75.210628
 20
127.658804
 30
0.0
 11
75.372127
 21
127.161731
 31
0.0
  0
LINE
  5
17b
100
AcDbEntity
  8
0
 62
7
100
AcDbLine
 10
75.372127
 20
127.161731
 30
0.0
 11
75.426729
 21
126.641957
 31
0.0
  0
LINE
  5
17c
100
AcDbEntity
  8
0
 62
7
100
AcDbLine
 10
75.426729
 20
126.641957
 30
0.0
 11
75.372127
 21
126.122157
 31
0.0
  0
LINE
  5
17d
100
AcDbEntity
  8
0
 62
7
100
AcDbLine
 10
75.372127
 20
126.122157
 30
0.0
 11
75.210628
 21
125.625163
 31
0.0
  0
LINE
  5
17e
100
AcDbEntity
  8
0
 62
7
100
AcDbLine
 10
75.210628
 20
125.625163
 30
0.0
 11
74.949227
 21
125.172461
 31
0.0
  0
LINE
  5
17f
100
AcDbEntity
  8
0
 62
7
100
AcDbLine
 10
74.949227
 20
125.172461
 30
0.0
 11
74.599527
 21
124.784053
 31
0.0
  0
LINE
  5
180
100
AcDbEntity
  8
0
 62
7
100
AcDbLine
 10
74.599527
 20
124.784053
 30
0.0
 11
74.176729
 21
124.476845
 31
0.0
  0
LINE
  5
181
100
AcDbEntity
  8
0
 62
7
100
AcDbLine
 10
74.176729
 20
124.476845
 30
0.0
 11
73.699227
 21
124.264358
 31
0.0
  0
LINE
  5
182
100
AcDbEntity
  8
0
 62
7
100
AcDbLine
 10
73.699227
 20
124.264358
 30
0.0
 11
73.188028
 21
124.155668
 31
0.0
  0
LINE
  5
183
100
AcDbEntity
  8
0
 62
7
100
AcDbLine
 10
73.188028
 20
124.155668
 30
0.0
 11
72.665429
 21
124.155668
 31
0.0
  0
LINE
  5
184
100
AcDbEntity
  8
0
 62
7
100
AcDbLine
 10
146.169944
 20
115.050165
 30
0.0
 11
145.863209
 21
115.115358
 31
0.0
  0
LINE
  5
185
100
AcDbEntity
  8
0
 62
7
100
AcDbLine
 10
145.863209
 20
115.115358
 30
0.0
 11
145.576727
 21
115.242966
 31
0.0
  0
LINE
  5
186
100
AcDbEntity
  8
0
 62
7
100
AcDbLine
 10
145.576727
 20
115.242966
 30
0.0
 11
145.323036
 21
115.427249
 31
0.0
  0
LINE
  5
187
100
AcDbEntity
  8
0
 62
7
100
AcDbLine
 10
145.323036
 20
115.427249
 30
0.0
 11
145.113206
 21
115.660267
 31
0.0
  0
LINE
  5
188
100
AcDbEntity
  8
0
 62
7
100
AcDbLine
 10
145.113206
 20
115.660267
 30
0.0
 11
144.956406
 21
115.931862
 31
0.0
  0
LINE
  5
189
100
AcDbEntity
  8
0
 62
7
100
AcDbLine
 10
144.956406
 20
115.931862
 30
0.0
 11
144.859515
 21
116.230047
 31
0.0
  0
LINE
  5
18a
100
AcDbEntity
  8
0
 62
7
100
AcDbLine
 10
144.859515
 20
116.230047
 30
0.0
 11
144.826725
 21
116.541965
 31
0.0
  0
LINE
  5
18b
100
AcDbEntity
  8
0
 62
7
100
AcDbLine
 10
144.826725
 20
116.541965
 30
0.0
 11
144.859515
 21
116.853856
 31
0.0
  0
LINE
  5
18c
100
AcDbEntity
  8
0
 62
7
100
AcDbLine
 10
144.859515
 20
116.853856
 30
0.0
 11
144.956406
 21
117.152067
 31
0.0
  0
LINE
  5
18d
100
AcDbEntity
  8
0
 62
7
100
AcDbLine
 10
144.956406
 20
117.152067
 30
0.0
 11
145.113206
 21
117.423662
 31
0.0
  0
LINE
  5
18e
100
AcDbEntity
  8
0
 62
7
100
AcDbLine
 10
145.113206
 20
117.423662
 30
0.0
 11
145.323036
 21
117.656654
 31
0.0
  0
LINE
  5
18f
100
AcDbEntity
  8
0
 62
7
100
AcDbLine
 10
145.323036
 20
117.656654
 30
0.0
 11
145.576742
 21
117.840963
 31
0.0
  0
LINE
  5
190
100
AcDbEntity
  8
0
 62
7
100
AcDbLine
 10
145.576742
 20
117.840963
 30
0.0
 11
145.863209
 21
117.968545
 31
0.0
  0
LINE
  5
191
100
AcDbEntity
  8
0
 62
7
100
AcDbLine
 10
145.863209
 20
117.968545
 30
0.0
 11
146.169944
 21
118.033765
 31
0.0
  0
LINE
  5
192
100
AcDbEntity
  8
0
 62
7
100
AcDbLine
 10
146.169944
 20
118.033765
 30
0.0
 11
146.483509
 21
118.033765
 31
0.0
  0
LINE
  5
193
100
AcDbEntity
  8
0
 62
7
100
AcDbLine
 10
146.483509
 20
118.033765
 30
0.0
 11
146.790243
 21
117.968545
 31
0.0
  0
LINE
  5
194
100
AcDbEntity
  8
0
 62
7
100
AcDbLine
 10
146.790243
 20
117.968545
 30
0.0
 11
147.076726
 21
117.840963
 31
0.0
  0
LINE
  5
195
100
AcDbEntity
  8
0
 62
7
100
AcDbLine
 10
147.076726
 20
117.840963
 30
0.0
 11
147.330417
 21
117.656654
 31
0.0
  0
LINE
  5
196
100
AcDbEntity
  8
0
 62
7
100
AcDbLine
 10
147.330417
 20
117.656654
 30
0.0
 11
147.540247
 21
117.423662
 31
0.0
  0
LINE
  5
197
100
AcDbEntity
  8
0
 62
7
100
AcDbLine
 10
147.540247
 20
117.423662
 30
0.0
 11
147.697047
 21
117.152067
 31
0.0
  0
LINE
  5
198
100
AcDbEntity
  8
0
 62
7
100
AcDbLine
 10
147.697047
 20
117.152067
 30
0.0
 11
147.793938
 21
116.853856
 31
0.0
  0
LINE
  5
199
100
AcDbEntity
  8
0
 62
7
100
AcDbLine
 10
147.793938
 20
116.853856
 30
0.0
 11
147.826727
 21
116.541965
 31
0.0
  0
LINE
  5
19a
100
AcDbEntity
  8
0
 62
7
100
AcDbLine
 10
147.826727
 20
116.541965
 30
0.0
 11
147.793938
 21
116.230047
 31
0.0
  0
LINE
  5
19b
100
AcDbEntity
  8
0
 62
7
100
AcDbLine
 10
147.793938
 20
116.230047
 30
0.0
 11
147.697047
 21
115.931862
 31
0.0
  0
LINE
  5
19c
100
AcDbEntity
  8
0
 62
7
100
AcDbLine
 10
147.697047
 20
115.931862
 30
0.0
 11
147.540247
 21
115.660267
 31
0.0
  0
LINE
  5
19d
100
AcDbEntity
  8
0
 62
7
100
AcDbLine
 10
147.540247
 20
115.660267
 30
0.0
 11
147.330417
 21
115.427249
 31
0.0
  0
LINE
  5
19e
100
AcDbEntity
  8
0
 62
7
100
AcDbLine
 10
147.330417
 20
115.427249
 30
0.0
 11
147.076726
 21
115.242966
 31
0.0
  0
LINE
  5
19f
100
AcDbEntity
  8
0
 62
7
100
AcDbLine
 10
147.076726
 20
115.242966
 30
0.0
 11
146.790243
 21
115.115358
 31
0.0
  0
LINE
  5
1a0
100
AcDbEntity
  8
0
 62
7
100
AcDbLine
 10
146.790243
 20
115.115358
 30
0.0
 11
146.483509
 21
115.050165
 31
0.0
  0
LINE
  5
1a1
100
AcDbEntity
  8
0
 62
7
100
AcDbLine
 10
146.483509
 20
115.050165
 30
0.0
 11
146.169944
 21
115.050165
 31
0.0
  0
LINE
  5
1a2
100
AcDbEntity
  8
0
 62
7
100
AcDbLine
 10
86.154228
 20
113.900947
 30
0.0
 11
85.816829
 21
113.972755
 31
0.0
  0
LINE
  5
1a3
100
AcDbEntity
  8
0
 62
7
100
AcDbLine
 10
85.816829
 20
113.972755
 30
0.0
 11
85.501729
 21
114.113063
 31
0.0
  0
LINE
  5
1a4
100
AcDbEntity
  8
0
 62
7
100
AcDbLine
 10
85.501729
 20
114.113063
 30
0.0
 11
85.222628
 21
114.315761
 31
0.0
  0
LINE
  5
1a5
100
AcDbEntity
  8
0
 62
7
100
AcDbLine
 10
85.222628
 20
114.315761
 30
0.0
 11
84.991829
 21
114.572142
 31
0.0
  0
LINE
  5
1a6
100
AcDbEntity
  8
0
 62
7
100
AcDbLine
 10
84.991829
 20
114.572142
 30
0.0
 11
84.819429
 21
114.870856
 31
0.0
  0
LINE
  5
1a7
100
AcDbEntity
  8
0
 62
7
100
AcDbLine
 10
84.819429
 20
114.870856
 30
0.0
 11
84.712829
 21
115.198966
 31
0.0
  0
LINE
  5
1a8
100
AcDbEntity
  8
0
 62
7
100
AcDbLine
 10
84.712829
 20
115.198966
 30
0.0
 11
84.676729
 21
115.541946
 31
0.0
  0
LINE
  5
1a9
100
AcDbEntity
  8
0
 62
7
100
AcDbLine
 10
84.676729
 20
115.541946
 30
0.0
 11
84.712829
 21
115.885057
 31
0.0
  0
LINE
  5
1aa
100
AcDbEntity
  8
0
 62
7
100
AcDbLine
 10
84.712829
 20
115.885057
 30
0.0
 11
84.819429
 21
116.213061
 31
0.0
  0
LINE
  5
1ab
100
AcDbEntity
  8
0
 62
7
100
AcDbLine
 10
84.819429
 20
116.213061
 30
0.0
 11
84.991829
 21
116.511749
 31
0.0
  0
LINE
  5
1ac
100
AcDbEntity
  8
0
 62
7
100
AcDbLine
 10
84.991829
 20
116.511749
 30
0.0
 11
85.222628
 21
116.768157
 31
0.0
  0
LINE
  5
1ad
100
AcDbEntity
  8
0
 62
7
100
AcDbLine
 10
85.222628
 20
116.768157
 30
0.0
 11
85.501729
 21
116.970960
 31
0.0
  0
LINE
  5
1ae
100
AcDbEntity
  8
0
 62
7
100
AcDbLine
 10
85.501729
 20
116.970960
 30
0.0
 11
85.816829
 21
117.111163
 31
0.0
  0
LINE
  5
1af
100
AcDbEntity
  8
0
 62
7
100
AcDbLine
 10
85.816829
 20
117.111163
 30
0.0
 11
86.154228
 21
117.182944
 31
0.0
  0
LINE
  5
1b0
100
AcDbEntity
  8
0
 62
7
100
AcDbLine
 10
86.154228
 20
117.182944
 30
0.0
 11
86.499229
 21
117.182944
 31
0.0
  0
LINE
  5
1b1
100
AcDbEntity
  8
0
 62
7
100
AcDbLine
 10
86.499229
 20
117.182944
 30
0.0
 11
86.836628
 21
117.111163
 31
0.0
  0
LINE
  5
1b2
100
AcDbEntity
  8
0
 62
7
100
AcDbLine
 10
86.836628
 20
117.111163
 30
0.0
 11
87.151729
 21
116.970960
 31
0.0
  0
LINE
  5
1b3
100
AcDbEntity
  8
0
 62
7
100
AcDbLine
 10
87.151729
 20
116.970960
 30
0.0
 11
87.430827
 21
116.768157
 31
0.0
  0
LINE
  5
1b4
100
AcDbEntity
  8
0
 62
7
100
AcDbLine
 10
87.430827
 20
116.768157
 30
0.0
 11
87.661628
 21
116.511749
 31
0.0
  0
LINE
  5
1b5
100
AcDbEntity
  8
0
 62
7
100
AcDbLine
 10
87.661628
 20
116.511749
 30
0.0
 11
87.834129
 21
116.213061
 31
0.0
  0
LINE
  5
1b6
100
AcDbEntity
  8
0
 62
7
100
AcDbLine
 10
87.834129
 20
116.213061
 30
0.0
 11
87.940727
 21
115.885057
 31
0.0
  0
LINE
  5
1b7
100
AcDbEntity
  8
0
 62
7
100
AcDbLine
 10
87.940727
 20
115.885057
 30
0.0
 11
87.976729
 21
115.541946
 31
0.0
  0
LINE
  5
1b8
100
AcDbEntity
  8
0
 62
7
100
AcDbLine
 10
87.976729
 20
115.541946
 30
0.0
 11
87.940727
 21
115.198966
 31
0.0
  0
LINE
  5
1b9
100
AcDbEntity
  8
0
 62
7
100
AcDbLine
 10
87.940727
 20
115.198966
 30
0.0
 11
87.834129
 21
114.870856
 31
0.0
  0
LINE
  5
1ba
100
AcDbEntity
  8
0
 62
7
100
AcDbLine
 10
87.834129
 20
114.870856
 30
0.0
 11
87.661628
 21
114.572142
 31
0.0
  0
LINE
  5
1bb
100
AcDbEntity
  8
0
 62
7
100
AcDbLine
 10
87.661628
 20
114.572142
 30
0.0
 11
87.430827
 21
114.315761
 31
0.0
  0
LINE
  5
1bc
100
AcDbEntity
  8
0
 62
7
100
AcDbLine
 10
87.430827
 20
114.315761
 30
0.0
 11
87.151729
 21
114.113063
 31
0.0
  0
LINE
  5
1bd
100
AcDbEntity
  8
0
 62
7
100
AcDbLine
 10
87.151729
 20
114.113063
 30
0.0
 11
86.836628
 21
113.972755
 31
0.0
  0
LINE
  5
1be
100
AcDbEntity
  8
0
 62
7
100
AcDbLine
 10
86.836628
 20
113.972755
 30
0.0
 11
86.499229
 21
113.900947
 31
0.0
  0
LINE
  5
1bf
100
AcDbEntity
  8
0
 62
7
100
AcDbLine
 10
86.499229
 20
113.900947
 30
0.0
 11
86.154228
 21
113.900947
 31
0.0
  0
LINE
  5
1c0
100
AcDbEntity
  8
0
 62
7
100
AcDbLine
 10
206.154226
 20
113.900947
 30
0.0
 11
205.816827
 21
113.972755
 31
0.0
  0
LINE
  5
1c1
100
AcDbEntity
  8
0
 62
7
100
AcDbLine
 10
205.816827
 20
113.972755
 30
0.0
 11
205.501727
 21
114.113063
 31
0.0
  0
LINE
  5
1c2
100
AcDbEntity
  8
0
 62
7
100
AcDbLine
 10
205.501727
 20
114.113063
 30
0.0
 11
205.222628
 21
114.315761
 31
0.0
  0
LINE
  5
1c3
100
AcDbEntity
  8
0
 62
7
100
AcDbLine
 10
205.222628
 20
114.315761
 30
0.0
 11
204.991827
 21
114.572142
 31
0.0
  0
LINE
  5
1c4
100
AcDbEntity
  8
0
 62
7
100
AcDbLine
 10
204.991827
 20
114.572142
 30
0.0
 11
204.819327
 21
114.870856
 31
0.0
  0
LINE
  5
1c5
100
AcDbEntity
  8
0
 62
7
100
AcDbLine
 10
204.819327
 20
114.870856
 30
0.0
 11
204.712729
 21
115.198966
 31
0.0
  0
LINE
  5
1c6
100
AcDbEntity
  8
0
 62
7
100
AcDbLine
 10
204.712729
 20
115.198966
 30
0.0
 11
204.676727
 21
115.541946
 31
0.0
  0
LINE
  5
1c7
100
AcDbEntity
  8
0
 62
7
100
AcDbLine
 10
204.676727
 20
115.541946
 30
0.0
 11
204.712729
 21
115.885057
 31
0.0
  0
LINE
  5
1c8
100
AcDbEntity
  8
0
 62
7
100
AcDbLine
 10
204.712729
 20
115.885057
 30
0.0
 11
204.819327
 21
116.213061
 31
0.0
  0
LINE
  5
1c9
100
AcDbEntity
  8
0
 62
7
100
AcDbLine
 10
204.819327
 20
116.213061
 30
0.0
 11
204.991827
 21
116.511749
 31
0.0
  0
LINE
  5
1ca
100
AcDbEntity
  8
0
 62
7
100
AcDbLine
 10
204.991827
 20
116.511749
 30
0.0
 11
205.222628
 21
116.768157
 31
0.0
  0
LINE
  5
1cb
100
AcDbEntity
  8
0
 62
7
100
AcDbLine
 10
205.222628
 20
116.768157
 30
0.0
 11
205.501727
 21
116.970960
 31
0.0
  0
LINE
  5
1cc
100
AcDbEntity
  8
0
 62
7
100
AcDbLine
 10
205.501727
 20
116.970960
 30
0.0
 11
205.816827
 21
117.111163
 31
0.0
  0
LINE
  5
1cd
100
AcDbEntity
  8
0
 62
7
100
AcDbLine
 10
205.816827
 20
117.111163
 30
0.0
 11
206.154226
 21
117.182944
 31
0.0
  0
LINE
  5
1ce
100
AcDbEntity
  8
0
 62
7
100
AcDbLine
 10
206.154226
 20
117.182944
 30
0.0
 11
206.499227
 21
117.182944
 31
0.0
  0
LINE
  5
1cf
100
AcDbEntity
  8
0
 62
7
100
AcDbLine
 10
206.499227
 20
117.182944
 30
0.0
 11
206.836626
 21
117.111163
 31
0.0
  0
LINE
  5
1d0
100
AcDbEntity
  8
0
 62
7
100
AcDbLine
 10
206.836626
 20
117.111163
 30
0.0
 11
207.151727
 21
116.970960
 31
0.0
  0
LINE
  5
1d1
100
AcDbEntity
  8
0
 62
7
100
AcDbLine
 10
207.151727
 20
116.970960
 30
0.0
 11
207.430828
 21
116.768157
 31
0.0
  0
LINE
  5
1d2
100
AcDbEntity
  8
0
 62
7
100
AcDbLine
 10
207.430828
 20
116.768157
 30
0.0
 11
207.661626
 21
116.511749
 31
0.0
  0
LINE
  5
1d3
100
AcDbEntity
  8
0
 62
7
100
AcDbLine
 10
207.661626
 20
116.511749
 30
0.0
 11
207.834026
 21
116.213061
 31
0.0
  0
LINE
  5
1d4
100
AcDbEntity
  8
0
 62
7
100
AcDbLine
 10
207.834026
 20
116.213061
 30
0.0
 11
207.940627
 21
115.885057
 31
0.0
  0
LINE
  5
1d5
100
AcDbEntity
  8
0
 62
7
100
AcDbLine
 10
207.940627
 20
115.885057
 30
0.0
 11
207.976727
 21
115.541946
 31
0.0
  0
LINE
  5
1d6
100
AcDbEntity
  8
0
 62
7
100
AcDbLine
 10
207.976727
 20
115.541946
 30
0.0
 11
207.940627
 21
115.198966
 31
0.0
  0
LINE
  5
1d7
100
AcDbEntity
  8
0
 62
7
100
AcDbLine
 10
207.940627
 20
115.198966
 30
0.0
 11
207.834026
 21
114.870856
 31
0.0
  0
LINE
  5
1d8
100
AcDbEntity
  8
0
 62
7
100
AcDbLine
 10
207.834026
 20
114.870856
 30
0.0
 11
207.661626
 21
114.572142
 31
0.0
  0
LINE
  5
1d9
100
AcDbEntity
  8
0
 62
7
100
AcDbLine
 10
207.661626
 20
114.572142
 30
0.0
 11
207.430828
 21
114.315761
 31
0.0
  0
LINE
  5
1da
100
AcDbEntity
  8
0
 62
7
100
AcDbLine
 10
207.430828
 20
114.315761
 30
0.0
 11
207.151727
 21
114.113063
 31
0.0
  0
LINE
  5
1db
100
AcDbEntity
  8
0
 62
7
100
AcDbLine
 10
207.151727
 20
114.113063
 30
0.0
 11
206.836626
 21
113.972755
 31
0.0
  0
LINE
  5
1dc
100
AcDbEntity
  8
0
 62
7
100
AcDbLine
 10
206.836626
 20
113.972755
 30
0.0
 11
206.499227
 21
113.900947
 31
0.0
  0
LINE
  5
1dd
100
AcDbEntity
  8
0
 62
7
100
AcDbLine
 10
206.499227
 20
113.900947
 30
0.0
 11
206.154226
 21
113.900947
 31
0.0
  0
LINE
  5
1de
100
AcDbEntity
  8
0
 62
7
100
AcDbLine
 10
86.154228
 20
102.900948
 30
0.0
 11
85.816829
 21
102.972756
 31
0.0
  0
LINE
  5
1df
100
AcDbEntity
  8
0
 62
7
100
AcDbLine
 10
85.816829
 20
102.972756
 30
0.0
 11
85.501729
 21
103.113064
 31
0.0
  0
LINE
  5
1e0
100
AcDbEntity
  8
0
 62
7
100
AcDbLine
 10
85.501729
 20
103.113064
 30
0.0
 11
85.222628
 21
103.315761
 31
0.0
  0
LINE
  5
1e1
100
AcDbEntity
  8
0
 62
7
100
AcDbLine
 10
85.222628
 20
103.315761
 30
0.0
 11
84.991829
 21
103.572143
 31
0.0
  0
LINE
  5
1e2
100
AcDbEntity
  8
0
 62
7
100
AcDbLine
 10
84.991829
 20
103.572143
 30
0.0
 11
84.819429
 21
103.870857
 31
0.0
  0
LINE
  5
1e3
100
AcDbEntity
  8
0
 62
7
100
AcDbLine
 10
84.819429
 20
103.870857
 30
0.0
 11
84.712829
 21
104.198967
 31
0.0
  0
LINE
  5
1e4
100
AcDbEntity
  8
0
 62
7
100
AcDbLine
 10
84.712829
 20
104.198967
 30
0.0
 11
84.676729
 21
104.541946
 31
0.0
  0
LINE
  5
1e5
100
AcDbEntity
  8
0
 62
7
100
AcDbLine
 10
84.676729
 20
104.541946
 30
0.0
 11
84.712829
 21
104.885058
 31
0.0
  0
LINE
  5
1e6
100
AcDbEntity
  8
0
 62
7
100
AcDbLine
 10
84.712829
 20
104.885058
 30
0.0
 11
84.819429
 21
105.213062
 31
0.0
  0
LINE
  5
1e7
100
AcDbEntity
  8
0
 62
7
100
AcDbLine
 10
84.819429
 20
105.213062
 30
0.0
 11
84.991829
 21
105.511750
 31
0.0
  0
LINE
  5
1e8
100
AcDbEntity
  8
0
 62
7
100
AcDbLine
 10
84.991829
 20
105.511750
 30
0.0
 11
85.222628
 21
105.768158
 31
0.0
  0
LINE
  5
1e9
100
AcDbEntity
  8
0
 62
7
100
AcDbLine
 10
85.222628
 20
105.768158
 30
0.0
 11
85.501729
 21
105.970961
 31
0.0
  0
LINE
  5
1ea
100
AcDbEntity
  8
0
 62
7
100
AcDbLine
 10
85.501729
 20
105.970961
 30
0.0
 11
85.816829
 21
106.111164
 31
0.0
  0
LINE
  5
1eb
100
AcDbEntity
  8
0
 62
7
100
AcDbLine
 10
85.816829
 20
106.111164
 30
0.0
 11
86.154228
 21
106.182945
 31
0.0
  0
LINE
  5
1ec
100
AcDbEntity
  8
0
 62
7
100
AcDbLine
 10
86.154228
 20
106.182945
 30
0.0
 11
86.499229
 21
106.182945
 31
0.0
  0
LINE
  5
1ed
100
AcDbEntity
  8
0
 62
7
100
AcDbLine
 10
86.499229
 20
106.182945
 30
0.0
 11
86.836628
 21
106.111164
 31
0.0
  0
LINE
  5
1ee
100
AcDbEntity
  8
0
 62
7
100
AcDbLine
 10
86.836628
 20
106.111164
 30
0.0
 11
87.151729
 21
105.970961
 31
0.0
  0
LINE
  5
1ef
100
AcDbEntity
  8
0
 62
7
100
AcDbLine
 10
87.151729
 20
105.970961
 30
0.0
 11
87.430827
 21
105.768158
 31
0.0
  0
LINE
  5
1f0
100
AcDbEntity
  8
0
 62
7
100
AcDbLine
 10
87.430827
 20
105.768158
 30
0.0
 11
87.661628
 21
105.511750
 31
0.0
  0
LINE
  5
1f1
100
AcDbEntity
  8
0
 62
7
100
AcDbLine
 10
87.661628
 20
105.511750
 30
0.0
 11
87.834129
 21
105.213062
 31
0.0
  0
LINE
  5
1f2
100
AcDbEntity
  8
0
 62
7
100
AcDbLine
 10
87.834129
 20
105.213062
 30
0.0
 11
87.940727
 21
104.885058
 31
0.0
  0
LINE
  5
1f3
100
AcDbEntity
  8
0
 62
7
100
AcDbLine
 10
87.940727
 20
104.885058
 30
0.0
 11
87.976729
 21
104.541946
 31
0.0
  0
LINE
  5
1f4
100
AcDbEntity
  8
0
 62
7
100
AcDbLine
 10
87.976729
 20
104.541946
 30
0.0
 11
87.940727
 21
104.198967
 31
0.0
  0
LINE
  5
1f5
100
AcDbEntity
  8
0
 62
7
100
AcDbLine
 10
87.940727
 20
104.198967
 30
0.0
 11
87.834129
 21
103.870857
 31
0.0
  0
LINE
  5
1f6
100
AcDbEntity
  8
0
 62
7
100
AcDbLine
 10
87.834129
 20
103.870857
 30
0.0
 11
87.661628
 21
103.572143
 31
0.0
  0
LINE
  5
1f7
100
AcDbEntity
  8
0
 62
7
100
AcDbLine
 10
87.661628
 20
103.572143
 30
0.0
 11
87.430827
 21
103.315761
 31
0.0
  0
LINE
  5
1f8
100
AcDbEntity
  8
0
 62
7
100
AcDbLine
 10
87.430827
 20
103.315761
 30
0.0
 11
87.151729
 21
103.113064
 31
0.0
  0
LINE
  5
1f9
100
AcDbEntity
  8
0
 62
7
100
AcDbLine
 10
87.151729
 20
103.113064
 30
0.0
 11
86.836628
 21
102.972756
 31
0.0
  0
LINE
  5
1fa
100
AcDbEntity
  8
0
 62
7
100
AcDbLine
 10
86.836628
 20
102.972756
 30
0.0
 11
86.499229
 21
102.900948
 31
0.0
  0
LINE
  5
1fb
100
AcDbEntity
  8
0
 62
7
100
AcDbLine
 10
86.499229
 20
102.900948
 30
0.0
 11
86.154228
 21
102.900948
 31
0.0
  0
LINE
  5
1fc
100
AcDbEntity
  8
0
 62
7
100
AcDbLine
 10
206.154226
 20
102.900948
 30
0.0
 11
205.816827
 21
102.972756
 31
0.0
  0
LINE
  5
1fd
100
AcDbEntity
  8
0
 62
7
100
AcDbLine
 10
205.816827
 20
102.972756
 30
0.0
 11
205.501727
 21
103.113064
 31
0.0
  0
LINE
  5
1fe
100
AcDbEntity
  8
0
 62
7
100
AcDbLine
 10
205.501727
 20
103.113064
 30
0.0
 11
205.222628
 21
103.315761
 31
0.0
  0
LINE
  5
1ff
100
AcDbEntity
  8
0
 62
7
100
AcDbLine
 10
205.222628
 20
103.315761
 30
0.0
 11
204.991827
 21
103.572143
 31
0.0
  0
LINE
  5
200
100
AcDbEntity
  8
0
 62
7
100
AcDbLine
 10
204.991827
 20
103.572143
 30
0.0
 11
204.819327
 21
103.870857
 31
0.0
  0
LINE
  5
201
100
AcDbEntity
  8
0
 62
7
100
AcDbLine
 10
204.819327
 20
103.870857
 30
0.0
 11
204.712729
 21
104.198967
 31
0.0
  0
LINE
  5
202
100
AcDbEntity
  8
0
 62
7
100
AcDbLine
 10
204.712729
 20
104.198967
 30
0.0
 11
204.676727
 21
104.541946
 31
0.0
  0
LINE
  5
203
100
AcDbEntity
  8
0
 62
7
100
AcDbLine
 10
204.676727
 20
104.541946
 30
0.0
 11
204.712729
 21
104.885058
 31
0.0
  0
LINE
  5
204
100
AcDbEntity
  8
0
 62
7
100
AcDbLine
 10
204.712729
 20
104.885058
 30
0.0
 11
204.819327
 21
105.213062
 31
0.0
  0
LINE
  5
205
100
AcDbEntity
  8
0
 62
7
100
AcDbLine
 10
204.819327
 20
105.213062
 30
0.0
 11
204.991827
 21
105.511750
 31
0.0
  0
LINE
  5
206
100
AcDbEntity
  8
0
 62
7
100
AcDbLine
 10
204.991827
 20
105.511750
 30
0.0
 11
205.222628
 21
105.768158
 31
0.0
  0
LINE
  5
207
100
AcDbEntity
  8
0
 62
7
100
AcDbLine
 10
205.222628
 20
105.768158
 30
0.0
 11
205.501727
 21
105.970961
 31
0.0
  0
LINE
  5
208
100
AcDbEntity
  8
0
 62
7
100
AcDbLine
 10
205.501727
 20
105.970961
 30
0.0
 11
205.816827
 21
106.111164
 31
0.0
  0
LINE
  5
209
100
AcDbEntity
  8
0
 62
7
100
AcDbLine
 10
205.816827
 20
106.111164
 30
0.0
 11
206.154226
 21
106.182945
 31
0.0
  0
LINE
  5
20a
100
AcDbEntity
  8
0
 62
7
100
AcDbLine
 10
206.154226
 20
106.182945
 30
0.0
 11
206.499227
 21
106.182945
 31
0.0
  0
LINE
  5
20b
100
AcDbEntity
  8
0
 62
7
100
AcDbLine
 10
206.499227
 20
106.182945
 30
0.0
 11
206.836626
 21
106.111164
 31
0.0
  0
LINE
  5
20c
100
AcDbEntity
  8
0
 62
7
100
AcDbLine
 10
206.836626
 20
106.111164
 30
0.0
 11
207.151727
 21
105.970961
 31
0.0
  0
LINE
  5
20d
100
AcDbEntity
  8
0
 62
7
100
AcDbLine
 10
207.151727
 20
105.970961
 30
0.0
 11
207.430828
 21
105.768158
 31
0.0
  0
LINE
  5
20e
100
AcDbEntity
  8
0
 62
7
100
AcDbLine
 10
207.430828
 20
105.768158
 30
0.0
 11
207.661626
 21
105.511750
 31
0.0
  0
LINE
  5
20f
100
AcDbEntity
  8
0
 62
7
100
AcDbLine
 10
207.661626
 20
105.511750
 30
0.0
 11
207.834026
 21
105.213062
 31
0.0
  0
LINE
  5
210
100
AcDbEntity
  8
0
 62
7
100
AcDbLine
 10
207.834026
 20
105.213062
 30
0.0
 11
207.940627
 21
104.885058
 31
0.0
  0
LINE
  5
211
100
AcDbEntity
  8
0
 62
7
100
AcDbLine
 10
207.940627
 20
104.885058
 30
0.0
 11
207.976727
 21
104.541946
 31
0.0
  0
LINE
  5
212
100
AcDbEntity
  8
0
 62
7
100
AcDbLine
 10
207.976727
 20
104.541946
 30
0.0
 11
207.940627
 21
104.198967
 31
0.0
  0
LINE
  5
213
100
AcDbEntity
  8
0
 62
7
100
AcDbLine
 10
207.940627
 20
104.198967
 30
0.0
 11
207.834026
 21
103.870857
 31
0.0
  0
LINE
  5
214
100
AcDbEntity
  8
0
 62
7
100
AcDbLine
 10
207.834026
 20
103.870857
 30
0.0
 11
207.661626
 21
103.572143
 31
0.0
  0
LINE
  5
215
100
AcDbEntity
  8
0
 62
7
100
AcDbLine
 10
207.661626
 20
103.572143
 30
0.0
 11
207.430828
 21
103.315761
 31
0.0
  0
LINE
  5
216
100
AcDbEntity
  8
0
 62
7
100
AcDbLine
 10
207.430828
 20
103.315761
 30
0.0
 11
207.151727
 21
103.113064
 31
0.0
  0
LINE
  5
217
100
AcDbEntity
  8
0
 62
7
100
AcDbLine
 10
207.151727
 20
103.113064
 30
0.0
 11
206.836626
 21
102.972756
 31
0.0
  0
LINE
  5
218
100
AcDbEntity
  8
0
 62
7
100
AcDbLine
 10
206.836626
 20
102.972756
 30
0.0
 11
206.499227
 21
102.900948
 31
0.0
  0
LINE
  5
219
100
AcDbEntity
  8
0
 62
7
100
AcDbLine
 10
206.499227
 20
102.900948
 30
0.0
 11
206.154226
 21
102.900948
 31
0.0
  0
LINE
  5
21a
100
AcDbEntity
  8
0
 62
7
100
AcDbLine
 10
49.465428
 20
100.955652
 30
0.0
 11
48.954227
 21
101.064342
 31
0.0
  0
LINE
  5
21b
100
AcDbEntity
  8
0
 62
7
100
AcDbLine
 10
48.954227
 20
101.064342
 30
0.0
 11
48.476728
 21
101.276856
 31
0.0
  0
LINE
  5
21c
100
AcDbEntity
  8
0
 62
7
100
AcDbLine
 10
48.476728
 20
101.276856
 30
0.0
 11
48.053927
 21
101.584063
 31
0.0
  0
LINE
  5
21d
100
AcDbEntity
  8
0
 62
7
100
AcDbLine
 10
48.053927
 20
101.584063
 30
0.0
 11
47.704227
 21
101.972445
 31
0.0
  0
LINE
  5
21e
100
AcDbEntity
  8
0
 62
7
100
AcDbLine
 10
47.704227
 20
101.972445
 30
0.0
 11
47.442829
 21
102.425147
 31
0.0
  0
LINE
  5
21f
100
AcDbEntity
  8
0
 62
7
100
AcDbLine
 10
47.442829
 20
102.425147
 30
0.0
 11
47.281327
 21
102.922167
 31
0.0
  0
LINE
  5
220
100
AcDbEntity
  8
0
 62
7
100
AcDbLine
 10
47.281327
 20
102.922167
 30
0.0
 11
47.226728
 21
103.441968
 31
0.0
  0
LINE
  5
221
100
AcDbEntity
  8
0
 62
7
100
AcDbLine
 10
47.226728
 20
103.441968
 30
0.0
 11
47.281327
 21
103.961768
 31
0.0
  0
LINE
  5
222
100
AcDbEntity
  8
0
 62
7
100
AcDbLine
 10
47.281327
 20
103.961768
 30
0.0
 11
47.442829
 21
104.458867
 31
0.0
  0
LINE
  5
223
100
AcDbEntity
  8
0
 62
7
100
AcDbLine
 10
47.442829
 20
104.458867
 30
0.0
 11
47.704227
 21
104.911463
 31
0.0
  0
LINE
  5
224
100
AcDbEntity
  8
0
 62
7
100
AcDbLine
 10
47.704227
 20
104.911463
 30
0.0
 11
48.053927
 21
105.299845
 31
0.0
  0
LINE
  5
225
100
AcDbEntity
  8
0
 62
7
100
AcDbLine
 10
48.053927
 20
105.299845
 30
0.0
 11
48.476728
 21
105.607053
 31
0.0
  0
LINE
  5
226
100
AcDbEntity
  8
0
 62
7
100
AcDbLine
 10
48.476728
 20
105.607053
 30
0.0
 11
48.954227
 21
105.819566
 31
0.0
  0
LINE
  5
227
100
AcDbEntity
  8
0
 62
7
100
AcDbLine
 10
48.954227
 20
105.819566
 30
0.0
 11
49.465428
 21
105.928257
 31
0.0
  0
LINE
  5
228
100
AcDbEntity
  8
0
 62
7
100
AcDbLine
 10
49.465428
 20
105.928257
 30
0.0
 11
49.988028
 21
105.928257
 31
0.0
  0
LINE
  5
229
100
AcDbEntity
  8
0
 62
7
100
AcDbLine
 10
49.988028
 20
105.928257
 30
0.0
 11
50.499227
 21
105.819566
 31
0.0
  0
LINE
  5
22a
100
AcDbEntity
  8
0
 62
7
100
AcDbLine
 10
50.499227
 20
105.819566
 30
0.0
 11
50.976728
 21
105.607053
 31
0.0
  0
LINE
  5
22b
100
AcDbEntity
  8
0
 62
7
100
AcDbLine
 10
50.976728
 20
105.607053
 30
0.0
 11
51.399527
 21
105.299845
 31
0.0
  0
LINE
  5
22c
100
AcDbEntity
  8
0
 62
7
100
AcDbLine
 10
51.399527
 20
105.299845
 30
0.0
 11
51.749227
 21
104.911463
 31
0.0
  0
LINE
  5
22d
100
AcDbEntity
  8
0
 62
7
100
AcDbLine
 10
51.749227
 20
104.911463
 30
0.0
 11
52.010628
 21
104.458867
 31
0.0
  0
LINE
  5
22e
100
AcDbEntity
  8
0
 62
7
100
AcDbLine
 10
52.010628
 20
104.458867
 30
0.0
 11
52.172127
 21
103.961768
 31
0.0
  0
LINE
  5
22f
100
AcDbEntity
  8
0
 62
7
100
AcDbLine
 10
52.172127
 20
103.961768
 30
0.0
 11
52.226729
 21
103.441968
 31
0.0
  0
LINE
  5
230
100
AcDbEntity
  8
0
 62
7
100
AcDbLine
 10
52.226729
 20
103.441968
 30
0.0
 11
52.172127
 21
102.922167
 31
0.0
  0
LINE
  5
231
100
AcDbEntity
  8
0
 62
7
100
AcDbLine
 10
52.172127
 20
102.922167
 30
0.0
 11
52.010628
 21
102.425147
 31
0.0
  0
LINE
  5
232
100
AcDbEntity
  8
0
 62
7
100
AcDbLine
 10
52.010628
 20
102.425147
 30
0.0
 11
51.749227
 21
101.972445
 31
0.0
  0
LINE
  5
233
100
AcDbEntity
  8
0
 62
7
100
AcDbLine
 10
51.749227
 20
101.972445
 30
0.0
 11
51.399527
 21
101.584063
 31
0.0
  0
LINE
  5
234
100
AcDbEntity
  8
0
 62
7
100
AcDbLine
 10
51.399527
 20
101.584063
 30
0.0
 11
50.976728
 21
101.276856
 31
0.0
  0
LINE
  5
235
100
AcDbEntity
  8
0
 62
7
100
AcDbLine
 10
50.976728
 20
101.276856
 30
0.0
 11
50.499227
 21
101.064342
 31
0.0
  0
LINE
  5
236
100
AcDbEntity
  8
0
 62
7
100
AcDbLine
 10
50.499227
 20
101.064342
 30
0.0
 11
49.988028
 21
100.955652
 31
0.0
  0
LINE
  5
237
100
AcDbEntity
  8
0
 62
7
100
AcDbLine
 10
49.988028
 20
100.955652
 30
0.0
 11
49.465428
 21
100.955652
 31
0.0
  0
LINE
  5
238
100
AcDbEntity
  8
0
 62
7
100
AcDbLine
 10
72.665429
 20
100.955652
 30
0.0
 11
72.154227
 21
101.064342
 31
0.0
  0
LINE
  5
239
100
AcDbEntity
  8
0
 62
7
100
AcDbLine
 10
72.154227
 20
101.064342
 30
0.0
 11
71.676728
 21
101.276856
 31
0.0
  0
LINE
  5
23a
100
AcDbEntity
  8
0
 62
7
100
AcDbLine
 10
71.676728
 20
101.276856
 30
0.0
 11
71.253927
 21
101.584063
 31
0.0
  0
LINE
  5
23b
100
AcDbEntity
  8
0
 62
7
100
AcDbLine
 10
71.253927
 20
101.584063
 30
0.0
 11
70.904227
 21
101.972445
 31
0.0
  0
LINE
  5
23c
100
AcDbEntity
  8
0
 62
7
100
AcDbLine
 10
70.904227
 20
101.972445
 30
0.0
 11
70.642827
 21
102.425147
 31
0.0
  0
LINE
  5
23d
100
AcDbEntity
  8
0
 62
7
100
AcDbLine
 10
70.642827
 20
102.425147
 30
0.0
 11
70.481328
 21
102.922167
 31
0.0
  0
LINE
  5
23e
100
AcDbEntity
  8
0
 62
7
100
AcDbLine
 10
70.481328
 20
102.922167
 30
0.0
 11
70.426728
 21
103.441968
 31
0.0
  0
LINE
  5
23f
100
AcDbEntity
  8
0
 62
7
100
AcDbLine
 10
70.426728
 20
103.441968
 30
0.0
 11
70.481328
 21
103.961768
 31
0.0
  0
LINE
  5
240
100
AcDbEntity
  8
0
 62
7
100
AcDbLine
 10
70.481328
 20
103.961768
 30
0.0
 11
70.642827
 21
104.458867
 31
0.0
  0
LINE
  5
241
100
AcDbEntity
  8
0
 62
7
100
AcDbLine
 10
70.642827
 20
104.458867
 30
0.0
 11
70.904227
 21
104.911463
 31
0.0
  0
LINE
  5
242
100
AcDbEntity
  8
0
 62
7
100
AcDbLine
 10
70.904227
 20
104.911463
 30
0.0
 11
71.253927
 21
105.299845
 31
0.0
  0
LINE
  5
243
100
AcDbEntity
  8
0
 62
7
100
AcDbLine
 10
71.253927
 20
105.299845
 30
0.0
 11
71.676728
 21
105.607053
 31
0.0
  0
LINE
  5
244
100
AcDbEntity
  8
0
 62
7
100
AcDbLine
 10
71.676728
 20
105.607053
 30
0.0
 11
72.154227
 21
105.819566
 31
0.0
  0
LINE
  5
245
100
AcDbEntity
  8
0
 62
7
100
AcDbLine
 10
72.154227
 20
105.819566
 30
0.0
 11
72.665429
 21
105.928257
 31
0.0
  0
LINE
  5
246
100
AcDbEntity
  8
0
 62
7
100
AcDbLine
 10
72.665429
 20
105.928257
 30
0.0
 11
73.188028
 21
105.928257
 31
0.0
  0
LINE
  5
247
100
AcDbEntity
  8
0
 62
7
100
AcDbLine
 10
73.188028
 20
105.928257
 30
0.0
 11
73.699227
 21
105.819566
 31
0.0
  0
LINE
  5
248
100
AcDbEntity
  8
0
 62
7
100
AcDbLine
 10
73.699227
 20
105.819566
 30
0.0
 11
74.176729
 21
105.607053
 31
0.0
  0
LINE
  5
249
100
AcDbEntity
  8
0
 62
7
100
AcDbLine
 10
74.176729
 20
105.607053
 30
0.0
 11
74.599527
 21
105.299845
 31
0.0
  0
LINE
  5
24a
100
AcDbEntity
  8
0
 62
7
100
AcDbLine
 10
74.599527
 20
105.299845
 30
0.0
 11
74.949227
 21
104.911463
 31
0.0
  0
LINE
  5
24b
100
AcDbEntity
  8
0
 62
7
100
AcDbLine
 10
74.949227
 20
104.911463
 30
0.0
 11
75.210628
 21
104.458867
 31
0.0
  0
LINE
  5
24c
100
AcDbEntity
  8
0
 62
7
100
AcDbLine
 10
75.210628
 20
104.458867
 30
0.0
 11
75.372127
 21
103.961768
 31
0.0
  0
LINE
  5
24d
100
AcDbEntity
  8
0
 62
7
100
AcDbLine
 10
75.372127
 20
103.961768
 30
0.0
 11
75.426729
 21
103.441968
 31
0.0
  0
LINE
  5
24e
100
AcDbEntity
  8
0
 62
7
100
AcDbLine
 10
75.426729
 20
103.441968
 30
0.0
 11
75.372127
 21
102.922167
 31
0.0
  0
LINE
  5
24f
100
AcDbEntity
  8
0
 62
7
100
AcDbLine
 10
75.372127
 20
102.922167
 30
0.0
 11
75.210628
 21
102.425147
 31
0.0
  0
LINE
  5
250
100
AcDbEntity
  8
0
 62
7
100
AcDbLine
 10
75.210628
 20
102.425147
 30
0.0
 11
74.949227
 21
101.972445
 31
0.0
  0
LINE
  5
251
100
AcDbEntity
  8
0
 62
7
100
AcDbLine
 10
74.949227
 20
101.972445
 30
0.0
 11
74.599527
 21
101.584063
 31
0.0
  0
LINE
  5
252
100
AcDbEntity
  8
0
 62
7
100
AcDbLine
 10
74.599527
 20
101.584063
 30
0.0
 11
74.176729
 21
101.276856
 31
0.0
  0
LINE
  5
253
100
AcDbEntity
  8
0
 62
7
100
AcDbLine
 10
74.176729
 20
101.276856
 30
0.0
 11
73.699227
 21
101.064342
 31
0.0
  0
LINE
  5
254
100
AcDbEntity
  8
0
 62
7
100
AcDbLine
 10
73.699227
 20
101.064342
 30
0.0
 11
73.188028
 21
100.955652
 31
0.0
  0
LINE
  5
255
100
AcDbEntity
  8
0
 62
7
100
AcDbLine
 10
73.188028
 20
100.955652
 30
0.0
 11
72.665429
 21
100.955652
 31
0.0
  0
LINE
  5
256
100
AcDbEntity
  8
0
 62
7
100
AcDbLine
 10
219.465427
 20
100.955652
 30
0.0
 11
218.954228
 21
101.064342
 31
0.0
  0
LINE
  5
257
100
AcDbEntity
  8
0
 62
7
100
AcDbLine
 10
218.954228
 20
101.064342
 30
0.0
 11
218.476727
 21
101.276856
 31
0.0
  0
LINE
  5
258
100
AcDbEntity
  8
0
 62
7
100
AcDbLine
 10
218.476727
 20
101.276856
 30
0.0
 11
218.053928
 21
101.584063
 31
0.0
  0
LINE
  5
259
100
AcDbEntity
  8
0
 62
7
100
AcDbLine
 10
218.053928
 20
101.584063
 30
0.0
 11
217.704228
 21
101.972445
 31
0.0
  0
LINE
  5
25a
100
AcDbEntity
  8
0
 62
7
100
AcDbLine
 10
217.704228
 20
101.972445
 30
0.0
 11
217.442828
 21
102.425147
 31
0.0
  0
LINE
  5
25b
100
AcDbEntity
  8
0
 62
7
100
AcDbLine
 10
217.442828
 20
102.425147
 30
0.0
 11
217.281329
 21
102.922167
 31
0.0
  0
LINE
  5
25c
100
AcDbEntity
  8
0
 62
7
100
AcDbLine
 10
217.281329
 20
102.922167
 30
0.0
 11
217.226727
 21
103.441968
 31
0.0
  0
LINE
  5
25d
100
AcDbEntity
  8
0
 62
7
100
AcDbLine
 10
217.226727
 20
103.441968
 30
0.0
 11
217.281329
 21
103.961768
 31
0.0
  0
LINE
  5
25e
100
AcDbEntity
  8
0
 62
7
100
AcDbLine
 10
217.281329
 20
103.961768
 30
0.0
 11
217.442828
 21
104.458867
 31
0.0
  0
LINE
  5
25f
100
AcDbEntity
  8
0
 62
7
100
AcDbLine
 10
217.442828
 20
104.458867
 30
0.0
 11
217.704228
 21
104.911463
 31
0.0
  0
LINE
  5
260
100
AcDbEntity
  8
0
 62
7
100
AcDbLine
 10
217.704228
 20
104.911463
 30
0.0
 11
218.053928
 21
105.299845
 31
0.0
  0
LINE
  5
261
100
AcDbEntity
  8
0
 62
7
100
AcDbLine
 10
218.053928
 20
105.299845
 30
0.0
 11
218.476727
 21
105.607053
 31
0.0
  0
LINE
  5
262
100
AcDbEntity
  8
0
 62
7
100
AcDbLine
 10
218.476727
 20
105.607053
 30
0.0
 11
218.954228
 21
105.819566
 31
0.0
  0
LINE
  5
263
100
AcDbEntity
  8
0
 62
7
100
AcDbLine
 10
218.954228
 20
105.819566
 30
0.0
 11
219.465427
 21
105.928257
 31
0.0
  0
LINE
  5
264
100
AcDbEntity
  8
0
 62
7
100
AcDbLine
 10
219.465427
 20
105.928257
 30
0.0
 11
219.988027
 21
105.928257
 31
0.0
  0
LINE
  5
265
100
AcDbEntity
  8
0
 62
7
100
AcDbLine
 10
219.988027
 20
105.928257
 30
0.0
 11
220.499228
 21
105.819566
 31
0.0
  0
LINE
  5
266
100
AcDbEntity
  8
0
 62
7
100
AcDbLine
 10
220.499228
 20
105.819566
 30
0.0
 11
220.976727
 21
105.607053
 31
0.0
  0
LINE
  5
267
100
AcDbEntity
  8
0
 62
7
100
AcDbLine
 10
220.976727
 20
105.607053
 30
0.0
 11
221.399529
 21
105.299845
 31
0.0
  0
LINE
  5
268
100
AcDbEntity
  8
0
 62
7
100
AcDbLine
 10
221.399529
 20
105.299845
 30
0.0
 11
221.749228
 21
104.911463
 31
0.0
  0
LINE
  5
269
100
AcDbEntity
  8
0
 62
7
100
AcDbLine
 10
221.749228
 20
104.911463
 30
0.0
 11
222.010629
 21
104.458867
 31
0.0
  0
LINE
  5
26a
100
AcDbEntity
  8
0
 62
7
100
AcDbLine
 10
222.010629
 20
104.458867
 30
0.0
 11
222.172128
 21
103.961768
 31
0.0
  0
LINE
  5
26b
100
AcDbEntity
  8
0
 62
7
100
AcDbLine
 10
222.172128
 20
103.961768
 30
0.0
 11
222.226727
 21
103.441968
 31
0.0
  0
LINE
  5
26c
100
AcDbEntity
  8
0
 62
7
100
AcDbLine
 10
222.226727
 20
103.441968
 30
0.0
 11
222.172128
 21
102.922167
 31
0.0
  0
LINE
  5
26d
100
AcDbEntity
  8
0
 62
7
100
AcDbLine
 10
222.172128
 20
102.922167
 30
0.0
 11
222.010629
 21
102.425147
 31
0.0
  0
LINE
  5
26e
100
AcDbEntity
  8
0
 62
7
100
AcDbLine
 10
222.010629
 20
102.425147
 30
0.0
 11
221.749228
 21
101.972445
 31
0.0
  0
LINE
  5
26f
100
AcDbEntity
  8
0
 62
7
100
AcDbLine
 10
221.749228
 20
101.972445
 30
0.0
 11
221.399529
 21
101.584063
 31
0.0
  0
LINE
  5
270
100
AcDbEntity
  8
0
 62
7
100
AcDbLine
 10
221.399529
 20
101.584063
 30
0.0
 11
220.976727
 21
101.276856
 31
0.0
  0
LINE
  5
271
100
AcDbEntity
  8
0
 62
7
100
AcDbLine
 10
220.976727
 20
101.276856
 30
0.0
 11
220.499228
 21
101.064342
 31
0.0
  0
LINE
  5
272
100
AcDbEntity
  8
0
 62
7
100
AcDbLine
 10
220.499228
 20
101.064342
 30
0.0
 11
219.988027
 21
100.955652
 31
0.0
  0
LINE
  5
273
100
AcDbEntity
  8
0
 62
7
100
AcDbLine
 10
219.988027
 20
100.955652
 30
0.0
 11
219.465427
 21
100.955652
 31
0.0
  0
LINE
  5
274
100
AcDbEntity
  8
0
 62
7
100
AcDbLine
 10
242.665427
 20
100.955652
 30
0.0
 11
242.154228
 21
101.064342
 31
0.0
  0
LINE
  5
275
100
AcDbEntity
  8
0
 62
7
100
AcDbLine
 10
242.154228
 20
101.064342
 30
0.0
 11
241.676727
 21
101.276856
 31
0.0
  0
LINE
  5
276
100
AcDbEntity
  8
0
 62
7
100
AcDbLine
 10
241.676727
 20
101.276856
 30
0.0
 11
241.253928
 21
101.584063
 31
0.0
  0
LINE
  5
277
100
AcDbEntity
  8
0
 62
7
100
AcDbLine
 10
241.253928
 20
101.584063
 30
0.0
 11
240.904228
 21
101.972445
 31
0.0
  0
LINE
  5
278
100
AcDbEntity
  8
0
 62
7
100
AcDbLine
 10
240.904228
 20
101.972445
 30
0.0
 11
240.642828
 21
102.425147
 31
0.0
  0
LINE
  5
279
100
AcDbEntity
  8
0
 62
7
100
AcDbLine
 10
240.642828
 20
102.425147
 30
0.0
 11
240.481329
 21
102.922167
 31
0.0
  0
LINE
  5
27a
100
AcDbEntity
  8
0
 62
7
100
AcDbLine
 10
240.481329
 20
102.922167
 30
0.0
 11
240.426727
 21
103.441968
 31
0.0
  0
LINE
  5
27b
100
AcDbEntity
  8
0
 62
7
100
AcDbLine
 10
240.426727
 20
103.441968
 30
0.0
 11
240.481329
 21
103.961768
 31
0.0
  0
LINE
  5
27c
100
AcDbEntity
  8
0
 62
7
100
AcDbLine
 10
240.481329
 20
103.961768
 30
0.0
 11
240.642828
 21
104.458867
 31
0.0
  0
LINE
  5
27d
100
AcDbEntity
  8
0
 62
7
100
AcDbLine
 10
240.642828
 20
104.458867
 30
0.0
 11
240.904228
 21
104.911463
 31
0.0
  0
LINE
  5
27e
100
AcDbEntity
  8
0
 62
7
100
AcDbLine
 10
240.904228
 20
104.911463
 30
0.0
 11
241.253928
 21
105.299845
 31
0.0
  0
LINE
  5
27f
100
AcDbEntity
  8
0
 62
7
100
AcDbLine
 10
241.253928
 20
105.299845
 30
0.0
 11
241.676727
 21
105.607053
 31
0.0
  0
LINE
  5
280
100
AcDbEntity
  8
0
 62
7
100
AcDbLine
 10
241.676727
 20
105.607053
 30
0.0
 11
242.154228
 21
105.819566
 31
0.0
  0
LINE
  5
281
100
AcDbEntity
  8
0
 62
7
100
AcDbLine
 10
242.154228
 20
105.819566
 30
0.0
 11
242.665427
 21
105.928257
 31
0.0
  0
LINE
  5
282
100
AcDbEntity
  8
0
 62
7
100
AcDbLine
 10
242.665427
 20
105.928257
 30
0.0
 11
243.188027
 21
105.928257
 31
0.0
  0
LINE
  5
283
100
AcDbEntity
  8
0
 62
7
100
AcDbLine
 10
243.188027
 20
105.928257
 30
0.0
 11
243.699228
 21
105.819566
 31
0.0
  0
LINE
  5
284
100
AcDbEntity
  8
0
 62
7
100
AcDbLine
 10
243.699228
 20
105.819566
 30
0.0
 11
244.176727
 21
105.607053
 31
0.0
  0
LINE
  5
285
100
AcDbEntity
  8
0
 62
7
100
AcDbLine
 10
244.176727
 20
105.607053
 30
0.0
 11
244.599529
 21
105.299845
 31
0.0
  0
LINE
  5
286
100
AcDbEntity
  8
0
 62
7
100
AcDbLine
 10
244.599529
 20
105.299845
 30
0.0
 11
244.949229
 21
104.911463
 31
0.0
  0
LINE
  5
287
100
AcDbEntity
  8
0
 62
7
100
AcDbLine
 10
244.949229
 20
104.911463
 30
0.0
 11
245.210626
 21
104.458867
 31
0.0
  0
LINE
  5
288
100
AcDbEntity
  8
0
 62
7
100
AcDbLine
 10
245.210626
 20
104.458867
 30
0.0
 11
245.372128
 21
103.961768
 31
0.0
  0
LINE
  5
289
100
AcDbEntity
  8
0
 62
7
100
AcDbLine
 10
245.372128
 20
103.961768
 30
0.0
 11
245.426727
 21
103.441968
 31
0.0
  0
LINE
  5
28a
100
AcDbEntity
  8
0
 62
7
100
AcDbLine
 10
245.426727
 20
103.441968
 30
0.0
 11
245.372128
 21
102.922167
 31
0.0
  0
LINE
  5
28b
100
AcDbEntity
  8
0
 62
7
100
AcDbLine
 10
245.372128
 20
102.922167
 30
0.0
 11
245.210626
 21
102.425147
 31
0.0
  0
LINE
  5
28c
100
AcDbEntity
  8
0
 62
7
100
AcDbLine
 10
245.210626
 20
102.425147
 30
0.0
 11
244.949229
 21
101.972445
 31
0.0
  0
LINE
  5
28d
100
AcDbEntity
  8
0
 62
7
100
AcDbLine
 10
244.949229
 20
101.972445
 30
0.0
 11
244.599529
 21
101.584063
 31
0.0
  0
LINE
  5
28e
100
AcDbEntity
  8
0
 62
7
100
AcDbLine
 10
244.599529
 20
101.584063
 30
0.0
 11
244.176727
 21
101.276856
 31
0.0
  0
LINE
  5
28f
100
AcDbEntity
  8
0
 62
7
100
AcDbLine
 10
244.176727
 20
101.276856
 30
0.0
 11
243.699228
 21
101.064342
 31
0.0
  0
LINE
  5
290
100
AcDbEntity
  8
0
 62
7
100
AcDbLine
 10
243.699228
 20
101.064342
 30
0.0
 11
243.188027
 21
100.955652
 31
0.0
  0
LINE
  5
291
100
AcDbEntity
  8
0
 62
7
100
AcDbLine
 10
243.188027
 20
100.955652
 30
0.0
 11
242.665427
 21
100.955652
 31
0.0
  0
LINE
  5
292
100
AcDbEntity
  8
0
 62
7
100
AcDbLine
 10
225.669927
 20
95.050152
 30
0.0
 11
225.363228
 21
95.115345
 31
0.0
  0
LINE
  5
293
100
AcDbEntity
  8
0
 62
7
100
AcDbLine
 10
225.363228
 20
95.115345
 30
0.0
 11
225.076726
 21
95.242953
 31
0.0
  0
LINE
  5
294
100
AcDbEntity
  8
0
 62
7
100
AcDbLine
 10
225.076726
 20
95.242953
 30
0.0
 11
224.823028
 21
95.427262
 31
0.0
  0
LINE
  5
295
100
AcDbEntity
  8
0
 62
7
100
AcDbLine
 10
224.823028
 20
95.427262
 30
0.0
 11
224.613227
 21
95.660254
 31
0.0
  0
LINE
  5
296
100
AcDbEntity
  8
0
 62
7
100
AcDbLine
 10
224.613227
 20
95.660254
 30
0.0
 11
224.456427
 21
95.931849
 31
0.0
  0
LINE
  5
297
100
AcDbEntity
  8
0
 62
7
100
AcDbLine
 10
224.456427
 20
95.931849
 30
0.0
 11
224.359528
 21
96.230061
 31
0.0
  0
LINE
  5
298
100
AcDbEntity
  8
0
 62
7
100
AcDbLine
 10
224.359528
 20
96.230061
 30
0.0
 11
224.326728
 21
96.541952
 31
0.0
  0
LINE
  5
299
100
AcDbEntity
  8
0
 62
7
100
AcDbLine
 10
224.326728
 20
96.541952
 30
0.0
 11
224.359528
 21
96.853843
 31
0.0
  0
LINE
  5
29a
100
AcDbEntity
  8
0
 62
7
100
AcDbLine
 10
224.359528
 20
96.853843
 30
0.0
 11
224.456427
 21
97.152055
 31
0.0
  0
LINE
  5
29b
100
AcDbEntity
  8
0
 62
7
100
AcDbLine
 10
224.456427
 20
97.152055
 30
0.0
 11
224.613227
 21
97.423649
 31
0.0
  0
LINE
  5
29c
100
AcDbEntity
  8
0
 62
7
100
AcDbLine
 10
224.613227
 20
97.423649
 30
0.0
 11
224.823028
 21
97.656668
 31
0.0
  0
LINE
  5
29d
100
AcDbEntity
  8
0
 62
7
100
AcDbLine
 10
224.823028
 20
97.656668
 30
0.0
 11
225.076726
 21
97.840950
 31
0.0
  0
LINE
  5
29e
100
AcDbEntity
  8
0
 62
7
100
AcDbLine
 10
225.076726
 20
97.840950
 30
0.0
 11
225.363228
 21
97.968559
 31
0.0
  0
LINE
  5
29f
100
AcDbEntity
  8
0
 62
7
100
AcDbLine
 10
225.363228
 20
97.968559
 30
0.0
 11
225.669927
 21
98.033752
 31
0.0
  0
LINE
  5
2a0
100
AcDbEntity
  8
0
 62
7
100
AcDbLine
 10
225.669927
 20
98.033752
 30
0.0
 11
225.983527
 21
98.033752
 31
0.0
  0
LINE
  5
2a1
100
AcDbEntity
  8
0
 62
7
100
AcDbLine
 10
225.983527
 20
98.033752
 30
0.0
 11
226.290227
 21
97.968559
 31
0.0
  0
LINE
  5
2a2
100
AcDbEntity
  8
0
 62
7
100
AcDbLine
 10
226.290227
 20
97.968559
 30
0.0
 11
226.576729
 21
97.840950
 31
0.0
  0
LINE
  5
2a3
100
AcDbEntity
  8
0
 62
7
100
AcDbLine
 10
226.576729
 20
97.840950
 30
0.0
 11
226.830427
 21
97.656668
 31
0.0
  0
LINE
  5
2a4
100
AcDbEntity
  8
0
 62
7
100
AcDbLine
 10
226.830427
 20
97.656668
 30
0.0
 11
227.040228
 21
97.423649
 31
0.0
  0
LINE
  5
2a5
100
AcDbEntity
  8
0
 62
7
100
AcDbLine
 10
227.040228
 20
97.423649
 30
0.0
 11
227.197028
 21
97.152055
 31
0.0
  0
LINE
  5
2a6
100
AcDbEntity
  8
0
 62
7
100
AcDbLine
 10
227.197028
 20
97.152055
 30
0.0
 11
227.293927
 21
96.853843
 31
0.0
  0
LINE
  5
2a7
100
AcDbEntity
  8
0
 62
7
100
AcDbLine
 10
227.293927
 20
96.853843
 30
0.0
 11
227.326727
 21
96.541952
 31
0.0
  0
LINE
  5
2a8
100
AcDbEntity
  8
0
 62
7
100
AcDbLine
 10
227.326727
 20
96.541952
 30
0.0
 11
227.293927
 21
96.230061
 31
0.0
  0
LINE
  5
2a9
100
AcDbEntity
  8
0
 62
7
100
AcDbLine
 10
227.293927
 20
96.230061
 30
0.0
 11
227.197028
 21
95.931849
 31
0.0
  0
LINE
  5
2aa
100
AcDbEntity
  8
0
 62
7
100
AcDbLine
 10
227.197028
 20
95.931849
 30
0.0
 11
227.040228
 21
95.660254
 31
0.0
  0
LINE
  5
2ab
100
AcDbEntity
  8
0
 62
7
100
AcDbLine
 10
227.040228
 20
95.660254
 30
0.0
 11
226.830427
 21
95.427262
 31
0.0
  0
LINE
  5
2ac
100
AcDbEntity
  8
0
 62
7
100
AcDbLine
 10
226.830427
 20
95.427262
 30
0.0
 11
226.576729
 21
95.242953
 31
0.0
  0
LINE
  5
2ad
100
AcDbEntity
  8
0
 62
7
100
AcDbLine
 10
226.576729
 20
95.242953
 30
0.0
 11
226.290227
 21
95.115345
 31
0.0
  0
LINE
  5
2ae
100
AcDbEntity
  8
0
 62
7
100
AcDbLine
 10
226.290227
 20
95.115345
 30
0.0
 11
225.983527
 21
95.050152
 31
0.0
  0
LINE
  5
2af
100
AcDbEntity
  8
0
 62
7
100
AcDbLine
 10
225.983527
 20
95.050152
 30
0.0
 11
225.669927
 21
95.050152
 31
0.0
  0
LINE
  5
2b0
100
AcDbEntity
  8
0
 62
7
100
AcDbLine
 10
236.669927
 20
95.050152
 30
0.0
 11
236.363227
 21
95.115345
 31
0.0
  0
LINE
  5
2b1
100
AcDbEntity
  8
0
 62
7
100
AcDbLine
 10
236.363227
 20
95.115345
 30
0.0
 11
236.076728
 21
95.242953
 31
0.0
  0
LINE
  5
2b2
100
AcDbEntity
  8
0
 62
7
100
AcDbLine
 10
236.076728
 20
95.242953
 30
0.0
 11
235.823027
 21
95.427262
 31
0.0
  0
LINE
  5
2b3
100
AcDbEntity
  8
0
 62
7
100
AcDbLine
 10
235.823027
 20
95.427262
 30
0.0
 11
235.613228
 21
95.660254
 31
0.0
  0
LINE
  5
2b4
100
AcDbEntity
  8
0
 62
7
100
AcDbLine
 10
235.613228
 20
95.660254
 30
0.0
 11
235.456428
 21
95.931849
 31
0.0
  0
LINE
  5
2b5
100
AcDbEntity
  8
0
 62
7
100
AcDbLine
 10
235.456428
 20
95.931849
 30
0.0
 11
235.359527
 21
96.230061
 31
0.0
  0
LINE
  5
2b6
100
AcDbEntity
  8
0
 62
7
100
AcDbLine
 10
235.359527
 20
96.230061
 30
0.0
 11
235.326727
 21
96.541952
 31
0.0
  0
LINE
  5
2b7
100
AcDbEntity
  8
0
 62
7
100
AcDbLine
 10
235.326727
 20
96.541952
 30
0.0
 11
235.359527
 21
96.853843
 31
0.0
  0
LINE
  5
2b8
100
AcDbEntity
  8
0
 62
7
100
AcDbLine
 10
235.359527
 20
96.853843
 30
0.0
 11
235.456428
 21
97.152055
 31
0.0
  0
LINE
  5
2b9
100
AcDbEntity
  8
0
 62
7
100
AcDbLine
 10
235.456428
 20
97.152055
 30
0.0
 11
235.613228
 21
97.423649
 31
0.0
  0
LINE
  5
2ba
100
AcDbEntity
  8
0
 62
7
100
AcDbLine
 10
235.613228
 20
97.423649
 30
0.0
 11
235.823027
 21
97.656668
 31
0.0
  0
LINE
  5
2bb
100
AcDbEntity
  8
0
 62
7
100
AcDbLine
 10
235.823027
 20
97.656668
 30
0.0
 11
236.076728
 21
97.840950
 31
0.0
  0
LINE
  5
2bc
100
AcDbEntity
  8
0
 62
7
100
AcDbLine
 10
236.076728
 20
97.840950
 30
0.0
 11
236.363227
 21
97.968559
 31
0.0
  0
LINE
  5
2bd
100
AcDbEntity
  8
0
 62
7
100
AcDbLine
 10
236.363227
 20
97.968559
 30
0.0
 11
236.669927
 21
98.033752
 31
0.0
  0
LINE
  5
2be
100
AcDbEntity
  8
0
 62
7
100
AcDbLine
 10
236.669927
 20
98.033752
 30
0.0
 11
236.983527
 21
98.033752
 31
0.0
  0
LINE
  5
2bf
100
AcDbEntity
  8
0
 62
7
100
AcDbLine
 10
236.983527
 20
98.033752
 30
0.0
 11
237.290226
 21
97.968559
 31
0.0
  0
LINE
  5
2c0
100
AcDbEntity
  8
0
 62
7
100
AcDbLine
 10
237.290226
 20
97.968559
 30
0.0
 11
237.576728
 21
97.840950
 31
0.0
  0
LINE
  5
2c1
100
AcDbEntity
  8
0
 62
7
100
AcDbLine
 10
237.576728
 20
97.840950
 30
0.0
 11
237.830429
 21
97.656668
 31
0.0
  0
LINE
  5
2c2
100
AcDbEntity
  8
0
 62
7
100
AcDbLine
 10
237.830429
 20
97.656668
 30
0.0
 11
238.040228
 21
97.423649
 31
0.0
  0
LINE
  5
2c3
100
AcDbEntity
  8
0
 62
7
100
AcDbLine
 10
238.040228
 20
97.423649
 30
0.0
 11
238.197028
 21
97.152055
 31
0.0
  0
LINE
  5
2c4
100
AcDbEntity
  8
0
 62
7
100
AcDbLine
 10
238.197028
 20
97.152055
 30
0.0
 11
238.293929
 21
96.853843
 31
0.0
  0
LINE
  5
2c5
100
AcDbEntity
  8
0
 62
7
100
AcDbLine
 10
238.293929
 20
96.853843
 30
0.0
 11
238.326729
 21
96.541952
 31
0.0
  0
LINE
  5
2c6
100
AcDbEntity
  8
0
 62
7
100
AcDbLine
 10
238.326729
 20
96.541952
 30
0.0
 11
238.293929
 21
96.230061
 31
0.0
  0
LINE
  5
2c7
100
AcDbEntity
  8
0
 62
7
100
AcDbLine
 10
238.293929
 20
96.230061
 30
0.0
 11
238.197028
 21
95.931849
 31
0.0
  0
LINE
  5
2c8
100
AcDbEntity
  8
0
 62
7
100
AcDbLine
 10
238.197028
 20
95.931849
 30
0.0
 11
238.040228
 21
95.660254
 31
0.0
  0
LINE
  5
2c9
100
AcDbEntity
  8
0
 62
7
100
AcDbLine
 10
238.040228
 20
95.660254
 30
0.0
 11
237.830429
 21
95.427262
 31
0.0
  0
LINE
  5
2ca
100
AcDbEntity
  8
0
 62
7
100
AcDbLine
 10
237.830429
 20
95.427262
 30
0.0
 11
237.576728
 21
95.242953
 31
0.0
  0
LINE
  5
2cb
100
AcDbEntity
  8
0
 62
7
100
AcDbLine
 10
237.576728
 20
95.242953
 30
0.0
 11
237.290226
 21
95.115345
 31
0.0
  0
LINE
  5
2cc
100
AcDbEntity
  8
0
 62
7
100
AcDbLine
 10
237.290226
 20
95.115345
 30
0.0
 11
236.983527
 21
95.050152
 31
0.0
  0
LINE
  5
2cd
100
AcDbEntity
  8
0
 62
7
100
AcDbLine
 10
236.983527
 20
95.050152
 30
0.0
 11
236.669927
 21
95.050152
 31
0.0
  0
LINE
  5
2ce
100
AcDbEntity
  8
0
 62
7
100
AcDbLine
 10
66.669928
 20
95.050152
 30
0.0
 11
66.363228
 21
95.115345
 31
0.0
  0
LINE
  5
2cf
100
AcDbEntity
  8
0
 62
7
100
AcDbLine
 10
66.363228
 20
95.115345
 30
0.0
 11
66.076727
 21
95.242953
 31
0.0
  0
LINE
  5
2d0
100
AcDbEntity
  8
0
 62
7
100
AcDbLine
 10
66.076727
 20
95.242953
 30
0.0
 11
65.823028
 21
95.427262
 31
0.0
  0
LINE
  5
2d1
100
AcDbEntity
  8
0
 62
7
100
AcDbLine
 10
65.823028
 20
95.427262
 30
0.0
 11
65.613227
 21
95.660254
 31
0.0
  0
LINE
  5
2d2
100
AcDbEntity
  8
0
 62
7
100
AcDbLine
 10
65.613227
 20
95.660254
 30
0.0
 11
65.456427
 21
95.931849
 31
0.0
  0
LINE
  5
2d3
100
AcDbEntity
  8
0
 62
7
100
AcDbLine
 10
65.456427
 20
95.931849
 30
0.0
 11
65.359529
 21
96.230061
 31
0.0
  0
LINE
  5
2d4
100
AcDbEntity
  8
0
 62
7
100
AcDbLine
 10
65.359529
 20
96.230061
 30
0.0
 11
65.326728
 21
96.541952
 31
0.0
  0
LINE
  5
2d5
100
AcDbEntity
  8
0
 62
7
100
AcDbLine
 10
65.326728
 20
96.541952
 30
0.0
 11
65.359529
 21
96.853843
 31
0.0
  0
LINE
  5
2d6
100
AcDbEntity
  8
0
 62
7
100
AcDbLine
 10
65.359529
 20
96.853843
 30
0.0
 11
65.456427
 21
97.152055
 31
0.0
  0
LINE
  5
2d7
100
AcDbEntity
  8
0
 62
7
100
AcDbLine
 10
65.456427
 20
97.152055
 30
0.0
 11
65.613227
 21
97.423649
 31
0.0
  0
LINE
  5
2d8
100
AcDbEntity
  8
0
 62
7
100
AcDbLine
 10
65.613227
 20
97.423649
 30
0.0
 11
65.823028
 21
97.656668
 31
0.0
  0
LINE
  5
2d9
100
AcDbEntity
  8
0
 62
7
100
AcDbLine
 10
65.823028
 20
97.656668
 30
0.0
 11
66.076727
 21
97.840950
 31
0.0
  0
LINE
  5
2da
100
AcDbEntity
  8
0
 62
7
100
AcDbLine
 10
66.076727
 20
97.840950
 30
0.0
 11
66.363228
 21
97.968559
 31
0.0
  0
LINE
  5
2db
100
AcDbEntity
  8
0
 62
7
100
AcDbLine
 10
66.363228
 20
97.968559
 30
0.0
 11
66.669928
 21
98.033752
 31
0.0
  0
LINE
  5
2dc
100
AcDbEntity
  8
0
 62
7
100
AcDbLine
 10
66.669928
 20
98.033752
 30
0.0
 11
66.983528
 21
98.033752
 31
0.0
  0
LINE
  5
2dd
100
AcDbEntity
  8
0
 62
7
100
AcDbLine
 10
66.983528
 20
98.033752
 30
0.0
 11
67.290228
 21
97.968559
 31
0.0
  0
LINE
  5
2de
100
AcDbEntity
  8
0
 62
7
100
AcDbLine
 10
67.290228
 20
97.968559
 30
0.0
 11
67.576729
 21
97.840950
 31
0.0
  0
LINE
  5
2df
100
AcDbEntity
  8
0
 62
7
100
AcDbLine
 10
67.576729
 20
97.840950
 30
0.0
 11
67.830427
 21
97.656668
 31
0.0
  0
LINE
  5
2e0
100
AcDbEntity
  8
0
 62
7
100
AcDbLine
 10
67.830427
 20
97.656668
 30
0.0
 11
68.040229
 21
97.423649
 31
0.0
  0
LINE
  5
2e1
100
AcDbEntity
  8
0
 62
7
100
AcDbLine
 10
68.040229
 20
97.423649
 30
0.0
 11
68.197029
 21
97.152055
 31
0.0
  0
LINE
  5
2e2
100
AcDbEntity
  8
0
 62
7
100
AcDbLine
 10
68.197029
 20
97.152055
 30
0.0
 11
68.293927
 21
96.853843
 31
0.0
  0
LINE
  5
2e3
100
AcDbEntity
  8
0
 62
7
100
AcDbLine
 10
68.293927
 20
96.853843
 30
0.0
 11
68.326728
 21
96.541952
 31
0.0
  0
LINE
  5
2e4
100
AcDbEntity
  8
0
 62
7
100
AcDbLine
 10
68.326728
 20
96.541952
 30
0.0
 11
68.293927
 21
96.230061
 31
0.0
  0
LINE
  5
2e5
100
AcDbEntity
  8
0
 62
7
100
AcDbLine
 10
68.293927
 20
96.230061
 30
0.0
 11
68.197029
 21
95.931849
 31
0.0
  0
LINE
  5
2e6
100
AcDbEntity
  8
0
 62
7
100
AcDbLine
 10
68.197029
 20
95.931849
 30
0.0
 11
68.040229
 21
95.660254
 31
0.0
  0
LINE
  5
2e7
100
AcDbEntity
  8
0
 62
7
100
AcDbLine
 10
68.040229
 20
95.660254
 30
0.0
 11
67.830427
 21
95.427262
 31
0.0
  0
LINE
  5
2e8
100
AcDbEntity
  8
0
 62
7
100
AcDbLine
 10
67.830427
 20
95.427262
 30
0.0
 11
67.576729
 21
95.242953
 31
0.0
  0
LINE
  5
2e9
100
AcDbEntity
  8
0
 62
7
100
AcDbLine
 10
67.576729
 20
95.242953
 30
0.0
 11
67.290228
 21
95.115345
 31
0.0
  0
LINE
  5
2ea
100
AcDbEntity
  8
0
 62
7
100
AcDbLine
 10
67.290228
 20
95.115345
 30
0.0
 11
66.983528
 21
95.050152
 31
0.0
  0
LINE
  5
2eb
100
AcDbEntity
  8
0
 62
7
100
AcDbLine
 10
66.983528
 20
95.050152
 30
0.0
 11
66.669928
 21
95.050152
 31
0.0
  0
LINE
  5
2ec
100
AcDbEntity
  8
0
 62
7
100
AcDbLine
 10
55.669929
 20
95.050152
 30
0.0
 11
55.363229
 21
95.115345
 31
0.0
  0
LINE
  5
2ed
100
AcDbEntity
  8
0
 62
7
100
AcDbLine
 10
55.363229
 20
95.115345
 30
0.0
 11
55.076728
 21
95.242953
 31
0.0
  0
LINE
  5
2ee
100
AcDbEntity
  8
0
 62
7
100
AcDbLine
 10
55.076728
 20
95.242953
 30
0.0
 11
54.823027
 21
95.427262
 31
0.0
  0
LINE
  5
2ef
100
AcDbEntity
  8
0
 62
7
100
AcDbLine
 10
54.823027
 20
95.427262
 30
0.0
 11
54.613228
 21
95.660254
 31
0.0
  0
LINE
  5
2f0
100
AcDbEntity
  8
0
 62
7
100
AcDbLine
 10
54.613228
 20
95.660254
 30
0.0
 11
54.456428
 21
95.931849
 31
0.0
  0
LINE
  5
2f1
100
AcDbEntity
  8
0
 62
7
100
AcDbLine
 10
54.456428
 20
95.931849
 30
0.0
 11
54.359527
 21
96.230061
 31
0.0
  0
LINE
  5
2f2
100
AcDbEntity
  8
0
 62
7
100
AcDbLine
 10
54.359527
 20
96.230061
 30
0.0
 11
54.326726
 21
96.541952
 31
0.0
  0
LINE
  5
2f3
100
AcDbEntity
  8
0
 62
7
100
AcDbLine
 10
54.326726
 20
96.541952
 30
0.0
 11
54.359527
 21
96.853843
 31
0.0
  0
LINE
  5
2f4
100
AcDbEntity
  8
0
 62
7
100
AcDbLine
 10
54.359527
 20
96.853843
 30
0.0
 11
54.456428
 21
97.152055
 31
0.0
  0
LINE
  5
2f5
100
AcDbEntity
  8
0
 62
7
100
AcDbLine
 10
54.456428
 20
97.152055
 30
0.0
 11
54.613228
 21
97.423649
 31
0.0
  0
LINE
  5
2f6
100
AcDbEntity
  8
0
 62
7
100
AcDbLine
 10
54.613228
 20
97.423649
 30
0.0
 11
54.823027
 21
97.656668
 31
0.0
  0
LINE
  5
2f7
100
AcDbEntity
  8
0
 62
7
100
AcDbLine
 10
54.823027
 20
97.656668
 30
0.0
 11
55.076728
 21
97.840950
 31
0.0
  0
LINE
  5
2f8
100
AcDbEntity
  8
0
 62
7
100
AcDbLine
 10
55.076728
 20
97.840950
 30
0.0
 11
55.363229
 21
97.968559
 31
0.0
  0
LINE
  5
2f9
100
AcDbEntity
  8
0
 62
7
100
AcDbLine
 10
55.363229
 20
97.968559
 30
0.0
 11
55.669929
 21
98.033752
 31
0.0
  0
LINE
  5
2fa
100
AcDbEntity
  8
0
 62
7
100
AcDbLine
 10
55.669929
 20
98.033752
 30
0.0
 11
55.983529
 21
98.033752
 31
0.0
  0
LINE
  5
2fb
100
AcDbEntity
  8
0
 62
7
100
AcDbLine
 10
55.983529
 20
98.033752
 30
0.0
 11
56.290229
 21
97.968559
 31
0.0
  0
LINE
  5
2fc
100
AcDbEntity
  8
0
 62
7
100
AcDbLine
 10
56.290229
 20
97.968559
 30
0.0
 11
56.576727
 21
97.840950
 31
0.0
  0
LINE
  5
2fd
100
AcDbEntity
  8
0
 62
7
100
AcDbLine
 10
56.576727
 20
97.840950
 30
0.0
 11
56.830428
 21
97.656668
 31
0.0
  0
LINE
  5
2fe
100
AcDbEntity
  8
0
 62
7
100
AcDbLine
 10
56.830428
 20
97.656668
 30
0.0
 11
57.040227
 21
97.423649
 31
0.0
  0
LINE
  5
2ff
100
AcDbEntity
  8
0
 62
7
100
AcDbLine
 10
57.040227
 20
97.423649
 30
0.0
 11
57.197027
 21
97.152055
 31
0.0
  0
LINE
  5
300
100
AcDbEntity
  8
0
 62
7
100
AcDbLine
 10
57.197027
 20
97.152055
 30
0.0
 11
57.293928
 21
96.853843
 31
0.0
  0
LINE
  5
301
100
AcDbEntity
  8
0
 62
7
100
AcDbLine
 10
57.293928
 20
96.853843
 30
0.0
 11
57.326728
 21
96.541952
 31
0.0
  0
LINE
  5
302
100
AcDbEntity
  8
0
 62
7
100
AcDbLine
 10
57.326728
 20
96.541952
 30
0.0
 11
57.293928
 21
96.230061
 31
0.0
  0
LINE
  5
303
100
AcDbEntity
  8
0
 62
7
100
AcDbLine
 10
57.293928
 20
96.230061
 30
0.0
 11
57.197027
 21
95.931849
 31
0.0
  0
LINE
  5
304
100
AcDbEntity
  8
0
 62
7
100
AcDbLine
 10
57.197027
 20
95.931849
 30
0.0
 11
57.040227
 21
95.660254
 31
0.0
  0
LINE
  5
305
100
AcDbEntity
  8
0
 62
7
100
AcDbLine
 10
57.040227
 20
95.660254
 30
0.0
 11
56.830428
 21
95.427262
 31
0.0
  0
LINE
  5
306
100
AcDbEntity
  8
0
 62
7
100
AcDbLine
 10
56.830428
 20
95.427262
 30
0.0
 11
56.576727
 21
95.242953
 31
0.0
  0
LINE
  5
307
100
AcDbEntity
  8
0
 62
7
100
AcDbLine
 10
56.576727
 20
95.242953
 30
0.0
 11
56.290229
 21
95.115345
 31
0.0
  0
LINE
  5
308
100
AcDbEntity
  8
0
 62
7
100
AcDbLine
 10
56.290229
 20
95.115345
 30
0.0
 11
55.983529
 21
95.050152
 31
0.0
  0
LINE
  5
309
100
AcDbEntity
  8
0
 62
7
100
AcDbLine
 10
55.983529
 20
95.050152
 30
0.0
 11
55.669929
 21
95.050152
 31
0.0
  0
LINE
  5
30a
100
AcDbEntity
  8
0
 62
7
100
AcDbLine
 10
146.169944
 20
89.050142
 30
0.0
 11
145.863209
 21
89.115362
 31
0.0
  0
LINE
  5
30b
100
AcDbEntity
  8
0
 62
7
100
AcDbLine
 10
145.863209
 20
89.115362
 30
0.0
 11
145.576727
 21
89.242944
 31
0.0
  0
LINE
  5
30c
100
AcDbEntity
  8
0
 62
7
100
AcDbLine
 10
145.576727
 20
89.242944
 30
0.0
 11
145.323036
 21
89.427253
 31
0.0
  0
LINE
  5
30d
100
AcDbEntity
  8
0
 62
7
100
AcDbLine
 10
145.323036
 20
89.427253
 30
0.0
 11
145.113206
 21
89.660245
 31
0.0
  0
LINE
  5
30e
100
AcDbEntity
  8
0
 62
7
100
AcDbLine
 10
145.113206
 20
89.660245
 30
0.0
 11
144.956406
 21
89.931866
 31
0.0
  0
LINE
  5
30f
100
AcDbEntity
  8
0
 62
7
100
AcDbLine
 10
144.956406
 20
89.931866
 30
0.0
 11
144.859515
 21
90.230052
 31
0.0
  0
LINE
  5
310
100
AcDbEntity
  8
0
 62
7
100
AcDbLine
 10
144.859515
 20
90.230052
 30
0.0
 11
144.826725
 21
90.541943
 31
0.0
  0
LINE
  5
311
100
AcDbEntity
  8
0
 62
7
100
AcDbLine
 10
144.826725
 20
90.541943
 30
0.0
 11
144.859515
 21
90.853860
 31
0.0
  0
LINE
  5
312
100
AcDbEntity
  8
0
 62
7
100
AcDbLine
 10
144.859515
 20
90.853860
 30
0.0
 11
144.956406
 21
91.152045
 31
0.0
  0
LINE
  5
313
100
AcDbEntity
  8
0
 62
7
100
AcDbLine
 10
144.956406
 20
91.152045
 30
0.0
 11
145.113206
 21
91.423667
 31
0.0
  0
LINE
  5
314
100
AcDbEntity
  8
0
 62
7
100
AcDbLine
 10
145.113206
 20
91.423667
 30
0.0
 11
145.323036
 21
91.656659
 31
0.0
  0
LINE
  5
315
100
AcDbEntity
  8
0
 62
7
100
AcDbLine
 10
145.323036
 20
91.656659
 30
0.0
 11
145.576742
 21
91.840967
 31
0.0
  0
LINE
  5
316
100
AcDbEntity
  8
0
 62
7
100
AcDbLine
 10
145.576742
 20
91.840967
 30
0.0
 11
145.863209
 21
91.968550
 31
0.0
  0
LINE
  5
317
100
AcDbEntity
  8
0
 62
7
100
AcDbLine
 10
145.863209
 20
91.968550
 30
0.0
 11
146.169944
 21
92.033743
 31
0.0
  0
LINE
  5
318
100
AcDbEntity
  8
0
 62
7
100
AcDbLine
 10
146.169944
 20
92.033743
 30
0.0
 11
146.483509
 21
92.033743
 31
0.0
  0
LINE
  5
319
100
AcDbEntity
  8
0
 62
7
100
AcDbLine
 10
146.483509
 20
92.033743
 30
0.0
 11
146.790243
 21
91.968550
 31
0.0
  0
LINE
  5
31a
100
AcDbEntity
  8
0
 62
7
100
AcDbLine
 10
146.790243
 20
91.968550
 30
0.0
 11
147.076726
 21
91.840967
 31
0.0
  0
LINE
  5
31b
100
AcDbEntity
  8
0
 62
7
100
AcDbLine
 10
147.076726
 20
91.840967
 30
0.0
 11
147.330417
 21
91.656659
 31
0.0
  0
LINE
  5
31c
100
AcDbEntity
  8
0
 62
7
100
AcDbLine
 10
147.330417
 20
91.656659
 30
0.0
 11
147.540247
 21
91.423667
 31
0.0
  0
LINE
  5
31d
100
AcDbEntity
  8
0
 62
7
100
AcDbLine
 10
147.540247
 20
91.423667
 30
0.0
 11
147.697047
 21
91.152045
 31
0.0
  0
LINE
  5
31e
100
AcDbEntity
  8
0
 62
7
100
AcDbLine
 10
147.697047
 20
91.152045
 30
0.0
 11
147.793938
 21
90.853860
 31
0.0
  0
LINE
  5
31f
100
AcDbEntity
  8
0
 62
7
100
AcDbLine
 10
147.793938
 20
90.853860
 30
0.0
 11
147.826727
 21
90.541943
 31
0.0
  0
LINE
  5
320
100
AcDbEntity
  8
0
 62
7
100
AcDbLine
 10
147.826727
 20
90.541943
 30
0.0
 11
147.793938
 21
90.230052
 31
0.0
  0
LINE
  5
321
100
AcDbEntity
  8
0
 62
7
100
AcDbLine
 10
147.793938
 20
90.230052
 30
0.0
 11
147.697047
 21
89.931866
 31
0.0
  0
LINE
  5
322
100
AcDbEntity
  8
0
 62
7
100
AcDbLine
 10
147.697047
 20
89.931866
 30
0.0
 11
147.540247
 21
89.660245
 31
0.0
  0
LINE
  5
323
100
AcDbEntity
  8
0
 62
7
100
AcDbLine
 10
147.540247
 20
89.660245
 30
0.0
 11
147.330417
 21
89.427253
 31
0.0
  0
LINE
  5
324
100
AcDbEntity
  8
0
 62
7
100
AcDbLine
 10
147.330417
 20
89.427253
 30
0.0
 11
147.076726
 21
89.242944
 31
0.0
  0
LINE
  5
325
100
AcDbEntity
  8
0
 62
7
100
AcDbLine
 10
147.076726
 20
89.242944
 30
0.0
 11
146.790243
 21
89.115362
 31
0.0
  0
LINE
  5
326
100
AcDbEntity
  8
0
 62
7
100
AcDbLine
 10
146.790243
 20
89.115362
 30
0.0
 11
146.483509
 21
89.050142
 31
0.0
  0
LINE
  5
327
100
AcDbEntity
  8
0
 62
7
100
AcDbLine
 10
146.483509
 20
89.050142
 30
0.0
 11
146.169944
 21
89.050142
 31
0.0
  0
ENDSEC
  0
SECTION
  2
OBJECTS
  0
DICTIONARY
  5
C
330
0
100
AcDbDictionary
  3
ACAD_GROUP
350
D
  3
ACAD_MLINESTYLE
350
17
  0
DICTIONARY
  5
D
330
C
100
AcDbDictionary
  0
DICTIONARY
  5
1A
330
C
100
AcDbDictionary
  0
DICTIONARY
  5
17
330
C
100
AcDbDictionary
  3
STANDARD
350
18
  0
DICTIONARY
  5
19
330
C
100
AcDbDictionary
  0
ENDSEC
  0
EOF
