solid OpenSCAD_Model
  facet normal 0 0 -1
    outer loop
      vertex 360.488 220.89 0
      vertex 397.335 287.5 0
      vertex 397.335 112.5 0
    endloop
  endfacet
  facet normal 0 0 -1
    outer loop
      vertex 397.335 287.5 0
      vertex 360.488 220.89 0
      vertex 360.534 221.342 0
    endloop
  endfacet
  facet normal 0 0 -1
    outer loop
      vertex 397.335 112.5 0
      vertex 360.358 220.469 0
      vertex 360.488 220.89 0
    endloop
  endfacet
  facet normal 0 0 -1
    outer loop
      vertex 397.335 112.5 0
      vertex 359.877 219.757 0
      vertex 360.358 220.469 0
    endloop
  endfacet
  facet normal 0 0 -1
    outer loop
      vertex 397.335 112.5 0
      vertex 359.165 219.277 0
      vertex 359.877 219.757 0
    endloop
  endfacet
  facet normal 0 0 -1
    outer loop
      vertex 397.335 112.5 0
      vertex 358.744 219.146 0
      vertex 359.165 219.277 0
    endloop
  endfacet
  facet normal 0 0 -1
    outer loop
      vertex 343.995 112.5 0
      vertex 358.744 219.146 0
      vertex 397.335 112.5 0
    endloop
  endfacet
  facet normal 0 0 -1
    outer loop
      vertex 358.744 219.146 0
      vertex 343.995 112.5 0
      vertex 358.293 219.101 0
    endloop
  endfacet
  facet normal -0 0 -1
    outer loop
      vertex 358.293 219.101 0
      vertex 343.995 112.5 0
      vertex 357.841 219.146 0
    endloop
  endfacet
  facet normal -0 0 -1
    outer loop
      vertex 357.841 219.146 0
      vertex 343.995 112.5 0
      vertex 357.421 219.277 0
    endloop
  endfacet
  facet normal -0 0 -1
    outer loop
      vertex 357.421 219.277 0
      vertex 343.995 112.5 0
      vertex 356.708 219.757 0
    endloop
  endfacet
  facet normal -0 0 -1
    outer loop
      vertex 356.097 220.89 0
      vertex 343.995 112.5 0
      vertex 356.052 221.342 0
    endloop
  endfacet
  facet normal -0 0 -1
    outer loop
      vertex 356.228 220.469 0
      vertex 343.995 112.5 0
      vertex 356.097 220.89 0
    endloop
  endfacet
  facet normal -0 0 -1
    outer loop
      vertex 356.708 219.757 0
      vertex 343.995 112.5 0
      vertex 356.228 220.469 0
    endloop
  endfacet
  facet normal 0 0 -1
    outer loop
      vertex 360.488 221.793 0
      vertex 397.335 287.5 0
      vertex 360.534 221.342 0
    endloop
  endfacet
  facet normal 0 0 -1
    outer loop
      vertex 360.358 222.214 0
      vertex 397.335 287.5 0
      vertex 360.488 221.793 0
    endloop
  endfacet
  facet normal 0 0 -1
    outer loop
      vertex 359.877 222.926 0
      vertex 397.335 287.5 0
      vertex 360.358 222.214 0
    endloop
  endfacet
  facet normal 0 0 -1
    outer loop
      vertex 359.165 223.406 0
      vertex 397.335 287.5 0
      vertex 359.877 222.926 0
    endloop
  endfacet
  facet normal 0 0 -1
    outer loop
      vertex 358.744 223.537 0
      vertex 397.335 287.5 0
      vertex 359.165 223.406 0
    endloop
  endfacet
  facet normal 0 0 -1
    outer loop
      vertex 343.995 287.5 0
      vertex 358.744 223.537 0
      vertex 358.293 223.582 0
    endloop
  endfacet
  facet normal 0 0 -1
    outer loop
      vertex 343.995 287.5 0
      vertex 358.293 223.582 0
      vertex 357.841 223.537 0
    endloop
  endfacet
  facet normal 0 0 -1
    outer loop
      vertex 343.995 287.5 0
      vertex 357.841 223.537 0
      vertex 357.421 223.406 0
    endloop
  endfacet
  facet normal 0 0 -1
    outer loop
      vertex 343.995 287.5 0
      vertex 357.421 223.406 0
      vertex 356.708 222.926 0
    endloop
  endfacet
  facet normal 0 0 -1
    outer loop
      vertex 343.995 287.5 0
      vertex 356.708 222.926 0
      vertex 356.228 222.214 0
    endloop
  endfacet
  facet normal 0 0 -1
    outer loop
      vertex 343.995 287.5 0
      vertex 356.052 221.342 0
      vertex 343.995 112.5 0
    endloop
  endfacet
  facet normal 0 0 -1
    outer loop
      vertex 358.744 223.537 0
      vertex 343.995 287.5 0
      vertex 397.335 287.5 0
    endloop
  endfacet
  facet normal 0 0 -1
    outer loop
      vertex 356.097 221.793 0
      vertex 343.995 287.5 0
      vertex 356.228 222.214 0
    endloop
  endfacet
  facet normal 0 0 -1
    outer loop
      vertex 356.052 221.342 0
      vertex 343.995 287.5 0
      vertex 356.097 221.793 0
    endloop
  endfacet
  facet normal 0 0 1
    outer loop
      vertex 360.488 220.89 3
      vertex 397.335 250 3
      vertex 360.534 221.342 3
    endloop
  endfacet
  facet normal 0 0 1
    outer loop
      vertex 397.335 250 3
      vertex 360.488 221.793 3
      vertex 360.534 221.342 3
    endloop
  endfacet
  facet normal 0 0 1
    outer loop
      vertex 397.335 250 3
      vertex 360.358 222.214 3
      vertex 360.488 221.793 3
    endloop
  endfacet
  facet normal 0 0 1
    outer loop
      vertex 397.335 250 3
      vertex 359.877 222.926 3
      vertex 360.358 222.214 3
    endloop
  endfacet
  facet normal 0 0 1
    outer loop
      vertex 397.335 250 3
      vertex 359.165 223.406 3
      vertex 359.877 222.926 3
    endloop
  endfacet
  facet normal -0 0 1
    outer loop
      vertex 343.995 250 3
      vertex 359.165 223.406 3
      vertex 397.335 250 3
    endloop
  endfacet
  facet normal 0 0 1
    outer loop
      vertex 359.165 223.406 3
      vertex 343.995 250 3
      vertex 358.744 223.537 3
    endloop
  endfacet
  facet normal 0 0 1
    outer loop
      vertex 358.744 223.537 3
      vertex 343.995 250 3
      vertex 358.293 223.582 3
    endloop
  endfacet
  facet normal 0 0 1
    outer loop
      vertex 358.293 223.582 3
      vertex 343.995 250 3
      vertex 357.841 223.537 3
    endloop
  endfacet
  facet normal 0 0 1
    outer loop
      vertex 356.097 221.793 3
      vertex 343.995 250 3
      vertex 356.052 221.342 3
    endloop
  endfacet
  facet normal 0 0 1
    outer loop
      vertex 356.228 222.214 3
      vertex 343.995 250 3
      vertex 356.097 221.793 3
    endloop
  endfacet
  facet normal 0 0 1
    outer loop
      vertex 356.708 222.926 3
      vertex 343.995 250 3
      vertex 356.228 222.214 3
    endloop
  endfacet
  facet normal 0 0 1
    outer loop
      vertex 357.421 223.406 3
      vertex 343.995 250 3
      vertex 356.708 222.926 3
    endloop
  endfacet
  facet normal 0 0 1
    outer loop
      vertex 357.841 223.537 3
      vertex 343.995 250 3
      vertex 357.421 223.406 3
    endloop
  endfacet
  facet normal 0 0 1
    outer loop
      vertex 360.358 220.469 3
      vertex 397.335 250 3
      vertex 360.488 220.89 3
    endloop
  endfacet
  facet normal 0 0 1
    outer loop
      vertex 397.335 250 3
      vertex 360.358 220.469 3
      vertex 397.335 150 3
    endloop
  endfacet
  facet normal -0 0 1
    outer loop
      vertex 359.877 219.757 3
      vertex 397.335 150 3
      vertex 360.358 220.469 3
    endloop
  endfacet
  facet normal -0 0 1
    outer loop
      vertex 359.165 219.277 3
      vertex 397.335 150 3
      vertex 359.877 219.757 3
    endloop
  endfacet
  facet normal -0 0 1
    outer loop
      vertex 358.744 219.146 3
      vertex 397.335 150 3
      vertex 359.165 219.277 3
    endloop
  endfacet
  facet normal 0 0 1
    outer loop
      vertex 343.995 150 3
      vertex 358.744 219.146 3
      vertex 358.293 219.101 3
    endloop
  endfacet
  facet normal 0 0 1
    outer loop
      vertex 343.995 150 3
      vertex 358.293 219.101 3
      vertex 357.841 219.146 3
    endloop
  endfacet
  facet normal 0 0 1
    outer loop
      vertex 343.995 150 3
      vertex 357.841 219.146 3
      vertex 357.421 219.277 3
    endloop
  endfacet
  facet normal 0 0 1
    outer loop
      vertex 343.995 150 3
      vertex 357.421 219.277 3
      vertex 356.708 219.757 3
    endloop
  endfacet
  facet normal 0 0 1
    outer loop
      vertex 343.995 150 3
      vertex 356.708 219.757 3
      vertex 356.228 220.469 3
    endloop
  endfacet
  facet normal 0 0 1
    outer loop
      vertex 343.995 250 3
      vertex 356.097 220.89 3
      vertex 356.052 221.342 3
    endloop
  endfacet
  facet normal 0 0 1
    outer loop
      vertex 343.995 150 3
      vertex 356.097 220.89 3
      vertex 343.995 250 3
    endloop
  endfacet
  facet normal 0 0 1
    outer loop
      vertex 358.744 219.146 3
      vertex 343.995 150 3
      vertex 397.335 150 3
    endloop
  endfacet
  facet normal 0 0 1
    outer loop
      vertex 356.097 220.89 3
      vertex 343.995 150 3
      vertex 356.228 220.469 3
    endloop
  endfacet
  facet normal 1 0 0
    outer loop
      vertex 397.335 250 3
      vertex 397.335 150 3
      vertex 397.335 250 1.5
    endloop
  endfacet
  facet normal 1 -0 0
    outer loop
      vertex 397.335 250 1.5
      vertex 397.335 287.5 0
      vertex 397.335 287.5 1.5
    endloop
  endfacet
  facet normal 1 0 0
    outer loop
      vertex 397.335 150 1.5
      vertex 397.335 250 1.5
      vertex 397.335 150 3
    endloop
  endfacet
  facet normal 1 0 0
    outer loop
      vertex 397.335 250 1.5
      vertex 397.335 150 1.5
      vertex 397.335 287.5 0
    endloop
  endfacet
  facet normal 1 0 0
    outer loop
      vertex 397.335 112.5 0
      vertex 397.335 150 1.5
      vertex 397.335 112.5 1.5
    endloop
  endfacet
  facet normal 1 0 0
    outer loop
      vertex 397.335 150 1.5
      vertex 397.335 112.5 0
      vertex 397.335 287.5 0
    endloop
  endfacet
  facet normal -0.559021 -0.829153 0
    outer loop
      vertex 359.165 223.406 0
      vertex 359.877 222.926 3
      vertex 359.165 223.406 3
    endloop
  endfacet
  facet normal -0.559021 -0.829153 -0
    outer loop
      vertex 359.877 222.926 3
      vertex 359.165 223.406 0
      vertex 359.877 222.926 0
    endloop
  endfacet
  facet normal -0.296464 -0.955044 0
    outer loop
      vertex 358.744 223.537 0
      vertex 359.165 223.406 3
      vertex 358.744 223.537 3
    endloop
  endfacet
  facet normal -0.296464 -0.955044 -0
    outer loop
      vertex 359.165 223.406 3
      vertex 358.744 223.537 0
      vertex 359.165 223.406 0
    endloop
  endfacet
  facet normal -0.100309 -0.994956 0
    outer loop
      vertex 358.293 223.582 0
      vertex 358.744 223.537 3
      vertex 358.293 223.582 3
    endloop
  endfacet
  facet normal -0.100309 -0.994956 -0
    outer loop
      vertex 358.744 223.537 3
      vertex 358.293 223.582 0
      vertex 358.744 223.537 0
    endloop
  endfacet
  facet normal 0.296432 0.955054 -0
    outer loop
      vertex 357.841 219.146 0
      vertex 357.421 219.277 3
      vertex 357.841 219.146 3
    endloop
  endfacet
  facet normal 0.296432 0.955054 0
    outer loop
      vertex 357.421 219.277 3
      vertex 357.841 219.146 0
      vertex 357.421 219.277 0
    endloop
  endfacet
  facet normal 0.955034 -0.296495 0
    outer loop
      vertex 356.097 221.793 3
      vertex 356.228 222.214 0
      vertex 356.228 222.214 3
    endloop
  endfacet
  facet normal 0.955034 -0.296495 0
    outer loop
      vertex 356.228 222.214 0
      vertex 356.097 221.793 3
      vertex 356.097 221.793 0
    endloop
  endfacet
  facet normal 0.100316 0.994956 -0
    outer loop
      vertex 358.293 219.101 0
      vertex 357.841 219.146 3
      vertex 358.293 219.101 3
    endloop
  endfacet
  facet normal 0.100316 0.994956 0
    outer loop
      vertex 357.841 219.146 3
      vertex 358.293 219.101 0
      vertex 357.841 219.146 0
    endloop
  endfacet
  facet normal -0.296432 0.955054 0
    outer loop
      vertex 359.165 219.277 0
      vertex 358.744 219.146 3
      vertex 359.165 219.277 3
    endloop
  endfacet
  facet normal -0.296432 0.955054 0
    outer loop
      vertex 358.744 219.146 3
      vertex 359.165 219.277 0
      vertex 358.744 219.146 0
    endloop
  endfacet
  facet normal -0.829153 -0.559021 0
    outer loop
      vertex 360.358 222.214 0
      vertex 359.877 222.926 3
      vertex 359.877 222.926 0
    endloop
  endfacet
  facet normal -0.829153 -0.559021 0
    outer loop
      vertex 359.877 222.926 3
      vertex 360.358 222.214 0
      vertex 360.358 222.214 3
    endloop
  endfacet
  facet normal -0.955034 -0.296495 0
    outer loop
      vertex 360.488 221.793 0
      vertex 360.358 222.214 3
      vertex 360.358 222.214 0
    endloop
  endfacet
  facet normal -0.955034 -0.296495 0
    outer loop
      vertex 360.358 222.214 3
      vertex 360.488 221.793 0
      vertex 360.488 221.793 3
    endloop
  endfacet
  facet normal 0.829153 0.559021 0
    outer loop
      vertex 356.708 219.757 3
      vertex 356.228 220.469 0
      vertex 356.228 220.469 3
    endloop
  endfacet
  facet normal 0.829153 0.559021 0
    outer loop
      vertex 356.228 220.469 0
      vertex 356.708 219.757 3
      vertex 356.708 219.757 0
    endloop
  endfacet
  facet normal -0.559033 0.829145 0
    outer loop
      vertex 359.877 219.757 0
      vertex 359.165 219.277 3
      vertex 359.877 219.757 3
    endloop
  endfacet
  facet normal -0.559033 0.829145 0
    outer loop
      vertex 359.165 219.277 3
      vertex 359.877 219.757 0
      vertex 359.165 219.277 0
    endloop
  endfacet
  facet normal -0.994963 -0.100246 0
    outer loop
      vertex 360.534 221.342 0
      vertex 360.488 221.793 3
      vertex 360.488 221.793 0
    endloop
  endfacet
  facet normal -0.994963 -0.100246 0
    outer loop
      vertex 360.488 221.793 3
      vertex 360.534 221.342 0
      vertex 360.534 221.342 3
    endloop
  endfacet
  facet normal 0.559033 0.829145 -0
    outer loop
      vertex 357.421 219.277 0
      vertex 356.708 219.757 3
      vertex 357.421 219.277 3
    endloop
  endfacet
  facet normal 0.559033 0.829145 0
    outer loop
      vertex 356.708 219.757 3
      vertex 357.421 219.277 0
      vertex 356.708 219.757 0
    endloop
  endfacet
  facet normal 0.829153 -0.559021 0
    outer loop
      vertex 356.228 222.214 3
      vertex 356.708 222.926 0
      vertex 356.708 222.926 3
    endloop
  endfacet
  facet normal 0.829153 -0.559021 0
    outer loop
      vertex 356.708 222.926 0
      vertex 356.228 222.214 3
      vertex 356.228 222.214 0
    endloop
  endfacet
  facet normal 0.296464 -0.955044 0
    outer loop
      vertex 357.421 223.406 0
      vertex 357.841 223.537 3
      vertex 357.421 223.406 3
    endloop
  endfacet
  facet normal 0.296464 -0.955044 0
    outer loop
      vertex 357.841 223.537 3
      vertex 357.421 223.406 0
      vertex 357.841 223.537 0
    endloop
  endfacet
  facet normal 0.994956 -0.100312 0
    outer loop
      vertex 356.052 221.342 3
      vertex 356.097 221.793 0
      vertex 356.097 221.793 3
    endloop
  endfacet
  facet normal 0.994956 -0.100312 0
    outer loop
      vertex 356.097 221.793 0
      vertex 356.052 221.342 3
      vertex 356.052 221.342 0
    endloop
  endfacet
  facet normal -0.829153 0.559021 0
    outer loop
      vertex 359.877 219.757 0
      vertex 360.358 220.469 3
      vertex 360.358 220.469 0
    endloop
  endfacet
  facet normal -0.829153 0.559021 0
    outer loop
      vertex 360.358 220.469 3
      vertex 359.877 219.757 0
      vertex 359.877 219.757 3
    endloop
  endfacet
  facet normal -0.100309 0.994956 0
    outer loop
      vertex 358.744 219.146 0
      vertex 358.293 219.101 3
      vertex 358.744 219.146 3
    endloop
  endfacet
  facet normal -0.100309 0.994956 0
    outer loop
      vertex 358.293 219.101 3
      vertex 358.744 219.146 0
      vertex 358.293 219.101 0
    endloop
  endfacet
  facet normal -0.994963 0.100246 0
    outer loop
      vertex 360.488 220.89 0
      vertex 360.534 221.342 3
      vertex 360.534 221.342 0
    endloop
  endfacet
  facet normal -0.994963 0.100246 0
    outer loop
      vertex 360.534 221.342 3
      vertex 360.488 220.89 0
      vertex 360.488 220.89 3
    endloop
  endfacet
  facet normal -0.955034 0.296495 0
    outer loop
      vertex 360.358 220.469 0
      vertex 360.488 220.89 3
      vertex 360.488 220.89 0
    endloop
  endfacet
  facet normal -0.955034 0.296495 0
    outer loop
      vertex 360.488 220.89 3
      vertex 360.358 220.469 0
      vertex 360.358 220.469 3
    endloop
  endfacet
  facet normal 0.559021 -0.829153 0
    outer loop
      vertex 356.708 222.926 0
      vertex 357.421 223.406 3
      vertex 356.708 222.926 3
    endloop
  endfacet
  facet normal 0.559021 -0.829153 0
    outer loop
      vertex 357.421 223.406 3
      vertex 356.708 222.926 0
      vertex 357.421 223.406 0
    endloop
  endfacet
  facet normal 0.994956 0.100312 0
    outer loop
      vertex 356.097 220.89 3
      vertex 356.052 221.342 0
      vertex 356.052 221.342 3
    endloop
  endfacet
  facet normal 0.994956 0.100312 0
    outer loop
      vertex 356.052 221.342 0
      vertex 356.097 220.89 3
      vertex 356.097 220.89 0
    endloop
  endfacet
  facet normal 0.100316 -0.994956 0
    outer loop
      vertex 357.841 223.537 0
      vertex 358.293 223.582 3
      vertex 357.841 223.537 3
    endloop
  endfacet
  facet normal 0.100316 -0.994956 0
    outer loop
      vertex 358.293 223.582 3
      vertex 357.841 223.537 0
      vertex 358.293 223.582 0
    endloop
  endfacet
  facet normal 0.955034 0.296495 0
    outer loop
      vertex 356.228 220.469 3
      vertex 356.097 220.89 0
      vertex 356.097 220.89 3
    endloop
  endfacet
  facet normal 0.955034 0.296495 0
    outer loop
      vertex 356.097 220.89 0
      vertex 356.228 220.469 3
      vertex 356.228 220.469 0
    endloop
  endfacet
  facet normal -1 0 0
    outer loop
      vertex 343.995 287.5 0
      vertex 343.995 250 1.5
      vertex 343.995 287.5 1.5
    endloop
  endfacet
  facet normal -1 0 0
    outer loop
      vertex 343.995 250 1.5
      vertex 343.995 150 1.5
      vertex 343.995 250 3
    endloop
  endfacet
  facet normal -1 0 0
    outer loop
      vertex 343.995 287.5 0
      vertex 343.995 150 1.5
      vertex 343.995 250 1.5
    endloop
  endfacet
  facet normal -1 0 0
    outer loop
      vertex 343.995 112.5 0
      vertex 343.995 150 1.5
      vertex 343.995 287.5 0
    endloop
  endfacet
  facet normal -1 -0 0
    outer loop
      vertex 343.995 150 1.5
      vertex 343.995 112.5 0
      vertex 343.995 112.5 1.5
    endloop
  endfacet
  facet normal -1 -0 0
    outer loop
      vertex 343.995 250 3
      vertex 343.995 150 1.5
      vertex 343.995 150 3
    endloop
  endfacet
  facet normal -0 0 1
    outer loop
      vertex 343.995 150 1.5
      vertex 397.335 112.5 1.5
      vertex 397.335 150 1.5
    endloop
  endfacet
  facet normal 0 0 1
    outer loop
      vertex 397.335 112.5 1.5
      vertex 343.995 150 1.5
      vertex 343.995 112.5 1.5
    endloop
  endfacet
  facet normal -0 0 1
    outer loop
      vertex 343.995 287.5 1.5
      vertex 397.335 250 1.5
      vertex 397.335 287.5 1.5
    endloop
  endfacet
  facet normal 0 0 1
    outer loop
      vertex 397.335 250 1.5
      vertex 343.995 287.5 1.5
      vertex 343.995 250 1.5
    endloop
  endfacet
  facet normal 0 1 -0
    outer loop
      vertex 397.335 287.5 0
      vertex 343.995 287.5 1.5
      vertex 397.335 287.5 1.5
    endloop
  endfacet
  facet normal 0 1 0
    outer loop
      vertex 343.995 287.5 1.5
      vertex 397.335 287.5 0
      vertex 343.995 287.5 0
    endloop
  endfacet
  facet normal 0 -1 0
    outer loop
      vertex 343.995 112.5 0
      vertex 397.335 112.5 1.5
      vertex 343.995 112.5 1.5
    endloop
  endfacet
  facet normal 0 -1 -0
    outer loop
      vertex 397.335 112.5 1.5
      vertex 343.995 112.5 0
      vertex 397.335 112.5 0
    endloop
  endfacet
  facet normal 0 1 -0
    outer loop
      vertex 397.335 250 1.5
      vertex 343.995 250 3
      vertex 397.335 250 3
    endloop
  endfacet
  facet normal 0 1 0
    outer loop
      vertex 343.995 250 3
      vertex 397.335 250 1.5
      vertex 343.995 250 1.5
    endloop
  endfacet
  facet normal 0 -1 0
    outer loop
      vertex 343.995 150 1.5
      vertex 397.335 150 3
      vertex 343.995 150 3
    endloop
  endfacet
  facet normal 0 -1 -0
    outer loop
      vertex 397.335 150 3
      vertex 343.995 150 1.5
      vertex 397.335 150 1.5
    endloop
  endfacet
endsolid OpenSCAD_Model
