<?xml version="1.0" encoding="UTF-8" standalone="no"?>
<!-- Created with Inkscape (http://www.inkscape.org/) -->

<svg
   xmlns:dc="http://purl.org/dc/elements/1.1/"
   xmlns:cc="http://creativecommons.org/ns#"
   xmlns:rdf="http://www.w3.org/1999/02/22-rdf-syntax-ns#"
   xmlns:svg="http://www.w3.org/2000/svg"
   xmlns="http://www.w3.org/2000/svg"
   xmlns:sodipodi="http://sodipodi.sourceforge.net/DTD/sodipodi-0.dtd"
   xmlns:inkscape="http://www.inkscape.org/namespaces/inkscape"
   version="1.1"
   id="svg29"
   xml:space="preserve"
   width="2245.3333"
   height="1588"
   viewBox="0 0 2245.3333 1588"
   sodipodi:docname="MK3V8B-Carriage-A2.svg"
   inkscape:version="0.92.1 r15371"><sodipodi:namedview
     pagecolor="#ffffff"
     bordercolor="#666666"
     borderopacity="1"
     objecttolerance="10"
     gridtolerance="10"
     guidetolerance="10"
     inkscape:pageopacity="0"
     inkscape:pageshadow="2"
     inkscape:window-width="1861"
     inkscape:window-height="1136"
     id="namedview31"
     showgrid="false"
     inkscape:zoom="4.3322504"
     inkscape:cx="1351.5864"
     inkscape:cy="839.42714"
     inkscape:window-x="1920"
     inkscape:window-y="27"
     inkscape:window-maximized="1"
     inkscape:current-layer="g39" /><metadata
     id="metadata35"><rdf:RDF><cc:Work
         rdf:about=""><dc:format>image/svg+xml</dc:format><dc:type
           rdf:resource="http://purl.org/dc/dcmitype/StillImage" /><dc:title /></cc:Work></rdf:RDF></metadata><defs
     id="defs33"><clipPath
       id="clipPath45"
       clipPathUnits="userSpaceOnUse"><path
         inkscape:connector-curvature="0"
         id="path43"
         d="M 0,0 H 38590 V 52763 H 0 V 0" /></clipPath></defs><g
     transform="matrix(0,-0.04,-0.04,0,2178.6666,1566.6667)"
     inkscape:label="MK3V8B-Frame-A2"
     inkscape:groupmode="layer"
     id="g37"><g
       id="g39"><path
         style="fill:none;stroke:#000000;stroke-width:0.95999998;stroke-linecap:round;stroke-linejoin:round;stroke-miterlimit:10;stroke-dasharray:none;stroke-opacity:1"
         d="m 718.10352,714.17383 88.79882,88.79883 h 64.20118 l 75.63867,-75.63868 v -60.32031 l -75.63867,-75.67969 h -64.20118 l -88.79882,88.83985 z"
         transform="matrix(0,-25,-25,0,39166.668,54466.665)"
         id="path47"
         inkscape:connector-curvature="0"
         sodipodi:nodetypes="ccccccccc" /><path
         style="fill:none;stroke:#000000;stroke-width:0.95999998;stroke-linecap:round;stroke-linejoin:round;stroke-miterlimit:10;stroke-dasharray:none;stroke-opacity:1"
         d="m 1285.0234,602.61328 -39.7207,-39.7207 h -64.1601 l -102.0801,102.08008 v 64.36132 l 102.0801,102.11914 h 64.1601 l 39.7207,-39.75976 z"
         transform="matrix(0,-25,-25,0,39166.668,54466.665)"
         id="path51"
         inkscape:connector-curvature="0"
         sodipodi:nodetypes="ccccccccc" /><path
         style="fill:none;stroke:#000000;stroke-width:0.95999998;stroke-linecap:round;stroke-linejoin:round;stroke-miterlimit:10;stroke-dasharray:none;stroke-opacity:1"
         d="M 1031.4219,277.65234 H 998.14258 L 843.22266,432.61328 H 763.38281 L 608.42188,277.65234 h -18.75977 l -13.2793,13.28125 v 18.75977 l 102.03907,102.08008 v 51.08008 l -35.91993,35.8789 v 118.16016 l -66.11914,66.16015 v 28.24024 l 66.11914,66.16015 v 118.11915 l 35.91993,35.91992 v 51.08008 L 576.38281,1084.6133 v 18.8008 l 13.2793,13.2793 h 18.75977 L 763.38281,961.73242 h 79.83985 l 154.91992,154.96098 h 33.27932 l 154.9609,-154.96098 h 60.9199 l 154.961,154.96098 h 18.7597 l 13.2793,-13.2793 v -18.8008 L 1290.7031,941.01367 v -86.36133 l 143.5996,-143.63867 v -27.7207 L 1290.7031,539.69336 v -86.35938 l 143.5996,-143.64062 v -18.75977 l -13.2793,-13.28125 h -18.7597 l -154.961,154.96094 h -60.9199 L 1031.4219,277.65234"
         transform="matrix(0,-25,-25,0,39166.668,54466.665)"
         id="path55"
         inkscape:connector-curvature="0"
         sodipodi:nodetypes="ccccccccccccccccccccccccccccccccccccccccccccc" /><path
         d="M27540.339 32593.094L25948.339 32593.094L24383.339 31027.094L24383.339 27253.094L25941.339 25695.094L27636.339 25695.094L30690.339 28749.094L30688.339 29445.094L27540.339 32593.094"
         style="fill:none;stroke:#000000;stroke-width:24;stroke-linecap:round;stroke-linejoin:round;stroke-miterlimit:10;stroke-dasharray:none;stroke-opacity:1"
         id="path59"
         inkscape:connector-curvature="0" /><path
         d="M15934.339 32593.094L17526.339 32593.094L19092.339 31027.094L19092.339 27253.094L17534.339 25695.094L15838.339 25695.094L12785.339 28749.094L12786.339 29445.094L15934.339 32593.094"
         style="fill:none;stroke:#000000;stroke-width:24;stroke-linecap:round;stroke-linejoin:round;stroke-miterlimit:10;stroke-dasharray:none;stroke-opacity:1"
         id="path61"
         inkscape:connector-curvature="0" /><path
         style="fill:none;stroke:#000000;stroke-width:0.95999998;stroke-linecap:round;stroke-linejoin:round;stroke-miterlimit:10;stroke-dasharray:none;stroke-opacity:1"
         d="m 720.36328,614.93359 4.41406,-0.89062 3.60352,-2.43164 2.43164,-3.60352 0.89062,-4.41406 -0.89062,-4.41406 -2.43164,-3.60547 -3.60352,-2.42969 -4.41406,-0.89062 -2.25976,-1.83985 v -51.04101 l 2.25976,-1.91993 4.41406,-0.89062 3.60352,-2.43164 2.43164,-3.60352 0.89062,-4.41406 -0.89062,-4.41406 -2.43164,-3.60547 -3.60352,-2.42969 -4.41406,-0.89062 v 0.0391 l -42.36133,-0.0391 -4.41406,0.89062 -3.60351,2.42969 -2.42969,3.60547 -0.89258,4.41406 0.89258,4.41406 2.42969,3.60352 3.60351,2.43164 4.41406,0.89062 2.30078,1.91993 v 51.04101 l -2.30078,1.83985 -4.41406,0.89062 -3.60351,2.42969 -2.42969,3.60547 -0.89258,4.41406 0.89258,4.41406 2.42969,3.60352 3.60351,2.43164 4.41406,0.89062 m 0.0215,0.0391 h 42.35937 z"
         transform="matrix(0,-25,-25,0,39166.668,54466.665)"
         id="path63"
         inkscape:connector-curvature="0"
         sodipodi:nodetypes="cccccccccccccccccccccccccccccccccccccccccccc" /><path
         style="fill:none;stroke:#000000;stroke-width:0.95999998;stroke-linecap:round;stroke-linejoin:round;stroke-miterlimit:10;stroke-dasharray:none;stroke-opacity:1"
         d="m 1362.8828,747.21287 4.4141,-0.89062 3.6054,-2.42969 2.4297,-3.60547 0.8907,-4.41406 -0.8907,-4.41407 -2.4297,-3.60351 -3.6054,-2.43164 -4.4141,-0.89063 -2.2598,-1.83984 v -51.04102 l 2.2598,-1.9199 4.4141,-0.89062 3.6054,-2.42969 2.4297,-3.60547 0.8907,-4.41406 -0.8907,-4.41406 -2.4297,-3.60352 -3.6054,-2.43164 -4.4141,-0.89063 v 0.041 l -42.3594,-0.041 -4.414,0.89063 -3.6055,2.43164 -2.4297,3.60352 -0.8906,4.41406 0.8906,4.41406 2.4297,3.60547 3.6055,2.42969 4.414,0.89062 2.2989,1.9199 v 51.04102 l -2.2989,1.83984 -4.414,0.89063 -3.6055,2.43164 -2.4297,3.60351 -0.8906,4.41407 0.8906,4.41406 2.4297,3.60547 3.6055,2.42969 4.414,0.89062 z"
         transform="matrix(0,-25,-25,0,39166.668,54466.665)"
         id="path65"
         inkscape:connector-curvature="0"
         sodipodi:nodetypes="cccccccccccccccccccccccccccccccccccccccccc" /><path
         style="fill:none;stroke:#000000;stroke-width:0.95999998;stroke-linecap:round;stroke-linejoin:round;stroke-miterlimit:10;stroke-dasharray:none;stroke-opacity:1"
         d="m 720.36328,879.49417 4.41406,-0.89258 3.60352,-2.42968 2.43164,-3.60547 0.89062,-4.41407 -0.89062,-4.41406 -2.43164,-3.60351 -3.60352,-2.42969 -4.41406,-0.89258 -2.25976,-1.83984 v -51.03907 l 2.25976,-1.91995 4.41406,-0.89258 3.60352,-2.42968 2.43164,-3.60352 0.89062,-4.41406 -0.89062,-4.41406 -2.43164,-3.60547 -3.60352,-2.42969 -4.41406,-0.89063 v 0.0391 l -42.36133,-0.0391 -4.41406,0.89063 -3.60351,2.42969 -2.42969,3.60547 -0.89258,4.41406 0.89258,4.41406 2.42969,3.60352 3.60351,2.42968 4.41406,0.89258 2.30078,1.91995 v 51.03907 l -2.30078,1.83984 -4.41406,0.89258 -3.60351,2.42969 -2.42969,3.60351 -0.89258,4.41406 0.89258,4.41407 2.42969,3.60547 3.60351,2.42968 4.41406,0.89258 m 0.0215,0.0391 h 42.35937 z"
         transform="matrix(0,-25,-25,0,39166.668,54466.665)"
         id="path67"
         inkscape:connector-curvature="0"
         sodipodi:nodetypes="cccccccccccccccccccccccccccccccccccccccccccc" /><path
         inkscape:connector-curvature="0"
         id="path277"
         style="fill:none;stroke:#00ff00;stroke-width:24;stroke-linecap:round;stroke-linejoin:round;stroke-miterlimit:10;stroke-dasharray:none;stroke-opacity:1"
         d="M11816.838 28956.094L11871.9160625 28967.2138125L11916.8935 28997.5385L11947.2181875 29042.5159375L11958.338 29097.594L11947.2181875 29152.6720625L11916.8935 29197.6495L11871.9160625 29227.9741875L11816.838 29239.094L11761.7599375 29227.9741875L11716.7825 29197.6495L11686.4578125 29152.6720625L11675.338 29097.594L11686.4578125 29042.5159375L11716.7825 28997.5385L11761.7599375 28967.2138125L11816.838 28956.094" /><path
         inkscape:connector-curvature="0"
         id="path281"
         style="fill:none;stroke:#00ff00;stroke-width:24;stroke-linecap:round;stroke-linejoin:round;stroke-miterlimit:10;stroke-dasharray:none;stroke-opacity:1"
         d="M31658.838 28956.094L31713.9164844 28967.2136719L31758.893875 28997.538125L31789.2183281 29042.5155156L31800.338 29097.594L31789.2183281 29152.6720625L31758.893875 29197.6495L31713.9164844 29227.9741875L31658.838 29239.094L31603.7599375 29227.9741875L31558.7825 29197.6495L31528.4578125 29152.6720625L31517.338 29097.594L31528.4578125 29042.5155156L31558.7825 28997.538125L31603.7599375 28967.2136719L31658.838 28956.094" /><path
         inkscape:connector-curvature="0"
         id="path285"
         style="fill:none;stroke:#00ff00;stroke-width:24;stroke-linecap:round;stroke-linejoin:round;stroke-miterlimit:10;stroke-dasharray:none;stroke-opacity:1"
         d="M11816.838 19035.094L11871.9164844 19046.2136719L11916.893875 19076.538125L11947.2183281 19121.5155156L11958.338 19176.594L11947.2183281 19231.6720625L11916.893875 19276.6495L11871.9164844 19306.9741875L11816.838 19318.094L11761.7599375 19306.9741875L11716.7825 19276.6495L11686.4578125 19231.6720625L11675.338 19176.594L11686.4578125 19121.5155156L11716.7825 19076.538125L11761.7599375 19046.2136719L11816.838 19035.094" /><path
         inkscape:connector-curvature="0"
         id="path289"
         style="fill:none;stroke:#00ff00;stroke-width:24;stroke-linecap:round;stroke-linejoin:round;stroke-miterlimit:10;stroke-dasharray:none;stroke-opacity:1"
         d="M31658.838 39349.094L31713.9164844 39360.2136719L31758.893875 39390.538125L31789.2183281 39435.5155156L31800.338 39490.594L31789.2183281 39545.6720625L31758.893875 39590.6495L31713.9164844 39620.9741875L31658.838 39632.094L31603.7599375 39620.9741875L31558.7825 39590.6495L31528.4578125 39545.6720625L31517.338 39490.594L31528.4578125 39435.5155156L31558.7825 39390.538125L31603.7599375 39360.2136719L31658.838 39349.094" /><path
         inkscape:connector-curvature="0"
         id="path293"
         style="fill:none;stroke:#00ff00;stroke-width:24;stroke-linecap:round;stroke-linejoin:round;stroke-miterlimit:10;stroke-dasharray:none;stroke-opacity:1"
         d="M31658.838 19035.094L31713.9164844 19046.2136719L31758.893875 19076.538125L31789.2183281 19121.5155156L31800.338 19176.594L31789.2183281 19231.6720625L31758.893875 19276.6495L31713.9164844 19306.9741875L31658.838 19318.094L31603.7599375 19306.9741875L31558.7825 19276.6495L31528.4578125 19231.6720625L31517.338 19176.594L31528.4578125 19121.5155156L31558.7825 19076.538125L31603.7599375 19046.2136719L31658.838 19035.094" /><path
         inkscape:connector-curvature="0"
         id="path297"
         style="fill:none;stroke:#00ff00;stroke-width:24;stroke-linecap:round;stroke-linejoin:round;stroke-miterlimit:10;stroke-dasharray:none;stroke-opacity:1"
         d="M21737.838 39349.094L21792.9160625 39360.2138125L21837.8935 39390.5385L21868.2181875 39435.5159375L21879.338 39490.594L21868.2181875 39545.6720625L21837.8935 39590.6495L21792.9160625 39620.9741875L21737.838 39632.094L21682.7599375 39620.9741875L21637.7825 39590.6495L21607.4578125 39545.6720625L21596.338 39490.594L21607.4578125 39435.5159375L21637.7825 39390.5385L21682.7599375 39360.2138125L21737.838 39349.094" /><path
         inkscape:connector-curvature="0"
         id="path301"
         style="fill:none;stroke:#00ff00;stroke-width:24;stroke-linecap:round;stroke-linejoin:round;stroke-miterlimit:10;stroke-dasharray:none;stroke-opacity:1"
         d="M21737.838 28956.094L21792.9164844 28967.2136719L21837.893875 28997.538125L21868.2183281 29042.5155156L21879.338 29097.594L21868.2183281 29152.6720625L21837.893875 29197.6495L21792.9164844 29227.9741875L21737.838 29239.094L21682.7599375 29227.9741875L21637.7825 29197.6495L21607.4578125 29152.6720625L21596.338 29097.594L21607.4578125 29042.5155156L21637.7825 28997.538125L21682.7599375 28967.2136719L21737.838 28956.094" /><path
         inkscape:connector-curvature="0"
         id="path305"
         style="fill:none;stroke:#00ff00;stroke-width:24;stroke-linecap:round;stroke-linejoin:round;stroke-miterlimit:10;stroke-dasharray:none;stroke-opacity:1"
         d="M21737.838 19035.094L21792.9164844 19046.2136719L21837.893875 19076.538125L21868.2183281 19121.5155156L21879.338 19176.594L21868.2183281 19231.6720625L21837.893875 19276.6495L21792.9164844 19306.9741875L21737.838 19318.094L21682.7599375 19306.9741875L21637.7825 19276.6495L21607.4578125 19231.6720625L21596.338 19176.594L21607.4578125 19121.5155156L21637.7825 19076.538125L21682.7599375 19046.2136719L21737.838 19035.094" /><path
         inkscape:connector-curvature="0"
         id="path309"
         style="fill:none;stroke:#000000;stroke-width:24;stroke-linecap:round;stroke-linejoin:round;stroke-miterlimit:10;stroke-dasharray:none;stroke-opacity:1"
         d="M21737.838 21717.094L21796.809 21728.9995L21844.965 21761.467L21877.4325 21809.623L21889.338 21868.594L21877.4325 21927.5645781L21844.965 21975.720625L21796.809 22008.1883594L21737.838 22020.094L21678.8674219 22008.1883594L21630.711375 21975.720625L21598.2436406 21927.5645781L21586.338 21868.594L21598.2436406 21809.623L21630.711375 21761.467L21678.8674219 21728.9995L21737.838 21717.094" /><path
         inkscape:connector-curvature="0"
         id="path313"
         style="fill:none;stroke:#000000;stroke-width:24;stroke-linecap:round;stroke-linejoin:round;stroke-miterlimit:10;stroke-dasharray:none;stroke-opacity:1"
         d="M21737.838 19828.094L21796.809 19839.9995L21844.965 19872.467L21877.4325 19920.623L21889.338 19979.594L21877.4325 20038.5645781L21844.965 20086.720625L21796.809 20119.1883594L21737.838 20131.094L21678.8674219 20119.1883594L21630.711375 20086.720625L21598.2436406 20038.5645781L21586.338 19979.594L21598.2436406 19920.623L21630.711375 19872.467L21678.8674219 19839.9995L21737.838 19828.094" /><path
         inkscape:connector-curvature="0"
         id="path317"
         style="fill:none;stroke:#000000;stroke-width:24;stroke-linecap:round;stroke-linejoin:round;stroke-miterlimit:10;stroke-dasharray:none;stroke-opacity:1"
         d="M25044.838 35891.094L25103.809 35902.9995L25151.965 35935.467L25184.4325 35983.623L25196.338 36042.594L25184.4325 36101.5645781L25151.965 36149.720625L25103.809 36182.1883594L25044.838 36194.094L24985.8674219 36182.1883594L24937.711375 36149.720625L24905.2436406 36101.5645781L24893.338 36042.594L24905.2436406 35983.623L24937.711375 35935.467L24985.8674219 35902.9995L25044.838 35891.094" /><path
         inkscape:connector-curvature="0"
         id="path321"
         style="fill:none;stroke:#000000;stroke-width:24;stroke-linecap:round;stroke-linejoin:round;stroke-miterlimit:10;stroke-dasharray:none;stroke-opacity:1"
         d="M18430.838 35891.094L18489.8085781 35902.9996406L18537.964625 35935.467375L18570.4323594 35983.6234219L18582.338 36042.594L18570.4323594 36101.5645781L18537.964625 36149.720625L18489.8085781 36182.1883594L18430.838 36194.094L18371.8674219 36182.1883594L18323.711375 36149.720625L18291.2436406 36101.5645781L18279.338 36042.594L18291.2436406 35983.6234219L18323.711375 35935.467375L18371.8674219 35902.9996406L18430.838 35891.094" /><path
         inkscape:connector-curvature="0"
         id="path325"
         style="fill:none;stroke:#000000;stroke-width:24;stroke-linecap:round;stroke-linejoin:round;stroke-miterlimit:10;stroke-dasharray:none;stroke-opacity:1"
         d="M25044.838 37780.094L25103.8085781 37791.9996406L25151.964625 37824.467375L25184.4323594 37872.6234219L25196.338 37931.594L25184.4323594 37990.5645781L25151.964625 38038.720625L25103.8085781 38071.1883594L25044.838 38083.094L24985.8674219 38071.1883594L24937.711375 38038.720625L24905.2436406 37990.5645781L24893.338 37931.594L24905.2436406 37872.6234219L24937.711375 37824.467375L24985.8674219 37791.9996406L25044.838 37780.094" /><path
         inkscape:connector-curvature="0"
         id="path329"
         style="fill:none;stroke:#000000;stroke-width:24;stroke-linecap:round;stroke-linejoin:round;stroke-miterlimit:10;stroke-dasharray:none;stroke-opacity:1"
         d="M18430.838 37780.094L18489.8085781 37791.9996406L18537.964625 37824.467375L18570.4323594 37872.6234219L18582.338 37931.594L18570.4323594 37990.5645781L18537.964625 38038.720625L18489.8085781 38071.1883594L18430.838 38083.094L18371.8674219 38071.1883594L18323.711375 38038.720625L18291.2436406 37990.5645781L18279.338 37931.594L18291.2436406 37872.6234219L18323.711375 37824.467375L18371.8674219 37791.9996406L18430.838 37780.094" /><path
         inkscape:connector-curvature="0"
         id="path333"
         style="fill:none;stroke:#00ff00;stroke-width:24;stroke-linecap:round;stroke-linejoin:round;stroke-miterlimit:10;stroke-dasharray:none;stroke-opacity:1"
         d="M11816.838 39349.094L11871.9160625 39360.2138125L11916.8935 39390.5385L11947.2181875 39435.5159375L11958.338 39490.594L11947.2181875 39545.6720625L11916.8935 39590.6495L11871.9160625 39620.9741875L11816.838 39632.094L11761.7599375 39620.9741875L11716.7825 39590.6495L11686.4578125 39545.6720625L11675.338 39490.594L11686.4578125 39435.5159375L11716.7825 39390.5385L11761.7599375 39360.2138125L11816.838 39349.094" /><path
         inkscape:connector-curvature="0"
         id="path337"
         style="fill:none;stroke:#00ff00;stroke-width:24;stroke-linecap:round;stroke-linejoin:round;stroke-miterlimit:10;stroke-dasharray:none;stroke-opacity:1"
         d="M19895.838 28814.094L19950.9164844 28825.2136719L19995.893875 28855.538125L20026.2183281 28900.5155156L20037.338 28955.594L20026.2183281 29010.6720625L19995.893875 29055.6495L19950.9164844 29085.9741875L19895.838 29097.094L19840.7599375 29085.9741875L19795.7825 29055.6495L19765.4578125 29010.6720625L19754.338 28955.594L19765.4578125 28900.5155156L19795.7825 28855.538125L19840.7599375 28825.2136719L19895.838 28814.094" /><path
         inkscape:connector-curvature="0"
         id="path341"
         style="fill:none;stroke:#00ff00;stroke-width:24;stroke-linecap:round;stroke-linejoin:round;stroke-miterlimit:10;stroke-dasharray:none;stroke-opacity:1"
         d="M23580.838 28814.094L23635.9164844 28825.2136719L23680.893875 28855.538125L23711.2183281 28900.5155156L23722.338 28955.594L23711.2183281 29010.6720625L23680.893875 29055.6495L23635.9164844 29085.9741875L23580.838 29097.094L23525.7599375 29085.9741875L23480.7825 29055.6495L23450.4578125 29010.6720625L23439.338 28955.594L23450.4578125 28900.5155156L23480.7825 28855.538125L23525.7599375 28825.2136719L23580.838 28814.094" /><path
         d="M22090.339 40057.094L21384.339 40057.094"
         style="fill:none;stroke:#000000;stroke-width:24;stroke-linecap:round;stroke-linejoin:round;stroke-miterlimit:10;stroke-dasharray:none;stroke-opacity:1"
         id="path413"
         inkscape:connector-curvature="0" /></g></g></svg>