<?xml version="1.0" encoding="UTF-8" standalone="no"?>
<!-- Created with Inkscape (http://www.inkscape.org/) -->

<svg
   xmlns:dc="http://purl.org/dc/elements/1.1/"
   xmlns:cc="http://creativecommons.org/ns#"
   xmlns:rdf="http://www.w3.org/1999/02/22-rdf-syntax-ns#"
   xmlns:svg="http://www.w3.org/2000/svg"
   xmlns="http://www.w3.org/2000/svg"
   xmlns:sodipodi="http://sodipodi.sourceforge.net/DTD/sodipodi-0.dtd"
   xmlns:inkscape="http://www.inkscape.org/namespaces/inkscape"
   version="1.1"
   id="svg29"
   xml:space="preserve"
   width="2245.3333"
   height="1588"
   viewBox="0 0 2245.3333 1588"
   sodipodi:docname="MK3V8B-Frame-A2.svg"
   inkscape:version="0.92.1 r15371"><sodipodi:namedview
     pagecolor="#ffffff"
     bordercolor="#666666"
     borderopacity="1"
     objecttolerance="10"
     gridtolerance="10"
     guidetolerance="10"
     inkscape:pageopacity="0"
     inkscape:pageshadow="2"
     inkscape:window-width="1861"
     inkscape:window-height="1136"
     id="namedview31"
     showgrid="false"
     inkscape:zoom="0.59382872"
     inkscape:cx="1136.1384"
     inkscape:cy="713.16861"
     inkscape:window-x="1920"
     inkscape:window-y="27"
     inkscape:window-maximized="1"
     inkscape:current-layer="g39" /><metadata
     id="metadata35"><rdf:RDF><cc:Work
         rdf:about=""><dc:format>image/svg+xml</dc:format><dc:type
           rdf:resource="http://purl.org/dc/dcmitype/StillImage" /><dc:title /></cc:Work></rdf:RDF></metadata><defs
     id="defs33"><clipPath
       id="clipPath45"
       clipPathUnits="userSpaceOnUse"><path
         inkscape:connector-curvature="0"
         id="path43"
         d="M 0,0 H 38590 V 52763 H 0 V 0" /></clipPath></defs><g
     transform="matrix(0,-0.04,-0.04,0,2178.6666,1566.6667)"
     inkscape:label="MK3V8B-Frame-A2"
     inkscape:groupmode="layer"
     id="g37"><g
       id="g39"><g
         id="g123"
         transform="rotate(-90,8160,6071.5)"><path
           d="M 240.5,0 C 240.5,132.82449 132.82449,240.5 0,240.5 -132.82449,240.5 -240.5,132.82449 -240.5,0 c 0,-132.82449 107.67551,-240.5 240.5,-240.5 132.82449,0 240.5,107.67551 240.5,240.5"
           style="fill:none;stroke:#000000;stroke-width:24;stroke-linecap:round;stroke-linejoin:round;stroke-miterlimit:10;stroke-dasharray:none;stroke-opacity:1"
           id="path125"
           inkscape:connector-curvature="0" /></g><g
         id="g127"
         transform="rotate(-90,9256,4975.5)"><path
           d="M 240.5,0 C 240.5,132.82449 132.82449,240.5 0,240.5 -132.82449,240.5 -240.5,132.82449 -240.5,0 c 0,-132.82449 107.67551,-240.5 240.5,-240.5 132.82449,0 240.5,107.67551 240.5,240.5"
           style="fill:none;stroke:#000000;stroke-width:24;stroke-linecap:round;stroke-linejoin:round;stroke-miterlimit:10;stroke-dasharray:none;stroke-opacity:1"
           id="path129"
           inkscape:connector-curvature="0" /></g><g
         id="g131"
         transform="rotate(-90,10352,6071.5)"><path
           d="M 240.5,0 C 240.5,132.82449 132.82449,240.5 0,240.5 -132.82449,240.5 -240.5,132.82449 -240.5,0 c 0,-132.82449 107.67551,-240.5 240.5,-240.5 132.82449,0 240.5,107.67551 240.5,240.5"
           style="fill:none;stroke:#000000;stroke-width:24;stroke-linecap:round;stroke-linejoin:round;stroke-miterlimit:10;stroke-dasharray:none;stroke-opacity:1"
           id="path133"
           inkscape:connector-curvature="0" /></g><g
         id="g135"
         transform="rotate(-90,9256,7167.5)"><path
           d="M 240.5,0 C 240.5,132.82449 132.82449,240.5 0,240.5 -132.82449,240.5 -240.5,132.82449 -240.5,0 c 0,-132.82449 107.67551,-240.5 240.5,-240.5 132.82449,0 240.5,107.67551 240.5,240.5"
           style="fill:none;stroke:#000000;stroke-width:24;stroke-linecap:round;stroke-linejoin:round;stroke-miterlimit:10;stroke-dasharray:none;stroke-opacity:1"
           id="path137"
           inkscape:connector-curvature="0" /></g><g
         id="g139"
         transform="rotate(-90,9908,7819.5)"><path
           d="M 240.5,0 C 240.5,132.82449 132.82449,240.5 0,240.5 -132.82449,240.5 -240.5,132.82449 -240.5,0 c 0,-132.82449 107.67551,-240.5 240.5,-240.5 132.82449,0 240.5,107.67551 240.5,240.5"
           style="fill:none;stroke:#000000;stroke-width:24;stroke-linecap:round;stroke-linejoin:round;stroke-miterlimit:10;stroke-dasharray:none;stroke-opacity:1"
           id="path141"
           inkscape:connector-curvature="0" /></g><g
         id="g143"
         transform="rotate(-90,11004,8915.5)"><path
           d="M 240.5,0 C 240.5,132.82449 132.82449,240.5 0,240.5 -132.82449,240.5 -240.5,132.82449 -240.5,0 c 0,-132.82449 107.67551,-240.5 240.5,-240.5 132.82449,0 240.5,107.67551 240.5,240.5"
           style="fill:none;stroke:#000000;stroke-width:24;stroke-linecap:round;stroke-linejoin:round;stroke-miterlimit:10;stroke-dasharray:none;stroke-opacity:1"
           id="path145"
           inkscape:connector-curvature="0" /></g><g
         id="g147"
         transform="rotate(-90,12100,7819.5)"><path
           d="M 240.5,0 C 240.5,132.82449 132.82449,240.5 0,240.5 -132.82449,240.5 -240.5,132.82449 -240.5,0 c 0,-132.82449 107.67551,-240.5 240.5,-240.5 132.82449,0 240.5,107.67551 240.5,240.5"
           style="fill:none;stroke:#000000;stroke-width:24;stroke-linecap:round;stroke-linejoin:round;stroke-miterlimit:10;stroke-dasharray:none;stroke-opacity:1"
           id="path149"
           inkscape:connector-curvature="0" /></g><g
         id="g151"
         transform="rotate(-90,11004,6723.5)"><path
           d="M 240.5,0 C 240.5,132.82449 132.82449,240.5 0,240.5 -132.82449,240.5 -240.5,132.82449 -240.5,0 c 0,-132.82449 107.67551,-240.5 240.5,-240.5 132.82449,0 240.5,107.67551 240.5,240.5"
           style="fill:none;stroke:#000000;stroke-width:24;stroke-linecap:round;stroke-linejoin:round;stroke-miterlimit:10;stroke-dasharray:none;stroke-opacity:1"
           id="path153"
           inkscape:connector-curvature="0" /></g><g
         id="g155"
         transform="rotate(-90,17939.5,15851)"><path
           d="M 240.5,0 C 240.5,132.82449 132.82449,240.5 0,240.5 -132.82449,240.5 -240.5,132.82449 -240.5,0 c 0,-132.82449 107.67551,-240.5 240.5,-240.5 132.82449,0 240.5,107.67551 240.5,240.5"
           style="fill:none;stroke:#000000;stroke-width:24;stroke-linecap:round;stroke-linejoin:round;stroke-miterlimit:10;stroke-dasharray:none;stroke-opacity:1"
           id="path157"
           inkscape:connector-curvature="0" /></g><g
         id="g159"
         transform="rotate(-90,19035.5,14755)"><path
           d="M 240.5,0 C 240.5,132.82449 132.82449,240.5 0,240.5 -132.82449,240.5 -240.5,132.82449 -240.5,0 c 0,-132.82449 107.67551,-240.5 240.5,-240.5 132.82449,0 240.5,107.67551 240.5,240.5"
           style="fill:none;stroke:#000000;stroke-width:24;stroke-linecap:round;stroke-linejoin:round;stroke-miterlimit:10;stroke-dasharray:none;stroke-opacity:1"
           id="path161"
           inkscape:connector-curvature="0" /></g><g
         id="g163"
         transform="rotate(-90,20131.5,15851)"><path
           d="M 240.5,0 C 240.5,132.82449 132.82449,240.5 0,240.5 -132.82449,240.5 -240.5,132.82449 -240.5,0 c 0,-132.82449 107.67551,-240.5 240.5,-240.5 132.82449,0 240.5,107.67551 240.5,240.5"
           style="fill:none;stroke:#000000;stroke-width:24;stroke-linecap:round;stroke-linejoin:round;stroke-miterlimit:10;stroke-dasharray:none;stroke-opacity:1"
           id="path165"
           inkscape:connector-curvature="0" /></g><g
         id="g167"
         transform="rotate(-90,19035.5,16947)"><path
           d="M 240.5,0 C 240.5,132.82449 132.82449,240.5 0,240.5 -132.82449,240.5 -240.5,132.82449 -240.5,0 c 0,-132.82449 107.67551,-240.5 240.5,-240.5 132.82449,0 240.5,107.67551 240.5,240.5"
           style="fill:none;stroke:#000000;stroke-width:24;stroke-linecap:round;stroke-linejoin:round;stroke-miterlimit:10;stroke-dasharray:none;stroke-opacity:1"
           id="path169"
           inkscape:connector-curvature="0" /></g><g
         id="g171"
         transform="rotate(-90,19687.5,17599)"><path
           d="M 240.5,0 C 240.5,132.82449 132.82449,240.5 0,240.5 -132.82449,240.5 -240.5,132.82449 -240.5,0 c 0,-132.82449 107.67551,-240.5 240.5,-240.5 132.82449,0 240.5,107.67551 240.5,240.5"
           style="fill:none;stroke:#000000;stroke-width:24;stroke-linecap:round;stroke-linejoin:round;stroke-miterlimit:10;stroke-dasharray:none;stroke-opacity:1"
           id="path173"
           inkscape:connector-curvature="0" /></g><g
         id="g175"
         transform="rotate(-90,20783.5,16503)"><path
           d="M 240.5,0 C 240.5,132.82449 132.82449,240.5 0,240.5 -132.82449,240.5 -240.5,132.82449 -240.5,0 c 0,-132.82449 107.67551,-240.5 240.5,-240.5 132.82449,0 240.5,107.67551 240.5,240.5"
           style="fill:none;stroke:#000000;stroke-width:24;stroke-linecap:round;stroke-linejoin:round;stroke-miterlimit:10;stroke-dasharray:none;stroke-opacity:1"
           id="path177"
           inkscape:connector-curvature="0" /></g><g
         id="g179"
         transform="rotate(-90,21879.5,17599)"><path
           d="M 240.5,0 C 240.5,132.82449 132.82449,240.5 0,240.5 -132.82449,240.5 -240.5,132.82449 -240.5,0 c 0,-132.82449 107.67551,-240.5 240.5,-240.5 132.82449,0 240.5,107.67551 240.5,240.5"
           style="fill:none;stroke:#000000;stroke-width:24;stroke-linecap:round;stroke-linejoin:round;stroke-miterlimit:10;stroke-dasharray:none;stroke-opacity:1"
           id="path181"
           inkscape:connector-curvature="0" /></g><g
         id="g183"
         transform="rotate(-90,20783.5,18695)"><path
           d="M 240.5,0 C 240.5,132.82449 132.82449,240.5 0,240.5 -132.82449,240.5 -240.5,132.82449 -240.5,0 c 0,-132.82449 107.67551,-240.5 240.5,-240.5 132.82449,0 240.5,107.67551 240.5,240.5"
           style="fill:none;stroke:#000000;stroke-width:24;stroke-linecap:round;stroke-linejoin:round;stroke-miterlimit:10;stroke-dasharray:none;stroke-opacity:1"
           id="path185"
           inkscape:connector-curvature="0" /></g><g
         id="g187"
         transform="rotate(-90,7853,2466.5)"><path
           d="M 141.5,0 C 141.5,78.14829 78.14829,141.5 0,141.5 -78.14829,141.5 -141.5,78.14829 -141.5,0 c 0,-78.14829 63.35171,-141.5 141.5,-141.5 78.14829,0 141.5,63.35171 141.5,141.5"
           style="fill:none;stroke:#00ff00;stroke-width:24;stroke-linecap:round;stroke-linejoin:round;stroke-miterlimit:10;stroke-dasharray:none;stroke-opacity:1"
           id="path189"
           inkscape:connector-curvature="0" /></g><g
         id="g191"
         transform="rotate(-90,24388.5,19002)"><path
           d="M 141.5,0 C 141.5,78.14829 78.14829,141.5 0,141.5 -78.14829,141.5 -141.5,78.14829 -141.5,0 c 0,-78.14829 63.35171,-141.5 141.5,-141.5 78.14829,0 141.5,63.35171 141.5,141.5"
           style="fill:none;stroke:#00ff00;stroke-width:24;stroke-linecap:round;stroke-linejoin:round;stroke-miterlimit:10;stroke-dasharray:none;stroke-opacity:1"
           id="path193"
           inkscape:connector-curvature="0" /></g><g
         id="g195"
         transform="rotate(-90,23916,-11706.5)"><path
           d="M 141.5,0 C 141.5,78.14829 78.14829,141.5 0,141.5 -78.14829,141.5 -141.5,78.14829 -141.5,0 c 0,-78.14829 63.35171,-141.5 141.5,-141.5 78.14829,0 141.5,63.35171 141.5,141.5"
           style="fill:none;stroke:#00ff00;stroke-width:24;stroke-linecap:round;stroke-linejoin:round;stroke-miterlimit:10;stroke-dasharray:none;stroke-opacity:1"
           id="path197"
           inkscape:connector-curvature="0" /></g><g
         id="g199"
         transform="rotate(-90,23443.5,18057)"><path
           d="M 141.5,0 C 141.5,78.14829 78.14829,141.5 0,141.5 -78.14829,141.5 -141.5,78.14829 -141.5,0 c 0,-78.14829 63.35171,-141.5 141.5,-141.5 78.14829,0 141.5,63.35171 141.5,141.5"
           style="fill:none;stroke:#00ff00;stroke-width:24;stroke-linecap:round;stroke-linejoin:round;stroke-miterlimit:10;stroke-dasharray:none;stroke-opacity:1"
           id="path201"
           inkscape:connector-curvature="0" /></g><g
         id="g203"
         transform="rotate(-90,24156.5,16125)"><path
           d="M 141.5,0 C 141.5,78.14829 78.14829,141.5 0,141.5 -78.14829,141.5 -141.5,78.14829 -141.5,0 c 0,-78.14829 63.35171,-141.5 141.5,-141.5 78.14829,0 141.5,63.35171 141.5,141.5"
           style="fill:none;stroke:#00ff00;stroke-width:24;stroke-linecap:round;stroke-linejoin:round;stroke-miterlimit:10;stroke-dasharray:none;stroke-opacity:1"
           id="path205"
           inkscape:connector-curvature="0" /></g><g
         id="g207"
         transform="rotate(-90,8798,3411.5)"><path
           d="M 141.5,0 C 141.5,78.14829 78.14829,141.5 0,141.5 -78.14829,141.5 -141.5,78.14829 -141.5,0 c 0,-78.14829 63.35171,-141.5 141.5,-141.5 78.14829,0 141.5,63.35171 141.5,141.5"
           style="fill:none;stroke:#00ff00;stroke-width:24;stroke-linecap:round;stroke-linejoin:round;stroke-miterlimit:10;stroke-dasharray:none;stroke-opacity:1"
           id="path209"
           inkscape:connector-curvature="0" /></g><g
         id="g211"
         transform="rotate(-90,39506.5,3884)"><path
           d="M 141.5,0 C 141.5,78.14829 78.14829,141.5 0,141.5 -78.14829,141.5 -141.5,78.14829 -141.5,0 c 0,-78.14829 63.35171,-141.5 141.5,-141.5 78.14829,0 141.5,63.35171 141.5,141.5"
           style="fill:none;stroke:#00ff00;stroke-width:24;stroke-linecap:round;stroke-linejoin:round;stroke-miterlimit:10;stroke-dasharray:none;stroke-opacity:1"
           id="path213"
           inkscape:connector-curvature="0" /></g><g
         id="g215"
         transform="rotate(-90,7380.5,3884)"><path
           d="M 141.5,0 C 141.5,78.14829 78.14829,141.5 0,141.5 -78.14829,141.5 -141.5,78.14829 -141.5,0 c 0,-78.14829 63.35171,-141.5 141.5,-141.5 78.14829,0 141.5,63.35171 141.5,141.5"
           style="fill:none;stroke:#00ff00;stroke-width:24;stroke-linecap:round;stroke-linejoin:round;stroke-miterlimit:10;stroke-dasharray:none;stroke-opacity:1"
           id="path217"
           inkscape:connector-curvature="0" /></g><g
         id="g219"
         transform="rotate(-90,25475,14419.5)"><path
           d="M 141.5,0 C 141.5,78.14829 78.14829,141.5 0,141.5 -78.14829,141.5 -141.5,78.14829 -141.5,0 c 0,-78.14829 63.35171,-141.5 141.5,-141.5 78.14829,0 141.5,63.35171 141.5,141.5"
           style="fill:none;stroke:#00ff00;stroke-width:24;stroke-linecap:round;stroke-linejoin:round;stroke-miterlimit:10;stroke-dasharray:none;stroke-opacity:1"
           id="path221"
           inkscape:connector-curvature="0" /></g><g
         id="g223"
         transform="rotate(-90,31361.5,12624)"><path
           d="M 141.5,0 C 141.5,78.14829 78.14829,141.5 0,141.5 -78.14829,141.5 -141.5,78.14829 -141.5,0 c 0,-78.14829 63.35171,-141.5 141.5,-141.5 78.14829,0 141.5,63.35171 141.5,141.5"
           style="fill:none;stroke:#00ff00;stroke-width:24;stroke-linecap:round;stroke-linejoin:round;stroke-miterlimit:10;stroke-dasharray:none;stroke-opacity:1"
           id="path225"
           inkscape:connector-curvature="0" /></g><g
         id="g227"
         transform="rotate(-90,22971,19474.5)"><path
           d="M 141.5,0 C 141.5,78.14829 78.14829,141.5 0,141.5 -78.14829,141.5 -141.5,78.14829 -141.5,0 c 0,-78.14829 63.35171,-141.5 141.5,-141.5 78.14829,0 141.5,63.35171 141.5,141.5"
           style="fill:none;stroke:#00ff00;stroke-width:24;stroke-linecap:round;stroke-linejoin:round;stroke-miterlimit:10;stroke-dasharray:none;stroke-opacity:1"
           id="path229"
           inkscape:connector-curvature="0" /></g><g
         id="g231"
         transform="rotate(-90,25952,17920.5)"><path
           d="M 141.5,0 C 141.5,78.14829 78.14829,141.5 0,141.5 -78.14829,141.5 -141.5,78.14829 -141.5,0 c 0,-78.14829 63.35171,-141.5 141.5,-141.5 78.14829,0 141.5,63.35171 141.5,141.5"
           style="fill:none;stroke:#00ff00;stroke-width:24;stroke-linecap:round;stroke-linejoin:round;stroke-miterlimit:10;stroke-dasharray:none;stroke-opacity:1"
           id="path233"
           inkscape:connector-curvature="0" /></g><g
         id="g235"
         transform="rotate(-90,22971,-12651.5)"><path
           d="M 141.5,0 C 141.5,78.14829 78.14829,141.5 0,141.5 -78.14829,141.5 -141.5,78.14829 -141.5,0 c 0,-78.14829 63.35171,-141.5 141.5,-141.5 78.14829,0 141.5,63.35171 141.5,141.5"
           style="fill:none;stroke:#00ff00;stroke-width:24;stroke-linecap:round;stroke-linejoin:round;stroke-miterlimit:10;stroke-dasharray:none;stroke-opacity:1"
           id="path237"
           inkscape:connector-curvature="0" /></g><g
         id="g239"
         transform="rotate(-90,28597.5,11684)"><path
           d="M 141.5,0 C 141.5,78.14829 78.14829,141.5 0,141.5 -78.14829,141.5 -141.5,78.14829 -141.5,0 c 0,-78.14829 63.35171,-141.5 141.5,-141.5 78.14829,0 141.5,63.35171 141.5,141.5"
           style="fill:none;stroke:#00ff00;stroke-width:24;stroke-linecap:round;stroke-linejoin:round;stroke-miterlimit:10;stroke-dasharray:none;stroke-opacity:1"
           id="path241"
           inkscape:connector-curvature="0" /></g><g
         id="g243"
         transform="rotate(-90,27520.5,16465)"><path
           d="M 141.5,0 C 141.5,78.14829 78.14829,141.5 0,141.5 -78.14829,141.5 -141.5,78.14829 -141.5,0 c 0,-78.14829 63.35171,-141.5 141.5,-141.5 78.14829,0 141.5,63.35171 141.5,141.5"
           style="fill:none;stroke:#00ff00;stroke-width:24;stroke-linecap:round;stroke-linejoin:round;stroke-miterlimit:10;stroke-dasharray:none;stroke-opacity:1"
           id="path245"
           inkscape:connector-curvature="0" /></g><g
         id="g247"
         transform="rotate(-90,38561.5,2939)"><path
           d="M 141.5,0 C 141.5,78.14829 78.14829,141.5 0,141.5 -78.14829,141.5 -141.5,78.14829 -141.5,0 c 0,-78.14829 63.35171,-141.5 141.5,-141.5 78.14829,0 141.5,63.35171 141.5,141.5"
           style="fill:none;stroke:#00ff00;stroke-width:24;stroke-linecap:round;stroke-linejoin:round;stroke-miterlimit:10;stroke-dasharray:none;stroke-opacity:1"
           id="path249"
           inkscape:connector-curvature="0" /></g><g
         id="g251"
         transform="rotate(-90,29013.5,10881)"><path
           d="M 141.5,0 C 141.5,78.14829 78.14829,141.5 0,141.5 -78.14829,141.5 -141.5,78.14829 -141.5,0 c 0,-78.14829 63.35171,-141.5 141.5,-141.5 78.14829,0 141.5,63.35171 141.5,141.5"
           style="fill:none;stroke:#00ff00;stroke-width:24;stroke-linecap:round;stroke-linejoin:round;stroke-miterlimit:10;stroke-dasharray:none;stroke-opacity:1"
           id="path253"
           inkscape:connector-curvature="0" /></g><g
         id="g255"
         transform="rotate(-90,30393,13479.5)"><path
           d="M 141.5,0 C 141.5,78.14829 78.14829,141.5 0,141.5 -78.14829,141.5 -141.5,78.14829 -141.5,0 c 0,-78.14829 63.35171,-141.5 141.5,-141.5 78.14829,0 141.5,63.35171 141.5,141.5"
           style="fill:none;stroke:#00ff00;stroke-width:24;stroke-linecap:round;stroke-linejoin:round;stroke-miterlimit:10;stroke-dasharray:none;stroke-opacity:1"
           id="path257"
           inkscape:connector-curvature="0" /></g><g
         id="g259"
         transform="rotate(-90,33506.5,6435)"><path
           d="M 141.5,0 C 141.5,78.14829 78.14829,141.5 0,141.5 -78.14829,141.5 -141.5,78.14829 -141.5,0 c 0,-78.14829 63.35171,-141.5 141.5,-141.5 78.14829,0 141.5,63.35171 141.5,141.5"
           style="fill:none;stroke:#00ff00;stroke-width:24;stroke-linecap:round;stroke-linejoin:round;stroke-miterlimit:10;stroke-dasharray:none;stroke-opacity:1"
           id="path261"
           inkscape:connector-curvature="0" /></g><g
         id="g263"
         transform="rotate(-90,33978.5,8939)"><path
           d="M 141.5,0 C 141.5,78.14829 78.14829,141.5 0,141.5 -78.14829,141.5 -141.5,78.14829 -141.5,0 c 0,-78.14829 63.35171,-141.5 141.5,-141.5 78.14829,0 141.5,63.35171 141.5,141.5"
           style="fill:none;stroke:#00ff00;stroke-width:24;stroke-linecap:round;stroke-linejoin:round;stroke-miterlimit:10;stroke-dasharray:none;stroke-opacity:1"
           id="path265"
           inkscape:connector-curvature="0" /></g><g
         id="g267"
         transform="rotate(-90,35538,8466.5)"><path
           d="M 141.5,0 C 141.5,78.14829 78.14829,141.5 0,141.5 -78.14829,141.5 -141.5,78.14829 -141.5,0 c 0,-78.14829 63.35171,-141.5 141.5,-141.5 78.14829,0 141.5,63.35171 141.5,141.5"
           style="fill:none;stroke:#00ff00;stroke-width:24;stroke-linecap:round;stroke-linejoin:round;stroke-miterlimit:10;stroke-dasharray:none;stroke-opacity:1"
           id="path269"
           inkscape:connector-curvature="0" /></g><g
         id="g271"
         transform="rotate(-90,36010,6907.5)"><path
           d="M 141.5,0 C 141.5,78.14829 78.14829,141.5 0,141.5 -78.14829,141.5 -141.5,78.14829 -141.5,0 c 0,-78.14829 63.35171,-141.5 141.5,-141.5 78.14829,0 141.5,63.35171 141.5,141.5"
           style="fill:none;stroke:#00ff00;stroke-width:24;stroke-linecap:round;stroke-linejoin:round;stroke-miterlimit:10;stroke-dasharray:none;stroke-opacity:1"
           id="path273"
           inkscape:connector-curvature="0" /></g><g
         id="g343"
         transform="rotate(-90,21421,19134.5)"><path
           d="M 151.5,0 C 151.5,83.67114 83.67114,151.5 0,151.5 -83.67114,151.5 -151.5,83.67114 -151.5,0 c 0,-83.67114 67.82886,-151.5 151.5,-151.5 83.67114,0 151.5,67.82886 151.5,151.5"
           style="fill:none;stroke:#000000;stroke-width:24;stroke-linecap:round;stroke-linejoin:round;stroke-miterlimit:10;stroke-dasharray:none;stroke-opacity:1"
           id="path345"
           inkscape:connector-curvature="0" /></g><g
         id="g347"
         transform="rotate(-90,7673,5386.5)"><path
           d="M 151.5,0 C 151.5,83.67114 83.67114,151.5 0,151.5 -83.67114,151.5 -151.5,83.67114 -151.5,0 c 0,-83.67114 67.82886,-151.5 151.5,-151.5 83.67114,0 151.5,67.82886 151.5,151.5"
           style="fill:none;stroke:#000000;stroke-width:24;stroke-linecap:round;stroke-linejoin:round;stroke-miterlimit:10;stroke-dasharray:none;stroke-opacity:1"
           id="path349"
           inkscape:connector-curvature="0" /></g><g
         id="g351"
         transform="rotate(-90,7106,4819.5)"><path
           d="M 151.5,0 C 151.5,83.67114 83.67114,151.5 0,151.5 -83.67114,151.5 -151.5,83.67114 -151.5,0 c 0,-83.67114 67.82886,-151.5 151.5,-151.5 83.67114,0 151.5,67.82886 151.5,151.5"
           style="fill:none;stroke:#000000;stroke-width:24;stroke-linecap:round;stroke-linejoin:round;stroke-miterlimit:10;stroke-dasharray:none;stroke-opacity:1"
           id="path353"
           inkscape:connector-curvature="0" /></g><path
         d="M36113.0 44335.0L18643.0 44335.0L9908.0 44335.0L5540.0 44335.0L3356.0 44335.0L2264.0 44335.0L2128.0 44335.0L2111.0 44335.0L2102.0 44335.0L2098.0 44335.0L2095.0 44332.0L2070.0 44307.0L2021.0 44258.0L1824.0 44061.0L1627.0 43864.0L1625.0 43861.0L1625.0 43857.0L1625.0 43848.0L1625.0 43831.0L1625.0 43797.0L1625.0 43729.0L1625.0 43592.0L1625.0 42500.0L1625.0 42227.0L1625.0 42090.0L1625.0 42022.0L1625.0 41988.0L1625.0 41979.0L1625.0 41975.0L1626.0 41971.0L1634.0 41963.0L1891.0 41706.0L1956.0 41642.0L1988.0 41609.0L1996.0 41601.0L2000.0 41597.0L2002.0 41595.0L2003.0 41594.0L2003.0 41591.0L2003.0 41546.0L2003.0 41182.0L2003.0 41000.0L2003.0 40909.0L2003.0 40863.0L2003.0 40840.0L2002.0 40838.0L2001.0 40836.0L1998.0 40833.0L1992.0 40827.0L1799.0 40634.0L1702.0 40538.0L1654.0 40489.0L1630.0 40465.0L1627.0 40462.0L1625.0 40461.0L1625.0 40458.0L1625.0 40449.0L1625.0 40431.0L1625.0 40136.0L1625.0 39546.0L1625.0 34826.0L1625.0 33647.0L1625.0 33057.0L1625.0 32909.0L1625.0 32835.0L1625.0 32817.0L1625.0 32808.0L1632.0 32800.0L1662.0 32770.0L1903.0 32529.0L2024.0 32408.0L2084.0 32347.0L2092.0 32340.0L2096.0 32336.0L2097.0 32334.0L2097.0 32331.0L2097.0 32308.0L2097.0 32262.0L2097.0 31891.0L2097.0 31150.0L2097.0 30779.0L2097.0 30594.0L2097.0 30547.0L2097.0 30542.0L2097.0 30539.0L2095.0 30537.0L2088.0 30530.0L2072.0 30514.0L2012.0 30454.0L1771.0 30213.0L1650.0 30092.0L1635.0 30077.0L1627.0 30069.0L1626.0 30067.0L1625.0 30066.0L1625.0 30062.0L1625.0 30030.0L1625.0 29966.0L1625.0 25894.0L1625.0 17749.0L1625.0 13676.0L1625.0 13422.0L1625.0 13295.0L1625.0 13263.0L1625.0 13255.0L1625.0 13251.0L1626.0 13247.0L1638.0 13235.0L1686.0 13187.0L1879.0 12994.0L1976.0 12897.0L2000.0 12873.0L2003.0 12870.0L2003.0 12864.0L2003.0 12853.0L2003.0 12830.0L2003.0 12739.0L2003.0 12375.0L2003.0 12193.0L2003.0 12147.0L2003.0 12124.0L2002.0 12114.0L1998.0 12110.0L1966.0 12078.0L1709.0 11820.0L1644.0 11756.0L1628.0 11740.0L1626.0 11738.0L1625.0 11735.0L1625.0 11726.0L1625.0 11709.0L1625.0 11641.0L1625.0 11368.0L1625.0 10822.0L1625.0 10275.0L1625.0 10002.0L1625.0 9866.0L1625.0 9849.0L1625.0 9846.0L1627.0 9845.0L1630.0 9842.0L1636.0 9836.0L1660.0 9812.0L1708.0 9763.0L2094.0 9377.0L2097.0 9374.0L2102.0 9374.0L2110.0 9374.0L2127.0 9374.0L2161.0 9374.0L2230.0 9374.0L2366.0 9374.0L2639.0 9374.0L3732.0 9374.0L5917.0 9374.0L10287.0 9374.0L19026.0 9374.0L27766.0 9374.0L32136.0 9374.0L34321.0 9374.0L35413.0 9374.0L35960.0 9374.0L36096.0 9374.0L36113.0 9374.0L36125.0 9386.0L36149.0 9410.0L36198.0 9459.0L36391.0 9652.0L36584.0 9845.0L36585.0 9847.0L36585.0 9849.0L36585.0 9853.0L36585.0 9861.0L36585.0 9878.0L36585.0 9913.0L36585.0 9981.0L36585.0 10117.0L36585.0 10664.0L36585.0 11756.0L36585.0 13941.0L36585.0 18311.0L36585.0 27051.0L36585.0 35790.0L36585.0 40160.0L36585.0 42345.0L36585.0 43438.0L36585.0 43711.0L36585.0 43847.0L36585.0 43856.0L36585.0 43860.0L36584.0 43864.0L36572.0 43876.0L36548.0 43900.0L36499.0 43948.0L36113.0 44335.0"
         style="fill:none;stroke:#000000;stroke-width:24;stroke-linecap:round;stroke-linejoin:round;stroke-miterlimit:10;stroke-dasharray:none;stroke-opacity:1"
         id="path355"
         inkscape:connector-curvature="0" /><g
         id="g357"
         transform="rotate(-90,17925,15071.5)"><path
           d="M 151.5,0 C 151.5,83.67114 83.67114,151.5 0,151.5 -83.67114,151.5 -151.5,83.67114 -151.5,0 c 0,-83.67114 67.82886,-151.5 151.5,-151.5 83.67114,0 151.5,67.82886 151.5,151.5"
           style="fill:none;stroke:#000000;stroke-width:24;stroke-linecap:round;stroke-linejoin:round;stroke-miterlimit:10;stroke-dasharray:none;stroke-opacity:1"
           id="path359"
           inkscape:connector-curvature="0" /></g><g
         id="g361"
         transform="rotate(-90,17500,15496.5)"><path
           d="M 151.5,0 C 151.5,83.67114 83.67114,151.5 0,151.5 -83.67114,151.5 -151.5,83.67114 -151.5,0 c 0,-83.67114 67.82886,-151.5 151.5,-151.5 83.67114,0 151.5,67.82886 151.5,151.5"
           style="fill:none;stroke:#000000;stroke-width:24;stroke-linecap:round;stroke-linejoin:round;stroke-miterlimit:10;stroke-dasharray:none;stroke-opacity:1"
           id="path363"
           inkscape:connector-curvature="0" /></g><g
         id="g379"
         transform="rotate(-90,12728,9874.5)"><path
           d="M 151.5,0 C 151.5,83.67114 83.67114,151.5 0,151.5 -83.67114,151.5 -151.5,83.67114 -151.5,0 c 0,-83.67114 67.82886,-151.5 151.5,-151.5 83.67114,0 151.5,67.82886 151.5,151.5"
           style="fill:none;stroke:#000000;stroke-width:24;stroke-linecap:round;stroke-linejoin:round;stroke-miterlimit:10;stroke-dasharray:none;stroke-opacity:1"
           id="path381"
           inkscape:connector-curvature="0" /></g><g
         id="g383"
         transform="rotate(-90,12303,10299.5)"><path
           d="M 151.5,0 C 151.5,83.67114 83.67114,151.5 0,151.5 -83.67114,151.5 -151.5,83.67114 -151.5,0 c 0,-83.67114 67.82886,-151.5 151.5,-151.5 83.67114,0 151.5,67.82886 151.5,151.5"
           style="fill:none;stroke:#000000;stroke-width:24;stroke-linecap:round;stroke-linejoin:round;stroke-miterlimit:10;stroke-dasharray:none;stroke-opacity:1"
           id="path385"
           inkscape:connector-curvature="0" /></g><g
         id="g387"
         transform="rotate(-90,16914,-4081.5)"><path
           d="m 198.5,0 c 0,109.62852 -88.87148,198.5 -198.5,198.5 -109.62852,0 -198.5,-88.87148 -198.5,-198.5 0,-109.62852 88.87148,-198.5 198.5,-198.5 109.62852,0 198.5,88.87148 198.5,198.5"
           style="fill:none;stroke:#000000;stroke-width:24;stroke-linecap:round;stroke-linejoin:round;stroke-miterlimit:10;stroke-dasharray:none;stroke-opacity:1"
           id="path389"
           inkscape:connector-curvature="0" /></g><g
         id="g391"
         transform="rotate(-90,11386.5,1446)"><path
           d="m 198.5,0 c 0,109.62852 -88.87148,198.5 -198.5,198.5 -109.62852,0 -198.5,-88.87148 -198.5,-198.5 0,-109.62852 88.87148,-198.5 198.5,-198.5 109.62852,0 198.5,88.87148 198.5,198.5"
           style="fill:none;stroke:#000000;stroke-width:24;stroke-linecap:round;stroke-linejoin:round;stroke-miterlimit:10;stroke-dasharray:none;stroke-opacity:1"
           id="path393"
           inkscape:connector-curvature="0" /></g><path
         d="M4601.0 34224.0L4893.0 33933.0L5039.0 33787.0L5057.0 33769.0L5066.0 33760.0L5071.0 33755.0L5073.0 33753.0L5074.0 33752.0L5074.0 33750.0L5074.0 33699.0L5074.0 33595.0L5074.0 32771.0L5074.0 31122.0L5074.0 29473.0L5074.0 29266.0L5074.0 29241.0L5074.0 29228.0L5074.0 29221.0L5074.0 29218.0L5074.0 29216.0L5073.0 29215.0L5036.0 29179.0L4963.0 29106.0L4672.0 28814.0L4089.0 28231.0L3506.0 27648.0L3214.0 27357.0L3196.0 27339.0L3187.0 27329.0L3184.0 27327.0L3184.0 27324.0L3184.0 27318.0L3184.0 27266.0L3184.0 27163.0L3184.0 26957.0L3184.0 26545.0L3184.0 26442.0L3184.0 26390.0L3184.0 26384.0L3184.0 26382.0L3185.0 26381.0L3187.0 26379.0L3196.0 26369.0L3215.0 26351.0L3360.0 26205.0L3944.0 25622.0L4527.0 25039.0L4818.0 24748.0L4964.0 24602.0L5037.0 24529.0L5073.0 24493.0L5074.0 24441.0L5074.0 22792.0L5074.0 21143.0L5074.0 20318.0L5074.0 20112.0L5074.0 20009.0L5074.0 19958.0L5038.0 19921.0L4746.0 19629.0L4601.0 19483.0L4601.0 19277.0L4601.0 18865.0L4601.0 18453.0L4601.0 18247.0L4601.0 18195.0L4601.0 18169.0L4601.0 18163.0L4603.0 18160.0L4605.0 18158.0L4614.0 18149.0L4687.0 18076.0L4978.0 17784.0L5051.0 17711.0L5070.0 17693.0L5074.0 17688.0L5074.0 17682.0L5074.0 17669.0L5074.0 17618.0L5074.0 17411.0L5074.0 17308.0L5074.0 17257.0L5074.0 17231.0L5074.0 17218.0L5074.0 17217.0L5075.0 17215.0L5077.0 17213.0L5082.0 17209.0L5227.0 17063.0L5519.0 16771.0L5811.0 16480.0L5956.0 16334.0L5993.0 16298.0L6011.0 16279.0L6016.0 16275.0L6018.0 16273.0L6019.0 16270.0L6019.0 16257.0L6019.0 16154.0L6019.0 15329.0L6019.0 14917.0L6019.0 14711.0L6019.0 14608.0L6019.0 14582.0L6019.0 14575.0L6019.0 14572.0L6020.0 14570.0L6029.0 14560.0L6066.0 14524.0L6357.0 14232.0L6430.0 14160.0L6466.0 14123.0L6485.0 14105.0L6489.0 14100.0L6492.0 14099.0L6495.0 14099.0L6508.0 14099.0L6716.0 14099.0L10038.0 14099.0L23329.0 14099.0L29974.0 14099.0L31635.0 14099.0L32051.0 14099.0L32258.0 14099.0L32310.0 14099.0L32323.0 14099.0L32330.0 14099.0L32333.0 14099.0L32335.0 14101.0L32354.0 14119.0L32427.0 14192.0L32718.0 14483.0L32791.0 14556.0L32800.0 14565.0L32805.0 14570.0L32806.0 14571.0L32806.0 14572.0L32806.0 14576.0L32806.0 14601.0L32806.0 14653.0L32806.0 14859.0L32806.0 18157.0L32806.0 31351.0L32806.0 37947.0L32806.0 38772.0L32806.0 38978.0L32806.0 39081.0L32806.0 39133.0L32806.0 39136.0L32806.0 39138.0L32805.0 39139.0L32800.0 39143.0L32791.0 39152.0L32773.0 39171.0L32481.0 39462.0L32336.0 39608.0L32333.0 39610.0L32330.0 39610.0L32324.0 39610.0L32311.0 39610.0L32285.0 39610.0L32233.0 39610.0L32129.0 39610.0L31714.0 39610.0L30883.0 39610.0L27560.0 39610.0L14270.0 39610.0L7624.0 39610.0L6794.0 39610.0L6586.0 39610.0L6534.0 39610.0L6508.0 39610.0L6495.0 39610.0L6492.0 39610.0L6489.0 39608.0L6485.0 39604.0L6412.0 39531.0L6120.0 39239.0L6048.0 39167.0L6029.0 39148.0L6020.0 39139.0L6019.0 39138.0L6019.0 39137.0L6019.0 39133.0L6019.0 39127.0L6019.0 39075.0L6019.0 38869.0L6019.0 38457.0L6019.0 37632.0L6019.0 37529.0L6019.0 37478.0L6019.0 37452.0L6019.0 37439.0L6018.0 37436.0L6016.0 37434.0L6011.0 37429.0L5865.0 37284.0L5574.0 36992.0L5282.0 36701.0L5137.0 36555.0L5100.0 36518.0L5082.0 36500.0L5077.0 36496.0L5075.0 36493.0L5074.0 36492.0L5074.0 36491.0L5074.0 36478.0L5074.0 36375.0L5074.0 36169.0L5074.0 36065.0L5074.0 36040.0L5074.0 36027.0L5074.0 36020.0L5070.0 36016.0L5033.0 35979.0L4742.0 35688.0L4669.0 35615.0L4632.0 35578.0L4614.0 35560.0L4605.0 35551.0L4603.0 35549.0L4602.0 35548.0L4601.0 35547.0L4601.0 35545.0L4601.0 35531.0L4601.0 35096.0L4601.0 34224.0"
         style="fill:none;stroke:#000000;stroke-width:24;stroke-linecap:round;stroke-linejoin:round;stroke-miterlimit:10;stroke-dasharray:none;stroke-opacity:1"
         id="path395"
         inkscape:connector-curvature="0" /><g
         id="g397"
         transform="rotate(-90,22082.5,19796)"><path
           d="M 151.5,0 C 151.5,83.67114 83.67114,151.5 0,151.5 -83.67114,151.5 -151.5,83.67114 -151.5,0 c 0,-83.67114 67.82886,-151.5 151.5,-151.5 83.67114,0 151.5,67.82886 151.5,151.5"
           style="fill:none;stroke:#000000;stroke-width:24;stroke-linecap:round;stroke-linejoin:round;stroke-miterlimit:10;stroke-dasharray:none;stroke-opacity:1"
           id="path399"
           inkscape:connector-curvature="0" /></g><g
         id="g401"
         transform="rotate(-90,16366,13512.5)"><path
           d="M 151.5,0 C 151.5,83.67114 83.67114,151.5 0,151.5 -83.67114,151.5 -151.5,83.67114 -151.5,0 c 0,-83.67114 67.82886,-151.5 151.5,-151.5 83.67114,0 151.5,67.82886 151.5,151.5"
           style="fill:none;stroke:#000000;stroke-width:24;stroke-linecap:round;stroke-linejoin:round;stroke-miterlimit:10;stroke-dasharray:none;stroke-opacity:1"
           id="path403"
           inkscape:connector-curvature="0" /></g><g
         id="g405"
         transform="rotate(-90,15941,13937.5)"><path
           d="M 151.5,0 C 151.5,83.67114 83.67114,151.5 0,151.5 -83.67114,151.5 -151.5,83.67114 -151.5,0 c 0,-83.67114 67.82886,-151.5 151.5,-151.5 83.67114,0 151.5,67.82886 151.5,151.5"
           style="fill:none;stroke:#000000;stroke-width:24;stroke-linecap:round;stroke-linejoin:round;stroke-miterlimit:10;stroke-dasharray:none;stroke-opacity:1"
           id="path407"
           inkscape:connector-curvature="0" /></g></g></g></svg>