  0
SECTION
  2
HEADER
  9
$ACADVER
  1
AC1015
  9
$ACADMAINTVER
 70
     6
  9
$DWGCODEPAGE
  3
ANSI_1252
  9
$INSBASE
 10
0.0
 20
0.0
 30
0.0
  9
$EXTMIN
 10
13.89830828477636
 20
10.50747105563546
 30
0.0
  9
$EXTMAX
 10
240.8983082847799
 20
232.5074710556354
 30
0.0
  9
$LIMMIN
 10
0.0
 20
0.0
  9
$LIMMAX
 10
12.0
 20
9.0
  9
$ORTHOMODE
 70
     0
  9
$REGENMODE
 70
     1
  9
$FILLMODE
 70
     1
  9
$QTEXTMODE
 70
     0
  9
$MIRRTEXT
 70
     0
  9
$LTSCALE
 40
1.0
  9
$ATTMODE
 70
     1
  9
$TEXTSIZE
 40
0.2
  9
$TRACEWID
 40
0.05
  9
$TEXTSTYLE
  7
Standard
  9
$CLAYER
  8
0
  9
$CELTYPE
  6
ByLayer
  9
$CECOLOR
 62
   256
  9
$CELTSCALE
 40
1.0
  9
$DISPSILH
 70
     0
  9
$DIMSCALE
 40
1.0
  9
$DIMASZ
 40
0.18
  9
$DIMEXO
 40
0.0625
  9
$DIMDLI
 40
0.38
  9
$DIMRND
 40
0.0
  9
$DIMDLE
 40
0.0
  9
$DIMEXE
 40
0.18
  9
$DIMTP
 40
0.0
  9
$DIMTM
 40
0.0
  9
$DIMTXT
 40
0.18
  9
$DIMCEN
 40
0.09
  9
$DIMTSZ
 40
0.0
  9
$DIMTOL
 70
     0
  9
$DIMLIM
 70
     0
  9
$DIMTIH
 70
     1
  9
$DIMTOH
 70
     1
  9
$DIMSE1
 70
     0
  9
$DIMSE2
 70
     0
  9
$DIMTAD
 70
     0
  9
$DIMZIN
 70
     0
  9
$DIMBLK
  1

  9
$DIMASO
 70
     1
  9
$DIMSHO
 70
     1
  9
$DIMPOST
  1

  9
$DIMAPOST
  1

  9
$DIMALT
 70
     0
  9
$DIMALTD
 70
     2
  9
$DIMALTF
 40
25.4
  9
$DIMLFAC
 40
1.0
  9
$DIMTOFL
 70
     0
  9
$DIMTVP
 40
0.0
  9
$DIMTIX
 70
     0
  9
$DIMSOXD
 70
     0
  9
$DIMSAH
 70
     0
  9
$DIMBLK1
  1

  9
$DIMBLK2
  1

  9
$DIMSTYLE
  2
Standard
  9
$DIMCLRD
 70
     0
  9
$DIMCLRE
 70
     0
  9
$DIMCLRT
 70
     0
  9
$DIMTFAC
 40
1.0
  9
$DIMGAP
 40
0.09
  9
$DIMJUST
 70
     0
  9
$DIMSD1
 70
     0
  9
$DIMSD2
 70
     0
  9
$DIMTOLJ
 70
     1
  9
$DIMTZIN
 70
     0
  9
$DIMALTZ
 70
     0
  9
$DIMALTTZ
 70
     0
  9
$DIMUPT
 70
     0
  9
$DIMDEC
 70
     4
  9
$DIMTDEC
 70
     4
  9
$DIMALTU
 70
     2
  9
$DIMALTTD
 70
     2
  9
$DIMTXSTY
  7
Standard
  9
$DIMAUNIT
 70
     0
  9
$DIMADEC
 70
     0
  9
$DIMALTRND
 40
0.0
  9
$DIMAZIN
 70
     0
  9
$DIMDSEP
 70
    46
  9
$DIMATFIT
 70
     3
  9
$DIMFRAC
 70
     0
  9
$DIMLDRBLK
  1

  9
$DIMLUNIT
 70
     2
  9
$DIMLWD
 70
    -2
  9
$DIMLWE
 70
    -2
  9
$DIMTMOVE
 70
     0
  9
$LUNITS
 70
     2
  9
$LUPREC
 70
     4
  9
$SKETCHINC
 40
0.1
  9
$FILLETRAD
 40
0.0
  9
$AUNITS
 70
     0
  9
$AUPREC
 70
     0
  9
$MENU
  1
.
  9
$ELEVATION
 40
0.0
  9
$PELEVATION
 40
0.0
  9
$THICKNESS
 40
0.0
  9
$LIMCHECK
 70
     0
  9
$CHAMFERA
 40
0.0
  9
$CHAMFERB
 40
0.0
  9
$CHAMFERC
 40
0.0
  9
$CHAMFERD
 40
0.0
  9
$SKPOLY
 70
     0
  9
$TDCREATE
 40
2452642.855050937
  9
$TDUCREATE
 40
2452643.063384271
  9
$TDUPDATE
 40
2458128.754620567
  9
$TDUUPDATE
 40
2458128.9629539
  9
$TDINDWG
 40
0.0005104167
  9
$TDUSRTIMER
 40
0.0001576736
  9
$USRTIMER
 70
     1
  9
$ANGBASE
 50
0.0
  9
$ANGDIR
 70
     0
  9
$PDMODE
 70
     0
  9
$PDSIZE
 40
0.0
  9
$PLINEWID
 40
0.0
  9
$SPLFRAME
 70
     0
  9
$SPLINETYPE
 70
     6
  9
$SPLINESEGS
 70
     8
  9
$HANDSEED
  5
26E
  9
$SURFTAB1
 70
     6
  9
$SURFTAB2
 70
     6
  9
$SURFTYPE
 70
     6
  9
$SURFU
 70
     6
  9
$SURFV
 70
     6
  9
$UCSBASE
  2

  9
$UCSNAME
  2

  9
$UCSORG
 10
0.0
 20
0.0
 30
0.0
  9
$UCSXDIR
 10
1.0
 20
0.0
 30
0.0
  9
$UCSYDIR
 10
0.0
 20
1.0
 30
0.0
  9
$UCSORTHOREF
  2

  9
$UCSORTHOVIEW
 70
     0
  9
$UCSORGTOP
 10
0.0
 20
0.0
 30
0.0
  9
$UCSORGBOTTOM
 10
0.0
 20
0.0
 30
0.0
  9
$UCSORGLEFT
 10
0.0
 20
0.0
 30
0.0
  9
$UCSORGRIGHT
 10
0.0
 20
0.0
 30
0.0
  9
$UCSORGFRONT
 10
0.0
 20
0.0
 30
0.0
  9
$UCSORGBACK
 10
0.0
 20
0.0
 30
0.0
  9
$PUCSBASE
  2

  9
$PUCSNAME
  2

  9
$PUCSORG
 10
0.0
 20
0.0
 30
0.0
  9
$PUCSXDIR
 10
1.0
 20
0.0
 30
0.0
  9
$PUCSYDIR
 10
0.0
 20
1.0
 30
0.0
  9
$PUCSORTHOREF
  2

  9
$PUCSORTHOVIEW
 70
     0
  9
$PUCSORGTOP
 10
0.0
 20
0.0
 30
0.0
  9
$PUCSORGBOTTOM
 10
0.0
 20
0.0
 30
0.0
  9
$PUCSORGLEFT
 10
0.0
 20
0.0
 30
0.0
  9
$PUCSORGRIGHT
 10
0.0
 20
0.0
 30
0.0
  9
$PUCSORGFRONT
 10
0.0
 20
0.0
 30
0.0
  9
$PUCSORGBACK
 10
0.0
 20
0.0
 30
0.0
  9
$USERI1
 70
     0
  9
$USERI2
 70
     0
  9
$USERI3
 70
     0
  9
$USERI4
 70
     0
  9
$USERI5
 70
     0
  9
$USERR1
 40
0.0
  9
$USERR2
 40
0.0
  9
$USERR3
 40
0.0
  9
$USERR4
 40
0.0
  9
$USERR5
 40
0.0
  9
$WORLDVIEW
 70
     1
  9
$SHADEDGE
 70
     3
  9
$SHADEDIF
 70
    70
  9
$TILEMODE
 70
     1
  9
$MAXACTVP
 70
    64
  9
$PINSBASE
 10
0.0
 20
0.0
 30
0.0
  9
$PLIMCHECK
 70
     0
  9
$PEXTMIN
 10
0.0
 20
0.0
 30
0.0
  9
$PEXTMAX
 10
0.0
 20
0.0
 30
0.0
  9
$PLIMMIN
 10
0.0
 20
0.0
  9
$PLIMMAX
 10
0.0
 20
0.0
  9
$UNITMODE
 70
     0
  9
$VISRETAIN
 70
     1
  9
$PLINEGEN
 70
     0
  9
$PSLTSCALE
 70
     1
  9
$TREEDEPTH
 70
  3020
  9
$CMLSTYLE
  2
Standard
  9
$CMLJUST
 70
     0
  9
$CMLSCALE
 40
1.0
  9
$PROXYGRAPHICS
 70
     1
  9
$MEASUREMENT
 70
     0
  9
$CELWEIGHT
370
    -1
  9
$ENDCAPS
280
     0
  9
$JOINSTYLE
280
     0
  9
$LWDISPLAY
290
     0
  9
$INSUNITS
 70
     1
  9
$HYPERLINKBASE
  1

  9
$STYLESHEET
  1

  9
$XEDIT
290
     1
  9
$CEPSNTYPE
380
     0
  9
$PSTYLEMODE
290
     1
  9
$FINGERPRINTGUID
  2
{FDEAD576-A652-11D2-9A35-0060089B3A3F}
  9
$VERSIONGUID
  2
{FBC2AE19-5C5C-49EC-81BC-71B1A3362A02}
  9
$EXTNAMES
290
     1
  9
$PSVPSCALE
 40
0.0
  9
$OLESTARTUP
290
     0
  0
ENDSEC
  0
SECTION
  2
CLASSES
  0
CLASS
  1
ACDBDICTIONARYWDFLT
  2
AcDbDictionaryWithDefault
  3
ObjectDBX Classes
 90
        0
280
     0
281
     0
  0
CLASS
  1
ACDBPLACEHOLDER
  2
AcDbPlaceHolder
  3
ObjectDBX Classes
 90
        0
280
     0
281
     0
  0
CLASS
  1
LAYOUT
  2
AcDbLayout
  3
ObjectDBX Classes
 90
        0
280
     0
281
     0
  0
CLASS
  1
DICTIONARYVAR
  2
AcDbDictionaryVar
  3
ObjectDBX Classes
 90
        0
280
     0
281
     0
  0
CLASS
  1
TABLESTYLE
  2
AcDbTableStyle
  3
ObjectDBX Classes
 90
     4095
280
     0
281
     0
  0
CLASS
  1
MATERIAL
  2
AcDbMaterial
  3
ObjectDBX Classes
 90
     1153
280
     0
281
     0
  0
CLASS
  1
VISUALSTYLE
  2
AcDbVisualStyle
  3
ObjectDBX Classes
 90
     4095
280
     0
281
     0
  0
CLASS
  1
SCALE
  2
AcDbScale
  3
ObjectDBX Classes
 90
     1153
280
     0
281
     0
  0
CLASS
  1
CELLSTYLEMAP
  2
AcDbCellStyleMap
  3
ObjectDBX Classes
 90
     1152
280
     0
281
     0
  0
CLASS
  1
RASTERVARIABLES
  2
AcDbRasterVariables
  3
ISM
 90
        0
280
     0
281
     0
  0
CLASS
  1
SUN
  2
AcDbSun
  3
SCENEOE
 90
     1153
280
     0
281
     0
  0
CLASS
  1
MLEADERSTYLE
  2
AcDbMLeaderStyle
  3
ACDB_MLEADERSTYLE_CLASS
 90
     4095
280
     0
281
     0
  0
ENDSEC
  0
SECTION
  2
TABLES
  0
TABLE
  2
VPORT
  5
8
330
0
100
AcDbSymbolTable
 70
     1
  0
VPORT
  5
94
330
8
100
AcDbSymbolTableRecord
100
AcDbViewportTableRecord
  2
*Active
 70
     0
 10
0.0
 20
0.0
 11
1.0
 21
1.0
 12
237.476544673428
 22
46.3934707414725
 13
0.0
 23
0.0
 14
0.5
 24
0.5
 15
0.5
 25
0.5
 16
0.0
 26
0.0
 36
1.0
 17
-27.66959356597982
 27
-19.53870295786204
 37
0.0
 40
610.9398701222997
 41
2.280116110304789
 42
50.0
 43
0.0
 44
0.0
 50
0.0
 51
0.0
 71
    16
 72
  1000
 73
     1
 74
     3
 75
     0
 76
     0
 77
     0
 78
     0
281
     0
 65
     1
110
0.0
120
0.0
130
0.0
111
1.0
121
0.0
131
0.0
112
0.0
122
1.0
132
0.0
 79
     0
146
0.0
  0
ENDTAB
  0
TABLE
  2
LTYPE
  5
5
330
0
100
AcDbSymbolTable
 70
     1
  0
LTYPE
  5
14
330
5
100
AcDbSymbolTableRecord
100
AcDbLinetypeTableRecord
  2
ByBlock
 70
     0
  3

 72
    65
 73
     0
 40
0.0
  0
LTYPE
  5
15
330
5
100
AcDbSymbolTableRecord
100
AcDbLinetypeTableRecord
  2
ByLayer
 70
     0
  3

 72
    65
 73
     0
 40
0.0
  0
LTYPE
  5
16
330
5
100
AcDbSymbolTableRecord
100
AcDbLinetypeTableRecord
  2
Continuous
 70
     0
  3
Solid line
 72
    65
 73
     0
 40
0.0
  0
ENDTAB
  0
TABLE
  2
LAYER
  5
2
102
{ACAD_XDICTIONARY
360
1DA
102
}
330
0
100
AcDbSymbolTable
 70
     2
  0
LAYER
  5
10
330
2
100
AcDbSymbolTableRecord
100
AcDbLayerTableRecord
  2
0
 70
     0
 62
     7
  6
Continuous
370
    -3
390
F
  0
LAYER
  5
12B
330
2
100
AcDbSymbolTableRecord
100
AcDbLayerTableRecord
  2
M3
 70
     0
 62
     3
  6
Continuous
370
    25
390
F
  0
ENDTAB
  0
TABLE
  2
STYLE
  5
3
330
0
100
AcDbSymbolTable
 70
     2
  0
STYLE
  5
11
330
3
100
AcDbSymbolTableRecord
100
AcDbTextStyleTableRecord
  2
Standard
 70
     0
 40
0.0
 41
1.0
 50
0.0
 71
     0
 42
0.2
  3
arial.ttf
  4

1001
ACAD
1000
Arial
1071
        0
  0
STYLE
  5
125
330
3
100
AcDbSymbolTableRecord
100
AcDbTextStyleTableRecord
  2
Annotative
 70
     0
 40
0.0
 41
1.0
 50
0.0
 71
     0
 42
0.2
  3
arial.ttf
  4

1001
ACAD
1000
Arial
1071
        0
1001
AcadAnnotative
1000
AnnotativeData
1002
{
1070
     1
1070
     1
1002
}
  0
ENDTAB
  0
TABLE
  2
VIEW
  5
6
330
0
100
AcDbSymbolTable
 70
     0
  0
ENDTAB
  0
TABLE
  2
UCS
  5
7
330
0
100
AcDbSymbolTable
 70
     0
  0
ENDTAB
  0
TABLE
  2
APPID
  5
9
330
0
100
AcDbSymbolTable
 70
     2
  0
APPID
  5
12
330
9
100
AcDbSymbolTableRecord
100
AcDbRegAppTableRecord
  2
ACAD
 70
     0
  0
APPID
  5
126
330
9
100
AcDbSymbolTableRecord
100
AcDbRegAppTableRecord
  2
AcadAnnotative
 70
     0
  0
ENDTAB
  0
TABLE
  2
DIMSTYLE
  5
A
330
0
100
AcDbSymbolTable
 70
     2
100
AcDbDimStyleTable
  0
DIMSTYLE
105
27
330
A
100
AcDbSymbolTableRecord
100
AcDbDimStyleTableRecord
  2
Standard
 70
     0
178
     0
340
11
  0
DIMSTYLE
105
127
330
A
100
AcDbSymbolTableRecord
100
AcDbDimStyleTableRecord
  2
Annotative
 70
     0
 40
0.0
178
     0
340
11
1001
AcadAnnotative
1000
AnnotativeData
1002
{
1070
     1
1070
     1
1002
}
  0
ENDTAB
  0
TABLE
  2
BLOCK_RECORD
  5
1
330
0
100
AcDbSymbolTable
 70
     2
  0
BLOCK_RECORD
  5
1F
330
1
100
AcDbSymbolTableRecord
100
AcDbBlockTableRecord
  2
*Model_Space
340
22
  0
BLOCK_RECORD
  5
58
330
1
100
AcDbSymbolTableRecord
100
AcDbBlockTableRecord
  2
*Paper_Space
340
59
  0
BLOCK_RECORD
  5
5D
330
1
100
AcDbSymbolTableRecord
100
AcDbBlockTableRecord
  2
*Paper_Space0
340
5E
  0
ENDTAB
  0
ENDSEC
  0
SECTION
  2
BLOCKS
  0
BLOCK
  5
20
330
1F
100
AcDbEntity
  8
0
100
AcDbBlockBegin
  2
*Model_Space
 70
     0
 10
0.0
 20
0.0
 30
0.0
  3
*Model_Space
  1

  0
ENDBLK
  5
21
330
1F
100
AcDbEntity
  8
0
100
AcDbBlockEnd
  0
BLOCK
  5
5A
330
58
100
AcDbEntity
 67
     1
  8
0
100
AcDbBlockBegin
  2
*Paper_Space
 70
     0
 10
0.0
 20
0.0
 30
0.0
  3
*Paper_Space
  1

  0
ENDBLK
  5
5B
330
58
100
AcDbEntity
 67
     1
  8
0
100
AcDbBlockEnd
  0
BLOCK
  5
5F
330
5D
100
AcDbEntity
  8
0
100
AcDbBlockBegin
  2
*Paper_Space0
 70
     0
 10
0.0
 20
0.0
 30
0.0
  3
*Paper_Space0
  1

  0
ENDBLK
  5
60
330
5D
100
AcDbEntity
  8
0
100
AcDbBlockEnd
  0
ENDSEC
  0
SECTION
  2
ENTITIES
  0
LINE
  5
1DF
330
1F
100
AcDbEntity
  8
0
100
AcDbLine
 10
111.8983082847798
 20
113.5304388756063
 30
0.0
 11
91.87534046480903
 21
93.50747105563546
 31
0.0
  0
LINE
  5
1E0
330
1F
100
AcDbEntity
  8
0
100
AcDbLine
 10
91.87534046480903
 20
93.50747105563546
 30
0.0
 11
74.89827829167311
 21
93.50747105563546
 31
0.0
  0
LINE
  5
1E1
330
1F
100
AcDbEntity
  8
0
100
AcDbLine
 10
74.89827829167311
 20
93.50747105563546
 30
0.0
 11
51.39830828477982
 21
117.0074710556355
 31
0.0
  0
LINE
  5
1E2
330
1F
100
AcDbEntity
  8
0
100
AcDbLine
 10
51.39830828477982
 20
126.0074710556355
 30
0.0
 11
74.89827829167311
 21
149.5074710556354
 31
0.0
  0
LINE
  5
1E3
330
1F
100
AcDbEntity
  8
0
100
AcDbLine
 10
74.89827829167311
 20
149.5074710556354
 30
0.0
 11
91.87534046480903
 21
149.5074710556354
 31
0.0
  0
LINE
  5
1E4
330
1F
100
AcDbEntity
  8
0
100
AcDbLine
 10
91.87534046480903
 20
149.5074710556354
 30
0.0
 11
111.8983082847798
 21
129.4845032356648
 31
0.0
  0
LINE
  5
1E5
330
1F
100
AcDbEntity
  8
0
100
AcDbLine
 10
201.3983082847798
 20
146.5221800556355
 30
0.0
 11
190.8835982847797
 21
157.0369200556354
 31
0.0
  0
LINE
  5
1E6
330
1F
100
AcDbEntity
  8
0
100
AcDbLine
 10
190.8835982847797
 20
157.0369200556354
 30
0.0
 11
173.9130172847798
 21
157.0369200556354
 31
0.0
  0
LINE
  5
1E7
330
1F
100
AcDbEntity
  8
0
100
AcDbLine
 10
173.9130172847798
 20
157.0369200556354
 30
0.0
 11
146.8983082847798
 21
130.0222110556355
 31
0.0
  0
LINE
  5
1E8
330
1F
100
AcDbEntity
  8
0
100
AcDbLine
 10
146.8983082847798
 20
112.9927310556355
 30
0.0
 11
173.9130172847798
 21
85.97802205563546
 31
0.0
  0
LINE
  5
1E9
330
1F
100
AcDbEntity
  8
0
100
AcDbLine
 10
173.9130172847798
 20
85.97802205563546
 30
0.0
 11
190.8835982847797
 21
85.97802205563546
 31
0.0
  0
LINE
  5
1EA
330
1F
100
AcDbEntity
  8
0
100
AcDbLine
 10
190.8835982847797
 20
85.97802205563546
 30
0.0
 11
201.3983082847798
 21
96.49276205563537
 31
0.0
  0
LINE
  5
1EB
330
1F
100
AcDbEntity
  8
0
100
AcDbLine
 10
134.29842428478
 20
232.5074710556354
 30
0.0
 11
175.2984242847799
 21
191.5074710556354
 31
0.0
  0
LINE
  5
1EC
330
1F
100
AcDbEntity
  8
0
100
AcDbLine
 10
175.2984242847799
 20
191.5074710556354
 30
0.0
 11
191.4130269105413
 21
191.5074710556354
 31
0.0
  0
LINE
  5
1ED
330
1F
100
AcDbEntity
  8
0
100
AcDbLine
 10
191.4130269105413
 20
191.5074710556354
 30
0.0
 11
232.4130269105413
 21
232.5074710556354
 31
0.0
  0
LINE
  5
1EE
330
1F
100
AcDbEntity
  8
0
100
AcDbLine
 10
232.4130269105413
 20
232.5074710556354
 30
0.0
 11
237.3834780616088
 21
232.5074710556354
 31
0.0
  0
LINE
  5
1EF
330
1F
100
AcDbEntity
  8
0
100
AcDbLine
 10
237.3834780616088
 20
232.5074710556354
 30
0.0
 11
240.8983082847797
 21
228.9926408324645
 31
0.0
  0
LINE
  5
1F0
330
1F
100
AcDbEntity
  8
0
100
AcDbLine
 10
240.8983082847797
 20
228.9926408324645
 30
0.0
 11
240.8983082847799
 21
224.0221896813965
 31
0.0
  0
LINE
  5
1F1
330
1F
100
AcDbEntity
  8
0
100
AcDbLine
 10
240.8983082847799
 20
224.0221896813965
 30
0.0
 11
202.8983082847798
 21
186.0221896813969
 31
0.0
  0
LINE
  5
1F2
330
1F
100
AcDbEntity
  8
0
100
AcDbLine
 10
202.8983082847798
 20
186.0221896813969
 30
0.0
 11
202.8983082847798
 21
163.1744320556357
 31
0.0
  0
LINE
  5
1F3
330
1F
100
AcDbEntity
  8
0
100
AcDbLine
 10
202.8983082847798
 20
163.1744320556357
 30
0.0
 11
240.8983082847799
 21
125.1744320556354
 31
0.0
  0
LINE
  5
1F4
330
1F
100
AcDbEntity
  8
0
100
AcDbLine
 10
240.8983082847799
 20
125.1744320556354
 30
0.0
 11
240.8983082847799
 21
117.8405100556355
 31
0.0
  0
LINE
  5
1F5
330
1F
100
AcDbEntity
  8
0
100
AcDbLine
 10
240.8983082847799
 20
117.8405100556355
 30
0.0
 11
202.8983082847798
 21
79.84051005563525
 31
0.0
  0
LINE
  5
1F6
330
1F
100
AcDbEntity
  8
0
100
AcDbLine
 10
202.8983082847798
 20
79.84051005563525
 30
0.0
 11
202.8983082847798
 21
56.99275242987396
 31
0.0
  0
LINE
  5
1F7
330
1F
100
AcDbEntity
  8
0
100
AcDbLine
 10
202.8983082847798
 20
56.99275242987396
 30
0.0
 11
240.8983082847799
 21
18.99275242987407
 31
0.0
  0
LINE
  5
1F8
330
1F
100
AcDbEntity
  8
0
100
AcDbLine
 10
240.8983082847799
 20
18.99275242987407
 30
0.0
 11
240.8983082847797
 21
14.02230127880627
 31
0.0
  0
LINE
  5
1F9
330
1F
100
AcDbEntity
  8
0
100
AcDbLine
 10
240.8983082847797
 20
14.02230127880627
 30
0.0
 11
237.3834780616088
 21
10.50747105563549
 31
0.0
  0
LINE
  5
1FA
330
1F
100
AcDbEntity
  8
0
100
AcDbLine
 10
237.3834780616088
 20
10.50747105563549
 30
0.0
 11
232.4130269105413
 21
10.50747105563548
 31
0.0
  0
LINE
  5
1FB
330
1F
100
AcDbEntity
  8
0
100
AcDbLine
 10
232.4130269105413
 20
10.50747105563548
 30
0.0
 11
191.4130269105413
 21
51.50747105563546
 31
0.0
  0
LINE
  5
1FC
330
1F
100
AcDbEntity
  8
0
100
AcDbLine
 10
191.4130269105413
 20
51.50747105563546
 30
0.0
 11
175.2984242847799
 21
51.50747105563546
 31
0.0
  0
LINE
  5
1FD
330
1F
100
AcDbEntity
  8
0
100
AcDbLine
 10
175.2984242847799
 20
51.50747105563546
 30
0.0
 11
134.29842428478
 21
10.50747105563549
 31
0.0
  0
LINE
  5
1FE
330
1F
100
AcDbEntity
  8
0
100
AcDbLine
 10
134.29842428478
 20
10.50747105563549
 30
0.0
 11
125.4981922847798
 21
10.50747105563551
 31
0.0
  0
LINE
  5
1FF
330
1F
100
AcDbEntity
  8
0
100
AcDbLine
 10
125.4981922847798
 20
10.50747105563551
 30
0.0
 11
84.4981922847796
 21
51.50747105563546
 31
0.0
  0
LINE
  5
200
330
1F
100
AcDbEntity
  8
0
100
AcDbLine
 10
84.4981922847796
 20
51.50747105563546
 30
0.0
 11
63.38358965901841
 21
51.50747105563556
 31
0.0
  0
LINE
  5
201
330
1F
100
AcDbEntity
  8
0
100
AcDbLine
 10
63.38358965901841
 20
51.50747105563556
 30
0.0
 11
22.38358965901836
 21
10.50747105563546
 31
0.0
  0
LINE
  5
202
330
1F
100
AcDbEntity
  8
0
100
AcDbLine
 10
22.38358965901836
 20
10.50747105563546
 30
0.0
 11
17.41313850795066
 21
10.50747105563548
 31
0.0
  0
LINE
  5
203
330
1F
100
AcDbEntity
  8
0
100
AcDbLine
 10
17.41313850795066
 20
10.50747105563548
 30
0.0
 11
13.89830828477989
 21
14.02230127880627
 31
0.0
  0
LINE
  5
204
330
1F
100
AcDbEntity
  8
0
100
AcDbLine
 10
13.89830828477989
 20
14.02230127880627
 30
0.0
 11
13.89830828477969
 21
18.99275242987405
 31
0.0
  0
LINE
  5
205
330
1F
100
AcDbEntity
  8
0
100
AcDbLine
 10
13.89830828477969
 20
18.99275242987405
 30
0.0
 11
40.89830828477974
 21
45.99275242987406
 31
0.0
  0
LINE
  5
206
330
1F
100
AcDbEntity
  8
0
100
AcDbLine
 10
40.89830828477974
 20
45.99275242987406
 30
0.0
 11
40.8983082847798
 21
59.50747105563546
 31
0.0
  0
LINE
  5
207
330
1F
100
AcDbEntity
  8
0
100
AcDbLine
 10
40.8983082847798
 20
59.50747105563546
 30
0.0
 11
31.39830828477977
 21
69.00747105563586
 31
0.0
  0
LINE
  5
208
330
1F
100
AcDbEntity
  8
0
100
AcDbLine
 10
31.39830828477977
 20
69.00747105563586
 30
0.0
 11
31.39830828477983
 21
100.2683660556355
 31
0.0
  0
LINE
  5
209
330
1F
100
AcDbEntity
  8
0
100
AcDbLine
 10
31.39830828477983
 20
100.2683660556355
 30
0.0
 11
13.89830828477636
 21
117.7683660556389
 31
0.0
  0
LINE
  5
20A
330
1F
100
AcDbEntity
  8
0
100
AcDbLine
 10
13.89830828477636
 20
125.246576055632
 30
0.0
 11
31.39830828477983
 21
142.7465760556354
 31
0.0
  0
LINE
  5
20B
330
1F
100
AcDbEntity
  8
0
100
AcDbLine
 10
31.39830828477983
 20
142.7465760556354
 30
0.0
 11
31.39830828477977
 21
174.0074710556354
 31
0.0
  0
LINE
  5
20C
330
1F
100
AcDbEntity
  8
0
100
AcDbLine
 10
31.39830828477977
 20
174.0074710556354
 30
0.0
 11
40.8983082847798
 21
183.5074710556356
 31
0.0
  0
LINE
  5
20D
330
1F
100
AcDbEntity
  8
0
100
AcDbLine
 10
40.8983082847798
 20
183.5074710556356
 30
0.0
 11
40.89830828477974
 21
197.0221896813969
 31
0.0
  0
LINE
  5
20E
330
1F
100
AcDbEntity
  8
0
100
AcDbLine
 10
40.89830828477974
 20
197.0221896813969
 30
0.0
 11
13.89830828477969
 21
224.0221896813969
 31
0.0
  0
LINE
  5
20F
330
1F
100
AcDbEntity
  8
0
100
AcDbLine
 10
13.89830828477969
 20
224.0221896813969
 30
0.0
 11
13.89830828477977
 21
228.9926408324645
 31
0.0
  0
LINE
  5
210
330
1F
100
AcDbEntity
  8
0
100
AcDbLine
 10
13.89830828477977
 20
228.9926408324645
 30
0.0
 11
17.41313850795066
 21
232.5074710556354
 31
0.0
  0
LINE
  5
211
330
1F
100
AcDbEntity
  8
0
100
AcDbLine
 10
17.41313850795066
 20
232.5074710556354
 30
0.0
 11
22.38358965901836
 21
232.5074710556354
 31
0.0
  0
LINE
  5
212
330
1F
100
AcDbEntity
  8
0
100
AcDbLine
 10
22.38358965901836
 20
232.5074710556354
 30
0.0
 11
63.38358965901841
 21
191.5074710556354
 31
0.0
  0
LINE
  5
213
330
1F
100
AcDbEntity
  8
0
100
AcDbLine
 10
63.38358965901841
 20
191.5074710556354
 30
0.0
 11
84.4981922847796
 21
191.5074710556354
 31
0.0
  0
LINE
  5
214
330
1F
100
AcDbEntity
  8
0
100
AcDbLine
 10
84.4981922847796
 20
191.5074710556354
 30
0.0
 11
125.4981922847798
 21
232.5074710556353
 31
0.0
  0
LINE
  5
215
330
1F
100
AcDbEntity
  8
0
100
AcDbLine
 10
125.4981922847798
 20
232.5074710556353
 30
0.0
 11
134.29842428478
 21
232.5074710556354
 31
0.0
  0
LINE
  5
216
330
1F
100
AcDbEntity
  8
0
100
AcDbLine
 10
92.8983082847798
 20
182.9232420556353
 30
0.0
 11
92.8983082847798
 21
166.0737850556355
 31
0.0
  0
LINE
  5
217
330
1F
100
AcDbEntity
  8
0
100
AcDbLine
 10
92.8983082847798
 20
166.0737850556355
 30
0.0
 11
109.4646222847796
 21
149.5074710556354
 31
0.0
  0
LINE
  5
218
330
1F
100
AcDbEntity
  8
0
100
AcDbLine
 10
109.4646222847796
 20
149.5074710556354
 30
0.0
 11
149.4130482847797
 21
149.5074710556354
 31
0.0
  0
LINE
  5
219
330
1F
100
AcDbEntity
  8
0
100
AcDbLine
 10
149.4130482847797
 20
149.5074710556354
 30
0.0
 11
165.8983082847798
 21
165.9927310556355
 31
0.0
  0
LINE
  5
21A
330
1F
100
AcDbEntity
  8
0
100
AcDbLine
 10
165.8983082847798
 20
165.9927310556355
 30
0.0
 11
165.8983082847796
 21
183.9370511714058
 31
0.0
  0
LINE
  5
21B
330
1F
100
AcDbEntity
  8
0
100
AcDbLine
 10
165.8983082847798
 20
183.9370511714059
 30
0.0
 11
133.5809252847799
 21
216.2544341714055
 31
0.0
  0
LINE
  5
21C
330
1F
100
AcDbEntity
  8
0
100
AcDbLine
 10
133.5809252847799
 20
216.2544341714055
 30
0.0
 11
126.2156912847796
 21
216.2406250556352
 31
0.0
  0
LINE
  5
21D
330
1F
100
AcDbEntity
  8
0
100
AcDbLine
 10
126.2156912847796
 20
216.2406250556352
 30
0.0
 11
92.8983082847798
 21
182.9232420556353
 31
0.0
  0
LINE
  5
21E
330
1F
100
AcDbEntity
  8
0
100
AcDbLine
 10
92.8983082847798
 20
60.09170005563556
 30
0.0
 11
92.8983082847798
 21
76.94115705563546
 31
0.0
  0
LINE
  5
21F
330
1F
100
AcDbEntity
  8
0
100
AcDbLine
 10
92.8983082847798
 20
76.94115705563546
 30
0.0
 11
109.4646222847796
 21
93.50747105563546
 31
0.0
  0
LINE
  5
220
330
1F
100
AcDbEntity
  8
0
100
AcDbLine
 10
109.4646222847796
 20
93.50747105563546
 30
0.0
 11
149.4130482847797
 21
93.50747105563546
 31
0.0
  0
LINE
  5
221
330
1F
100
AcDbEntity
  8
0
100
AcDbLine
 10
149.4130482847797
 20
93.50747105563546
 30
0.0
 11
165.8983082847798
 21
77.02221105563545
 31
0.0
  0
LINE
  5
222
330
1F
100
AcDbEntity
  8
0
100
AcDbLine
 10
165.8983082847798
 20
77.02221105563545
 30
0.0
 11
165.8983082847796
 21
59.07789093986516
 31
0.0
  0
LINE
  5
223
330
1F
100
AcDbEntity
  8
0
100
AcDbLine
 10
165.8983082847798
 20
59.07789093986506
 30
0.0
 11
133.5809252847799
 21
26.76050793986535
 31
0.0
  0
LINE
  5
224
330
1F
100
AcDbEntity
  8
0
100
AcDbLine
 10
133.5809252847799
 20
26.76050793986535
 30
0.0
 11
126.2156912847796
 21
26.77431705563566
 31
0.0
  0
LINE
  5
225
330
1F
100
AcDbEntity
  8
0
100
AcDbLine
 10
126.2156912847796
 20
26.77431705563566
 30
0.0
 11
92.8983082847798
 21
60.09170005563556
 31
0.0
  0
LINE
  5
226
330
1F
100
AcDbEntity
  8
0
100
AcDbLine
 10
51.39830829786972
 20
163.2574710556354
 30
0.0
 11
51.39830829786972
 21
149.7574710556354
 31
0.0
  0
LINE
  5
227
330
1F
100
AcDbEntity
  8
0
100
AcDbLine
 10
221.3983082978697
 20
128.2574710556354
 30
0.0
 11
221.3983082978697
 21
114.7574710556355
 31
0.0
  0
LINE
  5
228
330
1F
100
AcDbEntity
  8
0
100
AcDbLine
 10
51.39830829786972
 20
93.25747105563546
 30
0.0
 11
51.39830829786972
 21
79.75747105563546
 31
0.0
  0
LINE
  5
229
330
1F
100
AcDbEntity
  8
0
100
AcDbLine
 10
41.39830827168979
 20
163.2574710556354
 30
0.0
 11
41.3983082716898
 21
149.7574710556354
 31
0.0
  0
LINE
  5
22A
330
1F
100
AcDbEntity
  8
0
100
AcDbLine
 10
211.3983082716898
 20
128.2574710556354
 30
0.0
 11
211.3983082716898
 21
114.7574710556355
 31
0.0
  0
LINE
  5
22B
330
1F
100
AcDbEntity
  8
0
100
AcDbLine
 10
41.39830827168979
 20
93.25747105563546
 30
0.0
 11
41.3983082716898
 21
79.75747105563546
 31
0.0
  0
ARC
  5
22C
330
1F
100
AcDbEntity
  8
0
100
AcDbCircle
 10
51.99830828477981
 20
146.2574710556354
 30
0.0
 40
3.0
100
AcDbArc
 50
270.0000029999998
 51
89.99999699999987
  0
ARC
  5
22D
330
1F
100
AcDbEntity
  8
0
100
AcDbCircle
 10
221.9983082847798
 20
111.2574710556355
 30
0.0
 40
3.0
100
AcDbArc
 50
270.0000029999998
 51
89.99999700000014
  0
ARC
  5
22E
330
1F
100
AcDbEntity
  8
0
100
AcDbCircle
 10
51.99830828477981
 20
76.25747105563546
 30
0.0
 40
3.0
100
AcDbArc
 50
270.0000029999998
 51
89.99999699999987
  0
ARC
  5
22F
330
1F
100
AcDbEntity
  8
0
100
AcDbCircle
 10
40.79830828477978
 20
76.25747105563546
 30
0.0
 40
3.0
100
AcDbArc
 50
90.00000300000015
 51
269.9999970000001
  0
ARC
  5
230
330
1F
100
AcDbEntity
  8
0
100
AcDbCircle
 10
40.79830828477978
 20
146.2574710556354
 30
0.0
 40
3.0
100
AcDbArc
 50
90.00000300000015
 51
269.9999970000001
  0
ARC
  5
231
330
1F
100
AcDbEntity
  8
0
100
AcDbCircle
 10
210.7983082847798
 20
111.2574710556355
 30
0.0
 40
3.0
100
AcDbArc
 50
90.00000299999986
 51
269.9999970000001
  0
ARC
  5
232
330
1F
100
AcDbEntity
  8
0
100
AcDbCircle
 10
51.99830828477981
 20
96.75747105563546
 30
0.0
 40
3.0
100
AcDbArc
 50
270.0000029999998
 51
89.99999699999987
  0
ARC
  5
233
330
1F
100
AcDbEntity
  8
0
100
AcDbCircle
 10
51.99830828477981
 20
166.7574710556354
 30
0.0
 40
3.0
100
AcDbArc
 50
270.0000029999998
 51
89.99999699999987
  0
ARC
  5
234
330
1F
100
AcDbEntity
  8
0
100
AcDbCircle
 10
221.9983082847798
 20
131.7574710556354
 30
0.0
 40
3.0
100
AcDbArc
 50
270.0000029999998
 51
89.99999700000014
  0
ARC
  5
235
330
1F
100
AcDbEntity
  8
0
100
AcDbCircle
 10
40.79830828477976
 20
96.75747105563546
 30
0.0
 40
3.0
100
AcDbArc
 50
90.00000300000015
 51
269.9999970000001
  0
ARC
  5
236
330
1F
100
AcDbEntity
  8
0
100
AcDbCircle
 10
210.7983082847798
 20
131.7574710556354
 30
0.0
 40
3.0
100
AcDbArc
 50
90.00000299999986
 51
269.9999970000001
  0
ARC
  5
237
330
1F
100
AcDbEntity
  8
0
100
AcDbCircle
 10
40.79830828477976
 20
166.7574710556354
 30
0.0
 40
3.0
100
AcDbArc
 50
90.00000300000015
 51
269.9999970000001
  0
CIRCLE
  5
238
330
1F
100
AcDbEntity
  8
M3
100
AcDbCircle
 10
129.8983082847798
 20
16.50747105563546
 30
0.0
 40
1.5
  0
CIRCLE
  5
239
330
1F
100
AcDbEntity
  8
M3
100
AcDbCircle
 10
129.8983082847798
 20
226.5074710556354
 30
0.0
 40
1.5
  0
CIRCLE
  5
23A
330
1F
100
AcDbEntity
  8
M3
100
AcDbCircle
 10
234.8983082847798
 20
16.50747105563546
 30
0.0
 40
1.5
  0
CIRCLE
  5
23B
330
1F
100
AcDbEntity
  8
M3
100
AcDbCircle
 10
19.89830828477977
 20
226.5074710556354
 30
0.0
 40
1.5
  0
CIRCLE
  5
23C
330
1F
100
AcDbEntity
  8
M3
100
AcDbCircle
 10
234.8983082847798
 20
226.5074710556354
 30
0.0
 40
1.5
  0
CIRCLE
  5
23D
330
1F
100
AcDbEntity
  8
M3
100
AcDbCircle
 10
19.89830828477977
 20
121.5074710556353
 30
0.0
 40
1.5
  0
CIRCLE
  5
23E
330
1F
100
AcDbEntity
  8
M3
100
AcDbCircle
 10
129.8983082847798
 20
121.5074710556355
 30
0.0
 40
1.5
  0
CIRCLE
  5
23F
330
1F
100
AcDbEntity
  8
M3
100
AcDbCircle
 10
234.8983082847798
 20
121.5074710556355
 30
0.0
 40
1.5
  0
CIRCLE
  5
240
330
1F
100
AcDbEntity
  8
0
100
AcDbCircle
 10
206.3983082847798
 20
121.5074710556355
 30
0.0
 40
1.6
  0
CIRCLE
  5
241
330
1F
100
AcDbEntity
  8
0
100
AcDbCircle
 10
226.3983082847798
 20
121.5074710556355
 30
0.0
 40
1.6
  0
CIRCLE
  5
242
330
1F
100
AcDbEntity
  8
0
100
AcDbCircle
 10
56.39830828477982
 20
156.5074710556354
 30
0.0
 40
1.6
  0
CIRCLE
  5
243
330
1F
100
AcDbEntity
  8
0
100
AcDbCircle
 10
56.39830828477982
 20
86.50747105563546
 30
0.0
 40
1.6
  0
CIRCLE
  5
244
330
1F
100
AcDbEntity
  8
0
100
AcDbCircle
 10
36.39830828477977
 20
156.5074710556354
 30
0.0
 40
1.6
  0
CIRCLE
  5
245
330
1F
100
AcDbEntity
  8
0
100
AcDbCircle
 10
36.39830828477977
 20
86.50747105563546
 30
0.0
 40
1.6
  0
CIRCLE
  5
246
330
1F
100
AcDbEntity
  8
M3
100
AcDbCircle
 10
19.89830828477977
 20
16.50747105563546
 30
0.0
 40
1.5
  0
CIRCLE
  5
247
330
1F
100
AcDbEntity
  8
M3
100
AcDbCircle
 10
131.3983082847798
 20
102.0074710556355
 30
0.0
 40
1.5
  0
CIRCLE
  5
248
330
1F
100
AcDbEntity
  8
M3
100
AcDbCircle
 10
131.3983082847798
 20
141.0074710556354
 30
0.0
 40
1.5
  0
LINE
  5
249
330
1F
100
AcDbEntity
  8
0
100
AcDbLine
 10
201.3983082847798
 20
146.5221800556355
 30
0.0
 11
201.3983082847798
 21
96.49276205563537
 31
0.0
  0
LINE
  5
24A
330
1F
100
AcDbEntity
  8
0
100
AcDbLine
 10
146.8983082847798
 20
130.0222110556355
 30
0.0
 11
146.8983082847798
 21
112.9927310556355
 31
0.0
  0
LINE
  5
24B
330
1F
100
AcDbEntity
  8
0
100
AcDbLine
 10
13.89830828477636
 20
125.246576055632
 30
0.0
 11
13.89830828477636
 21
117.7683660556389
 31
0.0
  0
LINE
  5
24C
330
1F
100
AcDbEntity
  8
0
100
AcDbLine
 10
51.39830828477982
 20
126.0074710556355
 30
0.0
 11
51.39830828477982
 21
117.0074710556355
 31
0.0
  0
LINE
  5
24D
330
1F
100
AcDbEntity
  8
0
100
AcDbLine
 10
111.8983082847798
 20
129.4845032356648
 30
0.0
 11
111.8983082847798
 21
113.5304388756063
 31
0.0
  0
LINE
  5
24E
330
1F
100
AcDbEntity
  8
0
100
AcDbLine
 10
51.99830844185942
 20
79.25747105563546
 30
0.0
 11
51.89830829786972
 21
79.25747105563546
 31
0.0
  0
LINE
  5
24F
330
1F
100
AcDbEntity
  8
0
100
AcDbLine
 10
221.9983084418594
 20
114.2574710556355
 30
0.0
 11
221.8983082978697
 21
114.2574710556355
 31
0.0
  0
LINE
  5
250
330
1F
100
AcDbEntity
  8
0
100
AcDbLine
 10
51.99830844185942
 20
149.2574710556354
 30
0.0
 11
51.89830829786972
 21
149.2574710556354
 31
0.0
  0
LINE
  5
251
330
1F
100
AcDbEntity
  8
0
100
AcDbLine
 10
40.79830812770012
 20
79.25747105563546
 30
0.0
 11
40.8983082716898
 21
79.25747105563546
 31
0.0
  0
LINE
  5
252
330
1F
100
AcDbEntity
  8
0
100
AcDbLine
 10
210.7983081277001
 20
114.2574710556355
 30
0.0
 11
210.8983082716898
 21
114.2574710556355
 31
0.0
  0
LINE
  5
253
330
1F
100
AcDbEntity
  8
0
100
AcDbLine
 10
40.79830812770012
 20
149.2574710556354
 30
0.0
 11
40.8983082716898
 21
149.2574710556354
 31
0.0
  0
LINE
  5
254
330
1F
100
AcDbEntity
  8
0
100
AcDbLine
 10
51.89830829786972
 20
79.25747105563546
 30
0.0
 11
51.39830829786972
 21
79.75747105563546
 31
0.0
  0
LINE
  5
255
330
1F
100
AcDbEntity
  8
0
100
AcDbLine
 10
221.8983082978697
 20
114.2574710556355
 30
0.0
 11
221.3983082978697
 21
114.7574710556355
 31
0.0
  0
LINE
  5
256
330
1F
100
AcDbEntity
  8
0
100
AcDbLine
 10
51.89830829786972
 20
149.2574710556354
 30
0.0
 11
51.39830829786972
 21
149.7574710556354
 31
0.0
  0
LINE
  5
257
330
1F
100
AcDbEntity
  8
0
100
AcDbLine
 10
40.8983082716898
 20
79.25747105563546
 30
0.0
 11
41.3983082716898
 21
79.75747105563546
 31
0.0
  0
LINE
  5
258
330
1F
100
AcDbEntity
  8
0
100
AcDbLine
 10
210.8983082716898
 20
114.2574710556355
 30
0.0
 11
211.3983082716898
 21
114.7574710556355
 31
0.0
  0
LINE
  5
259
330
1F
100
AcDbEntity
  8
0
100
AcDbLine
 10
40.8983082716898
 20
149.2574710556354
 30
0.0
 11
41.3983082716898
 21
149.7574710556354
 31
0.0
  0
LINE
  5
25A
330
1F
100
AcDbEntity
  8
0
100
AcDbLine
 10
51.99830844185942
 20
93.75747105563546
 30
0.0
 11
51.89830829786972
 21
93.75747105563546
 31
0.0
  0
LINE
  5
25B
330
1F
100
AcDbEntity
  8
0
100
AcDbLine
 10
221.9983084418594
 20
128.7574710556354
 30
0.0
 11
221.8983082978697
 21
128.7574710556354
 31
0.0
  0
LINE
  5
25C
330
1F
100
AcDbEntity
  8
0
100
AcDbLine
 10
51.99830844185942
 20
163.7574710556354
 30
0.0
 11
51.89830829786972
 21
163.7574710556354
 31
0.0
  0
LINE
  5
25D
330
1F
100
AcDbEntity
  8
0
100
AcDbLine
 10
40.79830812770015
 20
93.75747105563546
 30
0.0
 11
40.89830827168979
 21
93.75747105563546
 31
0.0
  0
LINE
  5
25E
330
1F
100
AcDbEntity
  8
0
100
AcDbLine
 10
210.7983081277001
 20
128.7574710556354
 30
0.0
 11
210.8983082716898
 21
128.7574710556354
 31
0.0
  0
LINE
  5
25F
330
1F
100
AcDbEntity
  8
0
100
AcDbLine
 10
40.79830812770015
 20
163.7574710556354
 30
0.0
 11
40.89830827168979
 21
163.7574710556354
 31
0.0
  0
LINE
  5
260
330
1F
100
AcDbEntity
  8
0
100
AcDbLine
 10
51.39830829786972
 20
93.25747105563546
 30
0.0
 11
51.89830829786972
 21
93.75747105563546
 31
0.0
  0
LINE
  5
261
330
1F
100
AcDbEntity
  8
0
100
AcDbLine
 10
221.3983082978697
 20
128.2574710556354
 30
0.0
 11
221.8983082978697
 21
128.7574710556354
 31
0.0
  0
LINE
  5
262
330
1F
100
AcDbEntity
  8
0
100
AcDbLine
 10
51.39830829786972
 20
163.2574710556354
 30
0.0
 11
51.89830829786972
 21
163.7574710556354
 31
0.0
  0
LINE
  5
263
330
1F
100
AcDbEntity
  8
0
100
AcDbLine
 10
41.39830827168979
 20
93.25747105563546
 30
0.0
 11
40.89830827168979
 21
93.75747105563546
 31
0.0
  0
LINE
  5
264
330
1F
100
AcDbEntity
  8
0
100
AcDbLine
 10
211.3983082716898
 20
128.2574710556354
 30
0.0
 11
210.8983082716898
 21
128.7574710556354
 31
0.0
  0
LINE
  5
265
330
1F
100
AcDbEntity
  8
0
100
AcDbLine
 10
41.39830827168979
 20
163.2574710556354
 30
0.0
 11
40.89830827168979
 21
163.7574710556354
 31
0.0
  0
LINE
  5
266
330
1F
100
AcDbEntity
  8
0
100
AcDbLine
 10
40.79830812770012
 20
99.75747105563546
 30
0.0
 11
51.99830844185942
 21
99.75747105563546
 31
0.0
  0
LINE
  5
267
330
1F
100
AcDbEntity
  8
0
100
AcDbLine
 10
210.7983081277001
 20
134.7574710556354
 30
0.0
 11
221.9983084418594
 21
134.7574710556354
 31
0.0
  0
LINE
  5
268
330
1F
100
AcDbEntity
  8
0
100
AcDbLine
 10
40.79830812770012
 20
169.7574710556354
 30
0.0
 11
51.99830844185942
 21
169.7574710556354
 31
0.0
  0
LINE
  5
269
330
1F
100
AcDbEntity
  8
0
100
AcDbLine
 10
40.79830812770015
 20
73.25747105563546
 30
0.0
 11
51.99830844185942
 21
73.25747105563546
 31
0.0
  0
LINE
  5
26A
330
1F
100
AcDbEntity
  8
0
100
AcDbLine
 10
210.7983081277001
 20
108.2574710556355
 30
0.0
 11
221.9983084418594
 21
108.2574710556355
 31
0.0
  0
LINE
  5
26B
330
1F
100
AcDbEntity
  8
0
100
AcDbLine
 10
40.79830812770015
 20
143.2574710556354
 30
0.0
 11
51.99830844185942
 21
143.2574710556354
 31
0.0
  0
ENDSEC
  0
SECTION
  2
OBJECTS
  0
DICTIONARY
  5
C
330
0
100
AcDbDictionary
281
     1
  3
ACAD_DETAILVIEWSTYLE
350
122
  3
ACAD_GROUP
350
D
  3
ACAD_IMAGE_VARS
350
DC
  3
ACAD_LAYOUT
350
1A
  3
ACAD_MLINESTYLE
350
17
  3
ACAD_PLOTSETTINGS
350
19
  3
ACAD_PLOTSTYLENAME
350
E
  3
ACAD_SCALELIST
350
B6
  3
ACAD_SECTIONVIEWSTYLE
350
123
  3
AcDbVariableDictionary
350
66
  3
APPDATA
350
E1
  3
DWGPROPS
350
26D
  0
DICTIONARY
  5
1DA
330
2
100
AcDbDictionary
280
     1
281
     1
  3
ACAD_LAYERSTATES
360
1DB
  0
DICTIONARY
  5
122
102
{ACAD_REACTORS
330
C
102
}
330
C
100
AcDbDictionary
281
     1
  0
DICTIONARY
  5
D
102
{ACAD_REACTORS
330
C
102
}
330
C
100
AcDbDictionary
281
     1
  0
RASTERVARIABLES
  5
DC
102
{ACAD_REACTORS
330
C
102
}
330
C
100
AcDbRasterVariables
 90
        0
 70
     1
 71
     1
 72
     5
  0
DICTIONARY
  5
1A
102
{ACAD_REACTORS
330
C
102
}
330
C
100
AcDbDictionary
281
     1
  3
Model
350
22
  3
Sheet1
350
59
  3
Sheet2
350
5E
  0
DICTIONARY
  5
17
102
{ACAD_REACTORS
330
C
102
}
330
C
100
AcDbDictionary
281
     1
  3
Standard
350
18
  0
DICTIONARY
  5
19
102
{ACAD_REACTORS
330
C
102
}
330
C
100
AcDbDictionary
281
     1
  0
ACDBDICTIONARYWDFLT
  5
E
102
{ACAD_REACTORS
330
C
102
}
330
C
100
AcDbDictionary
281
     1
  3
Normal
350
F
100
AcDbDictionaryWithDefault
340
F
  0
DICTIONARY
  5
B6
102
{ACAD_REACTORS
330
C
102
}
330
C
100
AcDbDictionary
281
     1
  3
A0
350
B7
  3
A1
350
B8
  3
A2
350
B9
  3
A3
350
BA
  3
A4
350
BB
  3
A5
350
BC
  3
A6
350
BD
  3
A7
350
BE
  3
A8
350
BF
  3
A9
350
C0
  3
B0
350
C1
  3
B1
350
C2
  3
B2
350
C3
  3
B3
350
C4
  3
B4
350
C5
  3
B5
350
C6
  3
B6
350
C7
  3
B7
350
C8
  3
B8
350
C9
  3
B9
350
CA
  3
C0
350
CB
  3
C1
350
CC
  3
C2
350
CD
  3
C3
350
CE
  3
C4
350
CF
  3
C5
350
D0
  3
C6
350
D1
  3
C7
350
D2
  3
C8
350
D3
  3
C9
350
D4
  3
D0
350
D5
  3
D1
350
D6
  3
D2
350
D7
  0
DICTIONARY
  5
123
102
{ACAD_REACTORS
330
C
102
}
330
C
100
AcDbDictionary
281
     1
  0
DICTIONARY
  5
66
102
{ACAD_REACTORS
330
C
102
}
330
C
100
AcDbDictionary
281
     1
  3
DIMASSOC
350
67
  3
HIDETEXT
350
6B
  0
DICTIONARY
  5
E1
102
{ACAD_REACTORS
330
C
102
}
330
C
100
AcDbDictionary
281
     1
  0
XRECORD
  5
26D
102
{ACAD_REACTORS
330
C
102
}
330
C
100
AcDbXrecord
280
     1
  1
DWGPROPS COOKIE
  2

  3

  4

  6

  7

  8
Bryan
  9

300
=
301
=
302
=
303
=
304
=
305
=
306
=
307
=
308
=
309
=
 40
0.0
 41
2452643.063384271
 42
2458128.9629539
  1

 90
        0
  0
DICTIONARY
  5
1DB
102
{ACAD_REACTORS
330
1DA
102
}
330
1DA
100
AcDbDictionary
281
     1
  0
LAYOUT
  5
22
102
{ACAD_REACTORS
330
1A
102
}
330
1A
100
AcDbPlotSettings
  1

  2
none_device
  4
ANSI_A_(8.50_x_11.00_Inches)
  6

 40
6.35
 41
19.05
 42
6.35
 43
19.05
 44
215.9
 45
279.4
 46
11.11250000000003
 47
0.0000000000000142
 48
0.0
 49
0.0
140
0.0
141
0.0
142
1.0
143
1.263157894736842
 70
 11444
 72
     0
 73
     1
 74
     1
  7
monochrome.ctb
 75
     0
147
0.7916666666666665
148
-702.8076765758875
149
-496.2830551296954
100
AcDbLayout
  1
Model
 70
     1
 71
     0
 10
0.0
 20
0.0
 11
12.0
 21
9.0
 12
0.0
 22
0.0
 32
0.0
 14
13.89830828477636
 24
10.50747105563546
 34
0.0
 15
240.8983082847799
 25
232.5074710556354
 35
0.0
146
0.0
 13
0.0
 23
0.0
 33
0.0
 16
1.0
 26
0.0
 36
0.0
 17
0.0
 27
1.0
 37
0.0
 76
     0
330
1F
331
94
  0
LAYOUT
  5
59
102
{ACAD_REACTORS
330
1A
102
}
330
1A
100
AcDbPlotSettings
  1

  2
None
  4

  6

 40
0.0
 41
0.0
 42
0.0
 43
0.0
 44
0.0
 45
0.0
 46
0.0
 47
0.0
 48
0.0
 49
0.0
140
0.0
141
0.0
142
1.0
143
1.0
 70
   688
 72
     0
 73
     0
 74
     5
  7

 75
    16
147
1.0
148
0.0
149
0.0
100
AcDbLayout
  1
Sheet1
 70
     1
 71
     1
 10
0.0
 20
0.0
 11
12.0
 21
9.0
 12
0.0
 22
0.0
 32
0.0
 14
0.0
 24
0.0
 34
0.0
 15
0.0
 25
0.0
 35
0.0
146
0.0
 13
0.0
 23
0.0
 33
0.0
 16
1.0
 26
0.0
 36
0.0
 17
0.0
 27
1.0
 37
0.0
 76
     0
330
58
  0
LAYOUT
  5
5E
102
{ACAD_REACTORS
330
1A
102
}
330
1A
100
AcDbPlotSettings
  1

  2
None
  4

  6

 40
0.0
 41
0.0
 42
0.0
 43
0.0
 44
0.0
 45
0.0
 46
0.0
 47
0.0
 48
0.0
 49
0.0
140
0.0
141
0.0
142
1.0
143
1.0
 70
   688
 72
     0
 73
     0
 74
     5
  7

 75
    16
147
1.0
148
0.0
149
0.0
100
AcDbLayout
  1
Sheet2
 70
     1
 71
     2
 10
0.0
 20
0.0
 11
12.0
 21
9.0
 12
0.0
 22
0.0
 32
0.0
 14
0.0
 24
0.0
 34
0.0
 15
0.0
 25
0.0
 35
0.0
146
0.0
 13
0.0
 23
0.0
 33
0.0
 16
1.0
 26
0.0
 36
0.0
 17
0.0
 27
1.0
 37
0.0
 76
     0
330
5D
  0
MLINESTYLE
  5
18
102
{ACAD_REACTORS
330
17
102
}
330
17
100
AcDbMlineStyle
  2
STANDARD
 70
     0
  3

 62
   256
 51
90.0
 52
90.0
 71
     2
 49
0.5
 62
   256
  6
BYLAYER
 49
-0.5
 62
   256
  6
BYLAYER
  0
ACDBPLACEHOLDER
  5
F
102
{ACAD_REACTORS
330
E
102
}
330
E
  0
SCALE
  5
B7
102
{ACAD_REACTORS
330
B6
102
}
330
B6
100
AcDbScale
 70
     0
300
1:1
140
1.0
141
1.0
290
     1
  0
SCALE
  5
B8
102
{ACAD_REACTORS
330
B6
102
}
330
B6
100
AcDbScale
 70
     0
300
1:2
140
1.0
141
2.0
290
     0
  0
SCALE
  5
B9
102
{ACAD_REACTORS
330
B6
102
}
330
B6
100
AcDbScale
 70
     0
300
1:4
140
1.0
141
4.0
290
     0
  0
SCALE
  5
BA
102
{ACAD_REACTORS
330
B6
102
}
330
B6
100
AcDbScale
 70
     0
300
1:5
140
1.0
141
5.0
290
     0
  0
SCALE
  5
BB
102
{ACAD_REACTORS
330
B6
102
}
330
B6
100
AcDbScale
 70
     0
300
1:8
140
1.0
141
8.0
290
     0
  0
SCALE
  5
BC
102
{ACAD_REACTORS
330
B6
102
}
330
B6
100
AcDbScale
 70
     0
300
1:10
140
1.0
141
10.0
290
     0
  0
SCALE
  5
BD
102
{ACAD_REACTORS
330
B6
102
}
330
B6
100
AcDbScale
 70
     0
300
1:16
140
1.0
141
16.0
290
     0
  0
SCALE
  5
BE
102
{ACAD_REACTORS
330
B6
102
}
330
B6
100
AcDbScale
 70
     0
300
1:20
140
1.0
141
20.0
290
     0
  0
SCALE
  5
BF
102
{ACAD_REACTORS
330
B6
102
}
330
B6
100
AcDbScale
 70
     0
300
1:30
140
1.0
141
30.0
290
     0
  0
SCALE
  5
C0
102
{ACAD_REACTORS
330
B6
102
}
330
B6
100
AcDbScale
 70
     0
300
1:40
140
1.0
141
40.0
290
     0
  0
SCALE
  5
C1
102
{ACAD_REACTORS
330
B6
102
}
330
B6
100
AcDbScale
 70
     0
300
1:50
140
1.0
141
50.0
290
     0
  0
SCALE
  5
C2
102
{ACAD_REACTORS
330
B6
102
}
330
B6
100
AcDbScale
 70
     0
300
1:100
140
1.0
141
100.0
290
     0
  0
SCALE
  5
C3
102
{ACAD_REACTORS
330
B6
102
}
330
B6
100
AcDbScale
 70
     0
300
2:1
140
2.0
141
1.0
290
     0
  0
SCALE
  5
C4
102
{ACAD_REACTORS
330
B6
102
}
330
B6
100
AcDbScale
 70
     0
300
4:1
140
4.0
141
1.0
290
     0
  0
SCALE
  5
C5
102
{ACAD_REACTORS
330
B6
102
}
330
B6
100
AcDbScale
 70
     0
300
8:1
140
8.0
141
1.0
290
     0
  0
SCALE
  5
C6
102
{ACAD_REACTORS
330
B6
102
}
330
B6
100
AcDbScale
 70
     0
300
10:1
140
10.0
141
1.0
290
     0
  0
SCALE
  5
C7
102
{ACAD_REACTORS
330
B6
102
}
330
B6
100
AcDbScale
 70
     0
300
100:1
140
100.0
141
1.0
290
     0
  0
SCALE
  5
C8
102
{ACAD_REACTORS
330
B6
102
}
330
B6
100
AcDbScale
 70
     0
300
1/128" = 1'-0"
140
0.0078125
141
12.0
290
     0
  0
SCALE
  5
C9
102
{ACAD_REACTORS
330
B6
102
}
330
B6
100
AcDbScale
 70
     0
300
1/64" = 1'-0"
140
0.015625
141
12.0
290
     0
  0
SCALE
  5
CA
102
{ACAD_REACTORS
330
B6
102
}
330
B6
100
AcDbScale
 70
     0
300
1/32" = 1'-0"
140
0.03125
141
12.0
290
     0
  0
SCALE
  5
CB
102
{ACAD_REACTORS
330
B6
102
}
330
B6
100
AcDbScale
 70
     0
300
1/16" = 1'-0"
140
0.0625
141
12.0
290
     0
  0
SCALE
  5
CC
102
{ACAD_REACTORS
330
B6
102
}
330
B6
100
AcDbScale
 70
     0
300
3/32" = 1'-0"
140
0.09375
141
12.0
290
     0
  0
SCALE
  5
CD
102
{ACAD_REACTORS
330
B6
102
}
330
B6
100
AcDbScale
 70
     0
300
1/8" = 1'-0"
140
0.125
141
12.0
290
     0
  0
SCALE
  5
CE
102
{ACAD_REACTORS
330
B6
102
}
330
B6
100
AcDbScale
 70
     0
300
3/16" = 1'-0"
140
0.1875
141
12.0
290
     0
  0
SCALE
  5
CF
102
{ACAD_REACTORS
330
B6
102
}
330
B6
100
AcDbScale
 70
     0
300
1/4" = 1'-0"
140
0.25
141
12.0
290
     0
  0
SCALE
  5
D0
102
{ACAD_REACTORS
330
B6
102
}
330
B6
100
AcDbScale
 70
     0
300
3/8" = 1'-0"
140
0.375
141
12.0
290
     0
  0
SCALE
  5
D1
102
{ACAD_REACTORS
330
B6
102
}
330
B6
100
AcDbScale
 70
     0
300
1/2" = 1'-0"
140
0.5
141
12.0
290
     0
  0
SCALE
  5
D2
102
{ACAD_REACTORS
330
B6
102
}
330
B6
100
AcDbScale
 70
     0
300
3/4" = 1'-0"
140
0.75
141
12.0
290
     0
  0
SCALE
  5
D3
102
{ACAD_REACTORS
330
B6
102
}
330
B6
100
AcDbScale
 70
     0
300
1" = 1'-0"
140
1.0
141
12.0
290
     0
  0
SCALE
  5
D4
102
{ACAD_REACTORS
330
B6
102
}
330
B6
100
AcDbScale
 70
     0
300
1-1/2" = 1'-0"
140
1.5
141
12.0
290
     0
  0
SCALE
  5
D5
102
{ACAD_REACTORS
330
B6
102
}
330
B6
100
AcDbScale
 70
     0
300
3" = 1'-0"
140
3.0
141
12.0
290
     0
  0
SCALE
  5
D6
102
{ACAD_REACTORS
330
B6
102
}
330
B6
100
AcDbScale
 70
     0
300
6" = 1'-0"
140
6.0
141
12.0
290
     0
  0
SCALE
  5
D7
102
{ACAD_REACTORS
330
B6
102
}
330
B6
100
AcDbScale
 70
     0
300
1'-0" = 1'-0"
140
12.0
141
12.0
290
     0
  0
DICTIONARYVAR
  5
67
102
{ACAD_REACTORS
330
66
102
}
330
66
100
DictionaryVariables
280
     0
  1
2
  0
DICTIONARYVAR
  5
6B
102
{ACAD_REACTORS
330
66
102
}
330
66
100
DictionaryVariables
280
     0
  1
1
  0
ENDSEC
  0
EOF
